G04 #@! TF.GenerationSoftware,KiCad,Pcbnew,(5.1.6)-1*
G04 #@! TF.CreationDate,2020-06-22T09:20:00-04:00*
G04 #@! TF.ProjectId,alarmbuddy,616c6172-6d62-4756-9464-792e6b696361,rev?*
G04 #@! TF.SameCoordinates,Original*
G04 #@! TF.FileFunction,Legend,Top*
G04 #@! TF.FilePolarity,Positive*
%FSLAX46Y46*%
G04 Gerber Fmt 4.6, Leading zero omitted, Abs format (unit mm)*
G04 Created by KiCad (PCBNEW (5.1.6)-1) date 2020-06-22 09:20:00*
%MOMM*%
%LPD*%
G01*
G04 APERTURE LIST*
%ADD10C,0.300000*%
%ADD11C,0.150000*%
%ADD12C,0.125000*%
%ADD13C,0.120000*%
G04 APERTURE END LIST*
D10*
X38000000Y-35903571D02*
X38000000Y-35117857D01*
X37928571Y-34975000D01*
X37785714Y-34903571D01*
X37500000Y-34903571D01*
X37357142Y-34975000D01*
X38000000Y-35832142D02*
X37857142Y-35903571D01*
X37500000Y-35903571D01*
X37357142Y-35832142D01*
X37285714Y-35689285D01*
X37285714Y-35546428D01*
X37357142Y-35403571D01*
X37500000Y-35332142D01*
X37857142Y-35332142D01*
X38000000Y-35260714D01*
X38928571Y-35903571D02*
X38785714Y-35832142D01*
X38714285Y-35689285D01*
X38714285Y-34403571D01*
X40142857Y-35903571D02*
X40142857Y-35117857D01*
X40071428Y-34975000D01*
X39928571Y-34903571D01*
X39642857Y-34903571D01*
X39500000Y-34975000D01*
X40142857Y-35832142D02*
X40000000Y-35903571D01*
X39642857Y-35903571D01*
X39500000Y-35832142D01*
X39428571Y-35689285D01*
X39428571Y-35546428D01*
X39500000Y-35403571D01*
X39642857Y-35332142D01*
X40000000Y-35332142D01*
X40142857Y-35260714D01*
X40857142Y-35903571D02*
X40857142Y-34903571D01*
X40857142Y-35189285D02*
X40928571Y-35046428D01*
X41000000Y-34975000D01*
X41142857Y-34903571D01*
X41285714Y-34903571D01*
X41785714Y-35903571D02*
X41785714Y-34903571D01*
X41785714Y-35046428D02*
X41857142Y-34975000D01*
X42000000Y-34903571D01*
X42214285Y-34903571D01*
X42357142Y-34975000D01*
X42428571Y-35117857D01*
X42428571Y-35903571D01*
X42428571Y-35117857D02*
X42500000Y-34975000D01*
X42642857Y-34903571D01*
X42857142Y-34903571D01*
X43000000Y-34975000D01*
X43071428Y-35117857D01*
X43071428Y-35903571D01*
X43785714Y-35903571D02*
X43785714Y-34403571D01*
X43785714Y-34975000D02*
X43928571Y-34903571D01*
X44214285Y-34903571D01*
X44357142Y-34975000D01*
X44428571Y-35046428D01*
X44500000Y-35189285D01*
X44500000Y-35617857D01*
X44428571Y-35760714D01*
X44357142Y-35832142D01*
X44214285Y-35903571D01*
X43928571Y-35903571D01*
X43785714Y-35832142D01*
X45785714Y-34903571D02*
X45785714Y-35903571D01*
X45142857Y-34903571D02*
X45142857Y-35689285D01*
X45214285Y-35832142D01*
X45357142Y-35903571D01*
X45571428Y-35903571D01*
X45714285Y-35832142D01*
X45785714Y-35760714D01*
X47142857Y-35903571D02*
X47142857Y-34403571D01*
X47142857Y-35832142D02*
X47000000Y-35903571D01*
X46714285Y-35903571D01*
X46571428Y-35832142D01*
X46500000Y-35760714D01*
X46428571Y-35617857D01*
X46428571Y-35189285D01*
X46500000Y-35046428D01*
X46571428Y-34975000D01*
X46714285Y-34903571D01*
X47000000Y-34903571D01*
X47142857Y-34975000D01*
X48500000Y-35903571D02*
X48500000Y-34403571D01*
X48500000Y-35832142D02*
X48357142Y-35903571D01*
X48071428Y-35903571D01*
X47928571Y-35832142D01*
X47857142Y-35760714D01*
X47785714Y-35617857D01*
X47785714Y-35189285D01*
X47857142Y-35046428D01*
X47928571Y-34975000D01*
X48071428Y-34903571D01*
X48357142Y-34903571D01*
X48500000Y-34975000D01*
X49071428Y-34903571D02*
X49428571Y-35903571D01*
X49785714Y-34903571D02*
X49428571Y-35903571D01*
X49285714Y-36260714D01*
X49214285Y-36332142D01*
X49071428Y-36403571D01*
X42428571Y-37453571D02*
X42785714Y-38453571D01*
X43142857Y-37453571D01*
X43642857Y-37096428D02*
X43714285Y-37025000D01*
X43857142Y-36953571D01*
X44214285Y-36953571D01*
X44357142Y-37025000D01*
X44428571Y-37096428D01*
X44500000Y-37239285D01*
X44500000Y-37382142D01*
X44428571Y-37596428D01*
X43571428Y-38453571D01*
X44500000Y-38453571D01*
D11*
X95542857Y-64228571D02*
X95542857Y-64914285D01*
X95542857Y-64571428D02*
X94342857Y-64571428D01*
X94514285Y-64685714D01*
X94628571Y-64800000D01*
X94685714Y-64914285D01*
X94457142Y-63771428D02*
X94400000Y-63714285D01*
X94342857Y-63600000D01*
X94342857Y-63314285D01*
X94400000Y-63200000D01*
X94457142Y-63142857D01*
X94571428Y-63085714D01*
X94685714Y-63085714D01*
X94857142Y-63142857D01*
X95542857Y-63828571D01*
X95542857Y-63085714D01*
X95542857Y-69228571D02*
X95542857Y-69914285D01*
X95542857Y-69571428D02*
X94342857Y-69571428D01*
X94514285Y-69685714D01*
X94628571Y-69800000D01*
X94685714Y-69914285D01*
X95542857Y-68085714D02*
X95542857Y-68771428D01*
X95542857Y-68428571D02*
X94342857Y-68428571D01*
X94514285Y-68542857D01*
X94628571Y-68657142D01*
X94685714Y-68771428D01*
X95542857Y-74228571D02*
X95542857Y-74914285D01*
X95542857Y-74571428D02*
X94342857Y-74571428D01*
X94514285Y-74685714D01*
X94628571Y-74800000D01*
X94685714Y-74914285D01*
X94342857Y-73485714D02*
X94342857Y-73371428D01*
X94400000Y-73257142D01*
X94457142Y-73200000D01*
X94571428Y-73142857D01*
X94800000Y-73085714D01*
X95085714Y-73085714D01*
X95314285Y-73142857D01*
X95428571Y-73200000D01*
X95485714Y-73257142D01*
X95542857Y-73371428D01*
X95542857Y-73485714D01*
X95485714Y-73600000D01*
X95428571Y-73657142D01*
X95314285Y-73714285D01*
X95085714Y-73771428D01*
X94800000Y-73771428D01*
X94571428Y-73714285D01*
X94457142Y-73657142D01*
X94400000Y-73600000D01*
X94342857Y-73485714D01*
X92771428Y-78542857D02*
X93000000Y-78542857D01*
X93114285Y-78485714D01*
X93171428Y-78428571D01*
X93285714Y-78257142D01*
X93342857Y-78028571D01*
X93342857Y-77571428D01*
X93285714Y-77457142D01*
X93228571Y-77400000D01*
X93114285Y-77342857D01*
X92885714Y-77342857D01*
X92771428Y-77400000D01*
X92714285Y-77457142D01*
X92657142Y-77571428D01*
X92657142Y-77857142D01*
X92714285Y-77971428D01*
X92771428Y-78028571D01*
X92885714Y-78085714D01*
X93114285Y-78085714D01*
X93228571Y-78028571D01*
X93285714Y-77971428D01*
X93342857Y-77857142D01*
X87885714Y-77857142D02*
X87771428Y-77800000D01*
X87714285Y-77742857D01*
X87657142Y-77628571D01*
X87657142Y-77571428D01*
X87714285Y-77457142D01*
X87771428Y-77400000D01*
X87885714Y-77342857D01*
X88114285Y-77342857D01*
X88228571Y-77400000D01*
X88285714Y-77457142D01*
X88342857Y-77571428D01*
X88342857Y-77628571D01*
X88285714Y-77742857D01*
X88228571Y-77800000D01*
X88114285Y-77857142D01*
X87885714Y-77857142D01*
X87771428Y-77914285D01*
X87714285Y-77971428D01*
X87657142Y-78085714D01*
X87657142Y-78314285D01*
X87714285Y-78428571D01*
X87771428Y-78485714D01*
X87885714Y-78542857D01*
X88114285Y-78542857D01*
X88228571Y-78485714D01*
X88285714Y-78428571D01*
X88342857Y-78314285D01*
X88342857Y-78085714D01*
X88285714Y-77971428D01*
X88228571Y-77914285D01*
X88114285Y-77857142D01*
X82600000Y-77342857D02*
X83400000Y-77342857D01*
X82885714Y-78542857D01*
X78228571Y-77342857D02*
X78000000Y-77342857D01*
X77885714Y-77400000D01*
X77828571Y-77457142D01*
X77714285Y-77628571D01*
X77657142Y-77857142D01*
X77657142Y-78314285D01*
X77714285Y-78428571D01*
X77771428Y-78485714D01*
X77885714Y-78542857D01*
X78114285Y-78542857D01*
X78228571Y-78485714D01*
X78285714Y-78428571D01*
X78342857Y-78314285D01*
X78342857Y-78028571D01*
X78285714Y-77914285D01*
X78228571Y-77857142D01*
X78114285Y-77800000D01*
X77885714Y-77800000D01*
X77771428Y-77857142D01*
X77714285Y-77914285D01*
X77657142Y-78028571D01*
X73285714Y-77342857D02*
X72714285Y-77342857D01*
X72657142Y-77914285D01*
X72714285Y-77857142D01*
X72828571Y-77800000D01*
X73114285Y-77800000D01*
X73228571Y-77857142D01*
X73285714Y-77914285D01*
X73342857Y-78028571D01*
X73342857Y-78314285D01*
X73285714Y-78428571D01*
X73228571Y-78485714D01*
X73114285Y-78542857D01*
X72828571Y-78542857D01*
X72714285Y-78485714D01*
X72657142Y-78428571D01*
X68228571Y-77742857D02*
X68228571Y-78542857D01*
X67942857Y-77285714D02*
X67657142Y-78142857D01*
X68400000Y-78142857D01*
X62600000Y-77342857D02*
X63342857Y-77342857D01*
X62942857Y-77800000D01*
X63114285Y-77800000D01*
X63228571Y-77857142D01*
X63285714Y-77914285D01*
X63342857Y-78028571D01*
X63342857Y-78314285D01*
X63285714Y-78428571D01*
X63228571Y-78485714D01*
X63114285Y-78542857D01*
X62771428Y-78542857D01*
X62657142Y-78485714D01*
X62600000Y-78428571D01*
X57657142Y-77457142D02*
X57714285Y-77400000D01*
X57828571Y-77342857D01*
X58114285Y-77342857D01*
X58228571Y-77400000D01*
X58285714Y-77457142D01*
X58342857Y-77571428D01*
X58342857Y-77685714D01*
X58285714Y-77857142D01*
X57600000Y-78542857D01*
X58342857Y-78542857D01*
X53342857Y-78542857D02*
X52657142Y-78542857D01*
X53000000Y-78542857D02*
X53000000Y-77342857D01*
X52885714Y-77514285D01*
X52771428Y-77628571D01*
X52657142Y-77685714D01*
D12*
X74804761Y-46061904D02*
X74804761Y-46633333D01*
X74766666Y-46747619D01*
X74690476Y-46823809D01*
X74576190Y-46861904D01*
X74500000Y-46861904D01*
X75566666Y-46861904D02*
X75185714Y-46861904D01*
X75185714Y-46061904D01*
X76290476Y-46785714D02*
X76252380Y-46823809D01*
X76138095Y-46861904D01*
X76061904Y-46861904D01*
X75947619Y-46823809D01*
X75871428Y-46747619D01*
X75833333Y-46671428D01*
X75795238Y-46519047D01*
X75795238Y-46404761D01*
X75833333Y-46252380D01*
X75871428Y-46176190D01*
X75947619Y-46100000D01*
X76061904Y-46061904D01*
X76138095Y-46061904D01*
X76252380Y-46100000D01*
X76290476Y-46138095D01*
X76861904Y-46061904D02*
X76861904Y-46633333D01*
X76823809Y-46747619D01*
X76747619Y-46823809D01*
X76633333Y-46861904D01*
X76557142Y-46861904D01*
X77623809Y-46861904D02*
X77242857Y-46861904D01*
X77242857Y-46061904D01*
X78347619Y-46785714D02*
X78309523Y-46823809D01*
X78195238Y-46861904D01*
X78119047Y-46861904D01*
X78004761Y-46823809D01*
X77928571Y-46747619D01*
X77890476Y-46671428D01*
X77852380Y-46519047D01*
X77852380Y-46404761D01*
X77890476Y-46252380D01*
X77928571Y-46176190D01*
X78004761Y-46100000D01*
X78119047Y-46061904D01*
X78195238Y-46061904D01*
X78309523Y-46100000D01*
X78347619Y-46138095D01*
X78919047Y-46061904D02*
X78919047Y-46633333D01*
X78880952Y-46747619D01*
X78804761Y-46823809D01*
X78690476Y-46861904D01*
X78614285Y-46861904D01*
X79680952Y-46861904D02*
X79300000Y-46861904D01*
X79300000Y-46061904D01*
X80404761Y-46785714D02*
X80366666Y-46823809D01*
X80252380Y-46861904D01*
X80176190Y-46861904D01*
X80061904Y-46823809D01*
X79985714Y-46747619D01*
X79947619Y-46671428D01*
X79909523Y-46519047D01*
X79909523Y-46404761D01*
X79947619Y-46252380D01*
X79985714Y-46176190D01*
X80061904Y-46100000D01*
X80176190Y-46061904D01*
X80252380Y-46061904D01*
X80366666Y-46100000D01*
X80404761Y-46138095D01*
X80976190Y-46061904D02*
X80976190Y-46633333D01*
X80938095Y-46747619D01*
X80861904Y-46823809D01*
X80747619Y-46861904D01*
X80671428Y-46861904D01*
X81738095Y-46861904D02*
X81357142Y-46861904D01*
X81357142Y-46061904D01*
X82461904Y-46785714D02*
X82423809Y-46823809D01*
X82309523Y-46861904D01*
X82233333Y-46861904D01*
X82119047Y-46823809D01*
X82042857Y-46747619D01*
X82004761Y-46671428D01*
X81966666Y-46519047D01*
X81966666Y-46404761D01*
X82004761Y-46252380D01*
X82042857Y-46176190D01*
X82119047Y-46100000D01*
X82233333Y-46061904D01*
X82309523Y-46061904D01*
X82423809Y-46100000D01*
X82461904Y-46138095D01*
D13*
X48160000Y-46750000D02*
X48160000Y-53371000D01*
X37920000Y-46750000D02*
X37920000Y-53371000D01*
X37920000Y-53371000D02*
X48160000Y-53371000D01*
X37920000Y-46750000D02*
X48160000Y-46750000D01*
X26500000Y-63000000D02*
X26500000Y-42000000D01*
X26500000Y-42000000D02*
X34500000Y-42000000D01*
X34500000Y-42000000D02*
X34500000Y-63000000D01*
X34500000Y-63000000D02*
X26500000Y-63000000D01*
X47910000Y-57897936D02*
X47910000Y-59102064D01*
X46090000Y-57897936D02*
X46090000Y-59102064D01*
X41410000Y-57897936D02*
X41410000Y-59102064D01*
X39590000Y-57897936D02*
X39590000Y-59102064D01*
X87370000Y-68250000D02*
G75*
G03*
X87370000Y-68250000I-6370000J0D01*
G01*
X71370000Y-68250000D02*
G75*
G03*
X71370000Y-68250000I-6370000J0D01*
G01*
X53700000Y-37000000D02*
G75*
G03*
X53700000Y-37000000I-1200000J0D01*
G01*
X48910000Y-75247936D02*
X48910000Y-76452064D01*
X47090000Y-75247936D02*
X47090000Y-76452064D01*
X103180000Y-74000000D02*
G75*
G03*
X103180000Y-74000000I-2180000J0D01*
G01*
X103180000Y-69000000D02*
G75*
G03*
X103180000Y-69000000I-2180000J0D01*
G01*
X103180000Y-64000000D02*
G75*
G03*
X103180000Y-64000000I-2180000J0D01*
G01*
X105600000Y-76560000D02*
X105600000Y-61440000D01*
X104500000Y-76560000D02*
X104500000Y-61440000D01*
X96940000Y-76560000D02*
X96940000Y-61440000D01*
X106060000Y-76560000D02*
X106060000Y-61440000D01*
X96940000Y-76560000D02*
X106060000Y-76560000D01*
X96940000Y-61440000D02*
X106060000Y-61440000D01*
X99612000Y-72346000D02*
X99719000Y-72453000D01*
X102547000Y-75282000D02*
X102654000Y-75388000D01*
X99346000Y-72612000D02*
X99453000Y-72719000D01*
X102281000Y-75548000D02*
X102388000Y-75654000D01*
X99612000Y-67346000D02*
X100008000Y-67741000D01*
X102274000Y-70007000D02*
X102654000Y-70387000D01*
X99346000Y-67612000D02*
X99726000Y-67992000D01*
X101992000Y-70258000D02*
X102388000Y-70653000D01*
X99612000Y-62346000D02*
X100008000Y-62741000D01*
X102274000Y-65007000D02*
X102654000Y-65387000D01*
X99346000Y-62612000D02*
X99726000Y-62992000D01*
X101992000Y-65258000D02*
X102388000Y-65653000D01*
X105660000Y-76800000D02*
X106300000Y-76800000D01*
X106300000Y-76800000D02*
X106300000Y-76400000D01*
X85180000Y-84000000D02*
G75*
G03*
X85180000Y-84000000I-2180000J0D01*
G01*
X90180000Y-84000000D02*
G75*
G03*
X90180000Y-84000000I-2180000J0D01*
G01*
X95180000Y-84000000D02*
G75*
G03*
X95180000Y-84000000I-2180000J0D01*
G01*
X80440000Y-88600000D02*
X95560000Y-88600000D01*
X80440000Y-87500000D02*
X95560000Y-87500000D01*
X80440000Y-79940000D02*
X95560000Y-79940000D01*
X80440000Y-89060000D02*
X95560000Y-89060000D01*
X80440000Y-79940000D02*
X80440000Y-89060000D01*
X95560000Y-79940000D02*
X95560000Y-89060000D01*
X84654000Y-82612000D02*
X84547000Y-82719000D01*
X81718000Y-85547000D02*
X81612000Y-85654000D01*
X84388000Y-82346000D02*
X84281000Y-82453000D01*
X81452000Y-85281000D02*
X81346000Y-85388000D01*
X89654000Y-82612000D02*
X89259000Y-83008000D01*
X86993000Y-85274000D02*
X86613000Y-85654000D01*
X89388000Y-82346000D02*
X89008000Y-82726000D01*
X86742000Y-84992000D02*
X86347000Y-85388000D01*
X94654000Y-82612000D02*
X94259000Y-83008000D01*
X91993000Y-85274000D02*
X91613000Y-85654000D01*
X94388000Y-82346000D02*
X94008000Y-82726000D01*
X91742000Y-84992000D02*
X91347000Y-85388000D01*
X80200000Y-88660000D02*
X80200000Y-89300000D01*
X80200000Y-89300000D02*
X80600000Y-89300000D01*
X70180000Y-84000000D02*
G75*
G03*
X70180000Y-84000000I-2180000J0D01*
G01*
X75180000Y-84000000D02*
G75*
G03*
X75180000Y-84000000I-2180000J0D01*
G01*
X80180000Y-84000000D02*
G75*
G03*
X80180000Y-84000000I-2180000J0D01*
G01*
X65440000Y-88600000D02*
X80560000Y-88600000D01*
X65440000Y-87500000D02*
X80560000Y-87500000D01*
X65440000Y-79940000D02*
X80560000Y-79940000D01*
X65440000Y-89060000D02*
X80560000Y-89060000D01*
X65440000Y-79940000D02*
X65440000Y-89060000D01*
X80560000Y-79940000D02*
X80560000Y-89060000D01*
X69654000Y-82612000D02*
X69547000Y-82719000D01*
X66718000Y-85547000D02*
X66612000Y-85654000D01*
X69388000Y-82346000D02*
X69281000Y-82453000D01*
X66452000Y-85281000D02*
X66346000Y-85388000D01*
X74654000Y-82612000D02*
X74259000Y-83008000D01*
X71993000Y-85274000D02*
X71613000Y-85654000D01*
X74388000Y-82346000D02*
X74008000Y-82726000D01*
X71742000Y-84992000D02*
X71347000Y-85388000D01*
X79654000Y-82612000D02*
X79259000Y-83008000D01*
X76993000Y-85274000D02*
X76613000Y-85654000D01*
X79388000Y-82346000D02*
X79008000Y-82726000D01*
X76742000Y-84992000D02*
X76347000Y-85388000D01*
X65200000Y-88660000D02*
X65200000Y-89300000D01*
X65200000Y-89300000D02*
X65600000Y-89300000D01*
X55180000Y-84000000D02*
G75*
G03*
X55180000Y-84000000I-2180000J0D01*
G01*
X60180000Y-84000000D02*
G75*
G03*
X60180000Y-84000000I-2180000J0D01*
G01*
X65180000Y-84000000D02*
G75*
G03*
X65180000Y-84000000I-2180000J0D01*
G01*
X50440000Y-88600000D02*
X65560000Y-88600000D01*
X50440000Y-87500000D02*
X65560000Y-87500000D01*
X50440000Y-79940000D02*
X65560000Y-79940000D01*
X50440000Y-89060000D02*
X65560000Y-89060000D01*
X50440000Y-79940000D02*
X50440000Y-89060000D01*
X65560000Y-79940000D02*
X65560000Y-89060000D01*
X54654000Y-82612000D02*
X54547000Y-82719000D01*
X51718000Y-85547000D02*
X51612000Y-85654000D01*
X54388000Y-82346000D02*
X54281000Y-82453000D01*
X51452000Y-85281000D02*
X51346000Y-85388000D01*
X59654000Y-82612000D02*
X59259000Y-83008000D01*
X56993000Y-85274000D02*
X56613000Y-85654000D01*
X59388000Y-82346000D02*
X59008000Y-82726000D01*
X56742000Y-84992000D02*
X56347000Y-85388000D01*
X64654000Y-82612000D02*
X64259000Y-83008000D01*
X61993000Y-85274000D02*
X61613000Y-85654000D01*
X64388000Y-82346000D02*
X64008000Y-82726000D01*
X61742000Y-84992000D02*
X61347000Y-85388000D01*
X50200000Y-88660000D02*
X50200000Y-89300000D01*
X50200000Y-89300000D02*
X50600000Y-89300000D01*
X82897936Y-55340000D02*
X84102064Y-55340000D01*
X82897936Y-57160000D02*
X84102064Y-57160000D01*
X69880000Y-50495000D02*
X69880000Y-51275000D01*
X69880000Y-51275000D02*
X70880000Y-51275000D01*
X88120000Y-50495000D02*
X88120000Y-51275000D01*
X88120000Y-51275000D02*
X87120000Y-51275000D01*
X69880000Y-25530000D02*
X88120000Y-25530000D01*
X88120000Y-25530000D02*
X88120000Y-31950000D01*
X69880000Y-25530000D02*
X69880000Y-31950000D01*
X69880000Y-31950000D02*
X69500000Y-31950000D01*
X92590000Y-36452064D02*
X92590000Y-35247936D01*
X94410000Y-36452064D02*
X94410000Y-35247936D01*
X35200000Y-89300000D02*
X35600000Y-89300000D01*
X35200000Y-88660000D02*
X35200000Y-89300000D01*
X46742000Y-84992000D02*
X46347000Y-85388000D01*
X49388000Y-82346000D02*
X49008000Y-82726000D01*
X46993000Y-85274000D02*
X46613000Y-85654000D01*
X49654000Y-82612000D02*
X49259000Y-83008000D01*
X41742000Y-84992000D02*
X41347000Y-85388000D01*
X44388000Y-82346000D02*
X44008000Y-82726000D01*
X41993000Y-85274000D02*
X41613000Y-85654000D01*
X44654000Y-82612000D02*
X44259000Y-83008000D01*
X36452000Y-85281000D02*
X36346000Y-85388000D01*
X39388000Y-82346000D02*
X39281000Y-82453000D01*
X36718000Y-85547000D02*
X36612000Y-85654000D01*
X39654000Y-82612000D02*
X39547000Y-82719000D01*
X50560000Y-79940000D02*
X50560000Y-89060000D01*
X35440000Y-79940000D02*
X35440000Y-89060000D01*
X35440000Y-89060000D02*
X50560000Y-89060000D01*
X35440000Y-79940000D02*
X50560000Y-79940000D01*
X35440000Y-87500000D02*
X50560000Y-87500000D01*
X35440000Y-88600000D02*
X50560000Y-88600000D01*
X50180000Y-84000000D02*
G75*
G03*
X50180000Y-84000000I-2180000J0D01*
G01*
X45180000Y-84000000D02*
G75*
G03*
X45180000Y-84000000I-2180000J0D01*
G01*
X40180000Y-84000000D02*
G75*
G03*
X40180000Y-84000000I-2180000J0D01*
G01*
X96420000Y-41170000D02*
X97750000Y-41170000D01*
X96420000Y-42500000D02*
X96420000Y-41170000D01*
X96420000Y-43770000D02*
X99080000Y-43770000D01*
X99080000Y-43770000D02*
X99080000Y-56530000D01*
X96420000Y-43770000D02*
X96420000Y-56530000D01*
X96420000Y-56530000D02*
X99080000Y-56530000D01*
X32180000Y-68500000D02*
G75*
G03*
X32180000Y-68500000I-2180000J0D01*
G01*
X32180000Y-73500000D02*
G75*
G03*
X32180000Y-73500000I-2180000J0D01*
G01*
X25400000Y-65940000D02*
X25400000Y-76060000D01*
X26500000Y-65940000D02*
X26500000Y-76060000D01*
X34060000Y-65940000D02*
X34060000Y-76060000D01*
X24940000Y-65940000D02*
X24940000Y-76060000D01*
X34060000Y-65940000D02*
X24940000Y-65940000D01*
X34060000Y-76060000D02*
X24940000Y-76060000D01*
X31388000Y-70154000D02*
X31281000Y-70047000D01*
X28453000Y-67218000D02*
X28346000Y-67112000D01*
X31654000Y-69888000D02*
X31547000Y-69781000D01*
X28719000Y-66952000D02*
X28612000Y-66846000D01*
X31388000Y-75154000D02*
X30992000Y-74759000D01*
X28726000Y-72493000D02*
X28346000Y-72113000D01*
X31654000Y-74888000D02*
X31274000Y-74508000D01*
X29008000Y-72242000D02*
X28612000Y-71847000D01*
X25340000Y-65700000D02*
X24700000Y-65700000D01*
X24700000Y-65700000D02*
X24700000Y-66100000D01*
X38950000Y-73400000D02*
X38950000Y-73600000D01*
X38950000Y-73600000D02*
X44750000Y-73600000D01*
X38950000Y-68600000D02*
X38950000Y-68400000D01*
X38950000Y-68400000D02*
X43550000Y-68400000D01*
X43550000Y-68400000D02*
X43550000Y-68600000D01*
X38950000Y-72500000D02*
X38950000Y-69500000D01*
X43550000Y-69500000D02*
X43550000Y-72500000D01*
X63090000Y-36602064D02*
X63090000Y-35397936D01*
X64910000Y-36602064D02*
X64910000Y-35397936D01*
D11*
X42278095Y-47182380D02*
X42278095Y-47991904D01*
X42325714Y-48087142D01*
X42373333Y-48134761D01*
X42468571Y-48182380D01*
X42659047Y-48182380D01*
X42754285Y-48134761D01*
X42801904Y-48087142D01*
X42849523Y-47991904D01*
X42849523Y-47182380D01*
X43849523Y-48182380D02*
X43278095Y-48182380D01*
X43563809Y-48182380D02*
X43563809Y-47182380D01*
X43468571Y-47325238D01*
X43373333Y-47420476D01*
X43278095Y-47468095D01*
X30166666Y-46928571D02*
X29833333Y-46928571D01*
X29833333Y-47452380D02*
X29833333Y-46452380D01*
X30309523Y-46452380D01*
X31214285Y-47452380D02*
X30642857Y-47452380D01*
X30928571Y-47452380D02*
X30928571Y-46452380D01*
X30833333Y-46595238D01*
X30738095Y-46690476D01*
X30642857Y-46738095D01*
X49357142Y-58666666D02*
X49404761Y-58714285D01*
X49452380Y-58857142D01*
X49452380Y-58952380D01*
X49404761Y-59095238D01*
X49309523Y-59190476D01*
X49214285Y-59238095D01*
X49023809Y-59285714D01*
X48880952Y-59285714D01*
X48690476Y-59238095D01*
X48595238Y-59190476D01*
X48500000Y-59095238D01*
X48452380Y-58952380D01*
X48452380Y-58857142D01*
X48500000Y-58714285D01*
X48547619Y-58666666D01*
X48785714Y-57809523D02*
X49452380Y-57809523D01*
X48404761Y-58047619D02*
X49119047Y-58285714D01*
X49119047Y-57666666D01*
X38857142Y-58666666D02*
X38904761Y-58714285D01*
X38952380Y-58857142D01*
X38952380Y-58952380D01*
X38904761Y-59095238D01*
X38809523Y-59190476D01*
X38714285Y-59238095D01*
X38523809Y-59285714D01*
X38380952Y-59285714D01*
X38190476Y-59238095D01*
X38095238Y-59190476D01*
X38000000Y-59095238D01*
X37952380Y-58952380D01*
X37952380Y-58857142D01*
X38000000Y-58714285D01*
X38047619Y-58666666D01*
X37952380Y-58333333D02*
X37952380Y-57714285D01*
X38333333Y-58047619D01*
X38333333Y-57904761D01*
X38380952Y-57809523D01*
X38428571Y-57761904D01*
X38523809Y-57714285D01*
X38761904Y-57714285D01*
X38857142Y-57761904D01*
X38904761Y-57809523D01*
X38952380Y-57904761D01*
X38952380Y-58190476D01*
X38904761Y-58285714D01*
X38857142Y-58333333D01*
X80833333Y-61107142D02*
X80785714Y-61154761D01*
X80642857Y-61202380D01*
X80547619Y-61202380D01*
X80404761Y-61154761D01*
X80309523Y-61059523D01*
X80261904Y-60964285D01*
X80214285Y-60773809D01*
X80214285Y-60630952D01*
X80261904Y-60440476D01*
X80309523Y-60345238D01*
X80404761Y-60250000D01*
X80547619Y-60202380D01*
X80642857Y-60202380D01*
X80785714Y-60250000D01*
X80833333Y-60297619D01*
X81214285Y-60297619D02*
X81261904Y-60250000D01*
X81357142Y-60202380D01*
X81595238Y-60202380D01*
X81690476Y-60250000D01*
X81738095Y-60297619D01*
X81785714Y-60392857D01*
X81785714Y-60488095D01*
X81738095Y-60630952D01*
X81166666Y-61202380D01*
X81785714Y-61202380D01*
X64833333Y-61107142D02*
X64785714Y-61154761D01*
X64642857Y-61202380D01*
X64547619Y-61202380D01*
X64404761Y-61154761D01*
X64309523Y-61059523D01*
X64261904Y-60964285D01*
X64214285Y-60773809D01*
X64214285Y-60630952D01*
X64261904Y-60440476D01*
X64309523Y-60345238D01*
X64404761Y-60250000D01*
X64547619Y-60202380D01*
X64642857Y-60202380D01*
X64785714Y-60250000D01*
X64833333Y-60297619D01*
X65785714Y-61202380D02*
X65214285Y-61202380D01*
X65500000Y-61202380D02*
X65500000Y-60202380D01*
X65404761Y-60345238D01*
X65309523Y-60440476D01*
X65214285Y-60488095D01*
X51238095Y-34454380D02*
X51809523Y-34454380D01*
X51523809Y-35454380D02*
X51523809Y-34454380D01*
X52142857Y-35454380D02*
X52142857Y-34454380D01*
X52523809Y-34454380D01*
X52619047Y-34502000D01*
X52666666Y-34549619D01*
X52714285Y-34644857D01*
X52714285Y-34787714D01*
X52666666Y-34882952D01*
X52619047Y-34930571D01*
X52523809Y-34978190D01*
X52142857Y-34978190D01*
X53095238Y-34549619D02*
X53142857Y-34502000D01*
X53238095Y-34454380D01*
X53476190Y-34454380D01*
X53571428Y-34502000D01*
X53619047Y-34549619D01*
X53666666Y-34644857D01*
X53666666Y-34740095D01*
X53619047Y-34882952D01*
X53047619Y-35454380D01*
X53666666Y-35454380D01*
X46702380Y-76016666D02*
X46226190Y-76350000D01*
X46702380Y-76588095D02*
X45702380Y-76588095D01*
X45702380Y-76207142D01*
X45750000Y-76111904D01*
X45797619Y-76064285D01*
X45892857Y-76016666D01*
X46035714Y-76016666D01*
X46130952Y-76064285D01*
X46178571Y-76111904D01*
X46226190Y-76207142D01*
X46226190Y-76588095D01*
X46035714Y-75159523D02*
X46702380Y-75159523D01*
X45654761Y-75397619D02*
X46369047Y-75635714D01*
X46369047Y-75016666D01*
X97452380Y-69333333D02*
X98166666Y-69333333D01*
X98309523Y-69380952D01*
X98404761Y-69476190D01*
X98452380Y-69619047D01*
X98452380Y-69714285D01*
X97880952Y-68714285D02*
X97833333Y-68809523D01*
X97785714Y-68857142D01*
X97690476Y-68904761D01*
X97642857Y-68904761D01*
X97547619Y-68857142D01*
X97500000Y-68809523D01*
X97452380Y-68714285D01*
X97452380Y-68523809D01*
X97500000Y-68428571D01*
X97547619Y-68380952D01*
X97642857Y-68333333D01*
X97690476Y-68333333D01*
X97785714Y-68380952D01*
X97833333Y-68428571D01*
X97880952Y-68523809D01*
X97880952Y-68714285D01*
X97928571Y-68809523D01*
X97976190Y-68857142D01*
X98071428Y-68904761D01*
X98261904Y-68904761D01*
X98357142Y-68857142D01*
X98404761Y-68809523D01*
X98452380Y-68714285D01*
X98452380Y-68523809D01*
X98404761Y-68428571D01*
X98357142Y-68380952D01*
X98261904Y-68333333D01*
X98071428Y-68333333D01*
X97976190Y-68380952D01*
X97928571Y-68428571D01*
X97880952Y-68523809D01*
X87666666Y-80452380D02*
X87666666Y-81166666D01*
X87619047Y-81309523D01*
X87523809Y-81404761D01*
X87380952Y-81452380D01*
X87285714Y-81452380D01*
X88047619Y-80452380D02*
X88714285Y-80452380D01*
X88285714Y-81452380D01*
X72666666Y-80452380D02*
X72666666Y-81166666D01*
X72619047Y-81309523D01*
X72523809Y-81404761D01*
X72380952Y-81452380D01*
X72285714Y-81452380D01*
X73571428Y-80452380D02*
X73380952Y-80452380D01*
X73285714Y-80500000D01*
X73238095Y-80547619D01*
X73142857Y-80690476D01*
X73095238Y-80880952D01*
X73095238Y-81261904D01*
X73142857Y-81357142D01*
X73190476Y-81404761D01*
X73285714Y-81452380D01*
X73476190Y-81452380D01*
X73571428Y-81404761D01*
X73619047Y-81357142D01*
X73666666Y-81261904D01*
X73666666Y-81023809D01*
X73619047Y-80928571D01*
X73571428Y-80880952D01*
X73476190Y-80833333D01*
X73285714Y-80833333D01*
X73190476Y-80880952D01*
X73142857Y-80928571D01*
X73095238Y-81023809D01*
X57666666Y-80452380D02*
X57666666Y-81166666D01*
X57619047Y-81309523D01*
X57523809Y-81404761D01*
X57380952Y-81452380D01*
X57285714Y-81452380D01*
X58619047Y-80452380D02*
X58142857Y-80452380D01*
X58095238Y-80928571D01*
X58142857Y-80880952D01*
X58238095Y-80833333D01*
X58476190Y-80833333D01*
X58571428Y-80880952D01*
X58619047Y-80928571D01*
X58666666Y-81023809D01*
X58666666Y-81261904D01*
X58619047Y-81357142D01*
X58571428Y-81404761D01*
X58476190Y-81452380D01*
X58238095Y-81452380D01*
X58142857Y-81404761D01*
X58095238Y-81357142D01*
X83333333Y-54787142D02*
X83285714Y-54834761D01*
X83142857Y-54882380D01*
X83047619Y-54882380D01*
X82904761Y-54834761D01*
X82809523Y-54739523D01*
X82761904Y-54644285D01*
X82714285Y-54453809D01*
X82714285Y-54310952D01*
X82761904Y-54120476D01*
X82809523Y-54025238D01*
X82904761Y-53930000D01*
X83047619Y-53882380D01*
X83142857Y-53882380D01*
X83285714Y-53930000D01*
X83333333Y-53977619D01*
X83666666Y-53882380D02*
X84333333Y-53882380D01*
X83904761Y-54882380D01*
X67842380Y-50586904D02*
X68651904Y-50586904D01*
X68747142Y-50539285D01*
X68794761Y-50491666D01*
X68842380Y-50396428D01*
X68842380Y-50205952D01*
X68794761Y-50110714D01*
X68747142Y-50063095D01*
X68651904Y-50015476D01*
X67842380Y-50015476D01*
X67842380Y-49634523D02*
X67842380Y-49015476D01*
X68223333Y-49348809D01*
X68223333Y-49205952D01*
X68270952Y-49110714D01*
X68318571Y-49063095D01*
X68413809Y-49015476D01*
X68651904Y-49015476D01*
X68747142Y-49063095D01*
X68794761Y-49110714D01*
X68842380Y-49205952D01*
X68842380Y-49491666D01*
X68794761Y-49586904D01*
X68747142Y-49634523D01*
X92132380Y-36016666D02*
X91656190Y-36350000D01*
X92132380Y-36588095D02*
X91132380Y-36588095D01*
X91132380Y-36207142D01*
X91180000Y-36111904D01*
X91227619Y-36064285D01*
X91322857Y-36016666D01*
X91465714Y-36016666D01*
X91560952Y-36064285D01*
X91608571Y-36111904D01*
X91656190Y-36207142D01*
X91656190Y-36588095D01*
X91132380Y-35111904D02*
X91132380Y-35588095D01*
X91608571Y-35635714D01*
X91560952Y-35588095D01*
X91513333Y-35492857D01*
X91513333Y-35254761D01*
X91560952Y-35159523D01*
X91608571Y-35111904D01*
X91703809Y-35064285D01*
X91941904Y-35064285D01*
X92037142Y-35111904D01*
X92084761Y-35159523D01*
X92132380Y-35254761D01*
X92132380Y-35492857D01*
X92084761Y-35588095D01*
X92037142Y-35635714D01*
X42666666Y-80452380D02*
X42666666Y-81166666D01*
X42619047Y-81309523D01*
X42523809Y-81404761D01*
X42380952Y-81452380D01*
X42285714Y-81452380D01*
X43571428Y-80785714D02*
X43571428Y-81452380D01*
X43333333Y-80404761D02*
X43095238Y-81119047D01*
X43714285Y-81119047D01*
X41885714Y-77507142D02*
X42442857Y-77507142D01*
X42142857Y-77850000D01*
X42271428Y-77850000D01*
X42357142Y-77892857D01*
X42400000Y-77935714D01*
X42442857Y-78021428D01*
X42442857Y-78235714D01*
X42400000Y-78321428D01*
X42357142Y-78364285D01*
X42271428Y-78407142D01*
X42014285Y-78407142D01*
X41928571Y-78364285D01*
X41885714Y-78321428D01*
X42700000Y-77507142D02*
X43000000Y-78407142D01*
X43300000Y-77507142D01*
X43514285Y-77507142D02*
X44071428Y-77507142D01*
X43771428Y-77850000D01*
X43900000Y-77850000D01*
X43985714Y-77892857D01*
X44028571Y-77935714D01*
X44071428Y-78021428D01*
X44071428Y-78235714D01*
X44028571Y-78321428D01*
X43985714Y-78364285D01*
X43900000Y-78407142D01*
X43642857Y-78407142D01*
X43557142Y-78364285D01*
X43514285Y-78321428D01*
X97416666Y-39622380D02*
X97416666Y-40336666D01*
X97369047Y-40479523D01*
X97273809Y-40574761D01*
X97130952Y-40622380D01*
X97035714Y-40622380D01*
X97940476Y-40622380D02*
X98130952Y-40622380D01*
X98226190Y-40574761D01*
X98273809Y-40527142D01*
X98369047Y-40384285D01*
X98416666Y-40193809D01*
X98416666Y-39812857D01*
X98369047Y-39717619D01*
X98321428Y-39670000D01*
X98226190Y-39622380D01*
X98035714Y-39622380D01*
X97940476Y-39670000D01*
X97892857Y-39717619D01*
X97845238Y-39812857D01*
X97845238Y-40050952D01*
X97892857Y-40146190D01*
X97940476Y-40193809D01*
X98035714Y-40241428D01*
X98226190Y-40241428D01*
X98321428Y-40193809D01*
X98369047Y-40146190D01*
X98416666Y-40050952D01*
X96773809Y-57458571D02*
X96440476Y-57458571D01*
X96440476Y-57982380D02*
X96440476Y-56982380D01*
X96916666Y-56982380D01*
X97154761Y-56982380D02*
X97726190Y-56982380D01*
X97440476Y-57982380D02*
X97440476Y-56982380D01*
X98059523Y-57982380D02*
X98059523Y-56982380D01*
X98297619Y-56982380D01*
X98440476Y-57030000D01*
X98535714Y-57125238D01*
X98583333Y-57220476D01*
X98630952Y-57410952D01*
X98630952Y-57553809D01*
X98583333Y-57744285D01*
X98535714Y-57839523D01*
X98440476Y-57934761D01*
X98297619Y-57982380D01*
X98059523Y-57982380D01*
X99059523Y-57982380D02*
X99059523Y-56982380D01*
X32452380Y-71333333D02*
X33166666Y-71333333D01*
X33309523Y-71380952D01*
X33404761Y-71476190D01*
X33452380Y-71619047D01*
X33452380Y-71714285D01*
X33452380Y-70333333D02*
X33452380Y-70904761D01*
X33452380Y-70619047D02*
X32452380Y-70619047D01*
X32595238Y-70714285D01*
X32690476Y-70809523D01*
X32738095Y-70904761D01*
X35452380Y-74119047D02*
X35452380Y-74690476D01*
X35452380Y-74404761D02*
X34452380Y-74404761D01*
X34595238Y-74500000D01*
X34690476Y-74595238D01*
X34738095Y-74690476D01*
X34452380Y-73500000D02*
X34452380Y-73404761D01*
X34500000Y-73309523D01*
X34547619Y-73261904D01*
X34642857Y-73214285D01*
X34833333Y-73166666D01*
X35071428Y-73166666D01*
X35261904Y-73214285D01*
X35357142Y-73261904D01*
X35404761Y-73309523D01*
X35452380Y-73404761D01*
X35452380Y-73500000D01*
X35404761Y-73595238D01*
X35357142Y-73642857D01*
X35261904Y-73690476D01*
X35071428Y-73738095D01*
X34833333Y-73738095D01*
X34642857Y-73690476D01*
X34547619Y-73642857D01*
X34500000Y-73595238D01*
X34452380Y-73500000D01*
X35071428Y-72738095D02*
X35071428Y-71976190D01*
X35452380Y-70976190D02*
X35452380Y-71547619D01*
X35452380Y-71261904D02*
X34452380Y-71261904D01*
X34595238Y-71357142D01*
X34690476Y-71452380D01*
X34738095Y-71547619D01*
X34452380Y-70119047D02*
X34452380Y-70309523D01*
X34500000Y-70404761D01*
X34547619Y-70452380D01*
X34690476Y-70547619D01*
X34880952Y-70595238D01*
X35261904Y-70595238D01*
X35357142Y-70547619D01*
X35404761Y-70500000D01*
X35452380Y-70404761D01*
X35452380Y-70214285D01*
X35404761Y-70119047D01*
X35357142Y-70071428D01*
X35261904Y-70023809D01*
X35023809Y-70023809D01*
X34928571Y-70071428D01*
X34880952Y-70119047D01*
X34833333Y-70214285D01*
X34833333Y-70404761D01*
X34880952Y-70500000D01*
X34928571Y-70547619D01*
X35023809Y-70595238D01*
X34452380Y-69738095D02*
X35452380Y-69404761D01*
X34452380Y-69071428D01*
X35166666Y-68785714D02*
X35166666Y-68309523D01*
X35452380Y-68880952D02*
X34452380Y-68547619D01*
X35452380Y-68214285D01*
X35357142Y-67309523D02*
X35404761Y-67357142D01*
X35452380Y-67500000D01*
X35452380Y-67595238D01*
X35404761Y-67738095D01*
X35309523Y-67833333D01*
X35214285Y-67880952D01*
X35023809Y-67928571D01*
X34880952Y-67928571D01*
X34690476Y-67880952D01*
X34595238Y-67833333D01*
X34500000Y-67738095D01*
X34452380Y-67595238D01*
X34452380Y-67500000D01*
X34500000Y-67357142D01*
X34547619Y-67309523D01*
X40511904Y-67952380D02*
X40511904Y-66952380D01*
X40750000Y-66952380D01*
X40892857Y-67000000D01*
X40988095Y-67095238D01*
X41035714Y-67190476D01*
X41083333Y-67380952D01*
X41083333Y-67523809D01*
X41035714Y-67714285D01*
X40988095Y-67809523D01*
X40892857Y-67904761D01*
X40750000Y-67952380D01*
X40511904Y-67952380D01*
X42035714Y-67952380D02*
X41464285Y-67952380D01*
X41750000Y-67952380D02*
X41750000Y-66952380D01*
X41654761Y-67095238D01*
X41559523Y-67190476D01*
X41464285Y-67238095D01*
X62537142Y-36166666D02*
X62584761Y-36214285D01*
X62632380Y-36357142D01*
X62632380Y-36452380D01*
X62584761Y-36595238D01*
X62489523Y-36690476D01*
X62394285Y-36738095D01*
X62203809Y-36785714D01*
X62060952Y-36785714D01*
X61870476Y-36738095D01*
X61775238Y-36690476D01*
X61680000Y-36595238D01*
X61632380Y-36452380D01*
X61632380Y-36357142D01*
X61680000Y-36214285D01*
X61727619Y-36166666D01*
X62632380Y-35690476D02*
X62632380Y-35500000D01*
X62584761Y-35404761D01*
X62537142Y-35357142D01*
X62394285Y-35261904D01*
X62203809Y-35214285D01*
X61822857Y-35214285D01*
X61727619Y-35261904D01*
X61680000Y-35309523D01*
X61632380Y-35404761D01*
X61632380Y-35595238D01*
X61680000Y-35690476D01*
X61727619Y-35738095D01*
X61822857Y-35785714D01*
X62060952Y-35785714D01*
X62156190Y-35738095D01*
X62203809Y-35690476D01*
X62251428Y-35595238D01*
X62251428Y-35404761D01*
X62203809Y-35309523D01*
X62156190Y-35261904D01*
X62060952Y-35214285D01*
M02*
