M48
; DRILL file {KiCad (5.1.6)-1} date 09/23/20 14:33:50
; FORMAT={-:-/ absolute / inch / decimal}
; #@! TF.CreationDate,2020-09-23T14:33:50-04:00
; #@! TF.GenerationSoftware,Kicad,Pcbnew,(5.1.6)-1
; #@! TF.FileFunction,Plated,1,2,PTH
FMAT,2
INCH
T1C0.0197
T2C0.0315
T3C0.0394
T4C0.0433
T5C0.0461
T6C0.0512
%
G90
G05
T1
X1.122Y-2.1063
X1.2992Y-2.0866
X1.3228Y-3.0866
X1.7008Y-1.3543
X1.7008Y-1.9291
X1.7126Y-2.185
X1.7126Y-2.3622
X1.7323Y-2.4606
X1.811Y-2.6378
X1.8307Y-2.7362
X1.9291Y-2.6575
X2.1811Y-2.9528
X2.1969Y-1.3937
X2.1969Y-2.126
X2.1969Y-2.4724
X2.2677Y-1.7559
X2.3622Y-1.4882
X2.378Y-1.5512
X2.4173Y-1.2441
X2.4646Y-2.0709
X2.6693Y-1.3543
X2.811Y-2.2992
X2.8583Y-1.4094
X2.8583Y-1.6378
X2.9055Y-1.8976
X2.9134Y-1.3622
X2.9528Y-2.0472
X3.0Y-2.4724
X3.001Y-1.997
X3.06Y-1.938
X3.0787Y-1.252
X3.1969Y-1.4173
X3.2047Y-2.5591
X3.252Y-1.6535
X3.2992Y-1.9055
X3.3386Y-1.4724
X3.3386Y-1.5276
X3.3543Y-1.2835
X3.5984Y-1.3307
X3.6142Y-2.2992
X3.6772Y-1.748
X3.9764Y-3.1004
X4.0846Y-2.2539
X4.0945Y-1.7717
T2
X3.0906Y-2.687
X3.2874Y-2.687
X2.4606Y-2.687
X2.6575Y-2.687
T3
X2.1063Y-1.2929
X2.1063Y-1.3929
X2.1063Y-1.4929
X2.1063Y-1.5929
X2.1063Y-1.6929
X2.1063Y-1.7929
T4
X1.5945Y-1.4961
X1.6945Y-1.4961
X1.7945Y-1.4961
X1.5945Y-2.0472
X1.6945Y-2.0472
X1.7945Y-2.0472
T5
X1.1024Y-1.7205
X1.1024Y-2.4213
X1.2992Y-1.7205
X1.2992Y-2.4213
T6
X2.0866Y-3.3071
X2.2835Y-3.3071
X2.4803Y-3.3071
X1.498Y-3.3071
X1.6949Y-3.3071
X2.6772Y-3.3071
X2.874Y-3.3071
X3.0709Y-3.3071
X3.2677Y-3.3071
X3.4646Y-3.3071
X3.6614Y-3.3071
X3.9764Y-1.7323
X3.9764Y-1.9291
X3.9764Y-2.5197
X3.9764Y-2.7165
X3.9764Y-2.9134
X1.1811Y-2.6969
X1.1811Y-2.8937
T0
M30
