M48
; DRILL file {KiCad (5.1.6)-1} date 06/28/20 20:31:23
; FORMAT={-:-/ absolute / inch / decimal}
; #@! TF.CreationDate,2020-06-28T20:31:23-04:00
; #@! TF.GenerationSoftware,Kicad,Pcbnew,(5.1.6)-1
; #@! TF.FileFunction,Plated,1,2,PTH
FMAT,2
INCH
T1C0.0197
T2C0.0315
T3C0.0394
T4C0.0433
T5C0.0461
T6C0.0512
%
G90
G05
T1
X1.122Y-2.1063
X1.2992Y-2.0866
X1.3583Y-3.0906
X1.4173Y-1.7126
X1.437Y-1.4764
X1.437Y-1.9488
X1.437Y-2.2047
X1.5748Y-1.6929
X1.7126Y-2.185
X1.7126Y-2.3622
X1.7323Y-2.4606
X1.7717Y-1.6929
X1.811Y-2.6378
X1.8307Y-2.7362
X1.9291Y-2.6575
X1.9685Y-1.7126
X1.9685Y-1.9291
X2.0276Y-2.1654
X2.0472Y-2.8346
X2.0669Y-2.4803
X2.0669Y-2.9724
X2.2047Y-2.0866
X2.2244Y-2.4606
X2.2638Y-1.3583
X2.2638Y-1.6929
X2.4016Y-1.8701
X2.4114Y-3.061
X2.4409Y-1.9685
X2.4606Y-2.1457
X2.4606Y-2.8248
X2.4803Y-2.5098
X2.6378Y-1.2992
X2.6378Y-1.5354
X2.6772Y-2.815
X2.7067Y-2.3524
X2.8839Y-2.9134
X2.9035Y-1.6634
X2.9134Y-1.4075
X2.9331Y-1.3386
X2.9528Y-2.313
X3.0807Y-1.8898
X3.189Y-2.5197
X3.248Y-2.8346
X3.2677Y-1.7126
X3.3563Y-2.1161
X3.4744Y-2.372
X3.5236Y-1.9882
X3.5531Y-1.4075
X3.563Y-1.3386
X3.563Y-2.9331
X3.622Y-1.7126
X3.6614Y-2.7362
X3.6811Y-1.5551
X3.75Y-2.1555
X3.7598Y-1.5748
X3.9764Y-3.1004
X4.0846Y-2.2539
X4.0945Y-1.7717
T2
X2.4606Y-2.687
X2.6575Y-2.687
X3.0906Y-2.687
X3.2874Y-2.687
T3
X3.8484Y-1.6732
X3.8484Y-1.7732
X3.8484Y-1.8732
X3.8484Y-1.9732
X3.8484Y-2.0732
X3.8484Y-2.1732
T4
X1.5945Y-2.0472
X1.6945Y-2.0472
X1.7945Y-2.0472
T5
X1.1024Y-1.7205
X1.1024Y-2.4213
X1.2992Y-1.7205
X1.2992Y-2.4213
T6
X2.0866Y-3.3071
X2.2835Y-3.3071
X2.4803Y-3.3071
X3.2677Y-3.3071
X3.4646Y-3.3071
X3.6614Y-3.3071
X2.6772Y-3.3071
X2.874Y-3.3071
X3.0709Y-3.3071
X1.4961Y-3.3071
X1.6929Y-3.3071
X1.8898Y-3.3071
X3.9764Y-2.5197
X3.9764Y-2.7165
X3.9764Y-2.9134
X1.1811Y-2.6969
X1.1811Y-2.8937
T0
M30
