G04 #@! TF.GenerationSoftware,KiCad,Pcbnew,(5.1.6)-1*
G04 #@! TF.CreationDate,2020-06-28T20:31:21-04:00*
G04 #@! TF.ProjectId,alarmbuddy,616c6172-6d62-4756-9464-792e6b696361,rev?*
G04 #@! TF.SameCoordinates,Original*
G04 #@! TF.FileFunction,Copper,L2,Bot*
G04 #@! TF.FilePolarity,Positive*
%FSLAX46Y46*%
G04 Gerber Fmt 4.6, Leading zero omitted, Abs format (unit mm)*
G04 Created by KiCad (PCBNEW (5.1.6)-1) date 2020-06-28 20:31:21*
%MOMM*%
%LPD*%
G01*
G04 APERTURE LIST*
G04 #@! TA.AperFunction,ComponentPad*
%ADD10O,1.905000X2.000000*%
G04 #@! TD*
G04 #@! TA.AperFunction,ComponentPad*
%ADD11R,1.905000X2.000000*%
G04 #@! TD*
G04 #@! TA.AperFunction,ComponentPad*
%ADD12C,2.000000*%
G04 #@! TD*
G04 #@! TA.AperFunction,ComponentPad*
%ADD13C,1.600000*%
G04 #@! TD*
G04 #@! TA.AperFunction,ComponentPad*
%ADD14C,2.600000*%
G04 #@! TD*
G04 #@! TA.AperFunction,ComponentPad*
%ADD15R,2.600000X2.600000*%
G04 #@! TD*
G04 #@! TA.AperFunction,ComponentPad*
%ADD16R,1.700000X1.700000*%
G04 #@! TD*
G04 #@! TA.AperFunction,ComponentPad*
%ADD17O,1.700000X1.700000*%
G04 #@! TD*
G04 #@! TA.AperFunction,ViaPad*
%ADD18C,0.800000*%
G04 #@! TD*
G04 #@! TA.AperFunction,Conductor*
%ADD19C,0.300000*%
G04 #@! TD*
G04 #@! TA.AperFunction,Conductor*
%ADD20C,0.254000*%
G04 #@! TD*
G04 APERTURE END LIST*
D10*
X45580000Y-52000000D03*
X43040000Y-52000000D03*
D11*
X40500000Y-52000000D03*
D12*
X33000000Y-43700000D03*
X28000000Y-43700000D03*
X28000000Y-61500000D03*
X33000000Y-61500000D03*
D13*
X83500000Y-68250000D03*
X78500000Y-68250000D03*
X67500000Y-68250000D03*
X62500000Y-68250000D03*
D14*
X101000000Y-64000000D03*
X101000000Y-69000000D03*
D15*
X101000000Y-74000000D03*
D14*
X93000000Y-84000000D03*
X88000000Y-84000000D03*
D15*
X83000000Y-84000000D03*
D14*
X78000000Y-84000000D03*
X73000000Y-84000000D03*
D15*
X68000000Y-84000000D03*
D14*
X63000000Y-84000000D03*
X58000000Y-84000000D03*
D15*
X53000000Y-84000000D03*
X38000000Y-84000000D03*
D14*
X43000000Y-84000000D03*
X48000000Y-84000000D03*
D16*
X97750000Y-42500000D03*
D17*
X97750000Y-45040000D03*
X97750000Y-47580000D03*
X97750000Y-50120000D03*
X97750000Y-52660000D03*
X97750000Y-55200000D03*
D14*
X30000000Y-73500000D03*
D15*
X30000000Y-68500000D03*
D18*
X73750000Y-42250000D03*
X78250000Y-48000000D03*
X83000000Y-43500000D03*
X104000000Y-45000000D03*
X103750000Y-57250000D03*
X101000000Y-78750000D03*
X90500000Y-74500000D03*
X82500000Y-72000000D03*
X81000000Y-64000000D03*
X63000000Y-63750000D03*
X68000000Y-71500000D03*
X62500000Y-71750000D03*
X52000000Y-72000000D03*
X68750000Y-59750000D03*
X73250000Y-74000000D03*
X61250000Y-77750000D03*
X93000000Y-69500000D03*
X88250000Y-60250000D03*
X75000000Y-58750000D03*
X95500000Y-40000000D03*
X95250000Y-54750000D03*
X61000000Y-47500000D03*
X62000000Y-50000000D03*
X62500000Y-54500000D03*
X56000000Y-53000000D03*
X50000000Y-49000000D03*
X50000000Y-43500000D03*
X45000000Y-43000000D03*
X40000000Y-43000000D03*
X36000000Y-43500000D03*
X36500000Y-49500000D03*
X57500000Y-43000000D03*
X57500000Y-34500000D03*
X36500000Y-37500000D03*
X33000000Y-53000000D03*
X28500000Y-53500000D03*
X34500000Y-78500000D03*
X52500000Y-75500000D03*
X56500000Y-62500000D03*
X52500000Y-63000000D03*
X51500000Y-55000000D03*
X67000000Y-33000000D03*
X67000000Y-39000000D03*
X43500000Y-55500000D03*
X44000000Y-62500000D03*
X46000000Y-67000000D03*
X36500000Y-56000000D03*
X46500000Y-69500000D03*
X43500000Y-60000000D03*
X48999992Y-67500000D03*
X90500000Y-34000000D03*
X74500000Y-34000000D03*
X92000000Y-43500000D03*
X93500000Y-39500000D03*
X89500000Y-50500000D03*
X74000000Y-35750000D03*
X90250000Y-35750000D03*
X85250000Y-53750000D03*
D19*
X46500000Y-69500000D02*
X47500000Y-70500000D01*
X65250000Y-70500000D02*
X67500000Y-68250000D01*
X47500000Y-70500000D02*
X65250000Y-70500000D01*
X67500000Y-68250000D02*
X69750000Y-68250000D01*
X69750000Y-68250000D02*
X72000000Y-70500000D01*
X81250000Y-70500000D02*
X83500000Y-68250000D01*
X72000000Y-70500000D02*
X81250000Y-70500000D01*
X55750000Y-65000000D02*
X74000000Y-65000000D01*
X77250000Y-68250000D02*
X78500000Y-68250000D01*
X74000000Y-65000000D02*
X77250000Y-68250000D01*
X59250000Y-65000000D02*
X62500000Y-68250000D01*
X55750000Y-65000000D02*
X59250000Y-65000000D01*
X73750000Y-63500000D02*
X71241998Y-63500000D01*
X67741998Y-60000000D02*
X43500000Y-60000000D01*
X78500000Y-68250000D02*
X73750000Y-63500000D01*
X71241998Y-63500000D02*
X67741998Y-60000000D01*
X55750000Y-65000000D02*
X53250000Y-67500000D01*
X53250000Y-67500000D02*
X48999992Y-67500000D01*
X90500000Y-34000000D02*
X74500000Y-34000000D01*
X92000000Y-43500000D02*
X92000000Y-41000000D01*
X92000000Y-41000000D02*
X93500000Y-39500000D01*
X92290000Y-50500000D02*
X97750000Y-45040000D01*
X89500000Y-50500000D02*
X92290000Y-50500000D01*
X75500000Y-40500000D02*
X74000000Y-39000000D01*
X74000000Y-39000000D02*
X74000000Y-35750000D01*
X75500000Y-49000000D02*
X75500000Y-40500000D01*
X85250000Y-53750000D02*
X80250000Y-53750000D01*
X80250000Y-53750000D02*
X75500000Y-49000000D01*
X90250000Y-35750000D02*
X74000000Y-35750000D01*
X28000000Y-43700000D02*
X33000000Y-43700000D01*
X28000000Y-47000000D02*
X28000000Y-43700000D01*
X30000000Y-73500000D02*
X33500000Y-70000000D01*
X33500000Y-70000000D02*
X33500000Y-66500000D01*
X33500000Y-66500000D02*
X30500000Y-63500000D01*
X30500000Y-63500000D02*
X30500000Y-49500000D01*
X30500000Y-49500000D02*
X28000000Y-47000000D01*
D20*
G36*
X104249899Y-30737907D02*
G01*
X104490285Y-30810484D01*
X104711991Y-30928368D01*
X104906577Y-31087068D01*
X105066635Y-31280545D01*
X105186064Y-31501424D01*
X105260317Y-31741297D01*
X105290000Y-32023716D01*
X105290001Y-86965269D01*
X105262093Y-87249899D01*
X105189517Y-87490282D01*
X105071633Y-87711989D01*
X104912929Y-87906580D01*
X104719455Y-88066635D01*
X104498576Y-88186064D01*
X104258701Y-88260317D01*
X103976291Y-88290000D01*
X27034721Y-88290000D01*
X26750101Y-88262093D01*
X26509718Y-88189517D01*
X26288011Y-88071633D01*
X26093420Y-87912929D01*
X25933365Y-87719455D01*
X25813936Y-87498576D01*
X25739683Y-87258701D01*
X25710000Y-86976291D01*
X25710000Y-83779872D01*
X27765000Y-83779872D01*
X27765000Y-84220128D01*
X27850890Y-84651925D01*
X28019369Y-85058669D01*
X28263962Y-85424729D01*
X28575271Y-85736038D01*
X28941331Y-85980631D01*
X29348075Y-86149110D01*
X29779872Y-86235000D01*
X30220128Y-86235000D01*
X30651925Y-86149110D01*
X31058669Y-85980631D01*
X31424729Y-85736038D01*
X31736038Y-85424729D01*
X31980631Y-85058669D01*
X32149110Y-84651925D01*
X32235000Y-84220128D01*
X32235000Y-83779872D01*
X32149110Y-83348075D01*
X31980631Y-82941331D01*
X31819380Y-82700000D01*
X36061928Y-82700000D01*
X36061928Y-85300000D01*
X36074188Y-85424482D01*
X36110498Y-85544180D01*
X36169463Y-85654494D01*
X36248815Y-85751185D01*
X36345506Y-85830537D01*
X36455820Y-85889502D01*
X36575518Y-85925812D01*
X36700000Y-85938072D01*
X39300000Y-85938072D01*
X39424482Y-85925812D01*
X39544180Y-85889502D01*
X39654494Y-85830537D01*
X39751185Y-85751185D01*
X39830537Y-85654494D01*
X39889502Y-85544180D01*
X39925812Y-85424482D01*
X39938072Y-85300000D01*
X39938072Y-83809419D01*
X41065000Y-83809419D01*
X41065000Y-84190581D01*
X41139361Y-84564419D01*
X41285225Y-84916566D01*
X41496987Y-85233491D01*
X41766509Y-85503013D01*
X42083434Y-85714775D01*
X42435581Y-85860639D01*
X42809419Y-85935000D01*
X43190581Y-85935000D01*
X43564419Y-85860639D01*
X43916566Y-85714775D01*
X44233491Y-85503013D01*
X44503013Y-85233491D01*
X44714775Y-84916566D01*
X44860639Y-84564419D01*
X44935000Y-84190581D01*
X44935000Y-83809419D01*
X46065000Y-83809419D01*
X46065000Y-84190581D01*
X46139361Y-84564419D01*
X46285225Y-84916566D01*
X46496987Y-85233491D01*
X46766509Y-85503013D01*
X47083434Y-85714775D01*
X47435581Y-85860639D01*
X47809419Y-85935000D01*
X48190581Y-85935000D01*
X48564419Y-85860639D01*
X48916566Y-85714775D01*
X49233491Y-85503013D01*
X49503013Y-85233491D01*
X49714775Y-84916566D01*
X49860639Y-84564419D01*
X49935000Y-84190581D01*
X49935000Y-83809419D01*
X49860639Y-83435581D01*
X49714775Y-83083434D01*
X49503013Y-82766509D01*
X49436504Y-82700000D01*
X51061928Y-82700000D01*
X51061928Y-85300000D01*
X51074188Y-85424482D01*
X51110498Y-85544180D01*
X51169463Y-85654494D01*
X51248815Y-85751185D01*
X51345506Y-85830537D01*
X51455820Y-85889502D01*
X51575518Y-85925812D01*
X51700000Y-85938072D01*
X54300000Y-85938072D01*
X54424482Y-85925812D01*
X54544180Y-85889502D01*
X54654494Y-85830537D01*
X54751185Y-85751185D01*
X54830537Y-85654494D01*
X54889502Y-85544180D01*
X54925812Y-85424482D01*
X54938072Y-85300000D01*
X54938072Y-83809419D01*
X56065000Y-83809419D01*
X56065000Y-84190581D01*
X56139361Y-84564419D01*
X56285225Y-84916566D01*
X56496987Y-85233491D01*
X56766509Y-85503013D01*
X57083434Y-85714775D01*
X57435581Y-85860639D01*
X57809419Y-85935000D01*
X58190581Y-85935000D01*
X58564419Y-85860639D01*
X58916566Y-85714775D01*
X59233491Y-85503013D01*
X59503013Y-85233491D01*
X59714775Y-84916566D01*
X59860639Y-84564419D01*
X59935000Y-84190581D01*
X59935000Y-83809419D01*
X61065000Y-83809419D01*
X61065000Y-84190581D01*
X61139361Y-84564419D01*
X61285225Y-84916566D01*
X61496987Y-85233491D01*
X61766509Y-85503013D01*
X62083434Y-85714775D01*
X62435581Y-85860639D01*
X62809419Y-85935000D01*
X63190581Y-85935000D01*
X63564419Y-85860639D01*
X63916566Y-85714775D01*
X64233491Y-85503013D01*
X64503013Y-85233491D01*
X64714775Y-84916566D01*
X64860639Y-84564419D01*
X64935000Y-84190581D01*
X64935000Y-83809419D01*
X64860639Y-83435581D01*
X64714775Y-83083434D01*
X64503013Y-82766509D01*
X64436504Y-82700000D01*
X66061928Y-82700000D01*
X66061928Y-85300000D01*
X66074188Y-85424482D01*
X66110498Y-85544180D01*
X66169463Y-85654494D01*
X66248815Y-85751185D01*
X66345506Y-85830537D01*
X66455820Y-85889502D01*
X66575518Y-85925812D01*
X66700000Y-85938072D01*
X69300000Y-85938072D01*
X69424482Y-85925812D01*
X69544180Y-85889502D01*
X69654494Y-85830537D01*
X69751185Y-85751185D01*
X69830537Y-85654494D01*
X69889502Y-85544180D01*
X69925812Y-85424482D01*
X69938072Y-85300000D01*
X69938072Y-83809419D01*
X71065000Y-83809419D01*
X71065000Y-84190581D01*
X71139361Y-84564419D01*
X71285225Y-84916566D01*
X71496987Y-85233491D01*
X71766509Y-85503013D01*
X72083434Y-85714775D01*
X72435581Y-85860639D01*
X72809419Y-85935000D01*
X73190581Y-85935000D01*
X73564419Y-85860639D01*
X73916566Y-85714775D01*
X74233491Y-85503013D01*
X74503013Y-85233491D01*
X74714775Y-84916566D01*
X74860639Y-84564419D01*
X74935000Y-84190581D01*
X74935000Y-83809419D01*
X76065000Y-83809419D01*
X76065000Y-84190581D01*
X76139361Y-84564419D01*
X76285225Y-84916566D01*
X76496987Y-85233491D01*
X76766509Y-85503013D01*
X77083434Y-85714775D01*
X77435581Y-85860639D01*
X77809419Y-85935000D01*
X78190581Y-85935000D01*
X78564419Y-85860639D01*
X78916566Y-85714775D01*
X79233491Y-85503013D01*
X79503013Y-85233491D01*
X79714775Y-84916566D01*
X79860639Y-84564419D01*
X79935000Y-84190581D01*
X79935000Y-83809419D01*
X79860639Y-83435581D01*
X79714775Y-83083434D01*
X79503013Y-82766509D01*
X79436504Y-82700000D01*
X81061928Y-82700000D01*
X81061928Y-85300000D01*
X81074188Y-85424482D01*
X81110498Y-85544180D01*
X81169463Y-85654494D01*
X81248815Y-85751185D01*
X81345506Y-85830537D01*
X81455820Y-85889502D01*
X81575518Y-85925812D01*
X81700000Y-85938072D01*
X84300000Y-85938072D01*
X84424482Y-85925812D01*
X84544180Y-85889502D01*
X84654494Y-85830537D01*
X84751185Y-85751185D01*
X84830537Y-85654494D01*
X84889502Y-85544180D01*
X84925812Y-85424482D01*
X84938072Y-85300000D01*
X84938072Y-83809419D01*
X86065000Y-83809419D01*
X86065000Y-84190581D01*
X86139361Y-84564419D01*
X86285225Y-84916566D01*
X86496987Y-85233491D01*
X86766509Y-85503013D01*
X87083434Y-85714775D01*
X87435581Y-85860639D01*
X87809419Y-85935000D01*
X88190581Y-85935000D01*
X88564419Y-85860639D01*
X88916566Y-85714775D01*
X89233491Y-85503013D01*
X89503013Y-85233491D01*
X89714775Y-84916566D01*
X89860639Y-84564419D01*
X89935000Y-84190581D01*
X89935000Y-83809419D01*
X91065000Y-83809419D01*
X91065000Y-84190581D01*
X91139361Y-84564419D01*
X91285225Y-84916566D01*
X91496987Y-85233491D01*
X91766509Y-85503013D01*
X92083434Y-85714775D01*
X92435581Y-85860639D01*
X92809419Y-85935000D01*
X93190581Y-85935000D01*
X93564419Y-85860639D01*
X93916566Y-85714775D01*
X94233491Y-85503013D01*
X94503013Y-85233491D01*
X94714775Y-84916566D01*
X94860639Y-84564419D01*
X94935000Y-84190581D01*
X94935000Y-83809419D01*
X94929123Y-83779872D01*
X98765000Y-83779872D01*
X98765000Y-84220128D01*
X98850890Y-84651925D01*
X99019369Y-85058669D01*
X99263962Y-85424729D01*
X99575271Y-85736038D01*
X99941331Y-85980631D01*
X100348075Y-86149110D01*
X100779872Y-86235000D01*
X101220128Y-86235000D01*
X101651925Y-86149110D01*
X102058669Y-85980631D01*
X102424729Y-85736038D01*
X102736038Y-85424729D01*
X102980631Y-85058669D01*
X103149110Y-84651925D01*
X103235000Y-84220128D01*
X103235000Y-83779872D01*
X103149110Y-83348075D01*
X102980631Y-82941331D01*
X102736038Y-82575271D01*
X102424729Y-82263962D01*
X102058669Y-82019369D01*
X101651925Y-81850890D01*
X101220128Y-81765000D01*
X100779872Y-81765000D01*
X100348075Y-81850890D01*
X99941331Y-82019369D01*
X99575271Y-82263962D01*
X99263962Y-82575271D01*
X99019369Y-82941331D01*
X98850890Y-83348075D01*
X98765000Y-83779872D01*
X94929123Y-83779872D01*
X94860639Y-83435581D01*
X94714775Y-83083434D01*
X94503013Y-82766509D01*
X94233491Y-82496987D01*
X93916566Y-82285225D01*
X93564419Y-82139361D01*
X93190581Y-82065000D01*
X92809419Y-82065000D01*
X92435581Y-82139361D01*
X92083434Y-82285225D01*
X91766509Y-82496987D01*
X91496987Y-82766509D01*
X91285225Y-83083434D01*
X91139361Y-83435581D01*
X91065000Y-83809419D01*
X89935000Y-83809419D01*
X89860639Y-83435581D01*
X89714775Y-83083434D01*
X89503013Y-82766509D01*
X89233491Y-82496987D01*
X88916566Y-82285225D01*
X88564419Y-82139361D01*
X88190581Y-82065000D01*
X87809419Y-82065000D01*
X87435581Y-82139361D01*
X87083434Y-82285225D01*
X86766509Y-82496987D01*
X86496987Y-82766509D01*
X86285225Y-83083434D01*
X86139361Y-83435581D01*
X86065000Y-83809419D01*
X84938072Y-83809419D01*
X84938072Y-82700000D01*
X84925812Y-82575518D01*
X84889502Y-82455820D01*
X84830537Y-82345506D01*
X84751185Y-82248815D01*
X84654494Y-82169463D01*
X84544180Y-82110498D01*
X84424482Y-82074188D01*
X84300000Y-82061928D01*
X81700000Y-82061928D01*
X81575518Y-82074188D01*
X81455820Y-82110498D01*
X81345506Y-82169463D01*
X81248815Y-82248815D01*
X81169463Y-82345506D01*
X81110498Y-82455820D01*
X81074188Y-82575518D01*
X81061928Y-82700000D01*
X79436504Y-82700000D01*
X79233491Y-82496987D01*
X78916566Y-82285225D01*
X78564419Y-82139361D01*
X78190581Y-82065000D01*
X77809419Y-82065000D01*
X77435581Y-82139361D01*
X77083434Y-82285225D01*
X76766509Y-82496987D01*
X76496987Y-82766509D01*
X76285225Y-83083434D01*
X76139361Y-83435581D01*
X76065000Y-83809419D01*
X74935000Y-83809419D01*
X74860639Y-83435581D01*
X74714775Y-83083434D01*
X74503013Y-82766509D01*
X74233491Y-82496987D01*
X73916566Y-82285225D01*
X73564419Y-82139361D01*
X73190581Y-82065000D01*
X72809419Y-82065000D01*
X72435581Y-82139361D01*
X72083434Y-82285225D01*
X71766509Y-82496987D01*
X71496987Y-82766509D01*
X71285225Y-83083434D01*
X71139361Y-83435581D01*
X71065000Y-83809419D01*
X69938072Y-83809419D01*
X69938072Y-82700000D01*
X69925812Y-82575518D01*
X69889502Y-82455820D01*
X69830537Y-82345506D01*
X69751185Y-82248815D01*
X69654494Y-82169463D01*
X69544180Y-82110498D01*
X69424482Y-82074188D01*
X69300000Y-82061928D01*
X66700000Y-82061928D01*
X66575518Y-82074188D01*
X66455820Y-82110498D01*
X66345506Y-82169463D01*
X66248815Y-82248815D01*
X66169463Y-82345506D01*
X66110498Y-82455820D01*
X66074188Y-82575518D01*
X66061928Y-82700000D01*
X64436504Y-82700000D01*
X64233491Y-82496987D01*
X63916566Y-82285225D01*
X63564419Y-82139361D01*
X63190581Y-82065000D01*
X62809419Y-82065000D01*
X62435581Y-82139361D01*
X62083434Y-82285225D01*
X61766509Y-82496987D01*
X61496987Y-82766509D01*
X61285225Y-83083434D01*
X61139361Y-83435581D01*
X61065000Y-83809419D01*
X59935000Y-83809419D01*
X59860639Y-83435581D01*
X59714775Y-83083434D01*
X59503013Y-82766509D01*
X59233491Y-82496987D01*
X58916566Y-82285225D01*
X58564419Y-82139361D01*
X58190581Y-82065000D01*
X57809419Y-82065000D01*
X57435581Y-82139361D01*
X57083434Y-82285225D01*
X56766509Y-82496987D01*
X56496987Y-82766509D01*
X56285225Y-83083434D01*
X56139361Y-83435581D01*
X56065000Y-83809419D01*
X54938072Y-83809419D01*
X54938072Y-82700000D01*
X54925812Y-82575518D01*
X54889502Y-82455820D01*
X54830537Y-82345506D01*
X54751185Y-82248815D01*
X54654494Y-82169463D01*
X54544180Y-82110498D01*
X54424482Y-82074188D01*
X54300000Y-82061928D01*
X51700000Y-82061928D01*
X51575518Y-82074188D01*
X51455820Y-82110498D01*
X51345506Y-82169463D01*
X51248815Y-82248815D01*
X51169463Y-82345506D01*
X51110498Y-82455820D01*
X51074188Y-82575518D01*
X51061928Y-82700000D01*
X49436504Y-82700000D01*
X49233491Y-82496987D01*
X48916566Y-82285225D01*
X48564419Y-82139361D01*
X48190581Y-82065000D01*
X47809419Y-82065000D01*
X47435581Y-82139361D01*
X47083434Y-82285225D01*
X46766509Y-82496987D01*
X46496987Y-82766509D01*
X46285225Y-83083434D01*
X46139361Y-83435581D01*
X46065000Y-83809419D01*
X44935000Y-83809419D01*
X44860639Y-83435581D01*
X44714775Y-83083434D01*
X44503013Y-82766509D01*
X44233491Y-82496987D01*
X43916566Y-82285225D01*
X43564419Y-82139361D01*
X43190581Y-82065000D01*
X42809419Y-82065000D01*
X42435581Y-82139361D01*
X42083434Y-82285225D01*
X41766509Y-82496987D01*
X41496987Y-82766509D01*
X41285225Y-83083434D01*
X41139361Y-83435581D01*
X41065000Y-83809419D01*
X39938072Y-83809419D01*
X39938072Y-82700000D01*
X39925812Y-82575518D01*
X39889502Y-82455820D01*
X39830537Y-82345506D01*
X39751185Y-82248815D01*
X39654494Y-82169463D01*
X39544180Y-82110498D01*
X39424482Y-82074188D01*
X39300000Y-82061928D01*
X36700000Y-82061928D01*
X36575518Y-82074188D01*
X36455820Y-82110498D01*
X36345506Y-82169463D01*
X36248815Y-82248815D01*
X36169463Y-82345506D01*
X36110498Y-82455820D01*
X36074188Y-82575518D01*
X36061928Y-82700000D01*
X31819380Y-82700000D01*
X31736038Y-82575271D01*
X31424729Y-82263962D01*
X31058669Y-82019369D01*
X30651925Y-81850890D01*
X30220128Y-81765000D01*
X29779872Y-81765000D01*
X29348075Y-81850890D01*
X28941331Y-82019369D01*
X28575271Y-82263962D01*
X28263962Y-82575271D01*
X28019369Y-82941331D01*
X27850890Y-83348075D01*
X27765000Y-83779872D01*
X25710000Y-83779872D01*
X25710000Y-67200000D01*
X28061928Y-67200000D01*
X28061928Y-69800000D01*
X28074188Y-69924482D01*
X28110498Y-70044180D01*
X28169463Y-70154494D01*
X28248815Y-70251185D01*
X28345506Y-70330537D01*
X28455820Y-70389502D01*
X28575518Y-70425812D01*
X28700000Y-70438072D01*
X31300000Y-70438072D01*
X31424482Y-70425812D01*
X31544180Y-70389502D01*
X31654494Y-70330537D01*
X31751185Y-70251185D01*
X31830537Y-70154494D01*
X31889502Y-70044180D01*
X31925812Y-69924482D01*
X31938072Y-69800000D01*
X31938072Y-67200000D01*
X31925812Y-67075518D01*
X31889502Y-66955820D01*
X31830537Y-66845506D01*
X31751185Y-66748815D01*
X31654494Y-66669463D01*
X31544180Y-66610498D01*
X31424482Y-66574188D01*
X31300000Y-66561928D01*
X28700000Y-66561928D01*
X28575518Y-66574188D01*
X28455820Y-66610498D01*
X28345506Y-66669463D01*
X28248815Y-66748815D01*
X28169463Y-66845506D01*
X28110498Y-66955820D01*
X28074188Y-67075518D01*
X28061928Y-67200000D01*
X25710000Y-67200000D01*
X25710000Y-61338967D01*
X26365000Y-61338967D01*
X26365000Y-61661033D01*
X26427832Y-61976912D01*
X26551082Y-62274463D01*
X26730013Y-62542252D01*
X26957748Y-62769987D01*
X27225537Y-62948918D01*
X27523088Y-63072168D01*
X27838967Y-63135000D01*
X28161033Y-63135000D01*
X28476912Y-63072168D01*
X28774463Y-62948918D01*
X29042252Y-62769987D01*
X29269987Y-62542252D01*
X29448918Y-62274463D01*
X29572168Y-61976912D01*
X29635000Y-61661033D01*
X29635000Y-61338967D01*
X29572168Y-61023088D01*
X29448918Y-60725537D01*
X29269987Y-60457748D01*
X29042252Y-60230013D01*
X28774463Y-60051082D01*
X28476912Y-59927832D01*
X28161033Y-59865000D01*
X27838967Y-59865000D01*
X27523088Y-59927832D01*
X27225537Y-60051082D01*
X26957748Y-60230013D01*
X26730013Y-60457748D01*
X26551082Y-60725537D01*
X26427832Y-61023088D01*
X26365000Y-61338967D01*
X25710000Y-61338967D01*
X25710000Y-43538967D01*
X26365000Y-43538967D01*
X26365000Y-43861033D01*
X26427832Y-44176912D01*
X26551082Y-44474463D01*
X26730013Y-44742252D01*
X26957748Y-44969987D01*
X27215001Y-45141878D01*
X27215000Y-46961447D01*
X27211203Y-47000000D01*
X27215000Y-47038553D01*
X27215000Y-47038560D01*
X27226359Y-47153886D01*
X27271246Y-47301859D01*
X27344138Y-47438232D01*
X27442236Y-47557764D01*
X27472190Y-47582347D01*
X29715001Y-49825159D01*
X29715000Y-63461447D01*
X29711203Y-63500000D01*
X29715000Y-63538553D01*
X29715000Y-63538560D01*
X29726359Y-63653886D01*
X29771246Y-63801859D01*
X29844138Y-63938232D01*
X29942236Y-64057764D01*
X29972188Y-64082345D01*
X32715001Y-66825158D01*
X32715000Y-69674842D01*
X30695985Y-71693857D01*
X30564419Y-71639361D01*
X30190581Y-71565000D01*
X29809419Y-71565000D01*
X29435581Y-71639361D01*
X29083434Y-71785225D01*
X28766509Y-71996987D01*
X28496987Y-72266509D01*
X28285225Y-72583434D01*
X28139361Y-72935581D01*
X28065000Y-73309419D01*
X28065000Y-73690581D01*
X28139361Y-74064419D01*
X28285225Y-74416566D01*
X28496987Y-74733491D01*
X28766509Y-75003013D01*
X29083434Y-75214775D01*
X29435581Y-75360639D01*
X29809419Y-75435000D01*
X30190581Y-75435000D01*
X30564419Y-75360639D01*
X30916566Y-75214775D01*
X31233491Y-75003013D01*
X31503013Y-74733491D01*
X31714775Y-74416566D01*
X31860639Y-74064419D01*
X31935000Y-73690581D01*
X31935000Y-73309419D01*
X31860639Y-72935581D01*
X31806143Y-72804015D01*
X31910158Y-72700000D01*
X99061928Y-72700000D01*
X99061928Y-75300000D01*
X99074188Y-75424482D01*
X99110498Y-75544180D01*
X99169463Y-75654494D01*
X99248815Y-75751185D01*
X99345506Y-75830537D01*
X99455820Y-75889502D01*
X99575518Y-75925812D01*
X99700000Y-75938072D01*
X102300000Y-75938072D01*
X102424482Y-75925812D01*
X102544180Y-75889502D01*
X102654494Y-75830537D01*
X102751185Y-75751185D01*
X102830537Y-75654494D01*
X102889502Y-75544180D01*
X102925812Y-75424482D01*
X102938072Y-75300000D01*
X102938072Y-72700000D01*
X102925812Y-72575518D01*
X102889502Y-72455820D01*
X102830537Y-72345506D01*
X102751185Y-72248815D01*
X102654494Y-72169463D01*
X102544180Y-72110498D01*
X102424482Y-72074188D01*
X102300000Y-72061928D01*
X99700000Y-72061928D01*
X99575518Y-72074188D01*
X99455820Y-72110498D01*
X99345506Y-72169463D01*
X99248815Y-72248815D01*
X99169463Y-72345506D01*
X99110498Y-72455820D01*
X99074188Y-72575518D01*
X99061928Y-72700000D01*
X31910158Y-72700000D01*
X34027817Y-70582341D01*
X34057764Y-70557764D01*
X34155862Y-70438233D01*
X34228754Y-70301860D01*
X34273641Y-70153887D01*
X34285000Y-70038561D01*
X34285000Y-70038554D01*
X34288797Y-70000001D01*
X34285000Y-69961448D01*
X34285000Y-66538556D01*
X34288797Y-66500000D01*
X34285000Y-66461444D01*
X34285000Y-66461439D01*
X34281020Y-66421026D01*
X34273642Y-66346113D01*
X34228754Y-66198140D01*
X34155862Y-66061767D01*
X34057764Y-65942236D01*
X34027810Y-65917653D01*
X31285000Y-63174843D01*
X31285000Y-61338967D01*
X31365000Y-61338967D01*
X31365000Y-61661033D01*
X31427832Y-61976912D01*
X31551082Y-62274463D01*
X31730013Y-62542252D01*
X31957748Y-62769987D01*
X32225537Y-62948918D01*
X32523088Y-63072168D01*
X32838967Y-63135000D01*
X33161033Y-63135000D01*
X33476912Y-63072168D01*
X33774463Y-62948918D01*
X34042252Y-62769987D01*
X34269987Y-62542252D01*
X34448918Y-62274463D01*
X34572168Y-61976912D01*
X34635000Y-61661033D01*
X34635000Y-61338967D01*
X34572168Y-61023088D01*
X34448918Y-60725537D01*
X34269987Y-60457748D01*
X34042252Y-60230013D01*
X33774463Y-60051082D01*
X33476912Y-59927832D01*
X33327243Y-59898061D01*
X42465000Y-59898061D01*
X42465000Y-60101939D01*
X42504774Y-60301898D01*
X42582795Y-60490256D01*
X42696063Y-60659774D01*
X42840226Y-60803937D01*
X43009744Y-60917205D01*
X43198102Y-60995226D01*
X43398061Y-61035000D01*
X43601939Y-61035000D01*
X43801898Y-60995226D01*
X43990256Y-60917205D01*
X44159774Y-60803937D01*
X44178711Y-60785000D01*
X67416841Y-60785000D01*
X70659656Y-64027816D01*
X70684234Y-64057764D01*
X70714182Y-64082342D01*
X70714185Y-64082345D01*
X70743557Y-64106450D01*
X70803765Y-64155862D01*
X70914406Y-64215000D01*
X59288553Y-64215000D01*
X59250000Y-64211203D01*
X59211447Y-64215000D01*
X55788556Y-64215000D01*
X55750000Y-64211203D01*
X55711444Y-64215000D01*
X55711439Y-64215000D01*
X55671026Y-64218980D01*
X55596113Y-64226358D01*
X55448140Y-64271246D01*
X55311767Y-64344138D01*
X55251559Y-64393550D01*
X55222187Y-64417655D01*
X55222184Y-64417658D01*
X55192236Y-64442236D01*
X55167658Y-64472184D01*
X52924843Y-66715000D01*
X49678703Y-66715000D01*
X49659766Y-66696063D01*
X49490248Y-66582795D01*
X49301890Y-66504774D01*
X49101931Y-66465000D01*
X48898053Y-66465000D01*
X48698094Y-66504774D01*
X48509736Y-66582795D01*
X48340218Y-66696063D01*
X48196055Y-66840226D01*
X48082787Y-67009744D01*
X48004766Y-67198102D01*
X47964992Y-67398061D01*
X47964992Y-67601939D01*
X48004766Y-67801898D01*
X48082787Y-67990256D01*
X48196055Y-68159774D01*
X48340218Y-68303937D01*
X48509736Y-68417205D01*
X48698094Y-68495226D01*
X48898053Y-68535000D01*
X49101931Y-68535000D01*
X49301890Y-68495226D01*
X49490248Y-68417205D01*
X49659766Y-68303937D01*
X49678703Y-68285000D01*
X53211447Y-68285000D01*
X53250000Y-68288797D01*
X53288553Y-68285000D01*
X53288561Y-68285000D01*
X53403887Y-68273641D01*
X53551860Y-68228754D01*
X53688233Y-68155862D01*
X53807764Y-68057764D01*
X53832347Y-68027810D01*
X56075158Y-65785000D01*
X58924843Y-65785000D01*
X61095446Y-67955604D01*
X61065000Y-68108665D01*
X61065000Y-68391335D01*
X61120147Y-68668574D01*
X61228320Y-68929727D01*
X61385363Y-69164759D01*
X61585241Y-69364637D01*
X61820273Y-69521680D01*
X62081426Y-69629853D01*
X62358665Y-69685000D01*
X62641335Y-69685000D01*
X62918574Y-69629853D01*
X63179727Y-69521680D01*
X63414759Y-69364637D01*
X63536694Y-69242702D01*
X66686903Y-69242702D01*
X66758486Y-69486671D01*
X67013996Y-69607571D01*
X67288184Y-69676300D01*
X67570512Y-69690217D01*
X67850130Y-69648787D01*
X68116292Y-69553603D01*
X68241514Y-69486671D01*
X68313097Y-69242702D01*
X67500000Y-68429605D01*
X66686903Y-69242702D01*
X63536694Y-69242702D01*
X63614637Y-69164759D01*
X63771680Y-68929727D01*
X63879853Y-68668574D01*
X63935000Y-68391335D01*
X63935000Y-68320512D01*
X66059783Y-68320512D01*
X66101213Y-68600130D01*
X66196397Y-68866292D01*
X66263329Y-68991514D01*
X66507298Y-69063097D01*
X67320395Y-68250000D01*
X67679605Y-68250000D01*
X68492702Y-69063097D01*
X68736671Y-68991514D01*
X68857571Y-68736004D01*
X68926300Y-68461816D01*
X68940217Y-68179488D01*
X68898787Y-67899870D01*
X68803603Y-67633708D01*
X68736671Y-67508486D01*
X68492702Y-67436903D01*
X67679605Y-68250000D01*
X67320395Y-68250000D01*
X66507298Y-67436903D01*
X66263329Y-67508486D01*
X66142429Y-67763996D01*
X66073700Y-68038184D01*
X66059783Y-68320512D01*
X63935000Y-68320512D01*
X63935000Y-68108665D01*
X63879853Y-67831426D01*
X63771680Y-67570273D01*
X63614637Y-67335241D01*
X63536694Y-67257298D01*
X66686903Y-67257298D01*
X67500000Y-68070395D01*
X68313097Y-67257298D01*
X68241514Y-67013329D01*
X67986004Y-66892429D01*
X67711816Y-66823700D01*
X67429488Y-66809783D01*
X67149870Y-66851213D01*
X66883708Y-66946397D01*
X66758486Y-67013329D01*
X66686903Y-67257298D01*
X63536694Y-67257298D01*
X63414759Y-67135363D01*
X63179727Y-66978320D01*
X62918574Y-66870147D01*
X62641335Y-66815000D01*
X62358665Y-66815000D01*
X62205604Y-66845446D01*
X61145157Y-65785000D01*
X73674843Y-65785000D01*
X76667658Y-68777816D01*
X76692236Y-68807764D01*
X76722184Y-68832342D01*
X76722187Y-68832345D01*
X76751559Y-68856450D01*
X76811767Y-68905862D01*
X76948140Y-68978754D01*
X77096113Y-69023641D01*
X77211439Y-69035000D01*
X77211446Y-69035000D01*
X77249999Y-69038797D01*
X77288552Y-69035000D01*
X77298661Y-69035000D01*
X77385363Y-69164759D01*
X77585241Y-69364637D01*
X77820273Y-69521680D01*
X78081426Y-69629853D01*
X78358665Y-69685000D01*
X78641335Y-69685000D01*
X78918574Y-69629853D01*
X79179727Y-69521680D01*
X79414759Y-69364637D01*
X79536694Y-69242702D01*
X82686903Y-69242702D01*
X82758486Y-69486671D01*
X83013996Y-69607571D01*
X83288184Y-69676300D01*
X83570512Y-69690217D01*
X83850130Y-69648787D01*
X84116292Y-69553603D01*
X84241514Y-69486671D01*
X84313097Y-69242702D01*
X83500000Y-68429605D01*
X82686903Y-69242702D01*
X79536694Y-69242702D01*
X79614637Y-69164759D01*
X79771680Y-68929727D01*
X79879853Y-68668574D01*
X79935000Y-68391335D01*
X79935000Y-68320512D01*
X82059783Y-68320512D01*
X82101213Y-68600130D01*
X82196397Y-68866292D01*
X82263329Y-68991514D01*
X82507298Y-69063097D01*
X83320395Y-68250000D01*
X83679605Y-68250000D01*
X84492702Y-69063097D01*
X84736671Y-68991514D01*
X84822833Y-68809419D01*
X99065000Y-68809419D01*
X99065000Y-69190581D01*
X99139361Y-69564419D01*
X99285225Y-69916566D01*
X99496987Y-70233491D01*
X99766509Y-70503013D01*
X100083434Y-70714775D01*
X100435581Y-70860639D01*
X100809419Y-70935000D01*
X101190581Y-70935000D01*
X101564419Y-70860639D01*
X101916566Y-70714775D01*
X102233491Y-70503013D01*
X102503013Y-70233491D01*
X102714775Y-69916566D01*
X102860639Y-69564419D01*
X102935000Y-69190581D01*
X102935000Y-68809419D01*
X102860639Y-68435581D01*
X102714775Y-68083434D01*
X102503013Y-67766509D01*
X102233491Y-67496987D01*
X101916566Y-67285225D01*
X101564419Y-67139361D01*
X101190581Y-67065000D01*
X100809419Y-67065000D01*
X100435581Y-67139361D01*
X100083434Y-67285225D01*
X99766509Y-67496987D01*
X99496987Y-67766509D01*
X99285225Y-68083434D01*
X99139361Y-68435581D01*
X99065000Y-68809419D01*
X84822833Y-68809419D01*
X84857571Y-68736004D01*
X84926300Y-68461816D01*
X84940217Y-68179488D01*
X84898787Y-67899870D01*
X84803603Y-67633708D01*
X84736671Y-67508486D01*
X84492702Y-67436903D01*
X83679605Y-68250000D01*
X83320395Y-68250000D01*
X82507298Y-67436903D01*
X82263329Y-67508486D01*
X82142429Y-67763996D01*
X82073700Y-68038184D01*
X82059783Y-68320512D01*
X79935000Y-68320512D01*
X79935000Y-68108665D01*
X79879853Y-67831426D01*
X79771680Y-67570273D01*
X79614637Y-67335241D01*
X79536694Y-67257298D01*
X82686903Y-67257298D01*
X83500000Y-68070395D01*
X84313097Y-67257298D01*
X84241514Y-67013329D01*
X83986004Y-66892429D01*
X83711816Y-66823700D01*
X83429488Y-66809783D01*
X83149870Y-66851213D01*
X82883708Y-66946397D01*
X82758486Y-67013329D01*
X82686903Y-67257298D01*
X79536694Y-67257298D01*
X79414759Y-67135363D01*
X79179727Y-66978320D01*
X78918574Y-66870147D01*
X78641335Y-66815000D01*
X78358665Y-66815000D01*
X78205604Y-66845446D01*
X75169577Y-63809419D01*
X99065000Y-63809419D01*
X99065000Y-64190581D01*
X99139361Y-64564419D01*
X99285225Y-64916566D01*
X99496987Y-65233491D01*
X99766509Y-65503013D01*
X100083434Y-65714775D01*
X100435581Y-65860639D01*
X100809419Y-65935000D01*
X101190581Y-65935000D01*
X101564419Y-65860639D01*
X101916566Y-65714775D01*
X102233491Y-65503013D01*
X102503013Y-65233491D01*
X102714775Y-64916566D01*
X102860639Y-64564419D01*
X102935000Y-64190581D01*
X102935000Y-63809419D01*
X102860639Y-63435581D01*
X102714775Y-63083434D01*
X102503013Y-62766509D01*
X102233491Y-62496987D01*
X101916566Y-62285225D01*
X101564419Y-62139361D01*
X101190581Y-62065000D01*
X100809419Y-62065000D01*
X100435581Y-62139361D01*
X100083434Y-62285225D01*
X99766509Y-62496987D01*
X99496987Y-62766509D01*
X99285225Y-63083434D01*
X99139361Y-63435581D01*
X99065000Y-63809419D01*
X75169577Y-63809419D01*
X74332347Y-62972190D01*
X74307764Y-62942236D01*
X74188233Y-62844138D01*
X74051860Y-62771246D01*
X73903887Y-62726359D01*
X73788561Y-62715000D01*
X73788553Y-62715000D01*
X73750000Y-62711203D01*
X73711447Y-62715000D01*
X71567156Y-62715000D01*
X68324345Y-59472190D01*
X68299762Y-59442236D01*
X68180231Y-59344138D01*
X68043858Y-59271246D01*
X67895885Y-59226359D01*
X67780559Y-59215000D01*
X67780551Y-59215000D01*
X67741998Y-59211203D01*
X67703445Y-59215000D01*
X44178711Y-59215000D01*
X44159774Y-59196063D01*
X43990256Y-59082795D01*
X43801898Y-59004774D01*
X43601939Y-58965000D01*
X43398061Y-58965000D01*
X43198102Y-59004774D01*
X43009744Y-59082795D01*
X42840226Y-59196063D01*
X42696063Y-59340226D01*
X42582795Y-59509744D01*
X42504774Y-59698102D01*
X42465000Y-59898061D01*
X33327243Y-59898061D01*
X33161033Y-59865000D01*
X32838967Y-59865000D01*
X32523088Y-59927832D01*
X32225537Y-60051082D01*
X31957748Y-60230013D01*
X31730013Y-60457748D01*
X31551082Y-60725537D01*
X31427832Y-61023088D01*
X31365000Y-61338967D01*
X31285000Y-61338967D01*
X31285000Y-55556890D01*
X96308524Y-55556890D01*
X96353175Y-55704099D01*
X96478359Y-55966920D01*
X96652412Y-56200269D01*
X96868645Y-56395178D01*
X97118748Y-56544157D01*
X97393109Y-56641481D01*
X97623000Y-56520814D01*
X97623000Y-55327000D01*
X97877000Y-55327000D01*
X97877000Y-56520814D01*
X98106891Y-56641481D01*
X98381252Y-56544157D01*
X98631355Y-56395178D01*
X98847588Y-56200269D01*
X99021641Y-55966920D01*
X99146825Y-55704099D01*
X99191476Y-55556890D01*
X99070155Y-55327000D01*
X97877000Y-55327000D01*
X97623000Y-55327000D01*
X96429845Y-55327000D01*
X96308524Y-55556890D01*
X31285000Y-55556890D01*
X31285000Y-51000000D01*
X38909428Y-51000000D01*
X38909428Y-53000000D01*
X38921688Y-53124482D01*
X38957998Y-53244180D01*
X39016963Y-53354494D01*
X39096315Y-53451185D01*
X39193006Y-53530537D01*
X39303320Y-53589502D01*
X39423018Y-53625812D01*
X39547500Y-53638072D01*
X41452500Y-53638072D01*
X41576982Y-53625812D01*
X41696680Y-53589502D01*
X41806994Y-53530537D01*
X41903685Y-53451185D01*
X41983037Y-53354494D01*
X42032059Y-53262781D01*
X42173077Y-53375969D01*
X42448906Y-53519571D01*
X42667020Y-53590563D01*
X42913000Y-53470594D01*
X42913000Y-52127000D01*
X42893000Y-52127000D01*
X42893000Y-51873000D01*
X42913000Y-51873000D01*
X42913000Y-50529406D01*
X43167000Y-50529406D01*
X43167000Y-51873000D01*
X43187000Y-51873000D01*
X43187000Y-52127000D01*
X43167000Y-52127000D01*
X43167000Y-53470594D01*
X43412980Y-53590563D01*
X43631094Y-53519571D01*
X43906923Y-53375969D01*
X44149437Y-53181315D01*
X44304837Y-52996101D01*
X44452037Y-53175463D01*
X44693766Y-53373845D01*
X44969552Y-53521255D01*
X45268797Y-53612030D01*
X45580000Y-53642681D01*
X45891204Y-53612030D01*
X46190449Y-53521255D01*
X46466235Y-53373845D01*
X46707963Y-53175463D01*
X46906345Y-52933734D01*
X47053755Y-52657948D01*
X47144530Y-52358703D01*
X47167500Y-52125485D01*
X47167500Y-51874514D01*
X47144530Y-51641296D01*
X47053755Y-51342051D01*
X46906345Y-51066265D01*
X46707963Y-50824537D01*
X46466234Y-50626155D01*
X46190448Y-50478745D01*
X45891203Y-50387970D01*
X45580000Y-50357319D01*
X45268796Y-50387970D01*
X44969551Y-50478745D01*
X44693765Y-50626155D01*
X44452037Y-50824537D01*
X44304838Y-51003900D01*
X44149437Y-50818685D01*
X43906923Y-50624031D01*
X43631094Y-50480429D01*
X43412980Y-50409437D01*
X43167000Y-50529406D01*
X42913000Y-50529406D01*
X42667020Y-50409437D01*
X42448906Y-50480429D01*
X42173077Y-50624031D01*
X42032059Y-50737219D01*
X41983037Y-50645506D01*
X41903685Y-50548815D01*
X41806994Y-50469463D01*
X41696680Y-50410498D01*
X41576982Y-50374188D01*
X41452500Y-50361928D01*
X39547500Y-50361928D01*
X39423018Y-50374188D01*
X39303320Y-50410498D01*
X39193006Y-50469463D01*
X39096315Y-50548815D01*
X39016963Y-50645506D01*
X38957998Y-50755820D01*
X38921688Y-50875518D01*
X38909428Y-51000000D01*
X31285000Y-51000000D01*
X31285000Y-49538556D01*
X31288797Y-49500000D01*
X31285000Y-49461444D01*
X31285000Y-49461439D01*
X31280583Y-49416589D01*
X31273642Y-49346113D01*
X31228754Y-49198140D01*
X31215513Y-49173368D01*
X31155862Y-49061767D01*
X31057764Y-48942236D01*
X31027816Y-48917658D01*
X28785000Y-46674843D01*
X28785000Y-45141877D01*
X29042252Y-44969987D01*
X29269987Y-44742252D01*
X29441877Y-44485000D01*
X31558123Y-44485000D01*
X31730013Y-44742252D01*
X31957748Y-44969987D01*
X32225537Y-45148918D01*
X32523088Y-45272168D01*
X32838967Y-45335000D01*
X33161033Y-45335000D01*
X33476912Y-45272168D01*
X33774463Y-45148918D01*
X34042252Y-44969987D01*
X34269987Y-44742252D01*
X34448918Y-44474463D01*
X34572168Y-44176912D01*
X34635000Y-43861033D01*
X34635000Y-43538967D01*
X34572168Y-43223088D01*
X34448918Y-42925537D01*
X34269987Y-42657748D01*
X34042252Y-42430013D01*
X33774463Y-42251082D01*
X33476912Y-42127832D01*
X33161033Y-42065000D01*
X32838967Y-42065000D01*
X32523088Y-42127832D01*
X32225537Y-42251082D01*
X31957748Y-42430013D01*
X31730013Y-42657748D01*
X31558123Y-42915000D01*
X29441877Y-42915000D01*
X29269987Y-42657748D01*
X29042252Y-42430013D01*
X28774463Y-42251082D01*
X28476912Y-42127832D01*
X28161033Y-42065000D01*
X27838967Y-42065000D01*
X27523088Y-42127832D01*
X27225537Y-42251082D01*
X26957748Y-42430013D01*
X26730013Y-42657748D01*
X26551082Y-42925537D01*
X26427832Y-43223088D01*
X26365000Y-43538967D01*
X25710000Y-43538967D01*
X25710000Y-34779872D01*
X27765000Y-34779872D01*
X27765000Y-35220128D01*
X27850890Y-35651925D01*
X28019369Y-36058669D01*
X28263962Y-36424729D01*
X28575271Y-36736038D01*
X28941331Y-36980631D01*
X29348075Y-37149110D01*
X29779872Y-37235000D01*
X30220128Y-37235000D01*
X30651925Y-37149110D01*
X31058669Y-36980631D01*
X31424729Y-36736038D01*
X31736038Y-36424729D01*
X31980631Y-36058669D01*
X32149110Y-35651925D01*
X32149878Y-35648061D01*
X72965000Y-35648061D01*
X72965000Y-35851939D01*
X73004774Y-36051898D01*
X73082795Y-36240256D01*
X73196063Y-36409774D01*
X73215001Y-36428712D01*
X73215000Y-38961447D01*
X73211203Y-39000000D01*
X73215000Y-39038553D01*
X73215000Y-39038560D01*
X73226359Y-39153886D01*
X73271246Y-39301859D01*
X73344138Y-39438232D01*
X73442236Y-39557764D01*
X73472190Y-39582347D01*
X74715001Y-40825159D01*
X74715000Y-48961447D01*
X74711203Y-49000000D01*
X74715000Y-49038553D01*
X74715000Y-49038560D01*
X74726359Y-49153886D01*
X74771246Y-49301859D01*
X74844138Y-49438232D01*
X74942236Y-49557764D01*
X74972190Y-49582347D01*
X79667658Y-54277816D01*
X79692236Y-54307764D01*
X79722184Y-54332342D01*
X79722187Y-54332345D01*
X79751559Y-54356450D01*
X79811767Y-54405862D01*
X79948140Y-54478754D01*
X80061672Y-54513194D01*
X80096112Y-54523641D01*
X80110490Y-54525057D01*
X80211439Y-54535000D01*
X80211446Y-54535000D01*
X80249999Y-54538797D01*
X80288552Y-54535000D01*
X84571289Y-54535000D01*
X84590226Y-54553937D01*
X84759744Y-54667205D01*
X84948102Y-54745226D01*
X85148061Y-54785000D01*
X85351939Y-54785000D01*
X85551898Y-54745226D01*
X85740256Y-54667205D01*
X85909774Y-54553937D01*
X86053937Y-54409774D01*
X86167205Y-54240256D01*
X86245226Y-54051898D01*
X86285000Y-53851939D01*
X86285000Y-53648061D01*
X86245226Y-53448102D01*
X86167205Y-53259744D01*
X86053937Y-53090226D01*
X85909774Y-52946063D01*
X85740256Y-52832795D01*
X85551898Y-52754774D01*
X85351939Y-52715000D01*
X85148061Y-52715000D01*
X84948102Y-52754774D01*
X84759744Y-52832795D01*
X84590226Y-52946063D01*
X84571289Y-52965000D01*
X80575158Y-52965000D01*
X78008219Y-50398061D01*
X88465000Y-50398061D01*
X88465000Y-50601939D01*
X88504774Y-50801898D01*
X88582795Y-50990256D01*
X88696063Y-51159774D01*
X88840226Y-51303937D01*
X89009744Y-51417205D01*
X89198102Y-51495226D01*
X89398061Y-51535000D01*
X89601939Y-51535000D01*
X89801898Y-51495226D01*
X89990256Y-51417205D01*
X90159774Y-51303937D01*
X90178711Y-51285000D01*
X92251447Y-51285000D01*
X92290000Y-51288797D01*
X92328553Y-51285000D01*
X92328561Y-51285000D01*
X92443887Y-51273641D01*
X92591860Y-51228754D01*
X92728233Y-51155862D01*
X92847764Y-51057764D01*
X92872347Y-51027810D01*
X96265000Y-47635158D01*
X96265000Y-47726260D01*
X96322068Y-48013158D01*
X96434010Y-48283411D01*
X96596525Y-48526632D01*
X96803368Y-48733475D01*
X96977760Y-48850000D01*
X96803368Y-48966525D01*
X96596525Y-49173368D01*
X96434010Y-49416589D01*
X96322068Y-49686842D01*
X96265000Y-49973740D01*
X96265000Y-50266260D01*
X96322068Y-50553158D01*
X96434010Y-50823411D01*
X96596525Y-51066632D01*
X96803368Y-51273475D01*
X96977760Y-51390000D01*
X96803368Y-51506525D01*
X96596525Y-51713368D01*
X96434010Y-51956589D01*
X96322068Y-52226842D01*
X96265000Y-52513740D01*
X96265000Y-52806260D01*
X96322068Y-53093158D01*
X96434010Y-53363411D01*
X96596525Y-53606632D01*
X96803368Y-53813475D01*
X96985534Y-53935195D01*
X96868645Y-54004822D01*
X96652412Y-54199731D01*
X96478359Y-54433080D01*
X96353175Y-54695901D01*
X96308524Y-54843110D01*
X96429845Y-55073000D01*
X97623000Y-55073000D01*
X97623000Y-55053000D01*
X97877000Y-55053000D01*
X97877000Y-55073000D01*
X99070155Y-55073000D01*
X99191476Y-54843110D01*
X99146825Y-54695901D01*
X99021641Y-54433080D01*
X98847588Y-54199731D01*
X98631355Y-54004822D01*
X98514466Y-53935195D01*
X98696632Y-53813475D01*
X98903475Y-53606632D01*
X99065990Y-53363411D01*
X99177932Y-53093158D01*
X99235000Y-52806260D01*
X99235000Y-52513740D01*
X99177932Y-52226842D01*
X99065990Y-51956589D01*
X98903475Y-51713368D01*
X98696632Y-51506525D01*
X98522240Y-51390000D01*
X98696632Y-51273475D01*
X98903475Y-51066632D01*
X99065990Y-50823411D01*
X99177932Y-50553158D01*
X99235000Y-50266260D01*
X99235000Y-49973740D01*
X99177932Y-49686842D01*
X99065990Y-49416589D01*
X98903475Y-49173368D01*
X98696632Y-48966525D01*
X98522240Y-48850000D01*
X98696632Y-48733475D01*
X98903475Y-48526632D01*
X99065990Y-48283411D01*
X99177932Y-48013158D01*
X99235000Y-47726260D01*
X99235000Y-47433740D01*
X99177932Y-47146842D01*
X99065990Y-46876589D01*
X98903475Y-46633368D01*
X98696632Y-46426525D01*
X98522240Y-46310000D01*
X98696632Y-46193475D01*
X98903475Y-45986632D01*
X99065990Y-45743411D01*
X99177932Y-45473158D01*
X99235000Y-45186260D01*
X99235000Y-44893740D01*
X99177932Y-44606842D01*
X99065990Y-44336589D01*
X98903475Y-44093368D01*
X98771620Y-43961513D01*
X98844180Y-43939502D01*
X98954494Y-43880537D01*
X99051185Y-43801185D01*
X99130537Y-43704494D01*
X99189502Y-43594180D01*
X99225812Y-43474482D01*
X99238072Y-43350000D01*
X99238072Y-41650000D01*
X99225812Y-41525518D01*
X99189502Y-41405820D01*
X99130537Y-41295506D01*
X99051185Y-41198815D01*
X98954494Y-41119463D01*
X98844180Y-41060498D01*
X98724482Y-41024188D01*
X98600000Y-41011928D01*
X96900000Y-41011928D01*
X96775518Y-41024188D01*
X96655820Y-41060498D01*
X96545506Y-41119463D01*
X96448815Y-41198815D01*
X96369463Y-41295506D01*
X96310498Y-41405820D01*
X96274188Y-41525518D01*
X96261928Y-41650000D01*
X96261928Y-43350000D01*
X96274188Y-43474482D01*
X96310498Y-43594180D01*
X96369463Y-43704494D01*
X96448815Y-43801185D01*
X96545506Y-43880537D01*
X96655820Y-43939502D01*
X96728380Y-43961513D01*
X96596525Y-44093368D01*
X96434010Y-44336589D01*
X96322068Y-44606842D01*
X96265000Y-44893740D01*
X96265000Y-45186260D01*
X96302924Y-45376918D01*
X91964843Y-49715000D01*
X90178711Y-49715000D01*
X90159774Y-49696063D01*
X89990256Y-49582795D01*
X89801898Y-49504774D01*
X89601939Y-49465000D01*
X89398061Y-49465000D01*
X89198102Y-49504774D01*
X89009744Y-49582795D01*
X88840226Y-49696063D01*
X88696063Y-49840226D01*
X88582795Y-50009744D01*
X88504774Y-50198102D01*
X88465000Y-50398061D01*
X78008219Y-50398061D01*
X76285000Y-48674843D01*
X76285000Y-43398061D01*
X90965000Y-43398061D01*
X90965000Y-43601939D01*
X91004774Y-43801898D01*
X91082795Y-43990256D01*
X91196063Y-44159774D01*
X91340226Y-44303937D01*
X91509744Y-44417205D01*
X91698102Y-44495226D01*
X91898061Y-44535000D01*
X92101939Y-44535000D01*
X92301898Y-44495226D01*
X92490256Y-44417205D01*
X92659774Y-44303937D01*
X92803937Y-44159774D01*
X92917205Y-43990256D01*
X92995226Y-43801898D01*
X93035000Y-43601939D01*
X93035000Y-43398061D01*
X92995226Y-43198102D01*
X92917205Y-43009744D01*
X92803937Y-42840226D01*
X92785000Y-42821289D01*
X92785000Y-41325157D01*
X93575158Y-40535000D01*
X93601939Y-40535000D01*
X93801898Y-40495226D01*
X93990256Y-40417205D01*
X94159774Y-40303937D01*
X94303937Y-40159774D01*
X94417205Y-39990256D01*
X94495226Y-39801898D01*
X94535000Y-39601939D01*
X94535000Y-39398061D01*
X94495226Y-39198102D01*
X94417205Y-39009744D01*
X94303937Y-38840226D01*
X94159774Y-38696063D01*
X93990256Y-38582795D01*
X93801898Y-38504774D01*
X93601939Y-38465000D01*
X93398061Y-38465000D01*
X93198102Y-38504774D01*
X93009744Y-38582795D01*
X92840226Y-38696063D01*
X92696063Y-38840226D01*
X92582795Y-39009744D01*
X92504774Y-39198102D01*
X92465000Y-39398061D01*
X92465000Y-39424842D01*
X91472185Y-40417658D01*
X91442237Y-40442236D01*
X91417659Y-40472184D01*
X91417655Y-40472188D01*
X91394831Y-40499999D01*
X91344139Y-40561767D01*
X91305177Y-40634660D01*
X91271246Y-40698141D01*
X91226359Y-40846114D01*
X91211203Y-41000000D01*
X91215001Y-41038563D01*
X91215000Y-42821289D01*
X91196063Y-42840226D01*
X91082795Y-43009744D01*
X91004774Y-43198102D01*
X90965000Y-43398061D01*
X76285000Y-43398061D01*
X76285000Y-40538552D01*
X76288797Y-40499999D01*
X76285000Y-40461446D01*
X76285000Y-40461439D01*
X76273641Y-40346113D01*
X76228754Y-40198140D01*
X76155862Y-40061767D01*
X76057764Y-39942236D01*
X76027816Y-39917658D01*
X74785000Y-38674843D01*
X74785000Y-36535000D01*
X89571289Y-36535000D01*
X89590226Y-36553937D01*
X89759744Y-36667205D01*
X89948102Y-36745226D01*
X90148061Y-36785000D01*
X90351939Y-36785000D01*
X90551898Y-36745226D01*
X90740256Y-36667205D01*
X90909774Y-36553937D01*
X91053937Y-36409774D01*
X91167205Y-36240256D01*
X91245226Y-36051898D01*
X91285000Y-35851939D01*
X91285000Y-35648061D01*
X91245226Y-35448102D01*
X91167205Y-35259744D01*
X91053937Y-35090226D01*
X90912941Y-34949230D01*
X90990256Y-34917205D01*
X91159774Y-34803937D01*
X91183839Y-34779872D01*
X98765000Y-34779872D01*
X98765000Y-35220128D01*
X98850890Y-35651925D01*
X99019369Y-36058669D01*
X99263962Y-36424729D01*
X99575271Y-36736038D01*
X99941331Y-36980631D01*
X100348075Y-37149110D01*
X100779872Y-37235000D01*
X101220128Y-37235000D01*
X101651925Y-37149110D01*
X102058669Y-36980631D01*
X102424729Y-36736038D01*
X102736038Y-36424729D01*
X102980631Y-36058669D01*
X103149110Y-35651925D01*
X103235000Y-35220128D01*
X103235000Y-34779872D01*
X103149110Y-34348075D01*
X102980631Y-33941331D01*
X102736038Y-33575271D01*
X102424729Y-33263962D01*
X102058669Y-33019369D01*
X101651925Y-32850890D01*
X101220128Y-32765000D01*
X100779872Y-32765000D01*
X100348075Y-32850890D01*
X99941331Y-33019369D01*
X99575271Y-33263962D01*
X99263962Y-33575271D01*
X99019369Y-33941331D01*
X98850890Y-34348075D01*
X98765000Y-34779872D01*
X91183839Y-34779872D01*
X91303937Y-34659774D01*
X91417205Y-34490256D01*
X91495226Y-34301898D01*
X91535000Y-34101939D01*
X91535000Y-33898061D01*
X91495226Y-33698102D01*
X91417205Y-33509744D01*
X91303937Y-33340226D01*
X91159774Y-33196063D01*
X90990256Y-33082795D01*
X90801898Y-33004774D01*
X90601939Y-32965000D01*
X90398061Y-32965000D01*
X90198102Y-33004774D01*
X90009744Y-33082795D01*
X89840226Y-33196063D01*
X89821289Y-33215000D01*
X75178711Y-33215000D01*
X75159774Y-33196063D01*
X74990256Y-33082795D01*
X74801898Y-33004774D01*
X74601939Y-32965000D01*
X74398061Y-32965000D01*
X74198102Y-33004774D01*
X74009744Y-33082795D01*
X73840226Y-33196063D01*
X73696063Y-33340226D01*
X73582795Y-33509744D01*
X73504774Y-33698102D01*
X73465000Y-33898061D01*
X73465000Y-34101939D01*
X73504774Y-34301898D01*
X73582795Y-34490256D01*
X73696063Y-34659774D01*
X73775640Y-34739351D01*
X73698102Y-34754774D01*
X73509744Y-34832795D01*
X73340226Y-34946063D01*
X73196063Y-35090226D01*
X73082795Y-35259744D01*
X73004774Y-35448102D01*
X72965000Y-35648061D01*
X32149878Y-35648061D01*
X32235000Y-35220128D01*
X32235000Y-34779872D01*
X32149110Y-34348075D01*
X31980631Y-33941331D01*
X31736038Y-33575271D01*
X31424729Y-33263962D01*
X31058669Y-33019369D01*
X30651925Y-32850890D01*
X30220128Y-32765000D01*
X29779872Y-32765000D01*
X29348075Y-32850890D01*
X28941331Y-33019369D01*
X28575271Y-33263962D01*
X28263962Y-33575271D01*
X28019369Y-33941331D01*
X27850890Y-34348075D01*
X27765000Y-34779872D01*
X25710000Y-34779872D01*
X25710000Y-32034721D01*
X25737907Y-31750101D01*
X25810484Y-31509715D01*
X25928368Y-31288009D01*
X26087068Y-31093423D01*
X26280545Y-30933365D01*
X26501424Y-30813936D01*
X26741297Y-30739683D01*
X27023716Y-30710000D01*
X103965279Y-30710000D01*
X104249899Y-30737907D01*
G37*
X104249899Y-30737907D02*
X104490285Y-30810484D01*
X104711991Y-30928368D01*
X104906577Y-31087068D01*
X105066635Y-31280545D01*
X105186064Y-31501424D01*
X105260317Y-31741297D01*
X105290000Y-32023716D01*
X105290001Y-86965269D01*
X105262093Y-87249899D01*
X105189517Y-87490282D01*
X105071633Y-87711989D01*
X104912929Y-87906580D01*
X104719455Y-88066635D01*
X104498576Y-88186064D01*
X104258701Y-88260317D01*
X103976291Y-88290000D01*
X27034721Y-88290000D01*
X26750101Y-88262093D01*
X26509718Y-88189517D01*
X26288011Y-88071633D01*
X26093420Y-87912929D01*
X25933365Y-87719455D01*
X25813936Y-87498576D01*
X25739683Y-87258701D01*
X25710000Y-86976291D01*
X25710000Y-83779872D01*
X27765000Y-83779872D01*
X27765000Y-84220128D01*
X27850890Y-84651925D01*
X28019369Y-85058669D01*
X28263962Y-85424729D01*
X28575271Y-85736038D01*
X28941331Y-85980631D01*
X29348075Y-86149110D01*
X29779872Y-86235000D01*
X30220128Y-86235000D01*
X30651925Y-86149110D01*
X31058669Y-85980631D01*
X31424729Y-85736038D01*
X31736038Y-85424729D01*
X31980631Y-85058669D01*
X32149110Y-84651925D01*
X32235000Y-84220128D01*
X32235000Y-83779872D01*
X32149110Y-83348075D01*
X31980631Y-82941331D01*
X31819380Y-82700000D01*
X36061928Y-82700000D01*
X36061928Y-85300000D01*
X36074188Y-85424482D01*
X36110498Y-85544180D01*
X36169463Y-85654494D01*
X36248815Y-85751185D01*
X36345506Y-85830537D01*
X36455820Y-85889502D01*
X36575518Y-85925812D01*
X36700000Y-85938072D01*
X39300000Y-85938072D01*
X39424482Y-85925812D01*
X39544180Y-85889502D01*
X39654494Y-85830537D01*
X39751185Y-85751185D01*
X39830537Y-85654494D01*
X39889502Y-85544180D01*
X39925812Y-85424482D01*
X39938072Y-85300000D01*
X39938072Y-83809419D01*
X41065000Y-83809419D01*
X41065000Y-84190581D01*
X41139361Y-84564419D01*
X41285225Y-84916566D01*
X41496987Y-85233491D01*
X41766509Y-85503013D01*
X42083434Y-85714775D01*
X42435581Y-85860639D01*
X42809419Y-85935000D01*
X43190581Y-85935000D01*
X43564419Y-85860639D01*
X43916566Y-85714775D01*
X44233491Y-85503013D01*
X44503013Y-85233491D01*
X44714775Y-84916566D01*
X44860639Y-84564419D01*
X44935000Y-84190581D01*
X44935000Y-83809419D01*
X46065000Y-83809419D01*
X46065000Y-84190581D01*
X46139361Y-84564419D01*
X46285225Y-84916566D01*
X46496987Y-85233491D01*
X46766509Y-85503013D01*
X47083434Y-85714775D01*
X47435581Y-85860639D01*
X47809419Y-85935000D01*
X48190581Y-85935000D01*
X48564419Y-85860639D01*
X48916566Y-85714775D01*
X49233491Y-85503013D01*
X49503013Y-85233491D01*
X49714775Y-84916566D01*
X49860639Y-84564419D01*
X49935000Y-84190581D01*
X49935000Y-83809419D01*
X49860639Y-83435581D01*
X49714775Y-83083434D01*
X49503013Y-82766509D01*
X49436504Y-82700000D01*
X51061928Y-82700000D01*
X51061928Y-85300000D01*
X51074188Y-85424482D01*
X51110498Y-85544180D01*
X51169463Y-85654494D01*
X51248815Y-85751185D01*
X51345506Y-85830537D01*
X51455820Y-85889502D01*
X51575518Y-85925812D01*
X51700000Y-85938072D01*
X54300000Y-85938072D01*
X54424482Y-85925812D01*
X54544180Y-85889502D01*
X54654494Y-85830537D01*
X54751185Y-85751185D01*
X54830537Y-85654494D01*
X54889502Y-85544180D01*
X54925812Y-85424482D01*
X54938072Y-85300000D01*
X54938072Y-83809419D01*
X56065000Y-83809419D01*
X56065000Y-84190581D01*
X56139361Y-84564419D01*
X56285225Y-84916566D01*
X56496987Y-85233491D01*
X56766509Y-85503013D01*
X57083434Y-85714775D01*
X57435581Y-85860639D01*
X57809419Y-85935000D01*
X58190581Y-85935000D01*
X58564419Y-85860639D01*
X58916566Y-85714775D01*
X59233491Y-85503013D01*
X59503013Y-85233491D01*
X59714775Y-84916566D01*
X59860639Y-84564419D01*
X59935000Y-84190581D01*
X59935000Y-83809419D01*
X61065000Y-83809419D01*
X61065000Y-84190581D01*
X61139361Y-84564419D01*
X61285225Y-84916566D01*
X61496987Y-85233491D01*
X61766509Y-85503013D01*
X62083434Y-85714775D01*
X62435581Y-85860639D01*
X62809419Y-85935000D01*
X63190581Y-85935000D01*
X63564419Y-85860639D01*
X63916566Y-85714775D01*
X64233491Y-85503013D01*
X64503013Y-85233491D01*
X64714775Y-84916566D01*
X64860639Y-84564419D01*
X64935000Y-84190581D01*
X64935000Y-83809419D01*
X64860639Y-83435581D01*
X64714775Y-83083434D01*
X64503013Y-82766509D01*
X64436504Y-82700000D01*
X66061928Y-82700000D01*
X66061928Y-85300000D01*
X66074188Y-85424482D01*
X66110498Y-85544180D01*
X66169463Y-85654494D01*
X66248815Y-85751185D01*
X66345506Y-85830537D01*
X66455820Y-85889502D01*
X66575518Y-85925812D01*
X66700000Y-85938072D01*
X69300000Y-85938072D01*
X69424482Y-85925812D01*
X69544180Y-85889502D01*
X69654494Y-85830537D01*
X69751185Y-85751185D01*
X69830537Y-85654494D01*
X69889502Y-85544180D01*
X69925812Y-85424482D01*
X69938072Y-85300000D01*
X69938072Y-83809419D01*
X71065000Y-83809419D01*
X71065000Y-84190581D01*
X71139361Y-84564419D01*
X71285225Y-84916566D01*
X71496987Y-85233491D01*
X71766509Y-85503013D01*
X72083434Y-85714775D01*
X72435581Y-85860639D01*
X72809419Y-85935000D01*
X73190581Y-85935000D01*
X73564419Y-85860639D01*
X73916566Y-85714775D01*
X74233491Y-85503013D01*
X74503013Y-85233491D01*
X74714775Y-84916566D01*
X74860639Y-84564419D01*
X74935000Y-84190581D01*
X74935000Y-83809419D01*
X76065000Y-83809419D01*
X76065000Y-84190581D01*
X76139361Y-84564419D01*
X76285225Y-84916566D01*
X76496987Y-85233491D01*
X76766509Y-85503013D01*
X77083434Y-85714775D01*
X77435581Y-85860639D01*
X77809419Y-85935000D01*
X78190581Y-85935000D01*
X78564419Y-85860639D01*
X78916566Y-85714775D01*
X79233491Y-85503013D01*
X79503013Y-85233491D01*
X79714775Y-84916566D01*
X79860639Y-84564419D01*
X79935000Y-84190581D01*
X79935000Y-83809419D01*
X79860639Y-83435581D01*
X79714775Y-83083434D01*
X79503013Y-82766509D01*
X79436504Y-82700000D01*
X81061928Y-82700000D01*
X81061928Y-85300000D01*
X81074188Y-85424482D01*
X81110498Y-85544180D01*
X81169463Y-85654494D01*
X81248815Y-85751185D01*
X81345506Y-85830537D01*
X81455820Y-85889502D01*
X81575518Y-85925812D01*
X81700000Y-85938072D01*
X84300000Y-85938072D01*
X84424482Y-85925812D01*
X84544180Y-85889502D01*
X84654494Y-85830537D01*
X84751185Y-85751185D01*
X84830537Y-85654494D01*
X84889502Y-85544180D01*
X84925812Y-85424482D01*
X84938072Y-85300000D01*
X84938072Y-83809419D01*
X86065000Y-83809419D01*
X86065000Y-84190581D01*
X86139361Y-84564419D01*
X86285225Y-84916566D01*
X86496987Y-85233491D01*
X86766509Y-85503013D01*
X87083434Y-85714775D01*
X87435581Y-85860639D01*
X87809419Y-85935000D01*
X88190581Y-85935000D01*
X88564419Y-85860639D01*
X88916566Y-85714775D01*
X89233491Y-85503013D01*
X89503013Y-85233491D01*
X89714775Y-84916566D01*
X89860639Y-84564419D01*
X89935000Y-84190581D01*
X89935000Y-83809419D01*
X91065000Y-83809419D01*
X91065000Y-84190581D01*
X91139361Y-84564419D01*
X91285225Y-84916566D01*
X91496987Y-85233491D01*
X91766509Y-85503013D01*
X92083434Y-85714775D01*
X92435581Y-85860639D01*
X92809419Y-85935000D01*
X93190581Y-85935000D01*
X93564419Y-85860639D01*
X93916566Y-85714775D01*
X94233491Y-85503013D01*
X94503013Y-85233491D01*
X94714775Y-84916566D01*
X94860639Y-84564419D01*
X94935000Y-84190581D01*
X94935000Y-83809419D01*
X94929123Y-83779872D01*
X98765000Y-83779872D01*
X98765000Y-84220128D01*
X98850890Y-84651925D01*
X99019369Y-85058669D01*
X99263962Y-85424729D01*
X99575271Y-85736038D01*
X99941331Y-85980631D01*
X100348075Y-86149110D01*
X100779872Y-86235000D01*
X101220128Y-86235000D01*
X101651925Y-86149110D01*
X102058669Y-85980631D01*
X102424729Y-85736038D01*
X102736038Y-85424729D01*
X102980631Y-85058669D01*
X103149110Y-84651925D01*
X103235000Y-84220128D01*
X103235000Y-83779872D01*
X103149110Y-83348075D01*
X102980631Y-82941331D01*
X102736038Y-82575271D01*
X102424729Y-82263962D01*
X102058669Y-82019369D01*
X101651925Y-81850890D01*
X101220128Y-81765000D01*
X100779872Y-81765000D01*
X100348075Y-81850890D01*
X99941331Y-82019369D01*
X99575271Y-82263962D01*
X99263962Y-82575271D01*
X99019369Y-82941331D01*
X98850890Y-83348075D01*
X98765000Y-83779872D01*
X94929123Y-83779872D01*
X94860639Y-83435581D01*
X94714775Y-83083434D01*
X94503013Y-82766509D01*
X94233491Y-82496987D01*
X93916566Y-82285225D01*
X93564419Y-82139361D01*
X93190581Y-82065000D01*
X92809419Y-82065000D01*
X92435581Y-82139361D01*
X92083434Y-82285225D01*
X91766509Y-82496987D01*
X91496987Y-82766509D01*
X91285225Y-83083434D01*
X91139361Y-83435581D01*
X91065000Y-83809419D01*
X89935000Y-83809419D01*
X89860639Y-83435581D01*
X89714775Y-83083434D01*
X89503013Y-82766509D01*
X89233491Y-82496987D01*
X88916566Y-82285225D01*
X88564419Y-82139361D01*
X88190581Y-82065000D01*
X87809419Y-82065000D01*
X87435581Y-82139361D01*
X87083434Y-82285225D01*
X86766509Y-82496987D01*
X86496987Y-82766509D01*
X86285225Y-83083434D01*
X86139361Y-83435581D01*
X86065000Y-83809419D01*
X84938072Y-83809419D01*
X84938072Y-82700000D01*
X84925812Y-82575518D01*
X84889502Y-82455820D01*
X84830537Y-82345506D01*
X84751185Y-82248815D01*
X84654494Y-82169463D01*
X84544180Y-82110498D01*
X84424482Y-82074188D01*
X84300000Y-82061928D01*
X81700000Y-82061928D01*
X81575518Y-82074188D01*
X81455820Y-82110498D01*
X81345506Y-82169463D01*
X81248815Y-82248815D01*
X81169463Y-82345506D01*
X81110498Y-82455820D01*
X81074188Y-82575518D01*
X81061928Y-82700000D01*
X79436504Y-82700000D01*
X79233491Y-82496987D01*
X78916566Y-82285225D01*
X78564419Y-82139361D01*
X78190581Y-82065000D01*
X77809419Y-82065000D01*
X77435581Y-82139361D01*
X77083434Y-82285225D01*
X76766509Y-82496987D01*
X76496987Y-82766509D01*
X76285225Y-83083434D01*
X76139361Y-83435581D01*
X76065000Y-83809419D01*
X74935000Y-83809419D01*
X74860639Y-83435581D01*
X74714775Y-83083434D01*
X74503013Y-82766509D01*
X74233491Y-82496987D01*
X73916566Y-82285225D01*
X73564419Y-82139361D01*
X73190581Y-82065000D01*
X72809419Y-82065000D01*
X72435581Y-82139361D01*
X72083434Y-82285225D01*
X71766509Y-82496987D01*
X71496987Y-82766509D01*
X71285225Y-83083434D01*
X71139361Y-83435581D01*
X71065000Y-83809419D01*
X69938072Y-83809419D01*
X69938072Y-82700000D01*
X69925812Y-82575518D01*
X69889502Y-82455820D01*
X69830537Y-82345506D01*
X69751185Y-82248815D01*
X69654494Y-82169463D01*
X69544180Y-82110498D01*
X69424482Y-82074188D01*
X69300000Y-82061928D01*
X66700000Y-82061928D01*
X66575518Y-82074188D01*
X66455820Y-82110498D01*
X66345506Y-82169463D01*
X66248815Y-82248815D01*
X66169463Y-82345506D01*
X66110498Y-82455820D01*
X66074188Y-82575518D01*
X66061928Y-82700000D01*
X64436504Y-82700000D01*
X64233491Y-82496987D01*
X63916566Y-82285225D01*
X63564419Y-82139361D01*
X63190581Y-82065000D01*
X62809419Y-82065000D01*
X62435581Y-82139361D01*
X62083434Y-82285225D01*
X61766509Y-82496987D01*
X61496987Y-82766509D01*
X61285225Y-83083434D01*
X61139361Y-83435581D01*
X61065000Y-83809419D01*
X59935000Y-83809419D01*
X59860639Y-83435581D01*
X59714775Y-83083434D01*
X59503013Y-82766509D01*
X59233491Y-82496987D01*
X58916566Y-82285225D01*
X58564419Y-82139361D01*
X58190581Y-82065000D01*
X57809419Y-82065000D01*
X57435581Y-82139361D01*
X57083434Y-82285225D01*
X56766509Y-82496987D01*
X56496987Y-82766509D01*
X56285225Y-83083434D01*
X56139361Y-83435581D01*
X56065000Y-83809419D01*
X54938072Y-83809419D01*
X54938072Y-82700000D01*
X54925812Y-82575518D01*
X54889502Y-82455820D01*
X54830537Y-82345506D01*
X54751185Y-82248815D01*
X54654494Y-82169463D01*
X54544180Y-82110498D01*
X54424482Y-82074188D01*
X54300000Y-82061928D01*
X51700000Y-82061928D01*
X51575518Y-82074188D01*
X51455820Y-82110498D01*
X51345506Y-82169463D01*
X51248815Y-82248815D01*
X51169463Y-82345506D01*
X51110498Y-82455820D01*
X51074188Y-82575518D01*
X51061928Y-82700000D01*
X49436504Y-82700000D01*
X49233491Y-82496987D01*
X48916566Y-82285225D01*
X48564419Y-82139361D01*
X48190581Y-82065000D01*
X47809419Y-82065000D01*
X47435581Y-82139361D01*
X47083434Y-82285225D01*
X46766509Y-82496987D01*
X46496987Y-82766509D01*
X46285225Y-83083434D01*
X46139361Y-83435581D01*
X46065000Y-83809419D01*
X44935000Y-83809419D01*
X44860639Y-83435581D01*
X44714775Y-83083434D01*
X44503013Y-82766509D01*
X44233491Y-82496987D01*
X43916566Y-82285225D01*
X43564419Y-82139361D01*
X43190581Y-82065000D01*
X42809419Y-82065000D01*
X42435581Y-82139361D01*
X42083434Y-82285225D01*
X41766509Y-82496987D01*
X41496987Y-82766509D01*
X41285225Y-83083434D01*
X41139361Y-83435581D01*
X41065000Y-83809419D01*
X39938072Y-83809419D01*
X39938072Y-82700000D01*
X39925812Y-82575518D01*
X39889502Y-82455820D01*
X39830537Y-82345506D01*
X39751185Y-82248815D01*
X39654494Y-82169463D01*
X39544180Y-82110498D01*
X39424482Y-82074188D01*
X39300000Y-82061928D01*
X36700000Y-82061928D01*
X36575518Y-82074188D01*
X36455820Y-82110498D01*
X36345506Y-82169463D01*
X36248815Y-82248815D01*
X36169463Y-82345506D01*
X36110498Y-82455820D01*
X36074188Y-82575518D01*
X36061928Y-82700000D01*
X31819380Y-82700000D01*
X31736038Y-82575271D01*
X31424729Y-82263962D01*
X31058669Y-82019369D01*
X30651925Y-81850890D01*
X30220128Y-81765000D01*
X29779872Y-81765000D01*
X29348075Y-81850890D01*
X28941331Y-82019369D01*
X28575271Y-82263962D01*
X28263962Y-82575271D01*
X28019369Y-82941331D01*
X27850890Y-83348075D01*
X27765000Y-83779872D01*
X25710000Y-83779872D01*
X25710000Y-67200000D01*
X28061928Y-67200000D01*
X28061928Y-69800000D01*
X28074188Y-69924482D01*
X28110498Y-70044180D01*
X28169463Y-70154494D01*
X28248815Y-70251185D01*
X28345506Y-70330537D01*
X28455820Y-70389502D01*
X28575518Y-70425812D01*
X28700000Y-70438072D01*
X31300000Y-70438072D01*
X31424482Y-70425812D01*
X31544180Y-70389502D01*
X31654494Y-70330537D01*
X31751185Y-70251185D01*
X31830537Y-70154494D01*
X31889502Y-70044180D01*
X31925812Y-69924482D01*
X31938072Y-69800000D01*
X31938072Y-67200000D01*
X31925812Y-67075518D01*
X31889502Y-66955820D01*
X31830537Y-66845506D01*
X31751185Y-66748815D01*
X31654494Y-66669463D01*
X31544180Y-66610498D01*
X31424482Y-66574188D01*
X31300000Y-66561928D01*
X28700000Y-66561928D01*
X28575518Y-66574188D01*
X28455820Y-66610498D01*
X28345506Y-66669463D01*
X28248815Y-66748815D01*
X28169463Y-66845506D01*
X28110498Y-66955820D01*
X28074188Y-67075518D01*
X28061928Y-67200000D01*
X25710000Y-67200000D01*
X25710000Y-61338967D01*
X26365000Y-61338967D01*
X26365000Y-61661033D01*
X26427832Y-61976912D01*
X26551082Y-62274463D01*
X26730013Y-62542252D01*
X26957748Y-62769987D01*
X27225537Y-62948918D01*
X27523088Y-63072168D01*
X27838967Y-63135000D01*
X28161033Y-63135000D01*
X28476912Y-63072168D01*
X28774463Y-62948918D01*
X29042252Y-62769987D01*
X29269987Y-62542252D01*
X29448918Y-62274463D01*
X29572168Y-61976912D01*
X29635000Y-61661033D01*
X29635000Y-61338967D01*
X29572168Y-61023088D01*
X29448918Y-60725537D01*
X29269987Y-60457748D01*
X29042252Y-60230013D01*
X28774463Y-60051082D01*
X28476912Y-59927832D01*
X28161033Y-59865000D01*
X27838967Y-59865000D01*
X27523088Y-59927832D01*
X27225537Y-60051082D01*
X26957748Y-60230013D01*
X26730013Y-60457748D01*
X26551082Y-60725537D01*
X26427832Y-61023088D01*
X26365000Y-61338967D01*
X25710000Y-61338967D01*
X25710000Y-43538967D01*
X26365000Y-43538967D01*
X26365000Y-43861033D01*
X26427832Y-44176912D01*
X26551082Y-44474463D01*
X26730013Y-44742252D01*
X26957748Y-44969987D01*
X27215001Y-45141878D01*
X27215000Y-46961447D01*
X27211203Y-47000000D01*
X27215000Y-47038553D01*
X27215000Y-47038560D01*
X27226359Y-47153886D01*
X27271246Y-47301859D01*
X27344138Y-47438232D01*
X27442236Y-47557764D01*
X27472190Y-47582347D01*
X29715001Y-49825159D01*
X29715000Y-63461447D01*
X29711203Y-63500000D01*
X29715000Y-63538553D01*
X29715000Y-63538560D01*
X29726359Y-63653886D01*
X29771246Y-63801859D01*
X29844138Y-63938232D01*
X29942236Y-64057764D01*
X29972188Y-64082345D01*
X32715001Y-66825158D01*
X32715000Y-69674842D01*
X30695985Y-71693857D01*
X30564419Y-71639361D01*
X30190581Y-71565000D01*
X29809419Y-71565000D01*
X29435581Y-71639361D01*
X29083434Y-71785225D01*
X28766509Y-71996987D01*
X28496987Y-72266509D01*
X28285225Y-72583434D01*
X28139361Y-72935581D01*
X28065000Y-73309419D01*
X28065000Y-73690581D01*
X28139361Y-74064419D01*
X28285225Y-74416566D01*
X28496987Y-74733491D01*
X28766509Y-75003013D01*
X29083434Y-75214775D01*
X29435581Y-75360639D01*
X29809419Y-75435000D01*
X30190581Y-75435000D01*
X30564419Y-75360639D01*
X30916566Y-75214775D01*
X31233491Y-75003013D01*
X31503013Y-74733491D01*
X31714775Y-74416566D01*
X31860639Y-74064419D01*
X31935000Y-73690581D01*
X31935000Y-73309419D01*
X31860639Y-72935581D01*
X31806143Y-72804015D01*
X31910158Y-72700000D01*
X99061928Y-72700000D01*
X99061928Y-75300000D01*
X99074188Y-75424482D01*
X99110498Y-75544180D01*
X99169463Y-75654494D01*
X99248815Y-75751185D01*
X99345506Y-75830537D01*
X99455820Y-75889502D01*
X99575518Y-75925812D01*
X99700000Y-75938072D01*
X102300000Y-75938072D01*
X102424482Y-75925812D01*
X102544180Y-75889502D01*
X102654494Y-75830537D01*
X102751185Y-75751185D01*
X102830537Y-75654494D01*
X102889502Y-75544180D01*
X102925812Y-75424482D01*
X102938072Y-75300000D01*
X102938072Y-72700000D01*
X102925812Y-72575518D01*
X102889502Y-72455820D01*
X102830537Y-72345506D01*
X102751185Y-72248815D01*
X102654494Y-72169463D01*
X102544180Y-72110498D01*
X102424482Y-72074188D01*
X102300000Y-72061928D01*
X99700000Y-72061928D01*
X99575518Y-72074188D01*
X99455820Y-72110498D01*
X99345506Y-72169463D01*
X99248815Y-72248815D01*
X99169463Y-72345506D01*
X99110498Y-72455820D01*
X99074188Y-72575518D01*
X99061928Y-72700000D01*
X31910158Y-72700000D01*
X34027817Y-70582341D01*
X34057764Y-70557764D01*
X34155862Y-70438233D01*
X34228754Y-70301860D01*
X34273641Y-70153887D01*
X34285000Y-70038561D01*
X34285000Y-70038554D01*
X34288797Y-70000001D01*
X34285000Y-69961448D01*
X34285000Y-66538556D01*
X34288797Y-66500000D01*
X34285000Y-66461444D01*
X34285000Y-66461439D01*
X34281020Y-66421026D01*
X34273642Y-66346113D01*
X34228754Y-66198140D01*
X34155862Y-66061767D01*
X34057764Y-65942236D01*
X34027810Y-65917653D01*
X31285000Y-63174843D01*
X31285000Y-61338967D01*
X31365000Y-61338967D01*
X31365000Y-61661033D01*
X31427832Y-61976912D01*
X31551082Y-62274463D01*
X31730013Y-62542252D01*
X31957748Y-62769987D01*
X32225537Y-62948918D01*
X32523088Y-63072168D01*
X32838967Y-63135000D01*
X33161033Y-63135000D01*
X33476912Y-63072168D01*
X33774463Y-62948918D01*
X34042252Y-62769987D01*
X34269987Y-62542252D01*
X34448918Y-62274463D01*
X34572168Y-61976912D01*
X34635000Y-61661033D01*
X34635000Y-61338967D01*
X34572168Y-61023088D01*
X34448918Y-60725537D01*
X34269987Y-60457748D01*
X34042252Y-60230013D01*
X33774463Y-60051082D01*
X33476912Y-59927832D01*
X33327243Y-59898061D01*
X42465000Y-59898061D01*
X42465000Y-60101939D01*
X42504774Y-60301898D01*
X42582795Y-60490256D01*
X42696063Y-60659774D01*
X42840226Y-60803937D01*
X43009744Y-60917205D01*
X43198102Y-60995226D01*
X43398061Y-61035000D01*
X43601939Y-61035000D01*
X43801898Y-60995226D01*
X43990256Y-60917205D01*
X44159774Y-60803937D01*
X44178711Y-60785000D01*
X67416841Y-60785000D01*
X70659656Y-64027816D01*
X70684234Y-64057764D01*
X70714182Y-64082342D01*
X70714185Y-64082345D01*
X70743557Y-64106450D01*
X70803765Y-64155862D01*
X70914406Y-64215000D01*
X59288553Y-64215000D01*
X59250000Y-64211203D01*
X59211447Y-64215000D01*
X55788556Y-64215000D01*
X55750000Y-64211203D01*
X55711444Y-64215000D01*
X55711439Y-64215000D01*
X55671026Y-64218980D01*
X55596113Y-64226358D01*
X55448140Y-64271246D01*
X55311767Y-64344138D01*
X55251559Y-64393550D01*
X55222187Y-64417655D01*
X55222184Y-64417658D01*
X55192236Y-64442236D01*
X55167658Y-64472184D01*
X52924843Y-66715000D01*
X49678703Y-66715000D01*
X49659766Y-66696063D01*
X49490248Y-66582795D01*
X49301890Y-66504774D01*
X49101931Y-66465000D01*
X48898053Y-66465000D01*
X48698094Y-66504774D01*
X48509736Y-66582795D01*
X48340218Y-66696063D01*
X48196055Y-66840226D01*
X48082787Y-67009744D01*
X48004766Y-67198102D01*
X47964992Y-67398061D01*
X47964992Y-67601939D01*
X48004766Y-67801898D01*
X48082787Y-67990256D01*
X48196055Y-68159774D01*
X48340218Y-68303937D01*
X48509736Y-68417205D01*
X48698094Y-68495226D01*
X48898053Y-68535000D01*
X49101931Y-68535000D01*
X49301890Y-68495226D01*
X49490248Y-68417205D01*
X49659766Y-68303937D01*
X49678703Y-68285000D01*
X53211447Y-68285000D01*
X53250000Y-68288797D01*
X53288553Y-68285000D01*
X53288561Y-68285000D01*
X53403887Y-68273641D01*
X53551860Y-68228754D01*
X53688233Y-68155862D01*
X53807764Y-68057764D01*
X53832347Y-68027810D01*
X56075158Y-65785000D01*
X58924843Y-65785000D01*
X61095446Y-67955604D01*
X61065000Y-68108665D01*
X61065000Y-68391335D01*
X61120147Y-68668574D01*
X61228320Y-68929727D01*
X61385363Y-69164759D01*
X61585241Y-69364637D01*
X61820273Y-69521680D01*
X62081426Y-69629853D01*
X62358665Y-69685000D01*
X62641335Y-69685000D01*
X62918574Y-69629853D01*
X63179727Y-69521680D01*
X63414759Y-69364637D01*
X63536694Y-69242702D01*
X66686903Y-69242702D01*
X66758486Y-69486671D01*
X67013996Y-69607571D01*
X67288184Y-69676300D01*
X67570512Y-69690217D01*
X67850130Y-69648787D01*
X68116292Y-69553603D01*
X68241514Y-69486671D01*
X68313097Y-69242702D01*
X67500000Y-68429605D01*
X66686903Y-69242702D01*
X63536694Y-69242702D01*
X63614637Y-69164759D01*
X63771680Y-68929727D01*
X63879853Y-68668574D01*
X63935000Y-68391335D01*
X63935000Y-68320512D01*
X66059783Y-68320512D01*
X66101213Y-68600130D01*
X66196397Y-68866292D01*
X66263329Y-68991514D01*
X66507298Y-69063097D01*
X67320395Y-68250000D01*
X67679605Y-68250000D01*
X68492702Y-69063097D01*
X68736671Y-68991514D01*
X68857571Y-68736004D01*
X68926300Y-68461816D01*
X68940217Y-68179488D01*
X68898787Y-67899870D01*
X68803603Y-67633708D01*
X68736671Y-67508486D01*
X68492702Y-67436903D01*
X67679605Y-68250000D01*
X67320395Y-68250000D01*
X66507298Y-67436903D01*
X66263329Y-67508486D01*
X66142429Y-67763996D01*
X66073700Y-68038184D01*
X66059783Y-68320512D01*
X63935000Y-68320512D01*
X63935000Y-68108665D01*
X63879853Y-67831426D01*
X63771680Y-67570273D01*
X63614637Y-67335241D01*
X63536694Y-67257298D01*
X66686903Y-67257298D01*
X67500000Y-68070395D01*
X68313097Y-67257298D01*
X68241514Y-67013329D01*
X67986004Y-66892429D01*
X67711816Y-66823700D01*
X67429488Y-66809783D01*
X67149870Y-66851213D01*
X66883708Y-66946397D01*
X66758486Y-67013329D01*
X66686903Y-67257298D01*
X63536694Y-67257298D01*
X63414759Y-67135363D01*
X63179727Y-66978320D01*
X62918574Y-66870147D01*
X62641335Y-66815000D01*
X62358665Y-66815000D01*
X62205604Y-66845446D01*
X61145157Y-65785000D01*
X73674843Y-65785000D01*
X76667658Y-68777816D01*
X76692236Y-68807764D01*
X76722184Y-68832342D01*
X76722187Y-68832345D01*
X76751559Y-68856450D01*
X76811767Y-68905862D01*
X76948140Y-68978754D01*
X77096113Y-69023641D01*
X77211439Y-69035000D01*
X77211446Y-69035000D01*
X77249999Y-69038797D01*
X77288552Y-69035000D01*
X77298661Y-69035000D01*
X77385363Y-69164759D01*
X77585241Y-69364637D01*
X77820273Y-69521680D01*
X78081426Y-69629853D01*
X78358665Y-69685000D01*
X78641335Y-69685000D01*
X78918574Y-69629853D01*
X79179727Y-69521680D01*
X79414759Y-69364637D01*
X79536694Y-69242702D01*
X82686903Y-69242702D01*
X82758486Y-69486671D01*
X83013996Y-69607571D01*
X83288184Y-69676300D01*
X83570512Y-69690217D01*
X83850130Y-69648787D01*
X84116292Y-69553603D01*
X84241514Y-69486671D01*
X84313097Y-69242702D01*
X83500000Y-68429605D01*
X82686903Y-69242702D01*
X79536694Y-69242702D01*
X79614637Y-69164759D01*
X79771680Y-68929727D01*
X79879853Y-68668574D01*
X79935000Y-68391335D01*
X79935000Y-68320512D01*
X82059783Y-68320512D01*
X82101213Y-68600130D01*
X82196397Y-68866292D01*
X82263329Y-68991514D01*
X82507298Y-69063097D01*
X83320395Y-68250000D01*
X83679605Y-68250000D01*
X84492702Y-69063097D01*
X84736671Y-68991514D01*
X84822833Y-68809419D01*
X99065000Y-68809419D01*
X99065000Y-69190581D01*
X99139361Y-69564419D01*
X99285225Y-69916566D01*
X99496987Y-70233491D01*
X99766509Y-70503013D01*
X100083434Y-70714775D01*
X100435581Y-70860639D01*
X100809419Y-70935000D01*
X101190581Y-70935000D01*
X101564419Y-70860639D01*
X101916566Y-70714775D01*
X102233491Y-70503013D01*
X102503013Y-70233491D01*
X102714775Y-69916566D01*
X102860639Y-69564419D01*
X102935000Y-69190581D01*
X102935000Y-68809419D01*
X102860639Y-68435581D01*
X102714775Y-68083434D01*
X102503013Y-67766509D01*
X102233491Y-67496987D01*
X101916566Y-67285225D01*
X101564419Y-67139361D01*
X101190581Y-67065000D01*
X100809419Y-67065000D01*
X100435581Y-67139361D01*
X100083434Y-67285225D01*
X99766509Y-67496987D01*
X99496987Y-67766509D01*
X99285225Y-68083434D01*
X99139361Y-68435581D01*
X99065000Y-68809419D01*
X84822833Y-68809419D01*
X84857571Y-68736004D01*
X84926300Y-68461816D01*
X84940217Y-68179488D01*
X84898787Y-67899870D01*
X84803603Y-67633708D01*
X84736671Y-67508486D01*
X84492702Y-67436903D01*
X83679605Y-68250000D01*
X83320395Y-68250000D01*
X82507298Y-67436903D01*
X82263329Y-67508486D01*
X82142429Y-67763996D01*
X82073700Y-68038184D01*
X82059783Y-68320512D01*
X79935000Y-68320512D01*
X79935000Y-68108665D01*
X79879853Y-67831426D01*
X79771680Y-67570273D01*
X79614637Y-67335241D01*
X79536694Y-67257298D01*
X82686903Y-67257298D01*
X83500000Y-68070395D01*
X84313097Y-67257298D01*
X84241514Y-67013329D01*
X83986004Y-66892429D01*
X83711816Y-66823700D01*
X83429488Y-66809783D01*
X83149870Y-66851213D01*
X82883708Y-66946397D01*
X82758486Y-67013329D01*
X82686903Y-67257298D01*
X79536694Y-67257298D01*
X79414759Y-67135363D01*
X79179727Y-66978320D01*
X78918574Y-66870147D01*
X78641335Y-66815000D01*
X78358665Y-66815000D01*
X78205604Y-66845446D01*
X75169577Y-63809419D01*
X99065000Y-63809419D01*
X99065000Y-64190581D01*
X99139361Y-64564419D01*
X99285225Y-64916566D01*
X99496987Y-65233491D01*
X99766509Y-65503013D01*
X100083434Y-65714775D01*
X100435581Y-65860639D01*
X100809419Y-65935000D01*
X101190581Y-65935000D01*
X101564419Y-65860639D01*
X101916566Y-65714775D01*
X102233491Y-65503013D01*
X102503013Y-65233491D01*
X102714775Y-64916566D01*
X102860639Y-64564419D01*
X102935000Y-64190581D01*
X102935000Y-63809419D01*
X102860639Y-63435581D01*
X102714775Y-63083434D01*
X102503013Y-62766509D01*
X102233491Y-62496987D01*
X101916566Y-62285225D01*
X101564419Y-62139361D01*
X101190581Y-62065000D01*
X100809419Y-62065000D01*
X100435581Y-62139361D01*
X100083434Y-62285225D01*
X99766509Y-62496987D01*
X99496987Y-62766509D01*
X99285225Y-63083434D01*
X99139361Y-63435581D01*
X99065000Y-63809419D01*
X75169577Y-63809419D01*
X74332347Y-62972190D01*
X74307764Y-62942236D01*
X74188233Y-62844138D01*
X74051860Y-62771246D01*
X73903887Y-62726359D01*
X73788561Y-62715000D01*
X73788553Y-62715000D01*
X73750000Y-62711203D01*
X73711447Y-62715000D01*
X71567156Y-62715000D01*
X68324345Y-59472190D01*
X68299762Y-59442236D01*
X68180231Y-59344138D01*
X68043858Y-59271246D01*
X67895885Y-59226359D01*
X67780559Y-59215000D01*
X67780551Y-59215000D01*
X67741998Y-59211203D01*
X67703445Y-59215000D01*
X44178711Y-59215000D01*
X44159774Y-59196063D01*
X43990256Y-59082795D01*
X43801898Y-59004774D01*
X43601939Y-58965000D01*
X43398061Y-58965000D01*
X43198102Y-59004774D01*
X43009744Y-59082795D01*
X42840226Y-59196063D01*
X42696063Y-59340226D01*
X42582795Y-59509744D01*
X42504774Y-59698102D01*
X42465000Y-59898061D01*
X33327243Y-59898061D01*
X33161033Y-59865000D01*
X32838967Y-59865000D01*
X32523088Y-59927832D01*
X32225537Y-60051082D01*
X31957748Y-60230013D01*
X31730013Y-60457748D01*
X31551082Y-60725537D01*
X31427832Y-61023088D01*
X31365000Y-61338967D01*
X31285000Y-61338967D01*
X31285000Y-55556890D01*
X96308524Y-55556890D01*
X96353175Y-55704099D01*
X96478359Y-55966920D01*
X96652412Y-56200269D01*
X96868645Y-56395178D01*
X97118748Y-56544157D01*
X97393109Y-56641481D01*
X97623000Y-56520814D01*
X97623000Y-55327000D01*
X97877000Y-55327000D01*
X97877000Y-56520814D01*
X98106891Y-56641481D01*
X98381252Y-56544157D01*
X98631355Y-56395178D01*
X98847588Y-56200269D01*
X99021641Y-55966920D01*
X99146825Y-55704099D01*
X99191476Y-55556890D01*
X99070155Y-55327000D01*
X97877000Y-55327000D01*
X97623000Y-55327000D01*
X96429845Y-55327000D01*
X96308524Y-55556890D01*
X31285000Y-55556890D01*
X31285000Y-51000000D01*
X38909428Y-51000000D01*
X38909428Y-53000000D01*
X38921688Y-53124482D01*
X38957998Y-53244180D01*
X39016963Y-53354494D01*
X39096315Y-53451185D01*
X39193006Y-53530537D01*
X39303320Y-53589502D01*
X39423018Y-53625812D01*
X39547500Y-53638072D01*
X41452500Y-53638072D01*
X41576982Y-53625812D01*
X41696680Y-53589502D01*
X41806994Y-53530537D01*
X41903685Y-53451185D01*
X41983037Y-53354494D01*
X42032059Y-53262781D01*
X42173077Y-53375969D01*
X42448906Y-53519571D01*
X42667020Y-53590563D01*
X42913000Y-53470594D01*
X42913000Y-52127000D01*
X42893000Y-52127000D01*
X42893000Y-51873000D01*
X42913000Y-51873000D01*
X42913000Y-50529406D01*
X43167000Y-50529406D01*
X43167000Y-51873000D01*
X43187000Y-51873000D01*
X43187000Y-52127000D01*
X43167000Y-52127000D01*
X43167000Y-53470594D01*
X43412980Y-53590563D01*
X43631094Y-53519571D01*
X43906923Y-53375969D01*
X44149437Y-53181315D01*
X44304837Y-52996101D01*
X44452037Y-53175463D01*
X44693766Y-53373845D01*
X44969552Y-53521255D01*
X45268797Y-53612030D01*
X45580000Y-53642681D01*
X45891204Y-53612030D01*
X46190449Y-53521255D01*
X46466235Y-53373845D01*
X46707963Y-53175463D01*
X46906345Y-52933734D01*
X47053755Y-52657948D01*
X47144530Y-52358703D01*
X47167500Y-52125485D01*
X47167500Y-51874514D01*
X47144530Y-51641296D01*
X47053755Y-51342051D01*
X46906345Y-51066265D01*
X46707963Y-50824537D01*
X46466234Y-50626155D01*
X46190448Y-50478745D01*
X45891203Y-50387970D01*
X45580000Y-50357319D01*
X45268796Y-50387970D01*
X44969551Y-50478745D01*
X44693765Y-50626155D01*
X44452037Y-50824537D01*
X44304838Y-51003900D01*
X44149437Y-50818685D01*
X43906923Y-50624031D01*
X43631094Y-50480429D01*
X43412980Y-50409437D01*
X43167000Y-50529406D01*
X42913000Y-50529406D01*
X42667020Y-50409437D01*
X42448906Y-50480429D01*
X42173077Y-50624031D01*
X42032059Y-50737219D01*
X41983037Y-50645506D01*
X41903685Y-50548815D01*
X41806994Y-50469463D01*
X41696680Y-50410498D01*
X41576982Y-50374188D01*
X41452500Y-50361928D01*
X39547500Y-50361928D01*
X39423018Y-50374188D01*
X39303320Y-50410498D01*
X39193006Y-50469463D01*
X39096315Y-50548815D01*
X39016963Y-50645506D01*
X38957998Y-50755820D01*
X38921688Y-50875518D01*
X38909428Y-51000000D01*
X31285000Y-51000000D01*
X31285000Y-49538556D01*
X31288797Y-49500000D01*
X31285000Y-49461444D01*
X31285000Y-49461439D01*
X31280583Y-49416589D01*
X31273642Y-49346113D01*
X31228754Y-49198140D01*
X31215513Y-49173368D01*
X31155862Y-49061767D01*
X31057764Y-48942236D01*
X31027816Y-48917658D01*
X28785000Y-46674843D01*
X28785000Y-45141877D01*
X29042252Y-44969987D01*
X29269987Y-44742252D01*
X29441877Y-44485000D01*
X31558123Y-44485000D01*
X31730013Y-44742252D01*
X31957748Y-44969987D01*
X32225537Y-45148918D01*
X32523088Y-45272168D01*
X32838967Y-45335000D01*
X33161033Y-45335000D01*
X33476912Y-45272168D01*
X33774463Y-45148918D01*
X34042252Y-44969987D01*
X34269987Y-44742252D01*
X34448918Y-44474463D01*
X34572168Y-44176912D01*
X34635000Y-43861033D01*
X34635000Y-43538967D01*
X34572168Y-43223088D01*
X34448918Y-42925537D01*
X34269987Y-42657748D01*
X34042252Y-42430013D01*
X33774463Y-42251082D01*
X33476912Y-42127832D01*
X33161033Y-42065000D01*
X32838967Y-42065000D01*
X32523088Y-42127832D01*
X32225537Y-42251082D01*
X31957748Y-42430013D01*
X31730013Y-42657748D01*
X31558123Y-42915000D01*
X29441877Y-42915000D01*
X29269987Y-42657748D01*
X29042252Y-42430013D01*
X28774463Y-42251082D01*
X28476912Y-42127832D01*
X28161033Y-42065000D01*
X27838967Y-42065000D01*
X27523088Y-42127832D01*
X27225537Y-42251082D01*
X26957748Y-42430013D01*
X26730013Y-42657748D01*
X26551082Y-42925537D01*
X26427832Y-43223088D01*
X26365000Y-43538967D01*
X25710000Y-43538967D01*
X25710000Y-34779872D01*
X27765000Y-34779872D01*
X27765000Y-35220128D01*
X27850890Y-35651925D01*
X28019369Y-36058669D01*
X28263962Y-36424729D01*
X28575271Y-36736038D01*
X28941331Y-36980631D01*
X29348075Y-37149110D01*
X29779872Y-37235000D01*
X30220128Y-37235000D01*
X30651925Y-37149110D01*
X31058669Y-36980631D01*
X31424729Y-36736038D01*
X31736038Y-36424729D01*
X31980631Y-36058669D01*
X32149110Y-35651925D01*
X32149878Y-35648061D01*
X72965000Y-35648061D01*
X72965000Y-35851939D01*
X73004774Y-36051898D01*
X73082795Y-36240256D01*
X73196063Y-36409774D01*
X73215001Y-36428712D01*
X73215000Y-38961447D01*
X73211203Y-39000000D01*
X73215000Y-39038553D01*
X73215000Y-39038560D01*
X73226359Y-39153886D01*
X73271246Y-39301859D01*
X73344138Y-39438232D01*
X73442236Y-39557764D01*
X73472190Y-39582347D01*
X74715001Y-40825159D01*
X74715000Y-48961447D01*
X74711203Y-49000000D01*
X74715000Y-49038553D01*
X74715000Y-49038560D01*
X74726359Y-49153886D01*
X74771246Y-49301859D01*
X74844138Y-49438232D01*
X74942236Y-49557764D01*
X74972190Y-49582347D01*
X79667658Y-54277816D01*
X79692236Y-54307764D01*
X79722184Y-54332342D01*
X79722187Y-54332345D01*
X79751559Y-54356450D01*
X79811767Y-54405862D01*
X79948140Y-54478754D01*
X80061672Y-54513194D01*
X80096112Y-54523641D01*
X80110490Y-54525057D01*
X80211439Y-54535000D01*
X80211446Y-54535000D01*
X80249999Y-54538797D01*
X80288552Y-54535000D01*
X84571289Y-54535000D01*
X84590226Y-54553937D01*
X84759744Y-54667205D01*
X84948102Y-54745226D01*
X85148061Y-54785000D01*
X85351939Y-54785000D01*
X85551898Y-54745226D01*
X85740256Y-54667205D01*
X85909774Y-54553937D01*
X86053937Y-54409774D01*
X86167205Y-54240256D01*
X86245226Y-54051898D01*
X86285000Y-53851939D01*
X86285000Y-53648061D01*
X86245226Y-53448102D01*
X86167205Y-53259744D01*
X86053937Y-53090226D01*
X85909774Y-52946063D01*
X85740256Y-52832795D01*
X85551898Y-52754774D01*
X85351939Y-52715000D01*
X85148061Y-52715000D01*
X84948102Y-52754774D01*
X84759744Y-52832795D01*
X84590226Y-52946063D01*
X84571289Y-52965000D01*
X80575158Y-52965000D01*
X78008219Y-50398061D01*
X88465000Y-50398061D01*
X88465000Y-50601939D01*
X88504774Y-50801898D01*
X88582795Y-50990256D01*
X88696063Y-51159774D01*
X88840226Y-51303937D01*
X89009744Y-51417205D01*
X89198102Y-51495226D01*
X89398061Y-51535000D01*
X89601939Y-51535000D01*
X89801898Y-51495226D01*
X89990256Y-51417205D01*
X90159774Y-51303937D01*
X90178711Y-51285000D01*
X92251447Y-51285000D01*
X92290000Y-51288797D01*
X92328553Y-51285000D01*
X92328561Y-51285000D01*
X92443887Y-51273641D01*
X92591860Y-51228754D01*
X92728233Y-51155862D01*
X92847764Y-51057764D01*
X92872347Y-51027810D01*
X96265000Y-47635158D01*
X96265000Y-47726260D01*
X96322068Y-48013158D01*
X96434010Y-48283411D01*
X96596525Y-48526632D01*
X96803368Y-48733475D01*
X96977760Y-48850000D01*
X96803368Y-48966525D01*
X96596525Y-49173368D01*
X96434010Y-49416589D01*
X96322068Y-49686842D01*
X96265000Y-49973740D01*
X96265000Y-50266260D01*
X96322068Y-50553158D01*
X96434010Y-50823411D01*
X96596525Y-51066632D01*
X96803368Y-51273475D01*
X96977760Y-51390000D01*
X96803368Y-51506525D01*
X96596525Y-51713368D01*
X96434010Y-51956589D01*
X96322068Y-52226842D01*
X96265000Y-52513740D01*
X96265000Y-52806260D01*
X96322068Y-53093158D01*
X96434010Y-53363411D01*
X96596525Y-53606632D01*
X96803368Y-53813475D01*
X96985534Y-53935195D01*
X96868645Y-54004822D01*
X96652412Y-54199731D01*
X96478359Y-54433080D01*
X96353175Y-54695901D01*
X96308524Y-54843110D01*
X96429845Y-55073000D01*
X97623000Y-55073000D01*
X97623000Y-55053000D01*
X97877000Y-55053000D01*
X97877000Y-55073000D01*
X99070155Y-55073000D01*
X99191476Y-54843110D01*
X99146825Y-54695901D01*
X99021641Y-54433080D01*
X98847588Y-54199731D01*
X98631355Y-54004822D01*
X98514466Y-53935195D01*
X98696632Y-53813475D01*
X98903475Y-53606632D01*
X99065990Y-53363411D01*
X99177932Y-53093158D01*
X99235000Y-52806260D01*
X99235000Y-52513740D01*
X99177932Y-52226842D01*
X99065990Y-51956589D01*
X98903475Y-51713368D01*
X98696632Y-51506525D01*
X98522240Y-51390000D01*
X98696632Y-51273475D01*
X98903475Y-51066632D01*
X99065990Y-50823411D01*
X99177932Y-50553158D01*
X99235000Y-50266260D01*
X99235000Y-49973740D01*
X99177932Y-49686842D01*
X99065990Y-49416589D01*
X98903475Y-49173368D01*
X98696632Y-48966525D01*
X98522240Y-48850000D01*
X98696632Y-48733475D01*
X98903475Y-48526632D01*
X99065990Y-48283411D01*
X99177932Y-48013158D01*
X99235000Y-47726260D01*
X99235000Y-47433740D01*
X99177932Y-47146842D01*
X99065990Y-46876589D01*
X98903475Y-46633368D01*
X98696632Y-46426525D01*
X98522240Y-46310000D01*
X98696632Y-46193475D01*
X98903475Y-45986632D01*
X99065990Y-45743411D01*
X99177932Y-45473158D01*
X99235000Y-45186260D01*
X99235000Y-44893740D01*
X99177932Y-44606842D01*
X99065990Y-44336589D01*
X98903475Y-44093368D01*
X98771620Y-43961513D01*
X98844180Y-43939502D01*
X98954494Y-43880537D01*
X99051185Y-43801185D01*
X99130537Y-43704494D01*
X99189502Y-43594180D01*
X99225812Y-43474482D01*
X99238072Y-43350000D01*
X99238072Y-41650000D01*
X99225812Y-41525518D01*
X99189502Y-41405820D01*
X99130537Y-41295506D01*
X99051185Y-41198815D01*
X98954494Y-41119463D01*
X98844180Y-41060498D01*
X98724482Y-41024188D01*
X98600000Y-41011928D01*
X96900000Y-41011928D01*
X96775518Y-41024188D01*
X96655820Y-41060498D01*
X96545506Y-41119463D01*
X96448815Y-41198815D01*
X96369463Y-41295506D01*
X96310498Y-41405820D01*
X96274188Y-41525518D01*
X96261928Y-41650000D01*
X96261928Y-43350000D01*
X96274188Y-43474482D01*
X96310498Y-43594180D01*
X96369463Y-43704494D01*
X96448815Y-43801185D01*
X96545506Y-43880537D01*
X96655820Y-43939502D01*
X96728380Y-43961513D01*
X96596525Y-44093368D01*
X96434010Y-44336589D01*
X96322068Y-44606842D01*
X96265000Y-44893740D01*
X96265000Y-45186260D01*
X96302924Y-45376918D01*
X91964843Y-49715000D01*
X90178711Y-49715000D01*
X90159774Y-49696063D01*
X89990256Y-49582795D01*
X89801898Y-49504774D01*
X89601939Y-49465000D01*
X89398061Y-49465000D01*
X89198102Y-49504774D01*
X89009744Y-49582795D01*
X88840226Y-49696063D01*
X88696063Y-49840226D01*
X88582795Y-50009744D01*
X88504774Y-50198102D01*
X88465000Y-50398061D01*
X78008219Y-50398061D01*
X76285000Y-48674843D01*
X76285000Y-43398061D01*
X90965000Y-43398061D01*
X90965000Y-43601939D01*
X91004774Y-43801898D01*
X91082795Y-43990256D01*
X91196063Y-44159774D01*
X91340226Y-44303937D01*
X91509744Y-44417205D01*
X91698102Y-44495226D01*
X91898061Y-44535000D01*
X92101939Y-44535000D01*
X92301898Y-44495226D01*
X92490256Y-44417205D01*
X92659774Y-44303937D01*
X92803937Y-44159774D01*
X92917205Y-43990256D01*
X92995226Y-43801898D01*
X93035000Y-43601939D01*
X93035000Y-43398061D01*
X92995226Y-43198102D01*
X92917205Y-43009744D01*
X92803937Y-42840226D01*
X92785000Y-42821289D01*
X92785000Y-41325157D01*
X93575158Y-40535000D01*
X93601939Y-40535000D01*
X93801898Y-40495226D01*
X93990256Y-40417205D01*
X94159774Y-40303937D01*
X94303937Y-40159774D01*
X94417205Y-39990256D01*
X94495226Y-39801898D01*
X94535000Y-39601939D01*
X94535000Y-39398061D01*
X94495226Y-39198102D01*
X94417205Y-39009744D01*
X94303937Y-38840226D01*
X94159774Y-38696063D01*
X93990256Y-38582795D01*
X93801898Y-38504774D01*
X93601939Y-38465000D01*
X93398061Y-38465000D01*
X93198102Y-38504774D01*
X93009744Y-38582795D01*
X92840226Y-38696063D01*
X92696063Y-38840226D01*
X92582795Y-39009744D01*
X92504774Y-39198102D01*
X92465000Y-39398061D01*
X92465000Y-39424842D01*
X91472185Y-40417658D01*
X91442237Y-40442236D01*
X91417659Y-40472184D01*
X91417655Y-40472188D01*
X91394831Y-40499999D01*
X91344139Y-40561767D01*
X91305177Y-40634660D01*
X91271246Y-40698141D01*
X91226359Y-40846114D01*
X91211203Y-41000000D01*
X91215001Y-41038563D01*
X91215000Y-42821289D01*
X91196063Y-42840226D01*
X91082795Y-43009744D01*
X91004774Y-43198102D01*
X90965000Y-43398061D01*
X76285000Y-43398061D01*
X76285000Y-40538552D01*
X76288797Y-40499999D01*
X76285000Y-40461446D01*
X76285000Y-40461439D01*
X76273641Y-40346113D01*
X76228754Y-40198140D01*
X76155862Y-40061767D01*
X76057764Y-39942236D01*
X76027816Y-39917658D01*
X74785000Y-38674843D01*
X74785000Y-36535000D01*
X89571289Y-36535000D01*
X89590226Y-36553937D01*
X89759744Y-36667205D01*
X89948102Y-36745226D01*
X90148061Y-36785000D01*
X90351939Y-36785000D01*
X90551898Y-36745226D01*
X90740256Y-36667205D01*
X90909774Y-36553937D01*
X91053937Y-36409774D01*
X91167205Y-36240256D01*
X91245226Y-36051898D01*
X91285000Y-35851939D01*
X91285000Y-35648061D01*
X91245226Y-35448102D01*
X91167205Y-35259744D01*
X91053937Y-35090226D01*
X90912941Y-34949230D01*
X90990256Y-34917205D01*
X91159774Y-34803937D01*
X91183839Y-34779872D01*
X98765000Y-34779872D01*
X98765000Y-35220128D01*
X98850890Y-35651925D01*
X99019369Y-36058669D01*
X99263962Y-36424729D01*
X99575271Y-36736038D01*
X99941331Y-36980631D01*
X100348075Y-37149110D01*
X100779872Y-37235000D01*
X101220128Y-37235000D01*
X101651925Y-37149110D01*
X102058669Y-36980631D01*
X102424729Y-36736038D01*
X102736038Y-36424729D01*
X102980631Y-36058669D01*
X103149110Y-35651925D01*
X103235000Y-35220128D01*
X103235000Y-34779872D01*
X103149110Y-34348075D01*
X102980631Y-33941331D01*
X102736038Y-33575271D01*
X102424729Y-33263962D01*
X102058669Y-33019369D01*
X101651925Y-32850890D01*
X101220128Y-32765000D01*
X100779872Y-32765000D01*
X100348075Y-32850890D01*
X99941331Y-33019369D01*
X99575271Y-33263962D01*
X99263962Y-33575271D01*
X99019369Y-33941331D01*
X98850890Y-34348075D01*
X98765000Y-34779872D01*
X91183839Y-34779872D01*
X91303937Y-34659774D01*
X91417205Y-34490256D01*
X91495226Y-34301898D01*
X91535000Y-34101939D01*
X91535000Y-33898061D01*
X91495226Y-33698102D01*
X91417205Y-33509744D01*
X91303937Y-33340226D01*
X91159774Y-33196063D01*
X90990256Y-33082795D01*
X90801898Y-33004774D01*
X90601939Y-32965000D01*
X90398061Y-32965000D01*
X90198102Y-33004774D01*
X90009744Y-33082795D01*
X89840226Y-33196063D01*
X89821289Y-33215000D01*
X75178711Y-33215000D01*
X75159774Y-33196063D01*
X74990256Y-33082795D01*
X74801898Y-33004774D01*
X74601939Y-32965000D01*
X74398061Y-32965000D01*
X74198102Y-33004774D01*
X74009744Y-33082795D01*
X73840226Y-33196063D01*
X73696063Y-33340226D01*
X73582795Y-33509744D01*
X73504774Y-33698102D01*
X73465000Y-33898061D01*
X73465000Y-34101939D01*
X73504774Y-34301898D01*
X73582795Y-34490256D01*
X73696063Y-34659774D01*
X73775640Y-34739351D01*
X73698102Y-34754774D01*
X73509744Y-34832795D01*
X73340226Y-34946063D01*
X73196063Y-35090226D01*
X73082795Y-35259744D01*
X73004774Y-35448102D01*
X72965000Y-35648061D01*
X32149878Y-35648061D01*
X32235000Y-35220128D01*
X32235000Y-34779872D01*
X32149110Y-34348075D01*
X31980631Y-33941331D01*
X31736038Y-33575271D01*
X31424729Y-33263962D01*
X31058669Y-33019369D01*
X30651925Y-32850890D01*
X30220128Y-32765000D01*
X29779872Y-32765000D01*
X29348075Y-32850890D01*
X28941331Y-33019369D01*
X28575271Y-33263962D01*
X28263962Y-33575271D01*
X28019369Y-33941331D01*
X27850890Y-34348075D01*
X27765000Y-34779872D01*
X25710000Y-34779872D01*
X25710000Y-32034721D01*
X25737907Y-31750101D01*
X25810484Y-31509715D01*
X25928368Y-31288009D01*
X26087068Y-31093423D01*
X26280545Y-30933365D01*
X26501424Y-30813936D01*
X26741297Y-30739683D01*
X27023716Y-30710000D01*
X103965279Y-30710000D01*
X104249899Y-30737907D01*
M02*
