G04 #@! TF.GenerationSoftware,KiCad,Pcbnew,(5.1.6)-1*
G04 #@! TF.CreationDate,2020-06-22T09:19:59-04:00*
G04 #@! TF.ProjectId,alarmbuddy,616c6172-6d62-4756-9464-792e6b696361,rev?*
G04 #@! TF.SameCoordinates,Original*
G04 #@! TF.FileFunction,Copper,L1,Top*
G04 #@! TF.FilePolarity,Positive*
%FSLAX46Y46*%
G04 Gerber Fmt 4.6, Leading zero omitted, Abs format (unit mm)*
G04 Created by KiCad (PCBNEW (5.1.6)-1) date 2020-06-22 09:19:59*
%MOMM*%
%LPD*%
G01*
G04 APERTURE LIST*
G04 #@! TA.AperFunction,ComponentPad*
%ADD10O,1.905000X2.000000*%
G04 #@! TD*
G04 #@! TA.AperFunction,ComponentPad*
%ADD11R,1.905000X2.000000*%
G04 #@! TD*
G04 #@! TA.AperFunction,ComponentPad*
%ADD12C,2.000000*%
G04 #@! TD*
G04 #@! TA.AperFunction,ComponentPad*
%ADD13C,1.600000*%
G04 #@! TD*
G04 #@! TA.AperFunction,SMDPad,CuDef*
%ADD14C,2.000000*%
G04 #@! TD*
G04 #@! TA.AperFunction,ComponentPad*
%ADD15C,2.600000*%
G04 #@! TD*
G04 #@! TA.AperFunction,ComponentPad*
%ADD16R,2.600000X2.600000*%
G04 #@! TD*
G04 #@! TA.AperFunction,SMDPad,CuDef*
%ADD17R,2.000000X0.900000*%
G04 #@! TD*
G04 #@! TA.AperFunction,SMDPad,CuDef*
%ADD18R,0.900000X2.000000*%
G04 #@! TD*
G04 #@! TA.AperFunction,SMDPad,CuDef*
%ADD19R,5.000000X5.000000*%
G04 #@! TD*
G04 #@! TA.AperFunction,ComponentPad*
%ADD20R,1.700000X1.700000*%
G04 #@! TD*
G04 #@! TA.AperFunction,ComponentPad*
%ADD21O,1.700000X1.700000*%
G04 #@! TD*
G04 #@! TA.AperFunction,SMDPad,CuDef*
%ADD22R,1.000000X0.700000*%
G04 #@! TD*
G04 #@! TA.AperFunction,ViaPad*
%ADD23C,0.800000*%
G04 #@! TD*
G04 #@! TA.AperFunction,Conductor*
%ADD24C,0.300000*%
G04 #@! TD*
G04 #@! TA.AperFunction,Conductor*
%ADD25C,0.254000*%
G04 #@! TD*
G04 APERTURE END LIST*
D10*
X45580000Y-52000000D03*
X43040000Y-52000000D03*
D11*
X40500000Y-52000000D03*
D12*
X33000000Y-43700000D03*
X28000000Y-43700000D03*
X28000000Y-61500000D03*
X33000000Y-61500000D03*
G04 #@! TA.AperFunction,SMDPad,CuDef*
G36*
G01*
X46375000Y-59275000D02*
X47625000Y-59275000D01*
G75*
G02*
X47875000Y-59525000I0J-250000D01*
G01*
X47875000Y-60275000D01*
G75*
G02*
X47625000Y-60525000I-250000J0D01*
G01*
X46375000Y-60525000D01*
G75*
G02*
X46125000Y-60275000I0J250000D01*
G01*
X46125000Y-59525000D01*
G75*
G02*
X46375000Y-59275000I250000J0D01*
G01*
G37*
G04 #@! TD.AperFunction*
G04 #@! TA.AperFunction,SMDPad,CuDef*
G36*
G01*
X46375000Y-56475000D02*
X47625000Y-56475000D01*
G75*
G02*
X47875000Y-56725000I0J-250000D01*
G01*
X47875000Y-57475000D01*
G75*
G02*
X47625000Y-57725000I-250000J0D01*
G01*
X46375000Y-57725000D01*
G75*
G02*
X46125000Y-57475000I0J250000D01*
G01*
X46125000Y-56725000D01*
G75*
G02*
X46375000Y-56475000I250000J0D01*
G01*
G37*
G04 #@! TD.AperFunction*
G04 #@! TA.AperFunction,SMDPad,CuDef*
G36*
G01*
X39875000Y-59275000D02*
X41125000Y-59275000D01*
G75*
G02*
X41375000Y-59525000I0J-250000D01*
G01*
X41375000Y-60275000D01*
G75*
G02*
X41125000Y-60525000I-250000J0D01*
G01*
X39875000Y-60525000D01*
G75*
G02*
X39625000Y-60275000I0J250000D01*
G01*
X39625000Y-59525000D01*
G75*
G02*
X39875000Y-59275000I250000J0D01*
G01*
G37*
G04 #@! TD.AperFunction*
G04 #@! TA.AperFunction,SMDPad,CuDef*
G36*
G01*
X39875000Y-56475000D02*
X41125000Y-56475000D01*
G75*
G02*
X41375000Y-56725000I0J-250000D01*
G01*
X41375000Y-57475000D01*
G75*
G02*
X41125000Y-57725000I-250000J0D01*
G01*
X39875000Y-57725000D01*
G75*
G02*
X39625000Y-57475000I0J250000D01*
G01*
X39625000Y-56725000D01*
G75*
G02*
X39875000Y-56475000I250000J0D01*
G01*
G37*
G04 #@! TD.AperFunction*
D13*
X83500000Y-68250000D03*
X78500000Y-68250000D03*
X67500000Y-68250000D03*
X62500000Y-68250000D03*
D14*
X52500000Y-37000000D03*
G04 #@! TA.AperFunction,SMDPad,CuDef*
G36*
G01*
X47375000Y-76625000D02*
X48625000Y-76625000D01*
G75*
G02*
X48875000Y-76875000I0J-250000D01*
G01*
X48875000Y-77625000D01*
G75*
G02*
X48625000Y-77875000I-250000J0D01*
G01*
X47375000Y-77875000D01*
G75*
G02*
X47125000Y-77625000I0J250000D01*
G01*
X47125000Y-76875000D01*
G75*
G02*
X47375000Y-76625000I250000J0D01*
G01*
G37*
G04 #@! TD.AperFunction*
G04 #@! TA.AperFunction,SMDPad,CuDef*
G36*
G01*
X47375000Y-73825000D02*
X48625000Y-73825000D01*
G75*
G02*
X48875000Y-74075000I0J-250000D01*
G01*
X48875000Y-74825000D01*
G75*
G02*
X48625000Y-75075000I-250000J0D01*
G01*
X47375000Y-75075000D01*
G75*
G02*
X47125000Y-74825000I0J250000D01*
G01*
X47125000Y-74075000D01*
G75*
G02*
X47375000Y-73825000I250000J0D01*
G01*
G37*
G04 #@! TD.AperFunction*
D15*
X101000000Y-64000000D03*
X101000000Y-69000000D03*
D16*
X101000000Y-74000000D03*
D15*
X93000000Y-84000000D03*
X88000000Y-84000000D03*
D16*
X83000000Y-84000000D03*
D15*
X78000000Y-84000000D03*
X73000000Y-84000000D03*
D16*
X68000000Y-84000000D03*
D15*
X63000000Y-84000000D03*
X58000000Y-84000000D03*
D16*
X53000000Y-84000000D03*
G04 #@! TA.AperFunction,SMDPad,CuDef*
G36*
G01*
X84275000Y-56875000D02*
X84275000Y-55625000D01*
G75*
G02*
X84525000Y-55375000I250000J0D01*
G01*
X85275000Y-55375000D01*
G75*
G02*
X85525000Y-55625000I0J-250000D01*
G01*
X85525000Y-56875000D01*
G75*
G02*
X85275000Y-57125000I-250000J0D01*
G01*
X84525000Y-57125000D01*
G75*
G02*
X84275000Y-56875000I0J250000D01*
G01*
G37*
G04 #@! TD.AperFunction*
G04 #@! TA.AperFunction,SMDPad,CuDef*
G36*
G01*
X81475000Y-56875000D02*
X81475000Y-55625000D01*
G75*
G02*
X81725000Y-55375000I250000J0D01*
G01*
X82475000Y-55375000D01*
G75*
G02*
X82725000Y-55625000I0J-250000D01*
G01*
X82725000Y-56875000D01*
G75*
G02*
X82475000Y-57125000I-250000J0D01*
G01*
X81725000Y-57125000D01*
G75*
G02*
X81475000Y-56875000I0J250000D01*
G01*
G37*
G04 #@! TD.AperFunction*
D17*
X87500000Y-33140000D03*
X87500000Y-34410000D03*
X87500000Y-35680000D03*
X87500000Y-36950000D03*
X87500000Y-38220000D03*
X87500000Y-39490000D03*
X87500000Y-40760000D03*
X87500000Y-42030000D03*
X87500000Y-43300000D03*
X87500000Y-44570000D03*
X87500000Y-45840000D03*
X87500000Y-47110000D03*
X87500000Y-48380000D03*
X87500000Y-49650000D03*
D18*
X84715000Y-50650000D03*
X83445000Y-50650000D03*
X82175000Y-50650000D03*
X80905000Y-50650000D03*
X79635000Y-50650000D03*
X78365000Y-50650000D03*
X77095000Y-50650000D03*
X75825000Y-50650000D03*
X74555000Y-50650000D03*
X73285000Y-50650000D03*
D17*
X70500000Y-49650000D03*
X70500000Y-48380000D03*
X70500000Y-47110000D03*
X70500000Y-45840000D03*
X70500000Y-44570000D03*
X70500000Y-43300000D03*
X70500000Y-42030000D03*
X70500000Y-40760000D03*
X70500000Y-39490000D03*
X70500000Y-38220000D03*
X70500000Y-36950000D03*
X70500000Y-35680000D03*
X70500000Y-34410000D03*
X70500000Y-33140000D03*
D19*
X78000000Y-40640000D03*
G04 #@! TA.AperFunction,SMDPad,CuDef*
G36*
G01*
X94125000Y-35075000D02*
X92875000Y-35075000D01*
G75*
G02*
X92625000Y-34825000I0J250000D01*
G01*
X92625000Y-34075000D01*
G75*
G02*
X92875000Y-33825000I250000J0D01*
G01*
X94125000Y-33825000D01*
G75*
G02*
X94375000Y-34075000I0J-250000D01*
G01*
X94375000Y-34825000D01*
G75*
G02*
X94125000Y-35075000I-250000J0D01*
G01*
G37*
G04 #@! TD.AperFunction*
G04 #@! TA.AperFunction,SMDPad,CuDef*
G36*
G01*
X94125000Y-37875000D02*
X92875000Y-37875000D01*
G75*
G02*
X92625000Y-37625000I0J250000D01*
G01*
X92625000Y-36875000D01*
G75*
G02*
X92875000Y-36625000I250000J0D01*
G01*
X94125000Y-36625000D01*
G75*
G02*
X94375000Y-36875000I0J-250000D01*
G01*
X94375000Y-37625000D01*
G75*
G02*
X94125000Y-37875000I-250000J0D01*
G01*
G37*
G04 #@! TD.AperFunction*
D16*
X38000000Y-84000000D03*
D15*
X43000000Y-84000000D03*
X48000000Y-84000000D03*
D20*
X97750000Y-42500000D03*
D21*
X97750000Y-45040000D03*
X97750000Y-47580000D03*
X97750000Y-50120000D03*
X97750000Y-52660000D03*
X97750000Y-55200000D03*
D15*
X30000000Y-73500000D03*
D16*
X30000000Y-68500000D03*
D22*
X38275000Y-73000000D03*
X38275000Y-69000000D03*
X44225000Y-69000000D03*
X44225000Y-73000000D03*
G04 #@! TA.AperFunction,SMDPad,CuDef*
G36*
G01*
X64625000Y-35225000D02*
X63375000Y-35225000D01*
G75*
G02*
X63125000Y-34975000I0J250000D01*
G01*
X63125000Y-34225000D01*
G75*
G02*
X63375000Y-33975000I250000J0D01*
G01*
X64625000Y-33975000D01*
G75*
G02*
X64875000Y-34225000I0J-250000D01*
G01*
X64875000Y-34975000D01*
G75*
G02*
X64625000Y-35225000I-250000J0D01*
G01*
G37*
G04 #@! TD.AperFunction*
G04 #@! TA.AperFunction,SMDPad,CuDef*
G36*
G01*
X64625000Y-38025000D02*
X63375000Y-38025000D01*
G75*
G02*
X63125000Y-37775000I0J250000D01*
G01*
X63125000Y-37025000D01*
G75*
G02*
X63375000Y-36775000I250000J0D01*
G01*
X64625000Y-36775000D01*
G75*
G02*
X64875000Y-37025000I0J-250000D01*
G01*
X64875000Y-37775000D01*
G75*
G02*
X64625000Y-38025000I-250000J0D01*
G01*
G37*
G04 #@! TD.AperFunction*
D23*
X73750000Y-42250000D03*
X78250000Y-48000000D03*
X83000000Y-43500000D03*
X104000000Y-45000000D03*
X103750000Y-57250000D03*
X101000000Y-78750000D03*
X90500000Y-74500000D03*
X82500000Y-72000000D03*
X81000000Y-64000000D03*
X63000000Y-63750000D03*
X68000000Y-71500000D03*
X62500000Y-71750000D03*
X52000000Y-72000000D03*
X68750000Y-59750000D03*
X73250000Y-74000000D03*
X61250000Y-77750000D03*
X93000000Y-69500000D03*
X88250000Y-60250000D03*
X75000000Y-58750000D03*
X95500000Y-40000000D03*
X95250000Y-54750000D03*
X61000000Y-47500000D03*
X62000000Y-50000000D03*
X62500000Y-54500000D03*
X56000000Y-53000000D03*
X50000000Y-49000000D03*
X50000000Y-43500000D03*
X45000000Y-43000000D03*
X40000000Y-43000000D03*
X36000000Y-43500000D03*
X36500000Y-49500000D03*
X57500000Y-43000000D03*
X57500000Y-34500000D03*
X36500000Y-37500000D03*
X33000000Y-53000000D03*
X28500000Y-53500000D03*
X34500000Y-78500000D03*
X52500000Y-75500000D03*
X56500000Y-62500000D03*
X52500000Y-63000000D03*
X51500000Y-55000000D03*
X67000000Y-33000000D03*
X67000000Y-39000000D03*
X43500000Y-55500000D03*
X44000000Y-62500000D03*
X46000000Y-67000000D03*
X36500000Y-56000000D03*
X46500000Y-69500000D03*
X43500000Y-60000000D03*
X48999992Y-67500000D03*
X90500000Y-34000000D03*
X74500000Y-34000000D03*
X94000000Y-39500000D03*
X96000000Y-35000000D03*
X90000000Y-39000000D03*
X90000000Y-37250000D03*
X88250000Y-55250000D03*
X74000000Y-35750000D03*
X90250000Y-35750000D03*
X85250000Y-53750000D03*
D24*
X44225000Y-69000000D02*
X46000000Y-69000000D01*
X46000000Y-69000000D02*
X46500000Y-69500000D01*
X40600000Y-57100000D02*
X40500000Y-57100000D01*
X43500000Y-60000000D02*
X40600000Y-57100000D01*
X40500000Y-57100000D02*
X40500000Y-52000000D01*
X48999992Y-68500008D02*
X48999992Y-67500000D01*
X44500000Y-73000000D02*
X48999992Y-68500008D01*
X44225000Y-73000000D02*
X44500000Y-73000000D01*
X45580000Y-55680000D02*
X47000000Y-57100000D01*
X45580000Y-52000000D02*
X45580000Y-55680000D01*
X61400000Y-34600000D02*
X64000000Y-34600000D01*
X47000000Y-56000000D02*
X52500000Y-50500000D01*
X47000000Y-57100000D02*
X47000000Y-56000000D01*
X52500000Y-50500000D02*
X52500000Y-40000000D01*
X56000000Y-40000000D02*
X61400000Y-34600000D01*
X52500000Y-40000000D02*
X56000000Y-40000000D01*
X70310000Y-34600000D02*
X70500000Y-34410000D01*
X64000000Y-34600000D02*
X70310000Y-34600000D01*
X52500000Y-37000000D02*
X52500000Y-40000000D01*
X93500000Y-34450000D02*
X90950000Y-34450000D01*
X90950000Y-34450000D02*
X90500000Y-34000000D01*
X74090000Y-34410000D02*
X70500000Y-34410000D01*
X74500000Y-34000000D02*
X74090000Y-34410000D01*
X97750000Y-50120000D02*
X94000000Y-46370000D01*
X94000000Y-46370000D02*
X94000000Y-39500000D01*
X94050000Y-35000000D02*
X93500000Y-34450000D01*
X96000000Y-35000000D02*
X94050000Y-35000000D01*
X50399999Y-72925001D02*
X48875000Y-74450000D01*
X48875000Y-74450000D02*
X48000000Y-74450000D01*
X50399999Y-59100001D02*
X50399999Y-72925001D01*
X47000000Y-57100000D02*
X48399998Y-57100000D01*
X48399998Y-57100000D02*
X50399999Y-59100001D01*
X28000000Y-61500000D02*
X33000000Y-61500000D01*
X38275000Y-73000000D02*
X38500000Y-73000000D01*
X38500000Y-73000000D02*
X41000000Y-70500000D01*
X41000000Y-70500000D02*
X41000000Y-66000000D01*
X36500000Y-61500000D02*
X33000000Y-61500000D01*
X41000000Y-66000000D02*
X36500000Y-61500000D01*
X37775000Y-68500000D02*
X38275000Y-69000000D01*
X30000000Y-68500000D02*
X37775000Y-68500000D01*
X89220000Y-38220000D02*
X87500000Y-38220000D01*
X90000000Y-39000000D02*
X89220000Y-38220000D01*
X90000000Y-37250000D02*
X89750000Y-37000000D01*
X87550000Y-37000000D02*
X87500000Y-36950000D01*
X89750000Y-37000000D02*
X87550000Y-37000000D01*
X87500000Y-49650000D02*
X87500000Y-54500000D01*
X87500000Y-54500000D02*
X88250000Y-55250000D01*
X70570000Y-35750000D02*
X70500000Y-35680000D01*
X74000000Y-35750000D02*
X70570000Y-35750000D01*
X99410000Y-52660000D02*
X97750000Y-52660000D01*
X93500000Y-37250000D02*
X91750000Y-37250000D01*
X91750000Y-37250000D02*
X90250000Y-35750000D01*
X93500000Y-37250000D02*
X96750000Y-37250000D01*
X96750000Y-37250000D02*
X100500000Y-41000000D01*
X100500000Y-51570000D02*
X99410000Y-52660000D01*
X100500000Y-41000000D02*
X100500000Y-51570000D01*
X85250000Y-55900000D02*
X84900000Y-56250000D01*
X85250000Y-53750000D02*
X85250000Y-55900000D01*
X38000000Y-84000000D02*
X43000000Y-84000000D01*
X43000000Y-84000000D02*
X48000000Y-84000000D01*
X48000000Y-77250000D02*
X48000000Y-84000000D01*
X59000000Y-80000000D02*
X63000000Y-84000000D01*
X59000000Y-51160034D02*
X59000000Y-80000000D01*
X70500000Y-44570000D02*
X65590034Y-44570000D01*
X65590034Y-44570000D02*
X59000000Y-51160034D01*
X58000000Y-75750000D02*
X58000000Y-84000000D01*
X58000000Y-49250000D02*
X58000000Y-75750000D01*
X63950000Y-43300000D02*
X58000000Y-49250000D01*
X70500000Y-43300000D02*
X63950000Y-43300000D01*
X53000000Y-82400000D02*
X53000000Y-84000000D01*
X54000000Y-51500000D02*
X54000000Y-81400000D01*
X54000000Y-81400000D02*
X53000000Y-82400000D01*
X70500000Y-42030000D02*
X63470000Y-42030000D01*
X63470000Y-42030000D02*
X54000000Y-51500000D01*
X69509998Y-48380000D02*
X70500000Y-48380000D01*
X65750000Y-52139998D02*
X69509998Y-48380000D01*
X78000000Y-84000000D02*
X65750000Y-71750000D01*
X65750000Y-71750000D02*
X65750000Y-52139998D01*
X73000000Y-82750000D02*
X73000000Y-84000000D01*
X64500000Y-74250000D02*
X73000000Y-82750000D01*
X64500000Y-50889966D02*
X64500000Y-74250000D01*
X70500000Y-47110000D02*
X68279966Y-47110000D01*
X68279966Y-47110000D02*
X64500000Y-50889966D01*
X60000000Y-75000000D02*
X68000000Y-83000000D01*
X70500000Y-45840000D02*
X67410000Y-45840000D01*
X68000000Y-83000000D02*
X68000000Y-84000000D01*
X60000000Y-53250000D02*
X60000000Y-75000000D01*
X67410000Y-45840000D02*
X60000000Y-53250000D01*
X88490002Y-47110000D02*
X91000000Y-49619998D01*
X93000000Y-72750000D02*
X93000000Y-84000000D01*
X91000000Y-49619998D02*
X91000000Y-70750000D01*
X91000000Y-70750000D02*
X93000000Y-72750000D01*
X87500000Y-47110000D02*
X88490002Y-47110000D01*
X88000000Y-84000000D02*
X88000000Y-65000000D01*
X74555000Y-51640002D02*
X74555000Y-50650000D01*
X87914998Y-65000000D02*
X74555000Y-51640002D01*
X88000000Y-65000000D02*
X87914998Y-65000000D01*
X70650000Y-49650000D02*
X70500000Y-49650000D01*
X70650000Y-69150000D02*
X70650000Y-49650000D01*
X83000000Y-84000000D02*
X83000000Y-81500000D01*
X83000000Y-81500000D02*
X70650000Y-69150000D01*
X88490002Y-44570000D02*
X92250000Y-48329998D01*
X87500000Y-44570000D02*
X88490002Y-44570000D01*
X92250000Y-60250000D02*
X101000000Y-69000000D01*
X92250000Y-48329998D02*
X92250000Y-60250000D01*
X91600011Y-48640011D02*
X91600011Y-64600011D01*
X91600011Y-64600011D02*
X101000000Y-74000000D01*
X88800000Y-45840000D02*
X91600011Y-48640011D01*
X87500000Y-45840000D02*
X88800000Y-45840000D01*
X93000000Y-56000000D02*
X101000000Y-64000000D01*
X93000000Y-47809998D02*
X93000000Y-56000000D01*
X87500000Y-43300000D02*
X88490002Y-43300000D01*
X88490002Y-43300000D02*
X93000000Y-47809998D01*
D25*
G36*
X104249899Y-30737907D02*
G01*
X104490285Y-30810484D01*
X104711991Y-30928368D01*
X104906577Y-31087068D01*
X105066635Y-31280545D01*
X105186064Y-31501424D01*
X105260317Y-31741297D01*
X105290000Y-32023716D01*
X105290001Y-86965269D01*
X105262093Y-87249899D01*
X105189517Y-87490282D01*
X105071633Y-87711989D01*
X104912929Y-87906580D01*
X104719455Y-88066635D01*
X104498576Y-88186064D01*
X104258701Y-88260317D01*
X103976291Y-88290000D01*
X27034721Y-88290000D01*
X26750101Y-88262093D01*
X26509718Y-88189517D01*
X26288011Y-88071633D01*
X26093420Y-87912929D01*
X25933365Y-87719455D01*
X25813936Y-87498576D01*
X25739683Y-87258701D01*
X25710000Y-86976291D01*
X25710000Y-83779872D01*
X27765000Y-83779872D01*
X27765000Y-84220128D01*
X27850890Y-84651925D01*
X28019369Y-85058669D01*
X28263962Y-85424729D01*
X28575271Y-85736038D01*
X28941331Y-85980631D01*
X29348075Y-86149110D01*
X29779872Y-86235000D01*
X30220128Y-86235000D01*
X30651925Y-86149110D01*
X31058669Y-85980631D01*
X31424729Y-85736038D01*
X31736038Y-85424729D01*
X31980631Y-85058669D01*
X32149110Y-84651925D01*
X32235000Y-84220128D01*
X32235000Y-83779872D01*
X32149110Y-83348075D01*
X31980631Y-82941331D01*
X31819380Y-82700000D01*
X36061928Y-82700000D01*
X36061928Y-85300000D01*
X36074188Y-85424482D01*
X36110498Y-85544180D01*
X36169463Y-85654494D01*
X36248815Y-85751185D01*
X36345506Y-85830537D01*
X36455820Y-85889502D01*
X36575518Y-85925812D01*
X36700000Y-85938072D01*
X39300000Y-85938072D01*
X39424482Y-85925812D01*
X39544180Y-85889502D01*
X39654494Y-85830537D01*
X39751185Y-85751185D01*
X39830537Y-85654494D01*
X39889502Y-85544180D01*
X39925812Y-85424482D01*
X39938072Y-85300000D01*
X39938072Y-84785000D01*
X41230729Y-84785000D01*
X41285225Y-84916566D01*
X41496987Y-85233491D01*
X41766509Y-85503013D01*
X42083434Y-85714775D01*
X42435581Y-85860639D01*
X42809419Y-85935000D01*
X43190581Y-85935000D01*
X43564419Y-85860639D01*
X43916566Y-85714775D01*
X44233491Y-85503013D01*
X44503013Y-85233491D01*
X44714775Y-84916566D01*
X44769271Y-84785000D01*
X46230729Y-84785000D01*
X46285225Y-84916566D01*
X46496987Y-85233491D01*
X46766509Y-85503013D01*
X47083434Y-85714775D01*
X47435581Y-85860639D01*
X47809419Y-85935000D01*
X48190581Y-85935000D01*
X48564419Y-85860639D01*
X48916566Y-85714775D01*
X49233491Y-85503013D01*
X49503013Y-85233491D01*
X49714775Y-84916566D01*
X49860639Y-84564419D01*
X49935000Y-84190581D01*
X49935000Y-83809419D01*
X49860639Y-83435581D01*
X49714775Y-83083434D01*
X49503013Y-82766509D01*
X49233491Y-82496987D01*
X48916566Y-82285225D01*
X48785000Y-82230729D01*
X48785000Y-78497313D01*
X48798254Y-78496008D01*
X48964850Y-78445472D01*
X49118386Y-78363405D01*
X49252962Y-78252962D01*
X49363405Y-78118386D01*
X49445472Y-77964850D01*
X49496008Y-77798254D01*
X49513072Y-77625000D01*
X49513072Y-76875000D01*
X49496008Y-76701746D01*
X49445472Y-76535150D01*
X49363405Y-76381614D01*
X49252962Y-76247038D01*
X49118386Y-76136595D01*
X48964850Y-76054528D01*
X48798254Y-76003992D01*
X48625000Y-75986928D01*
X47375000Y-75986928D01*
X47201746Y-76003992D01*
X47035150Y-76054528D01*
X46881614Y-76136595D01*
X46747038Y-76247038D01*
X46636595Y-76381614D01*
X46554528Y-76535150D01*
X46503992Y-76701746D01*
X46486928Y-76875000D01*
X46486928Y-77625000D01*
X46503992Y-77798254D01*
X46554528Y-77964850D01*
X46636595Y-78118386D01*
X46747038Y-78252962D01*
X46881614Y-78363405D01*
X47035150Y-78445472D01*
X47201746Y-78496008D01*
X47215000Y-78497313D01*
X47215001Y-82230728D01*
X47083434Y-82285225D01*
X46766509Y-82496987D01*
X46496987Y-82766509D01*
X46285225Y-83083434D01*
X46230729Y-83215000D01*
X44769271Y-83215000D01*
X44714775Y-83083434D01*
X44503013Y-82766509D01*
X44233491Y-82496987D01*
X43916566Y-82285225D01*
X43564419Y-82139361D01*
X43190581Y-82065000D01*
X42809419Y-82065000D01*
X42435581Y-82139361D01*
X42083434Y-82285225D01*
X41766509Y-82496987D01*
X41496987Y-82766509D01*
X41285225Y-83083434D01*
X41230729Y-83215000D01*
X39938072Y-83215000D01*
X39938072Y-82700000D01*
X39925812Y-82575518D01*
X39889502Y-82455820D01*
X39830537Y-82345506D01*
X39751185Y-82248815D01*
X39654494Y-82169463D01*
X39544180Y-82110498D01*
X39424482Y-82074188D01*
X39300000Y-82061928D01*
X36700000Y-82061928D01*
X36575518Y-82074188D01*
X36455820Y-82110498D01*
X36345506Y-82169463D01*
X36248815Y-82248815D01*
X36169463Y-82345506D01*
X36110498Y-82455820D01*
X36074188Y-82575518D01*
X36061928Y-82700000D01*
X31819380Y-82700000D01*
X31736038Y-82575271D01*
X31424729Y-82263962D01*
X31058669Y-82019369D01*
X30651925Y-81850890D01*
X30220128Y-81765000D01*
X29779872Y-81765000D01*
X29348075Y-81850890D01*
X28941331Y-82019369D01*
X28575271Y-82263962D01*
X28263962Y-82575271D01*
X28019369Y-82941331D01*
X27850890Y-83348075D01*
X27765000Y-83779872D01*
X25710000Y-83779872D01*
X25710000Y-73309419D01*
X28065000Y-73309419D01*
X28065000Y-73690581D01*
X28139361Y-74064419D01*
X28285225Y-74416566D01*
X28496987Y-74733491D01*
X28766509Y-75003013D01*
X29083434Y-75214775D01*
X29435581Y-75360639D01*
X29809419Y-75435000D01*
X30190581Y-75435000D01*
X30564419Y-75360639D01*
X30916566Y-75214775D01*
X31233491Y-75003013D01*
X31503013Y-74733491D01*
X31714775Y-74416566D01*
X31860639Y-74064419D01*
X31935000Y-73690581D01*
X31935000Y-73309419D01*
X31860639Y-72935581D01*
X31714775Y-72583434D01*
X31503013Y-72266509D01*
X31233491Y-71996987D01*
X30916566Y-71785225D01*
X30564419Y-71639361D01*
X30190581Y-71565000D01*
X29809419Y-71565000D01*
X29435581Y-71639361D01*
X29083434Y-71785225D01*
X28766509Y-71996987D01*
X28496987Y-72266509D01*
X28285225Y-72583434D01*
X28139361Y-72935581D01*
X28065000Y-73309419D01*
X25710000Y-73309419D01*
X25710000Y-67200000D01*
X28061928Y-67200000D01*
X28061928Y-69800000D01*
X28074188Y-69924482D01*
X28110498Y-70044180D01*
X28169463Y-70154494D01*
X28248815Y-70251185D01*
X28345506Y-70330537D01*
X28455820Y-70389502D01*
X28575518Y-70425812D01*
X28700000Y-70438072D01*
X31300000Y-70438072D01*
X31424482Y-70425812D01*
X31544180Y-70389502D01*
X31654494Y-70330537D01*
X31751185Y-70251185D01*
X31830537Y-70154494D01*
X31889502Y-70044180D01*
X31925812Y-69924482D01*
X31938072Y-69800000D01*
X31938072Y-69285000D01*
X37136928Y-69285000D01*
X37136928Y-69350000D01*
X37149188Y-69474482D01*
X37185498Y-69594180D01*
X37244463Y-69704494D01*
X37323815Y-69801185D01*
X37420506Y-69880537D01*
X37530820Y-69939502D01*
X37650518Y-69975812D01*
X37775000Y-69988072D01*
X38775000Y-69988072D01*
X38899482Y-69975812D01*
X39019180Y-69939502D01*
X39129494Y-69880537D01*
X39226185Y-69801185D01*
X39305537Y-69704494D01*
X39364502Y-69594180D01*
X39400812Y-69474482D01*
X39413072Y-69350000D01*
X39413072Y-68650000D01*
X39400812Y-68525518D01*
X39364502Y-68405820D01*
X39305537Y-68295506D01*
X39226185Y-68198815D01*
X39129494Y-68119463D01*
X39019180Y-68060498D01*
X38899482Y-68024188D01*
X38775000Y-68011928D01*
X38397085Y-68011928D01*
X38357347Y-67972190D01*
X38332764Y-67942236D01*
X38213233Y-67844138D01*
X38076860Y-67771246D01*
X37928887Y-67726359D01*
X37813561Y-67715000D01*
X37813553Y-67715000D01*
X37775000Y-67711203D01*
X37736447Y-67715000D01*
X31938072Y-67715000D01*
X31938072Y-67200000D01*
X31925812Y-67075518D01*
X31889502Y-66955820D01*
X31830537Y-66845506D01*
X31751185Y-66748815D01*
X31654494Y-66669463D01*
X31544180Y-66610498D01*
X31424482Y-66574188D01*
X31300000Y-66561928D01*
X28700000Y-66561928D01*
X28575518Y-66574188D01*
X28455820Y-66610498D01*
X28345506Y-66669463D01*
X28248815Y-66748815D01*
X28169463Y-66845506D01*
X28110498Y-66955820D01*
X28074188Y-67075518D01*
X28061928Y-67200000D01*
X25710000Y-67200000D01*
X25710000Y-61338967D01*
X26365000Y-61338967D01*
X26365000Y-61661033D01*
X26427832Y-61976912D01*
X26551082Y-62274463D01*
X26730013Y-62542252D01*
X26957748Y-62769987D01*
X27225537Y-62948918D01*
X27523088Y-63072168D01*
X27838967Y-63135000D01*
X28161033Y-63135000D01*
X28476912Y-63072168D01*
X28774463Y-62948918D01*
X29042252Y-62769987D01*
X29269987Y-62542252D01*
X29441877Y-62285000D01*
X31558123Y-62285000D01*
X31730013Y-62542252D01*
X31957748Y-62769987D01*
X32225537Y-62948918D01*
X32523088Y-63072168D01*
X32838967Y-63135000D01*
X33161033Y-63135000D01*
X33476912Y-63072168D01*
X33774463Y-62948918D01*
X34042252Y-62769987D01*
X34269987Y-62542252D01*
X34441877Y-62285000D01*
X36174843Y-62285000D01*
X40215001Y-66325159D01*
X40215000Y-70174842D01*
X38377915Y-72011928D01*
X37775000Y-72011928D01*
X37650518Y-72024188D01*
X37530820Y-72060498D01*
X37420506Y-72119463D01*
X37323815Y-72198815D01*
X37244463Y-72295506D01*
X37185498Y-72405820D01*
X37149188Y-72525518D01*
X37136928Y-72650000D01*
X37136928Y-73350000D01*
X37149188Y-73474482D01*
X37185498Y-73594180D01*
X37244463Y-73704494D01*
X37323815Y-73801185D01*
X37420506Y-73880537D01*
X37530820Y-73939502D01*
X37650518Y-73975812D01*
X37775000Y-73988072D01*
X38775000Y-73988072D01*
X38899482Y-73975812D01*
X39019180Y-73939502D01*
X39129494Y-73880537D01*
X39226185Y-73801185D01*
X39305537Y-73704494D01*
X39364502Y-73594180D01*
X39400812Y-73474482D01*
X39413072Y-73350000D01*
X39413072Y-73197085D01*
X39960157Y-72650000D01*
X43086928Y-72650000D01*
X43086928Y-73350000D01*
X43099188Y-73474482D01*
X43135498Y-73594180D01*
X43194463Y-73704494D01*
X43273815Y-73801185D01*
X43370506Y-73880537D01*
X43480820Y-73939502D01*
X43600518Y-73975812D01*
X43725000Y-73988072D01*
X44725000Y-73988072D01*
X44849482Y-73975812D01*
X44969180Y-73939502D01*
X45079494Y-73880537D01*
X45176185Y-73801185D01*
X45255537Y-73704494D01*
X45314502Y-73594180D01*
X45350812Y-73474482D01*
X45363072Y-73350000D01*
X45363072Y-73247085D01*
X49527803Y-69082354D01*
X49557756Y-69057772D01*
X49615000Y-68988021D01*
X49615000Y-72599842D01*
X48961370Y-73253472D01*
X48798254Y-73203992D01*
X48625000Y-73186928D01*
X47375000Y-73186928D01*
X47201746Y-73203992D01*
X47035150Y-73254528D01*
X46881614Y-73336595D01*
X46747038Y-73447038D01*
X46636595Y-73581614D01*
X46554528Y-73735150D01*
X46503992Y-73901746D01*
X46486928Y-74075000D01*
X46486928Y-74825000D01*
X46503992Y-74998254D01*
X46554528Y-75164850D01*
X46636595Y-75318386D01*
X46747038Y-75452962D01*
X46881614Y-75563405D01*
X47035150Y-75645472D01*
X47201746Y-75696008D01*
X47375000Y-75713072D01*
X48625000Y-75713072D01*
X48798254Y-75696008D01*
X48964850Y-75645472D01*
X49118386Y-75563405D01*
X49252962Y-75452962D01*
X49363405Y-75318386D01*
X49445472Y-75164850D01*
X49496008Y-74998254D01*
X49502465Y-74932692D01*
X50927815Y-73507343D01*
X50957763Y-73482765D01*
X51055861Y-73363234D01*
X51128753Y-73226861D01*
X51173640Y-73078888D01*
X51184999Y-72963562D01*
X51184999Y-72963555D01*
X51188796Y-72925002D01*
X51184999Y-72886449D01*
X51184999Y-59138557D01*
X51188796Y-59100001D01*
X51184999Y-59061441D01*
X51184999Y-59061440D01*
X51179418Y-59004774D01*
X51173641Y-58946114D01*
X51128753Y-58798141D01*
X51055861Y-58661768D01*
X50957763Y-58542237D01*
X50927810Y-58517655D01*
X48982345Y-56572190D01*
X48957762Y-56542236D01*
X48838231Y-56444138D01*
X48701858Y-56371246D01*
X48553885Y-56326359D01*
X48438559Y-56315000D01*
X48438551Y-56315000D01*
X48406277Y-56311821D01*
X48363405Y-56231614D01*
X48252962Y-56097038D01*
X48121229Y-55988928D01*
X53027811Y-51082346D01*
X53057764Y-51057764D01*
X53155862Y-50938233D01*
X53228754Y-50801860D01*
X53248104Y-50738072D01*
X53273642Y-50653887D01*
X53281020Y-50578974D01*
X53285000Y-50538561D01*
X53285000Y-50538556D01*
X53288797Y-50500000D01*
X53285000Y-50461444D01*
X53285000Y-40785000D01*
X55961447Y-40785000D01*
X56000000Y-40788797D01*
X56038553Y-40785000D01*
X56038561Y-40785000D01*
X56153887Y-40773641D01*
X56301860Y-40728754D01*
X56438233Y-40655862D01*
X56557764Y-40557764D01*
X56582347Y-40527810D01*
X59085157Y-38025000D01*
X62486928Y-38025000D01*
X62499188Y-38149482D01*
X62535498Y-38269180D01*
X62594463Y-38379494D01*
X62673815Y-38476185D01*
X62770506Y-38555537D01*
X62880820Y-38614502D01*
X63000518Y-38650812D01*
X63125000Y-38663072D01*
X63714250Y-38660000D01*
X63873000Y-38501250D01*
X63873000Y-37527000D01*
X64127000Y-37527000D01*
X64127000Y-38501250D01*
X64285750Y-38660000D01*
X64875000Y-38663072D01*
X64999482Y-38650812D01*
X65119180Y-38614502D01*
X65229494Y-38555537D01*
X65326185Y-38476185D01*
X65405537Y-38379494D01*
X65464502Y-38269180D01*
X65500812Y-38149482D01*
X65513072Y-38025000D01*
X65510000Y-37685750D01*
X65351250Y-37527000D01*
X64127000Y-37527000D01*
X63873000Y-37527000D01*
X62648750Y-37527000D01*
X62490000Y-37685750D01*
X62486928Y-38025000D01*
X59085157Y-38025000D01*
X60335157Y-36775000D01*
X62486928Y-36775000D01*
X62490000Y-37114250D01*
X62648750Y-37273000D01*
X63873000Y-37273000D01*
X63873000Y-36298750D01*
X64127000Y-36298750D01*
X64127000Y-37273000D01*
X65351250Y-37273000D01*
X65510000Y-37114250D01*
X65513072Y-36775000D01*
X65500812Y-36650518D01*
X65464502Y-36530820D01*
X65405537Y-36420506D01*
X65326185Y-36323815D01*
X65229494Y-36244463D01*
X65119180Y-36185498D01*
X64999482Y-36149188D01*
X64875000Y-36136928D01*
X64285750Y-36140000D01*
X64127000Y-36298750D01*
X63873000Y-36298750D01*
X63714250Y-36140000D01*
X63125000Y-36136928D01*
X63000518Y-36149188D01*
X62880820Y-36185498D01*
X62770506Y-36244463D01*
X62673815Y-36323815D01*
X62594463Y-36420506D01*
X62535498Y-36530820D01*
X62499188Y-36650518D01*
X62486928Y-36775000D01*
X60335157Y-36775000D01*
X61725158Y-35385000D01*
X62592024Y-35385000D01*
X62636595Y-35468386D01*
X62747038Y-35602962D01*
X62881614Y-35713405D01*
X63035150Y-35795472D01*
X63201746Y-35846008D01*
X63375000Y-35863072D01*
X64625000Y-35863072D01*
X64798254Y-35846008D01*
X64964850Y-35795472D01*
X65118386Y-35713405D01*
X65252962Y-35602962D01*
X65363405Y-35468386D01*
X65407976Y-35385000D01*
X68861928Y-35385000D01*
X68861928Y-36130000D01*
X68874188Y-36254482D01*
X68892546Y-36315000D01*
X68874188Y-36375518D01*
X68861928Y-36500000D01*
X68861928Y-37400000D01*
X68874188Y-37524482D01*
X68892546Y-37585000D01*
X68874188Y-37645518D01*
X68861928Y-37770000D01*
X68861928Y-38670000D01*
X68874188Y-38794482D01*
X68892546Y-38855000D01*
X68874188Y-38915518D01*
X68861928Y-39040000D01*
X68861928Y-39940000D01*
X68874188Y-40064482D01*
X68892546Y-40125000D01*
X68874188Y-40185518D01*
X68861928Y-40310000D01*
X68861928Y-41210000D01*
X68865375Y-41245000D01*
X63508552Y-41245000D01*
X63469999Y-41241203D01*
X63431446Y-41245000D01*
X63431439Y-41245000D01*
X63330490Y-41254943D01*
X63316112Y-41256359D01*
X63281672Y-41266806D01*
X63168140Y-41301246D01*
X63031767Y-41374138D01*
X62993163Y-41405820D01*
X62942187Y-41447655D01*
X62942184Y-41447658D01*
X62912236Y-41472236D01*
X62887658Y-41502184D01*
X53472190Y-50917653D01*
X53442236Y-50942236D01*
X53344138Y-51061768D01*
X53271246Y-51198141D01*
X53226359Y-51346114D01*
X53215000Y-51461440D01*
X53215000Y-51461447D01*
X53211203Y-51500000D01*
X53215000Y-51538553D01*
X53215001Y-81074842D01*
X52472190Y-81817653D01*
X52442236Y-81842236D01*
X52344138Y-81961768D01*
X52290602Y-82061928D01*
X51700000Y-82061928D01*
X51575518Y-82074188D01*
X51455820Y-82110498D01*
X51345506Y-82169463D01*
X51248815Y-82248815D01*
X51169463Y-82345506D01*
X51110498Y-82455820D01*
X51074188Y-82575518D01*
X51061928Y-82700000D01*
X51061928Y-85300000D01*
X51074188Y-85424482D01*
X51110498Y-85544180D01*
X51169463Y-85654494D01*
X51248815Y-85751185D01*
X51345506Y-85830537D01*
X51455820Y-85889502D01*
X51575518Y-85925812D01*
X51700000Y-85938072D01*
X54300000Y-85938072D01*
X54424482Y-85925812D01*
X54544180Y-85889502D01*
X54654494Y-85830537D01*
X54751185Y-85751185D01*
X54830537Y-85654494D01*
X54889502Y-85544180D01*
X54925812Y-85424482D01*
X54938072Y-85300000D01*
X54938072Y-82700000D01*
X54925812Y-82575518D01*
X54889502Y-82455820D01*
X54830537Y-82345506D01*
X54751185Y-82248815D01*
X54654494Y-82169463D01*
X54544180Y-82110498D01*
X54433295Y-82076862D01*
X54527810Y-81982347D01*
X54557764Y-81957764D01*
X54655862Y-81838233D01*
X54728754Y-81701860D01*
X54756255Y-81611202D01*
X54773642Y-81553887D01*
X54781020Y-81478974D01*
X54785000Y-81438561D01*
X54785000Y-81438556D01*
X54788797Y-81400000D01*
X54785000Y-81361444D01*
X54785000Y-51825157D01*
X57215000Y-49395157D01*
X57215001Y-75711430D01*
X57215000Y-75711440D01*
X57215001Y-82230728D01*
X57083434Y-82285225D01*
X56766509Y-82496987D01*
X56496987Y-82766509D01*
X56285225Y-83083434D01*
X56139361Y-83435581D01*
X56065000Y-83809419D01*
X56065000Y-84190581D01*
X56139361Y-84564419D01*
X56285225Y-84916566D01*
X56496987Y-85233491D01*
X56766509Y-85503013D01*
X57083434Y-85714775D01*
X57435581Y-85860639D01*
X57809419Y-85935000D01*
X58190581Y-85935000D01*
X58564419Y-85860639D01*
X58916566Y-85714775D01*
X59233491Y-85503013D01*
X59503013Y-85233491D01*
X59714775Y-84916566D01*
X59860639Y-84564419D01*
X59935000Y-84190581D01*
X59935000Y-83809419D01*
X59860639Y-83435581D01*
X59714775Y-83083434D01*
X59503013Y-82766509D01*
X59233491Y-82496987D01*
X58916566Y-82285225D01*
X58785000Y-82230729D01*
X58785000Y-80895157D01*
X61193857Y-83304015D01*
X61139361Y-83435581D01*
X61065000Y-83809419D01*
X61065000Y-84190581D01*
X61139361Y-84564419D01*
X61285225Y-84916566D01*
X61496987Y-85233491D01*
X61766509Y-85503013D01*
X62083434Y-85714775D01*
X62435581Y-85860639D01*
X62809419Y-85935000D01*
X63190581Y-85935000D01*
X63564419Y-85860639D01*
X63916566Y-85714775D01*
X64233491Y-85503013D01*
X64503013Y-85233491D01*
X64714775Y-84916566D01*
X64860639Y-84564419D01*
X64935000Y-84190581D01*
X64935000Y-83809419D01*
X64860639Y-83435581D01*
X64714775Y-83083434D01*
X64503013Y-82766509D01*
X64233491Y-82496987D01*
X63916566Y-82285225D01*
X63564419Y-82139361D01*
X63190581Y-82065000D01*
X62809419Y-82065000D01*
X62435581Y-82139361D01*
X62304015Y-82193857D01*
X59785000Y-79674843D01*
X59785000Y-75895157D01*
X66199161Y-82309319D01*
X66169463Y-82345506D01*
X66110498Y-82455820D01*
X66074188Y-82575518D01*
X66061928Y-82700000D01*
X66061928Y-85300000D01*
X66074188Y-85424482D01*
X66110498Y-85544180D01*
X66169463Y-85654494D01*
X66248815Y-85751185D01*
X66345506Y-85830537D01*
X66455820Y-85889502D01*
X66575518Y-85925812D01*
X66700000Y-85938072D01*
X69300000Y-85938072D01*
X69424482Y-85925812D01*
X69544180Y-85889502D01*
X69654494Y-85830537D01*
X69751185Y-85751185D01*
X69830537Y-85654494D01*
X69889502Y-85544180D01*
X69925812Y-85424482D01*
X69938072Y-85300000D01*
X69938072Y-82700000D01*
X69925812Y-82575518D01*
X69889502Y-82455820D01*
X69830537Y-82345506D01*
X69751185Y-82248815D01*
X69654494Y-82169463D01*
X69544180Y-82110498D01*
X69424482Y-82074188D01*
X69300000Y-82061928D01*
X68172086Y-82061928D01*
X60785000Y-74674843D01*
X60785000Y-53575157D01*
X63770896Y-50589262D01*
X63726359Y-50736080D01*
X63715000Y-50851406D01*
X63715000Y-50851413D01*
X63711203Y-50889966D01*
X63715000Y-50928519D01*
X63715001Y-67485446D01*
X63614637Y-67335241D01*
X63414759Y-67135363D01*
X63179727Y-66978320D01*
X62918574Y-66870147D01*
X62641335Y-66815000D01*
X62358665Y-66815000D01*
X62081426Y-66870147D01*
X61820273Y-66978320D01*
X61585241Y-67135363D01*
X61385363Y-67335241D01*
X61228320Y-67570273D01*
X61120147Y-67831426D01*
X61065000Y-68108665D01*
X61065000Y-68391335D01*
X61120147Y-68668574D01*
X61228320Y-68929727D01*
X61385363Y-69164759D01*
X61585241Y-69364637D01*
X61820273Y-69521680D01*
X62081426Y-69629853D01*
X62358665Y-69685000D01*
X62641335Y-69685000D01*
X62918574Y-69629853D01*
X63179727Y-69521680D01*
X63414759Y-69364637D01*
X63614637Y-69164759D01*
X63715001Y-69014554D01*
X63715001Y-74211437D01*
X63711203Y-74250000D01*
X63726359Y-74403886D01*
X63771246Y-74551859D01*
X63787541Y-74582345D01*
X63844139Y-74688233D01*
X63877394Y-74728754D01*
X63917655Y-74777812D01*
X63917659Y-74777816D01*
X63942237Y-74807764D01*
X63972185Y-74832342D01*
X71701669Y-82561827D01*
X71496987Y-82766509D01*
X71285225Y-83083434D01*
X71139361Y-83435581D01*
X71065000Y-83809419D01*
X71065000Y-84190581D01*
X71139361Y-84564419D01*
X71285225Y-84916566D01*
X71496987Y-85233491D01*
X71766509Y-85503013D01*
X72083434Y-85714775D01*
X72435581Y-85860639D01*
X72809419Y-85935000D01*
X73190581Y-85935000D01*
X73564419Y-85860639D01*
X73916566Y-85714775D01*
X74233491Y-85503013D01*
X74503013Y-85233491D01*
X74714775Y-84916566D01*
X74860639Y-84564419D01*
X74935000Y-84190581D01*
X74935000Y-83809419D01*
X74860639Y-83435581D01*
X74714775Y-83083434D01*
X74503013Y-82766509D01*
X74233491Y-82496987D01*
X73916566Y-82285225D01*
X73564419Y-82139361D01*
X73483404Y-82123246D01*
X65285000Y-73924843D01*
X65285000Y-72395157D01*
X76193857Y-83304015D01*
X76139361Y-83435581D01*
X76065000Y-83809419D01*
X76065000Y-84190581D01*
X76139361Y-84564419D01*
X76285225Y-84916566D01*
X76496987Y-85233491D01*
X76766509Y-85503013D01*
X77083434Y-85714775D01*
X77435581Y-85860639D01*
X77809419Y-85935000D01*
X78190581Y-85935000D01*
X78564419Y-85860639D01*
X78916566Y-85714775D01*
X79233491Y-85503013D01*
X79503013Y-85233491D01*
X79714775Y-84916566D01*
X79860639Y-84564419D01*
X79935000Y-84190581D01*
X79935000Y-83809419D01*
X79860639Y-83435581D01*
X79714775Y-83083434D01*
X79503013Y-82766509D01*
X79233491Y-82496987D01*
X78916566Y-82285225D01*
X78564419Y-82139361D01*
X78190581Y-82065000D01*
X77809419Y-82065000D01*
X77435581Y-82139361D01*
X77304015Y-82193857D01*
X66535000Y-71424843D01*
X66535000Y-69323347D01*
X66570630Y-69358977D01*
X66686903Y-69242704D01*
X66758486Y-69486671D01*
X67013996Y-69607571D01*
X67288184Y-69676300D01*
X67570512Y-69690217D01*
X67850130Y-69648787D01*
X68116292Y-69553603D01*
X68241514Y-69486671D01*
X68313097Y-69242702D01*
X67500000Y-68429605D01*
X67485858Y-68443748D01*
X67306253Y-68264143D01*
X67320395Y-68250000D01*
X67679605Y-68250000D01*
X68492702Y-69063097D01*
X68736671Y-68991514D01*
X68857571Y-68736004D01*
X68926300Y-68461816D01*
X68940217Y-68179488D01*
X68898787Y-67899870D01*
X68803603Y-67633708D01*
X68736671Y-67508486D01*
X68492702Y-67436903D01*
X67679605Y-68250000D01*
X67320395Y-68250000D01*
X67306253Y-68235858D01*
X67485858Y-68056253D01*
X67500000Y-68070395D01*
X68313097Y-67257298D01*
X68241514Y-67013329D01*
X67986004Y-66892429D01*
X67711816Y-66823700D01*
X67429488Y-66809783D01*
X67149870Y-66851213D01*
X66883708Y-66946397D01*
X66758486Y-67013329D01*
X66686903Y-67257296D01*
X66570630Y-67141023D01*
X66535000Y-67176653D01*
X66535000Y-52465155D01*
X68865355Y-50134800D01*
X68874188Y-50224482D01*
X68910498Y-50344180D01*
X68969463Y-50454494D01*
X69048815Y-50551185D01*
X69145506Y-50630537D01*
X69255820Y-50689502D01*
X69375518Y-50725812D01*
X69500000Y-50738072D01*
X69865001Y-50738072D01*
X69865000Y-69111447D01*
X69861203Y-69150000D01*
X69865000Y-69188553D01*
X69865000Y-69188560D01*
X69876359Y-69303886D01*
X69921246Y-69451859D01*
X69994138Y-69588232D01*
X70092236Y-69707764D01*
X70122190Y-69732347D01*
X82215001Y-81825159D01*
X82215001Y-82061928D01*
X81700000Y-82061928D01*
X81575518Y-82074188D01*
X81455820Y-82110498D01*
X81345506Y-82169463D01*
X81248815Y-82248815D01*
X81169463Y-82345506D01*
X81110498Y-82455820D01*
X81074188Y-82575518D01*
X81061928Y-82700000D01*
X81061928Y-85300000D01*
X81074188Y-85424482D01*
X81110498Y-85544180D01*
X81169463Y-85654494D01*
X81248815Y-85751185D01*
X81345506Y-85830537D01*
X81455820Y-85889502D01*
X81575518Y-85925812D01*
X81700000Y-85938072D01*
X84300000Y-85938072D01*
X84424482Y-85925812D01*
X84544180Y-85889502D01*
X84654494Y-85830537D01*
X84751185Y-85751185D01*
X84830537Y-85654494D01*
X84889502Y-85544180D01*
X84925812Y-85424482D01*
X84938072Y-85300000D01*
X84938072Y-82700000D01*
X84925812Y-82575518D01*
X84889502Y-82455820D01*
X84830537Y-82345506D01*
X84751185Y-82248815D01*
X84654494Y-82169463D01*
X84544180Y-82110498D01*
X84424482Y-82074188D01*
X84300000Y-82061928D01*
X83785000Y-82061928D01*
X83785000Y-81538552D01*
X83788797Y-81499999D01*
X83785000Y-81461446D01*
X83785000Y-81461439D01*
X83773641Y-81346113D01*
X83728754Y-81198140D01*
X83655862Y-81061767D01*
X83557764Y-80942236D01*
X83527816Y-80917658D01*
X71435000Y-68824843D01*
X71435000Y-68108665D01*
X77065000Y-68108665D01*
X77065000Y-68391335D01*
X77120147Y-68668574D01*
X77228320Y-68929727D01*
X77385363Y-69164759D01*
X77585241Y-69364637D01*
X77820273Y-69521680D01*
X78081426Y-69629853D01*
X78358665Y-69685000D01*
X78641335Y-69685000D01*
X78918574Y-69629853D01*
X79179727Y-69521680D01*
X79414759Y-69364637D01*
X79536694Y-69242702D01*
X82686903Y-69242702D01*
X82758486Y-69486671D01*
X83013996Y-69607571D01*
X83288184Y-69676300D01*
X83570512Y-69690217D01*
X83850130Y-69648787D01*
X84116292Y-69553603D01*
X84241514Y-69486671D01*
X84313097Y-69242702D01*
X83500000Y-68429605D01*
X82686903Y-69242702D01*
X79536694Y-69242702D01*
X79614637Y-69164759D01*
X79771680Y-68929727D01*
X79879853Y-68668574D01*
X79935000Y-68391335D01*
X79935000Y-68320512D01*
X82059783Y-68320512D01*
X82101213Y-68600130D01*
X82196397Y-68866292D01*
X82263329Y-68991514D01*
X82507298Y-69063097D01*
X83320395Y-68250000D01*
X83679605Y-68250000D01*
X84492702Y-69063097D01*
X84736671Y-68991514D01*
X84857571Y-68736004D01*
X84926300Y-68461816D01*
X84940217Y-68179488D01*
X84898787Y-67899870D01*
X84803603Y-67633708D01*
X84736671Y-67508486D01*
X84492702Y-67436903D01*
X83679605Y-68250000D01*
X83320395Y-68250000D01*
X82507298Y-67436903D01*
X82263329Y-67508486D01*
X82142429Y-67763996D01*
X82073700Y-68038184D01*
X82059783Y-68320512D01*
X79935000Y-68320512D01*
X79935000Y-68108665D01*
X79879853Y-67831426D01*
X79771680Y-67570273D01*
X79614637Y-67335241D01*
X79536694Y-67257298D01*
X82686903Y-67257298D01*
X83500000Y-68070395D01*
X84313097Y-67257298D01*
X84241514Y-67013329D01*
X83986004Y-66892429D01*
X83711816Y-66823700D01*
X83429488Y-66809783D01*
X83149870Y-66851213D01*
X82883708Y-66946397D01*
X82758486Y-67013329D01*
X82686903Y-67257298D01*
X79536694Y-67257298D01*
X79414759Y-67135363D01*
X79179727Y-66978320D01*
X78918574Y-66870147D01*
X78641335Y-66815000D01*
X78358665Y-66815000D01*
X78081426Y-66870147D01*
X77820273Y-66978320D01*
X77585241Y-67135363D01*
X77385363Y-67335241D01*
X77228320Y-67570273D01*
X77120147Y-67831426D01*
X77065000Y-68108665D01*
X71435000Y-68108665D01*
X71435000Y-51650000D01*
X72196928Y-51650000D01*
X72209188Y-51774482D01*
X72245498Y-51894180D01*
X72304463Y-52004494D01*
X72383815Y-52101185D01*
X72480506Y-52180537D01*
X72590820Y-52239502D01*
X72710518Y-52275812D01*
X72835000Y-52288072D01*
X72999250Y-52285000D01*
X73158000Y-52126250D01*
X73158000Y-50777000D01*
X72358750Y-50777000D01*
X72200000Y-50935750D01*
X72196928Y-51650000D01*
X71435000Y-51650000D01*
X71435000Y-50738072D01*
X71500000Y-50738072D01*
X71624482Y-50725812D01*
X71744180Y-50689502D01*
X71854494Y-50630537D01*
X71951185Y-50551185D01*
X72030537Y-50454494D01*
X72089502Y-50344180D01*
X72125812Y-50224482D01*
X72138072Y-50100000D01*
X72138072Y-49650000D01*
X72196928Y-49650000D01*
X72200000Y-50364250D01*
X72358750Y-50523000D01*
X73158000Y-50523000D01*
X73158000Y-49173750D01*
X73412000Y-49173750D01*
X73412000Y-50523000D01*
X73432000Y-50523000D01*
X73432000Y-50777000D01*
X73412000Y-50777000D01*
X73412000Y-52126250D01*
X73570750Y-52285000D01*
X73735000Y-52288072D01*
X73859482Y-52275812D01*
X73920000Y-52257454D01*
X73980518Y-52275812D01*
X74091593Y-52286752D01*
X87215001Y-65410161D01*
X87215000Y-82230729D01*
X87083434Y-82285225D01*
X86766509Y-82496987D01*
X86496987Y-82766509D01*
X86285225Y-83083434D01*
X86139361Y-83435581D01*
X86065000Y-83809419D01*
X86065000Y-84190581D01*
X86139361Y-84564419D01*
X86285225Y-84916566D01*
X86496987Y-85233491D01*
X86766509Y-85503013D01*
X87083434Y-85714775D01*
X87435581Y-85860639D01*
X87809419Y-85935000D01*
X88190581Y-85935000D01*
X88564419Y-85860639D01*
X88916566Y-85714775D01*
X89233491Y-85503013D01*
X89503013Y-85233491D01*
X89714775Y-84916566D01*
X89860639Y-84564419D01*
X89935000Y-84190581D01*
X89935000Y-83809419D01*
X89860639Y-83435581D01*
X89714775Y-83083434D01*
X89503013Y-82766509D01*
X89233491Y-82496987D01*
X88916566Y-82285225D01*
X88785000Y-82230729D01*
X88785000Y-65038561D01*
X88788798Y-65000000D01*
X88773641Y-64846113D01*
X88728754Y-64698140D01*
X88655862Y-64561767D01*
X88557764Y-64442236D01*
X88438233Y-64344138D01*
X88301860Y-64271246D01*
X88294025Y-64268869D01*
X81785417Y-57760261D01*
X81814250Y-57760000D01*
X81973000Y-57601250D01*
X81973000Y-56377000D01*
X82227000Y-56377000D01*
X82227000Y-57601250D01*
X82385750Y-57760000D01*
X82725000Y-57763072D01*
X82849482Y-57750812D01*
X82969180Y-57714502D01*
X83079494Y-57655537D01*
X83176185Y-57576185D01*
X83255537Y-57479494D01*
X83314502Y-57369180D01*
X83350812Y-57249482D01*
X83363072Y-57125000D01*
X83360000Y-56535750D01*
X83201250Y-56377000D01*
X82227000Y-56377000D01*
X81973000Y-56377000D01*
X80998750Y-56377000D01*
X80840000Y-56535750D01*
X80838553Y-56813397D01*
X79400156Y-55375000D01*
X80836928Y-55375000D01*
X80840000Y-55964250D01*
X80998750Y-56123000D01*
X81973000Y-56123000D01*
X81973000Y-54898750D01*
X82227000Y-54898750D01*
X82227000Y-56123000D01*
X83201250Y-56123000D01*
X83360000Y-55964250D01*
X83361768Y-55625000D01*
X83636928Y-55625000D01*
X83636928Y-56875000D01*
X83653992Y-57048254D01*
X83704528Y-57214850D01*
X83786595Y-57368386D01*
X83897038Y-57502962D01*
X84031614Y-57613405D01*
X84185150Y-57695472D01*
X84351746Y-57746008D01*
X84525000Y-57763072D01*
X85275000Y-57763072D01*
X85448254Y-57746008D01*
X85614850Y-57695472D01*
X85768386Y-57613405D01*
X85902962Y-57502962D01*
X86013405Y-57368386D01*
X86095472Y-57214850D01*
X86146008Y-57048254D01*
X86163072Y-56875000D01*
X86163072Y-55625000D01*
X86146008Y-55451746D01*
X86095472Y-55285150D01*
X86035000Y-55172015D01*
X86035000Y-54428711D01*
X86053937Y-54409774D01*
X86167205Y-54240256D01*
X86245226Y-54051898D01*
X86285000Y-53851939D01*
X86285000Y-53648061D01*
X86245226Y-53448102D01*
X86167205Y-53259744D01*
X86053937Y-53090226D01*
X85909774Y-52946063D01*
X85740256Y-52832795D01*
X85551898Y-52754774D01*
X85351939Y-52715000D01*
X85148061Y-52715000D01*
X84948102Y-52754774D01*
X84759744Y-52832795D01*
X84590226Y-52946063D01*
X84446063Y-53090226D01*
X84332795Y-53259744D01*
X84254774Y-53448102D01*
X84215000Y-53648061D01*
X84215000Y-53851939D01*
X84254774Y-54051898D01*
X84332795Y-54240256D01*
X84446063Y-54409774D01*
X84465000Y-54428711D01*
X84465000Y-54742837D01*
X84351746Y-54753992D01*
X84185150Y-54804528D01*
X84031614Y-54886595D01*
X83897038Y-54997038D01*
X83786595Y-55131614D01*
X83704528Y-55285150D01*
X83653992Y-55451746D01*
X83636928Y-55625000D01*
X83361768Y-55625000D01*
X83363072Y-55375000D01*
X83350812Y-55250518D01*
X83314502Y-55130820D01*
X83255537Y-55020506D01*
X83176185Y-54923815D01*
X83079494Y-54844463D01*
X82969180Y-54785498D01*
X82849482Y-54749188D01*
X82725000Y-54736928D01*
X82385750Y-54740000D01*
X82227000Y-54898750D01*
X81973000Y-54898750D01*
X81814250Y-54740000D01*
X81475000Y-54736928D01*
X81350518Y-54749188D01*
X81230820Y-54785498D01*
X81120506Y-54844463D01*
X81023815Y-54923815D01*
X80944463Y-55020506D01*
X80885498Y-55130820D01*
X80849188Y-55250518D01*
X80836928Y-55375000D01*
X79400156Y-55375000D01*
X76309800Y-52284645D01*
X76399482Y-52275812D01*
X76460000Y-52257454D01*
X76520518Y-52275812D01*
X76645000Y-52288072D01*
X77545000Y-52288072D01*
X77669482Y-52275812D01*
X77730000Y-52257454D01*
X77790518Y-52275812D01*
X77915000Y-52288072D01*
X78815000Y-52288072D01*
X78939482Y-52275812D01*
X79000000Y-52257454D01*
X79060518Y-52275812D01*
X79185000Y-52288072D01*
X80085000Y-52288072D01*
X80209482Y-52275812D01*
X80270000Y-52257454D01*
X80330518Y-52275812D01*
X80455000Y-52288072D01*
X81355000Y-52288072D01*
X81479482Y-52275812D01*
X81540000Y-52257454D01*
X81600518Y-52275812D01*
X81725000Y-52288072D01*
X82625000Y-52288072D01*
X82749482Y-52275812D01*
X82810000Y-52257454D01*
X82870518Y-52275812D01*
X82995000Y-52288072D01*
X83895000Y-52288072D01*
X84019482Y-52275812D01*
X84080000Y-52257454D01*
X84140518Y-52275812D01*
X84265000Y-52288072D01*
X85165000Y-52288072D01*
X85289482Y-52275812D01*
X85409180Y-52239502D01*
X85519494Y-52180537D01*
X85616185Y-52101185D01*
X85695537Y-52004494D01*
X85754502Y-51894180D01*
X85790812Y-51774482D01*
X85803072Y-51650000D01*
X85803072Y-49650000D01*
X85790812Y-49525518D01*
X85754502Y-49405820D01*
X85695537Y-49295506D01*
X85616185Y-49198815D01*
X85519494Y-49119463D01*
X85409180Y-49060498D01*
X85289482Y-49024188D01*
X85165000Y-49011928D01*
X84265000Y-49011928D01*
X84140518Y-49024188D01*
X84080000Y-49042546D01*
X84019482Y-49024188D01*
X83895000Y-49011928D01*
X82995000Y-49011928D01*
X82870518Y-49024188D01*
X82810000Y-49042546D01*
X82749482Y-49024188D01*
X82625000Y-49011928D01*
X81725000Y-49011928D01*
X81600518Y-49024188D01*
X81540000Y-49042546D01*
X81479482Y-49024188D01*
X81355000Y-49011928D01*
X80455000Y-49011928D01*
X80330518Y-49024188D01*
X80270000Y-49042546D01*
X80209482Y-49024188D01*
X80085000Y-49011928D01*
X79185000Y-49011928D01*
X79060518Y-49024188D01*
X79000000Y-49042546D01*
X78939482Y-49024188D01*
X78815000Y-49011928D01*
X77915000Y-49011928D01*
X77790518Y-49024188D01*
X77730000Y-49042546D01*
X77669482Y-49024188D01*
X77545000Y-49011928D01*
X76645000Y-49011928D01*
X76520518Y-49024188D01*
X76460000Y-49042546D01*
X76399482Y-49024188D01*
X76275000Y-49011928D01*
X75375000Y-49011928D01*
X75250518Y-49024188D01*
X75190000Y-49042546D01*
X75129482Y-49024188D01*
X75005000Y-49011928D01*
X74105000Y-49011928D01*
X73980518Y-49024188D01*
X73920000Y-49042546D01*
X73859482Y-49024188D01*
X73735000Y-49011928D01*
X73570750Y-49015000D01*
X73412000Y-49173750D01*
X73158000Y-49173750D01*
X72999250Y-49015000D01*
X72835000Y-49011928D01*
X72710518Y-49024188D01*
X72590820Y-49060498D01*
X72480506Y-49119463D01*
X72383815Y-49198815D01*
X72304463Y-49295506D01*
X72245498Y-49405820D01*
X72209188Y-49525518D01*
X72196928Y-49650000D01*
X72138072Y-49650000D01*
X72138072Y-49200000D01*
X72125812Y-49075518D01*
X72107454Y-49015000D01*
X72125812Y-48954482D01*
X72138072Y-48830000D01*
X72138072Y-47930000D01*
X72125812Y-47805518D01*
X72107454Y-47745000D01*
X72125812Y-47684482D01*
X72138072Y-47560000D01*
X72138072Y-46660000D01*
X72125812Y-46535518D01*
X72107454Y-46475000D01*
X72125812Y-46414482D01*
X72138072Y-46290000D01*
X72138072Y-45390000D01*
X72125812Y-45265518D01*
X72107454Y-45205000D01*
X72125812Y-45144482D01*
X72138072Y-45020000D01*
X72138072Y-44120000D01*
X72125812Y-43995518D01*
X72107454Y-43935000D01*
X72125812Y-43874482D01*
X72138072Y-43750000D01*
X72138072Y-43140000D01*
X74861928Y-43140000D01*
X74874188Y-43264482D01*
X74910498Y-43384180D01*
X74969463Y-43494494D01*
X75048815Y-43591185D01*
X75145506Y-43670537D01*
X75255820Y-43729502D01*
X75375518Y-43765812D01*
X75500000Y-43778072D01*
X77714250Y-43775000D01*
X77873000Y-43616250D01*
X77873000Y-40767000D01*
X78127000Y-40767000D01*
X78127000Y-43616250D01*
X78285750Y-43775000D01*
X80500000Y-43778072D01*
X80624482Y-43765812D01*
X80744180Y-43729502D01*
X80854494Y-43670537D01*
X80951185Y-43591185D01*
X81030537Y-43494494D01*
X81089502Y-43384180D01*
X81125812Y-43264482D01*
X81138072Y-43140000D01*
X81135000Y-40925750D01*
X80976250Y-40767000D01*
X78127000Y-40767000D01*
X77873000Y-40767000D01*
X75023750Y-40767000D01*
X74865000Y-40925750D01*
X74861928Y-43140000D01*
X72138072Y-43140000D01*
X72138072Y-42850000D01*
X72125812Y-42725518D01*
X72107454Y-42665000D01*
X72125812Y-42604482D01*
X72138072Y-42480000D01*
X72138072Y-41580000D01*
X72125812Y-41455518D01*
X72107454Y-41395000D01*
X72125812Y-41334482D01*
X72138072Y-41210000D01*
X72138072Y-40310000D01*
X72125812Y-40185518D01*
X72107454Y-40125000D01*
X72125812Y-40064482D01*
X72138072Y-39940000D01*
X72138072Y-39040000D01*
X72125812Y-38915518D01*
X72107454Y-38855000D01*
X72125812Y-38794482D01*
X72138072Y-38670000D01*
X72138072Y-38140000D01*
X74861928Y-38140000D01*
X74865000Y-40354250D01*
X75023750Y-40513000D01*
X77873000Y-40513000D01*
X77873000Y-37663750D01*
X78127000Y-37663750D01*
X78127000Y-40513000D01*
X80976250Y-40513000D01*
X81135000Y-40354250D01*
X81138072Y-38140000D01*
X81125812Y-38015518D01*
X81089502Y-37895820D01*
X81030537Y-37785506D01*
X80951185Y-37688815D01*
X80854494Y-37609463D01*
X80744180Y-37550498D01*
X80624482Y-37514188D01*
X80500000Y-37501928D01*
X78285750Y-37505000D01*
X78127000Y-37663750D01*
X77873000Y-37663750D01*
X77714250Y-37505000D01*
X75500000Y-37501928D01*
X75375518Y-37514188D01*
X75255820Y-37550498D01*
X75145506Y-37609463D01*
X75048815Y-37688815D01*
X74969463Y-37785506D01*
X74910498Y-37895820D01*
X74874188Y-38015518D01*
X74861928Y-38140000D01*
X72138072Y-38140000D01*
X72138072Y-37770000D01*
X72125812Y-37645518D01*
X72107454Y-37585000D01*
X72125812Y-37524482D01*
X72138072Y-37400000D01*
X72138072Y-36535000D01*
X73321289Y-36535000D01*
X73340226Y-36553937D01*
X73509744Y-36667205D01*
X73698102Y-36745226D01*
X73898061Y-36785000D01*
X74101939Y-36785000D01*
X74301898Y-36745226D01*
X74490256Y-36667205D01*
X74659774Y-36553937D01*
X74803937Y-36409774D01*
X74917205Y-36240256D01*
X74995226Y-36051898D01*
X75035000Y-35851939D01*
X75035000Y-35648061D01*
X74995226Y-35448102D01*
X74917205Y-35259744D01*
X74803937Y-35090226D01*
X74724360Y-35010649D01*
X74801898Y-34995226D01*
X74990256Y-34917205D01*
X75159774Y-34803937D01*
X75303937Y-34659774D01*
X75417205Y-34490256D01*
X75495226Y-34301898D01*
X75535000Y-34101939D01*
X75535000Y-33898061D01*
X75495226Y-33698102D01*
X75450449Y-33590000D01*
X85861928Y-33590000D01*
X85874188Y-33714482D01*
X85892546Y-33775000D01*
X85874188Y-33835518D01*
X85861928Y-33960000D01*
X85861928Y-34860000D01*
X85874188Y-34984482D01*
X85892546Y-35045000D01*
X85874188Y-35105518D01*
X85861928Y-35230000D01*
X85861928Y-36130000D01*
X85874188Y-36254482D01*
X85892546Y-36315000D01*
X85874188Y-36375518D01*
X85861928Y-36500000D01*
X85861928Y-37400000D01*
X85874188Y-37524482D01*
X85892546Y-37585000D01*
X85874188Y-37645518D01*
X85861928Y-37770000D01*
X85861928Y-38670000D01*
X85874188Y-38794482D01*
X85892546Y-38855000D01*
X85874188Y-38915518D01*
X85861928Y-39040000D01*
X85861928Y-39940000D01*
X85874188Y-40064482D01*
X85892546Y-40125000D01*
X85874188Y-40185518D01*
X85861928Y-40310000D01*
X85861928Y-41210000D01*
X85874188Y-41334482D01*
X85892546Y-41395000D01*
X85874188Y-41455518D01*
X85861928Y-41580000D01*
X85861928Y-42480000D01*
X85874188Y-42604482D01*
X85892546Y-42665000D01*
X85874188Y-42725518D01*
X85861928Y-42850000D01*
X85861928Y-43750000D01*
X85874188Y-43874482D01*
X85892546Y-43935000D01*
X85874188Y-43995518D01*
X85861928Y-44120000D01*
X85861928Y-45020000D01*
X85874188Y-45144482D01*
X85892546Y-45205000D01*
X85874188Y-45265518D01*
X85861928Y-45390000D01*
X85861928Y-46290000D01*
X85874188Y-46414482D01*
X85892546Y-46475000D01*
X85874188Y-46535518D01*
X85861928Y-46660000D01*
X85861928Y-47560000D01*
X85874188Y-47684482D01*
X85892546Y-47745000D01*
X85874188Y-47805518D01*
X85861928Y-47930000D01*
X85861928Y-48830000D01*
X85874188Y-48954482D01*
X85892546Y-49015000D01*
X85874188Y-49075518D01*
X85861928Y-49200000D01*
X85861928Y-50100000D01*
X85874188Y-50224482D01*
X85910498Y-50344180D01*
X85969463Y-50454494D01*
X86048815Y-50551185D01*
X86145506Y-50630537D01*
X86255820Y-50689502D01*
X86375518Y-50725812D01*
X86500000Y-50738072D01*
X86715000Y-50738072D01*
X86715001Y-54461437D01*
X86711203Y-54500000D01*
X86726359Y-54653886D01*
X86771246Y-54801859D01*
X86805177Y-54865340D01*
X86844139Y-54938233D01*
X86852270Y-54948140D01*
X86917655Y-55027812D01*
X86917659Y-55027816D01*
X86942237Y-55057764D01*
X86972185Y-55082342D01*
X87215000Y-55325157D01*
X87215000Y-55351939D01*
X87254774Y-55551898D01*
X87332795Y-55740256D01*
X87446063Y-55909774D01*
X87590226Y-56053937D01*
X87759744Y-56167205D01*
X87948102Y-56245226D01*
X88148061Y-56285000D01*
X88351939Y-56285000D01*
X88551898Y-56245226D01*
X88740256Y-56167205D01*
X88909774Y-56053937D01*
X89053937Y-55909774D01*
X89167205Y-55740256D01*
X89245226Y-55551898D01*
X89285000Y-55351939D01*
X89285000Y-55148061D01*
X89245226Y-54948102D01*
X89167205Y-54759744D01*
X89053937Y-54590226D01*
X88909774Y-54446063D01*
X88740256Y-54332795D01*
X88551898Y-54254774D01*
X88351939Y-54215000D01*
X88325157Y-54215000D01*
X88285000Y-54174843D01*
X88285000Y-50738072D01*
X88500000Y-50738072D01*
X88624482Y-50725812D01*
X88744180Y-50689502D01*
X88854494Y-50630537D01*
X88951185Y-50551185D01*
X89030537Y-50454494D01*
X89089502Y-50344180D01*
X89125812Y-50224482D01*
X89138072Y-50100000D01*
X89138072Y-49200000D01*
X89125812Y-49075518D01*
X89107454Y-49015000D01*
X89125812Y-48954482D01*
X89134645Y-48864800D01*
X90215000Y-49945156D01*
X90215001Y-70711437D01*
X90211203Y-70750000D01*
X90226359Y-70903886D01*
X90271246Y-71051859D01*
X90293845Y-71094139D01*
X90344139Y-71188233D01*
X90377394Y-71228754D01*
X90417655Y-71277812D01*
X90417659Y-71277816D01*
X90442237Y-71307764D01*
X90472185Y-71332342D01*
X92215000Y-73075158D01*
X92215001Y-82230728D01*
X92083434Y-82285225D01*
X91766509Y-82496987D01*
X91496987Y-82766509D01*
X91285225Y-83083434D01*
X91139361Y-83435581D01*
X91065000Y-83809419D01*
X91065000Y-84190581D01*
X91139361Y-84564419D01*
X91285225Y-84916566D01*
X91496987Y-85233491D01*
X91766509Y-85503013D01*
X92083434Y-85714775D01*
X92435581Y-85860639D01*
X92809419Y-85935000D01*
X93190581Y-85935000D01*
X93564419Y-85860639D01*
X93916566Y-85714775D01*
X94233491Y-85503013D01*
X94503013Y-85233491D01*
X94714775Y-84916566D01*
X94860639Y-84564419D01*
X94935000Y-84190581D01*
X94935000Y-83809419D01*
X94929123Y-83779872D01*
X98765000Y-83779872D01*
X98765000Y-84220128D01*
X98850890Y-84651925D01*
X99019369Y-85058669D01*
X99263962Y-85424729D01*
X99575271Y-85736038D01*
X99941331Y-85980631D01*
X100348075Y-86149110D01*
X100779872Y-86235000D01*
X101220128Y-86235000D01*
X101651925Y-86149110D01*
X102058669Y-85980631D01*
X102424729Y-85736038D01*
X102736038Y-85424729D01*
X102980631Y-85058669D01*
X103149110Y-84651925D01*
X103235000Y-84220128D01*
X103235000Y-83779872D01*
X103149110Y-83348075D01*
X102980631Y-82941331D01*
X102736038Y-82575271D01*
X102424729Y-82263962D01*
X102058669Y-82019369D01*
X101651925Y-81850890D01*
X101220128Y-81765000D01*
X100779872Y-81765000D01*
X100348075Y-81850890D01*
X99941331Y-82019369D01*
X99575271Y-82263962D01*
X99263962Y-82575271D01*
X99019369Y-82941331D01*
X98850890Y-83348075D01*
X98765000Y-83779872D01*
X94929123Y-83779872D01*
X94860639Y-83435581D01*
X94714775Y-83083434D01*
X94503013Y-82766509D01*
X94233491Y-82496987D01*
X93916566Y-82285225D01*
X93785000Y-82230729D01*
X93785000Y-72788552D01*
X93788797Y-72749999D01*
X93785000Y-72711446D01*
X93785000Y-72711439D01*
X93773641Y-72596113D01*
X93763223Y-72561767D01*
X93728754Y-72448140D01*
X93706156Y-72405862D01*
X93655862Y-72311767D01*
X93604198Y-72248815D01*
X93582345Y-72222187D01*
X93582342Y-72222184D01*
X93557764Y-72192236D01*
X93527817Y-72167659D01*
X91785000Y-70424843D01*
X91785000Y-65895157D01*
X99061928Y-73172086D01*
X99061928Y-75300000D01*
X99074188Y-75424482D01*
X99110498Y-75544180D01*
X99169463Y-75654494D01*
X99248815Y-75751185D01*
X99345506Y-75830537D01*
X99455820Y-75889502D01*
X99575518Y-75925812D01*
X99700000Y-75938072D01*
X102300000Y-75938072D01*
X102424482Y-75925812D01*
X102544180Y-75889502D01*
X102654494Y-75830537D01*
X102751185Y-75751185D01*
X102830537Y-75654494D01*
X102889502Y-75544180D01*
X102925812Y-75424482D01*
X102938072Y-75300000D01*
X102938072Y-72700000D01*
X102925812Y-72575518D01*
X102889502Y-72455820D01*
X102830537Y-72345506D01*
X102751185Y-72248815D01*
X102654494Y-72169463D01*
X102544180Y-72110498D01*
X102424482Y-72074188D01*
X102300000Y-72061928D01*
X100172086Y-72061928D01*
X92385011Y-64274854D01*
X92385011Y-61495168D01*
X99193858Y-68304015D01*
X99139361Y-68435581D01*
X99065000Y-68809419D01*
X99065000Y-69190581D01*
X99139361Y-69564419D01*
X99285225Y-69916566D01*
X99496987Y-70233491D01*
X99766509Y-70503013D01*
X100083434Y-70714775D01*
X100435581Y-70860639D01*
X100809419Y-70935000D01*
X101190581Y-70935000D01*
X101564419Y-70860639D01*
X101916566Y-70714775D01*
X102233491Y-70503013D01*
X102503013Y-70233491D01*
X102714775Y-69916566D01*
X102860639Y-69564419D01*
X102935000Y-69190581D01*
X102935000Y-68809419D01*
X102860639Y-68435581D01*
X102714775Y-68083434D01*
X102503013Y-67766509D01*
X102233491Y-67496987D01*
X101916566Y-67285225D01*
X101564419Y-67139361D01*
X101190581Y-67065000D01*
X100809419Y-67065000D01*
X100435581Y-67139361D01*
X100304015Y-67193858D01*
X93035000Y-59924843D01*
X93035000Y-57145157D01*
X99193857Y-63304015D01*
X99139361Y-63435581D01*
X99065000Y-63809419D01*
X99065000Y-64190581D01*
X99139361Y-64564419D01*
X99285225Y-64916566D01*
X99496987Y-65233491D01*
X99766509Y-65503013D01*
X100083434Y-65714775D01*
X100435581Y-65860639D01*
X100809419Y-65935000D01*
X101190581Y-65935000D01*
X101564419Y-65860639D01*
X101916566Y-65714775D01*
X102233491Y-65503013D01*
X102503013Y-65233491D01*
X102714775Y-64916566D01*
X102860639Y-64564419D01*
X102935000Y-64190581D01*
X102935000Y-63809419D01*
X102860639Y-63435581D01*
X102714775Y-63083434D01*
X102503013Y-62766509D01*
X102233491Y-62496987D01*
X101916566Y-62285225D01*
X101564419Y-62139361D01*
X101190581Y-62065000D01*
X100809419Y-62065000D01*
X100435581Y-62139361D01*
X100304015Y-62193857D01*
X93785000Y-55674843D01*
X93785000Y-55556890D01*
X96308524Y-55556890D01*
X96353175Y-55704099D01*
X96478359Y-55966920D01*
X96652412Y-56200269D01*
X96868645Y-56395178D01*
X97118748Y-56544157D01*
X97393109Y-56641481D01*
X97623000Y-56520814D01*
X97623000Y-55327000D01*
X97877000Y-55327000D01*
X97877000Y-56520814D01*
X98106891Y-56641481D01*
X98381252Y-56544157D01*
X98631355Y-56395178D01*
X98847588Y-56200269D01*
X99021641Y-55966920D01*
X99146825Y-55704099D01*
X99191476Y-55556890D01*
X99070155Y-55327000D01*
X97877000Y-55327000D01*
X97623000Y-55327000D01*
X96429845Y-55327000D01*
X96308524Y-55556890D01*
X93785000Y-55556890D01*
X93785000Y-47848550D01*
X93788797Y-47809997D01*
X93785000Y-47771444D01*
X93785000Y-47771437D01*
X93773641Y-47656111D01*
X93768091Y-47637813D01*
X93753951Y-47591203D01*
X93728754Y-47508138D01*
X93655862Y-47371765D01*
X93557764Y-47252234D01*
X93527817Y-47227657D01*
X89136752Y-42836592D01*
X89125812Y-42725518D01*
X89107454Y-42665000D01*
X89125812Y-42604482D01*
X89138072Y-42480000D01*
X89138072Y-41580000D01*
X89125812Y-41455518D01*
X89107454Y-41395000D01*
X89125812Y-41334482D01*
X89138072Y-41210000D01*
X89138072Y-40310000D01*
X89125812Y-40185518D01*
X89107454Y-40125000D01*
X89125812Y-40064482D01*
X89138072Y-39940000D01*
X89138072Y-39572984D01*
X89196063Y-39659774D01*
X89340226Y-39803937D01*
X89509744Y-39917205D01*
X89698102Y-39995226D01*
X89898061Y-40035000D01*
X90101939Y-40035000D01*
X90301898Y-39995226D01*
X90490256Y-39917205D01*
X90659774Y-39803937D01*
X90803937Y-39659774D01*
X90917205Y-39490256D01*
X90995226Y-39301898D01*
X91035000Y-39101939D01*
X91035000Y-38898061D01*
X90995226Y-38698102D01*
X90917205Y-38509744D01*
X90803937Y-38340226D01*
X90659774Y-38196063D01*
X90553420Y-38125000D01*
X90659774Y-38053937D01*
X90803937Y-37909774D01*
X90917205Y-37740256D01*
X90979560Y-37589718D01*
X91167658Y-37777816D01*
X91192236Y-37807764D01*
X91222184Y-37832342D01*
X91222187Y-37832345D01*
X91245144Y-37851185D01*
X91311767Y-37905862D01*
X91448140Y-37978754D01*
X91533917Y-38004774D01*
X91596112Y-38023641D01*
X91609911Y-38025000D01*
X91711439Y-38035000D01*
X91711446Y-38035000D01*
X91749999Y-38038797D01*
X91788552Y-38035000D01*
X92092024Y-38035000D01*
X92136595Y-38118386D01*
X92247038Y-38252962D01*
X92381614Y-38363405D01*
X92535150Y-38445472D01*
X92701746Y-38496008D01*
X92875000Y-38513072D01*
X93678069Y-38513072D01*
X93509744Y-38582795D01*
X93340226Y-38696063D01*
X93196063Y-38840226D01*
X93082795Y-39009744D01*
X93004774Y-39198102D01*
X92965000Y-39398061D01*
X92965000Y-39601939D01*
X93004774Y-39801898D01*
X93082795Y-39990256D01*
X93196063Y-40159774D01*
X93215001Y-40178712D01*
X93215000Y-46331447D01*
X93211203Y-46370000D01*
X93215000Y-46408553D01*
X93215000Y-46408560D01*
X93226359Y-46523886D01*
X93271246Y-46671859D01*
X93344138Y-46808232D01*
X93442236Y-46927764D01*
X93472190Y-46952347D01*
X96302925Y-49783082D01*
X96265000Y-49973740D01*
X96265000Y-50266260D01*
X96322068Y-50553158D01*
X96434010Y-50823411D01*
X96596525Y-51066632D01*
X96803368Y-51273475D01*
X96977760Y-51390000D01*
X96803368Y-51506525D01*
X96596525Y-51713368D01*
X96434010Y-51956589D01*
X96322068Y-52226842D01*
X96265000Y-52513740D01*
X96265000Y-52806260D01*
X96322068Y-53093158D01*
X96434010Y-53363411D01*
X96596525Y-53606632D01*
X96803368Y-53813475D01*
X96985534Y-53935195D01*
X96868645Y-54004822D01*
X96652412Y-54199731D01*
X96478359Y-54433080D01*
X96353175Y-54695901D01*
X96308524Y-54843110D01*
X96429845Y-55073000D01*
X97623000Y-55073000D01*
X97623000Y-55053000D01*
X97877000Y-55053000D01*
X97877000Y-55073000D01*
X99070155Y-55073000D01*
X99191476Y-54843110D01*
X99146825Y-54695901D01*
X99021641Y-54433080D01*
X98847588Y-54199731D01*
X98631355Y-54004822D01*
X98514466Y-53935195D01*
X98696632Y-53813475D01*
X98903475Y-53606632D01*
X99011474Y-53445000D01*
X99371447Y-53445000D01*
X99410000Y-53448797D01*
X99448553Y-53445000D01*
X99448561Y-53445000D01*
X99563887Y-53433641D01*
X99711860Y-53388754D01*
X99848233Y-53315862D01*
X99967764Y-53217764D01*
X99992347Y-53187810D01*
X101027810Y-52152347D01*
X101057764Y-52127764D01*
X101155862Y-52008233D01*
X101228754Y-51871860D01*
X101238983Y-51838139D01*
X101273642Y-51723887D01*
X101283999Y-51618720D01*
X101285000Y-51608561D01*
X101285000Y-51608556D01*
X101288797Y-51570000D01*
X101285000Y-51531444D01*
X101285000Y-41038556D01*
X101288797Y-41000000D01*
X101285000Y-40961440D01*
X101285000Y-40961439D01*
X101281020Y-40921026D01*
X101273642Y-40846113D01*
X101228754Y-40698140D01*
X101206156Y-40655862D01*
X101155862Y-40561767D01*
X101057764Y-40442236D01*
X101027811Y-40417654D01*
X97332345Y-36722188D01*
X97307764Y-36692236D01*
X97188233Y-36594138D01*
X97051860Y-36521246D01*
X96903887Y-36476359D01*
X96788561Y-36465000D01*
X96788553Y-36465000D01*
X96750000Y-36461203D01*
X96711447Y-36465000D01*
X94907976Y-36465000D01*
X94863405Y-36381614D01*
X94752962Y-36247038D01*
X94618386Y-36136595D01*
X94464850Y-36054528D01*
X94298254Y-36003992D01*
X94125000Y-35986928D01*
X92875000Y-35986928D01*
X92701746Y-36003992D01*
X92535150Y-36054528D01*
X92381614Y-36136595D01*
X92247038Y-36247038D01*
X92136595Y-36381614D01*
X92092024Y-36465000D01*
X92075158Y-36465000D01*
X91285000Y-35674843D01*
X91285000Y-35648061D01*
X91245226Y-35448102D01*
X91167205Y-35259744D01*
X91150672Y-35235000D01*
X92092024Y-35235000D01*
X92136595Y-35318386D01*
X92247038Y-35452962D01*
X92381614Y-35563405D01*
X92535150Y-35645472D01*
X92701746Y-35696008D01*
X92875000Y-35713072D01*
X93718801Y-35713072D01*
X93748140Y-35728754D01*
X93861672Y-35763194D01*
X93896112Y-35773641D01*
X93910490Y-35775057D01*
X94011439Y-35785000D01*
X94011446Y-35785000D01*
X94049999Y-35788797D01*
X94088552Y-35785000D01*
X95321289Y-35785000D01*
X95340226Y-35803937D01*
X95509744Y-35917205D01*
X95698102Y-35995226D01*
X95898061Y-36035000D01*
X96101939Y-36035000D01*
X96301898Y-35995226D01*
X96490256Y-35917205D01*
X96659774Y-35803937D01*
X96803937Y-35659774D01*
X96917205Y-35490256D01*
X96995226Y-35301898D01*
X97035000Y-35101939D01*
X97035000Y-34898061D01*
X97011491Y-34779872D01*
X98765000Y-34779872D01*
X98765000Y-35220128D01*
X98850890Y-35651925D01*
X99019369Y-36058669D01*
X99263962Y-36424729D01*
X99575271Y-36736038D01*
X99941331Y-36980631D01*
X100348075Y-37149110D01*
X100779872Y-37235000D01*
X101220128Y-37235000D01*
X101651925Y-37149110D01*
X102058669Y-36980631D01*
X102424729Y-36736038D01*
X102736038Y-36424729D01*
X102980631Y-36058669D01*
X103149110Y-35651925D01*
X103235000Y-35220128D01*
X103235000Y-34779872D01*
X103149110Y-34348075D01*
X102980631Y-33941331D01*
X102736038Y-33575271D01*
X102424729Y-33263962D01*
X102058669Y-33019369D01*
X101651925Y-32850890D01*
X101220128Y-32765000D01*
X100779872Y-32765000D01*
X100348075Y-32850890D01*
X99941331Y-33019369D01*
X99575271Y-33263962D01*
X99263962Y-33575271D01*
X99019369Y-33941331D01*
X98850890Y-34348075D01*
X98765000Y-34779872D01*
X97011491Y-34779872D01*
X96995226Y-34698102D01*
X96917205Y-34509744D01*
X96803937Y-34340226D01*
X96659774Y-34196063D01*
X96490256Y-34082795D01*
X96301898Y-34004774D01*
X96101939Y-33965000D01*
X95898061Y-33965000D01*
X95698102Y-34004774D01*
X95509744Y-34082795D01*
X95340226Y-34196063D01*
X95321289Y-34215000D01*
X95013072Y-34215000D01*
X95013072Y-34075000D01*
X94996008Y-33901746D01*
X94945472Y-33735150D01*
X94863405Y-33581614D01*
X94752962Y-33447038D01*
X94618386Y-33336595D01*
X94464850Y-33254528D01*
X94298254Y-33203992D01*
X94125000Y-33186928D01*
X92875000Y-33186928D01*
X92701746Y-33203992D01*
X92535150Y-33254528D01*
X92381614Y-33336595D01*
X92247038Y-33447038D01*
X92136595Y-33581614D01*
X92092024Y-33665000D01*
X91481515Y-33665000D01*
X91417205Y-33509744D01*
X91303937Y-33340226D01*
X91159774Y-33196063D01*
X90990256Y-33082795D01*
X90801898Y-33004774D01*
X90601939Y-32965000D01*
X90398061Y-32965000D01*
X90198102Y-33004774D01*
X90009744Y-33082795D01*
X89840226Y-33196063D01*
X89696063Y-33340226D01*
X89582795Y-33509744D01*
X89504774Y-33698102D01*
X89465000Y-33898061D01*
X89465000Y-34101939D01*
X89504774Y-34301898D01*
X89582795Y-34490256D01*
X89696063Y-34659774D01*
X89837059Y-34800770D01*
X89759744Y-34832795D01*
X89590226Y-34946063D01*
X89446063Y-35090226D01*
X89332795Y-35259744D01*
X89254774Y-35448102D01*
X89215000Y-35648061D01*
X89215000Y-35851939D01*
X89254774Y-36051898D01*
X89322334Y-36215000D01*
X89129701Y-36215000D01*
X89138072Y-36130000D01*
X89138072Y-35230000D01*
X89125812Y-35105518D01*
X89107454Y-35045000D01*
X89125812Y-34984482D01*
X89138072Y-34860000D01*
X89138072Y-33960000D01*
X89125812Y-33835518D01*
X89107454Y-33775000D01*
X89125812Y-33714482D01*
X89138072Y-33590000D01*
X89135000Y-33425750D01*
X88976250Y-33267000D01*
X87627000Y-33267000D01*
X87627000Y-33287000D01*
X87373000Y-33287000D01*
X87373000Y-33267000D01*
X86023750Y-33267000D01*
X85865000Y-33425750D01*
X85861928Y-33590000D01*
X75450449Y-33590000D01*
X75417205Y-33509744D01*
X75303937Y-33340226D01*
X75159774Y-33196063D01*
X74990256Y-33082795D01*
X74801898Y-33004774D01*
X74601939Y-32965000D01*
X74398061Y-32965000D01*
X74198102Y-33004774D01*
X74009744Y-33082795D01*
X73840226Y-33196063D01*
X73696063Y-33340226D01*
X73582795Y-33509744D01*
X73535054Y-33625000D01*
X72134625Y-33625000D01*
X72138072Y-33590000D01*
X72135000Y-33425750D01*
X71976250Y-33267000D01*
X70627000Y-33267000D01*
X70627000Y-33287000D01*
X70373000Y-33287000D01*
X70373000Y-33267000D01*
X69023750Y-33267000D01*
X68865000Y-33425750D01*
X68861928Y-33590000D01*
X68874188Y-33714482D01*
X68892546Y-33775000D01*
X68880412Y-33815000D01*
X65407976Y-33815000D01*
X65363405Y-33731614D01*
X65252962Y-33597038D01*
X65118386Y-33486595D01*
X64964850Y-33404528D01*
X64798254Y-33353992D01*
X64625000Y-33336928D01*
X63375000Y-33336928D01*
X63201746Y-33353992D01*
X63035150Y-33404528D01*
X62881614Y-33486595D01*
X62747038Y-33597038D01*
X62636595Y-33731614D01*
X62592024Y-33815000D01*
X61438552Y-33815000D01*
X61399999Y-33811203D01*
X61361446Y-33815000D01*
X61361439Y-33815000D01*
X61260490Y-33824943D01*
X61246112Y-33826359D01*
X61215920Y-33835518D01*
X61098140Y-33871246D01*
X60961767Y-33944138D01*
X60901559Y-33993550D01*
X60872187Y-34017655D01*
X60872184Y-34017658D01*
X60842236Y-34042236D01*
X60817658Y-34072184D01*
X55674843Y-39215000D01*
X53285000Y-39215000D01*
X53285000Y-38441877D01*
X53542252Y-38269987D01*
X53769987Y-38042252D01*
X53948918Y-37774463D01*
X54072168Y-37476912D01*
X54135000Y-37161033D01*
X54135000Y-36838967D01*
X54072168Y-36523088D01*
X53948918Y-36225537D01*
X53769987Y-35957748D01*
X53542252Y-35730013D01*
X53274463Y-35551082D01*
X52976912Y-35427832D01*
X52661033Y-35365000D01*
X52338967Y-35365000D01*
X52023088Y-35427832D01*
X51725537Y-35551082D01*
X51457748Y-35730013D01*
X51230013Y-35957748D01*
X51051082Y-36225537D01*
X50927832Y-36523088D01*
X50865000Y-36838967D01*
X50865000Y-37161033D01*
X50927832Y-37476912D01*
X51051082Y-37774463D01*
X51230013Y-38042252D01*
X51457748Y-38269987D01*
X51715000Y-38441878D01*
X51715001Y-39961430D01*
X51711202Y-40000000D01*
X51715001Y-40038571D01*
X51715000Y-50174843D01*
X46472185Y-55417658D01*
X46447815Y-55437658D01*
X46365000Y-55354843D01*
X46365000Y-53427956D01*
X46466235Y-53373845D01*
X46707963Y-53175463D01*
X46906345Y-52933734D01*
X47053755Y-52657948D01*
X47144530Y-52358703D01*
X47167500Y-52125485D01*
X47167500Y-51874514D01*
X47144530Y-51641296D01*
X47053755Y-51342051D01*
X46906345Y-51066265D01*
X46707963Y-50824537D01*
X46466234Y-50626155D01*
X46190448Y-50478745D01*
X45891203Y-50387970D01*
X45580000Y-50357319D01*
X45268796Y-50387970D01*
X44969551Y-50478745D01*
X44693765Y-50626155D01*
X44452037Y-50824537D01*
X44304838Y-51003900D01*
X44149437Y-50818685D01*
X43906923Y-50624031D01*
X43631094Y-50480429D01*
X43412980Y-50409437D01*
X43167000Y-50529406D01*
X43167000Y-51873000D01*
X43187000Y-51873000D01*
X43187000Y-52127000D01*
X43167000Y-52127000D01*
X43167000Y-53470594D01*
X43412980Y-53590563D01*
X43631094Y-53519571D01*
X43906923Y-53375969D01*
X44149437Y-53181315D01*
X44304837Y-52996101D01*
X44452037Y-53175463D01*
X44693766Y-53373845D01*
X44795000Y-53427956D01*
X44795001Y-55641437D01*
X44791203Y-55680000D01*
X44806359Y-55833886D01*
X44851246Y-55981859D01*
X44860943Y-56000000D01*
X44924139Y-56118233D01*
X44953399Y-56153886D01*
X44997655Y-56207812D01*
X44997659Y-56207816D01*
X45022237Y-56237764D01*
X45052185Y-56262342D01*
X45489431Y-56699588D01*
X45486928Y-56725000D01*
X45486928Y-57475000D01*
X45503992Y-57648254D01*
X45554528Y-57814850D01*
X45636595Y-57968386D01*
X45747038Y-58102962D01*
X45881614Y-58213405D01*
X46035150Y-58295472D01*
X46201746Y-58346008D01*
X46375000Y-58363072D01*
X47625000Y-58363072D01*
X47798254Y-58346008D01*
X47964850Y-58295472D01*
X48118386Y-58213405D01*
X48252962Y-58102962D01*
X48270920Y-58081079D01*
X49614999Y-59425158D01*
X49615000Y-66666151D01*
X49490248Y-66582795D01*
X49301890Y-66504774D01*
X49101931Y-66465000D01*
X48898053Y-66465000D01*
X48698094Y-66504774D01*
X48509736Y-66582795D01*
X48340218Y-66696063D01*
X48196055Y-66840226D01*
X48082787Y-67009744D01*
X48004766Y-67198102D01*
X47964992Y-67398061D01*
X47964992Y-67601939D01*
X48004766Y-67801898D01*
X48082787Y-67990256D01*
X48196055Y-68159774D01*
X48213062Y-68176781D01*
X44377915Y-72011928D01*
X43725000Y-72011928D01*
X43600518Y-72024188D01*
X43480820Y-72060498D01*
X43370506Y-72119463D01*
X43273815Y-72198815D01*
X43194463Y-72295506D01*
X43135498Y-72405820D01*
X43099188Y-72525518D01*
X43086928Y-72650000D01*
X39960157Y-72650000D01*
X41527817Y-71082341D01*
X41557764Y-71057764D01*
X41655862Y-70938233D01*
X41728754Y-70801860D01*
X41755171Y-70714775D01*
X41773642Y-70653887D01*
X41781020Y-70578974D01*
X41785000Y-70538561D01*
X41785000Y-70538556D01*
X41788797Y-70500000D01*
X41785000Y-70461444D01*
X41785000Y-69350000D01*
X43086928Y-69350000D01*
X43099188Y-69474482D01*
X43135498Y-69594180D01*
X43194463Y-69704494D01*
X43273815Y-69801185D01*
X43370506Y-69880537D01*
X43480820Y-69939502D01*
X43600518Y-69975812D01*
X43725000Y-69988072D01*
X43939250Y-69985000D01*
X44098000Y-69826250D01*
X44098000Y-69127000D01*
X44352000Y-69127000D01*
X44352000Y-69826250D01*
X44510750Y-69985000D01*
X44725000Y-69988072D01*
X44849482Y-69975812D01*
X44969180Y-69939502D01*
X45079494Y-69880537D01*
X45176185Y-69801185D01*
X45255537Y-69704494D01*
X45314502Y-69594180D01*
X45350812Y-69474482D01*
X45363072Y-69350000D01*
X45360000Y-69285750D01*
X45201250Y-69127000D01*
X44352000Y-69127000D01*
X44098000Y-69127000D01*
X43248750Y-69127000D01*
X43090000Y-69285750D01*
X43086928Y-69350000D01*
X41785000Y-69350000D01*
X41785000Y-68650000D01*
X43086928Y-68650000D01*
X43090000Y-68714250D01*
X43248750Y-68873000D01*
X44098000Y-68873000D01*
X44098000Y-68173750D01*
X44352000Y-68173750D01*
X44352000Y-68873000D01*
X45201250Y-68873000D01*
X45360000Y-68714250D01*
X45363072Y-68650000D01*
X45350812Y-68525518D01*
X45314502Y-68405820D01*
X45255537Y-68295506D01*
X45176185Y-68198815D01*
X45079494Y-68119463D01*
X44969180Y-68060498D01*
X44849482Y-68024188D01*
X44725000Y-68011928D01*
X44510750Y-68015000D01*
X44352000Y-68173750D01*
X44098000Y-68173750D01*
X43939250Y-68015000D01*
X43725000Y-68011928D01*
X43600518Y-68024188D01*
X43480820Y-68060498D01*
X43370506Y-68119463D01*
X43273815Y-68198815D01*
X43194463Y-68295506D01*
X43135498Y-68405820D01*
X43099188Y-68525518D01*
X43086928Y-68650000D01*
X41785000Y-68650000D01*
X41785000Y-66038552D01*
X41788797Y-65999999D01*
X41785000Y-65961446D01*
X41785000Y-65961439D01*
X41773641Y-65846113D01*
X41728754Y-65698140D01*
X41655862Y-65561767D01*
X41557764Y-65442236D01*
X41527816Y-65417658D01*
X37082347Y-60972190D01*
X37057764Y-60942236D01*
X36938233Y-60844138D01*
X36801860Y-60771246D01*
X36653887Y-60726359D01*
X36538561Y-60715000D01*
X36538553Y-60715000D01*
X36500000Y-60711203D01*
X36461447Y-60715000D01*
X34441877Y-60715000D01*
X34314924Y-60525000D01*
X38986928Y-60525000D01*
X38999188Y-60649482D01*
X39035498Y-60769180D01*
X39094463Y-60879494D01*
X39173815Y-60976185D01*
X39270506Y-61055537D01*
X39380820Y-61114502D01*
X39500518Y-61150812D01*
X39625000Y-61163072D01*
X40214250Y-61160000D01*
X40373000Y-61001250D01*
X40373000Y-60027000D01*
X40627000Y-60027000D01*
X40627000Y-61001250D01*
X40785750Y-61160000D01*
X41375000Y-61163072D01*
X41499482Y-61150812D01*
X41619180Y-61114502D01*
X41729494Y-61055537D01*
X41826185Y-60976185D01*
X41905537Y-60879494D01*
X41964502Y-60769180D01*
X42000812Y-60649482D01*
X42013072Y-60525000D01*
X42010000Y-60185750D01*
X41851250Y-60027000D01*
X40627000Y-60027000D01*
X40373000Y-60027000D01*
X39148750Y-60027000D01*
X38990000Y-60185750D01*
X38986928Y-60525000D01*
X34314924Y-60525000D01*
X34269987Y-60457748D01*
X34042252Y-60230013D01*
X33774463Y-60051082D01*
X33476912Y-59927832D01*
X33161033Y-59865000D01*
X32838967Y-59865000D01*
X32523088Y-59927832D01*
X32225537Y-60051082D01*
X31957748Y-60230013D01*
X31730013Y-60457748D01*
X31558123Y-60715000D01*
X29441877Y-60715000D01*
X29269987Y-60457748D01*
X29042252Y-60230013D01*
X28774463Y-60051082D01*
X28476912Y-59927832D01*
X28161033Y-59865000D01*
X27838967Y-59865000D01*
X27523088Y-59927832D01*
X27225537Y-60051082D01*
X26957748Y-60230013D01*
X26730013Y-60457748D01*
X26551082Y-60725537D01*
X26427832Y-61023088D01*
X26365000Y-61338967D01*
X25710000Y-61338967D01*
X25710000Y-59275000D01*
X38986928Y-59275000D01*
X38990000Y-59614250D01*
X39148750Y-59773000D01*
X40373000Y-59773000D01*
X40373000Y-58798750D01*
X40214250Y-58640000D01*
X39625000Y-58636928D01*
X39500518Y-58649188D01*
X39380820Y-58685498D01*
X39270506Y-58744463D01*
X39173815Y-58823815D01*
X39094463Y-58920506D01*
X39035498Y-59030820D01*
X38999188Y-59150518D01*
X38986928Y-59275000D01*
X25710000Y-59275000D01*
X25710000Y-51000000D01*
X38909428Y-51000000D01*
X38909428Y-53000000D01*
X38921688Y-53124482D01*
X38957998Y-53244180D01*
X39016963Y-53354494D01*
X39096315Y-53451185D01*
X39193006Y-53530537D01*
X39303320Y-53589502D01*
X39423018Y-53625812D01*
X39547500Y-53638072D01*
X39715001Y-53638072D01*
X39715000Y-55852687D01*
X39701746Y-55853992D01*
X39535150Y-55904528D01*
X39381614Y-55986595D01*
X39247038Y-56097038D01*
X39136595Y-56231614D01*
X39054528Y-56385150D01*
X39003992Y-56551746D01*
X38986928Y-56725000D01*
X38986928Y-57475000D01*
X39003992Y-57648254D01*
X39054528Y-57814850D01*
X39136595Y-57968386D01*
X39247038Y-58102962D01*
X39381614Y-58213405D01*
X39535150Y-58295472D01*
X39701746Y-58346008D01*
X39875000Y-58363072D01*
X40752915Y-58363072D01*
X41028577Y-58638734D01*
X40785750Y-58640000D01*
X40627000Y-58798750D01*
X40627000Y-59773000D01*
X41851250Y-59773000D01*
X42007046Y-59617204D01*
X42465000Y-60075158D01*
X42465000Y-60101939D01*
X42504774Y-60301898D01*
X42582795Y-60490256D01*
X42696063Y-60659774D01*
X42840226Y-60803937D01*
X43009744Y-60917205D01*
X43198102Y-60995226D01*
X43398061Y-61035000D01*
X43601939Y-61035000D01*
X43801898Y-60995226D01*
X43990256Y-60917205D01*
X44159774Y-60803937D01*
X44303937Y-60659774D01*
X44393989Y-60525000D01*
X45486928Y-60525000D01*
X45499188Y-60649482D01*
X45535498Y-60769180D01*
X45594463Y-60879494D01*
X45673815Y-60976185D01*
X45770506Y-61055537D01*
X45880820Y-61114502D01*
X46000518Y-61150812D01*
X46125000Y-61163072D01*
X46714250Y-61160000D01*
X46873000Y-61001250D01*
X46873000Y-60027000D01*
X47127000Y-60027000D01*
X47127000Y-61001250D01*
X47285750Y-61160000D01*
X47875000Y-61163072D01*
X47999482Y-61150812D01*
X48119180Y-61114502D01*
X48229494Y-61055537D01*
X48326185Y-60976185D01*
X48405537Y-60879494D01*
X48464502Y-60769180D01*
X48500812Y-60649482D01*
X48513072Y-60525000D01*
X48510000Y-60185750D01*
X48351250Y-60027000D01*
X47127000Y-60027000D01*
X46873000Y-60027000D01*
X45648750Y-60027000D01*
X45490000Y-60185750D01*
X45486928Y-60525000D01*
X44393989Y-60525000D01*
X44417205Y-60490256D01*
X44495226Y-60301898D01*
X44535000Y-60101939D01*
X44535000Y-59898061D01*
X44495226Y-59698102D01*
X44417205Y-59509744D01*
X44303937Y-59340226D01*
X44238711Y-59275000D01*
X45486928Y-59275000D01*
X45490000Y-59614250D01*
X45648750Y-59773000D01*
X46873000Y-59773000D01*
X46873000Y-58798750D01*
X47127000Y-58798750D01*
X47127000Y-59773000D01*
X48351250Y-59773000D01*
X48510000Y-59614250D01*
X48513072Y-59275000D01*
X48500812Y-59150518D01*
X48464502Y-59030820D01*
X48405537Y-58920506D01*
X48326185Y-58823815D01*
X48229494Y-58744463D01*
X48119180Y-58685498D01*
X47999482Y-58649188D01*
X47875000Y-58636928D01*
X47285750Y-58640000D01*
X47127000Y-58798750D01*
X46873000Y-58798750D01*
X46714250Y-58640000D01*
X46125000Y-58636928D01*
X46000518Y-58649188D01*
X45880820Y-58685498D01*
X45770506Y-58744463D01*
X45673815Y-58823815D01*
X45594463Y-58920506D01*
X45535498Y-59030820D01*
X45499188Y-59150518D01*
X45486928Y-59275000D01*
X44238711Y-59275000D01*
X44159774Y-59196063D01*
X43990256Y-59082795D01*
X43801898Y-59004774D01*
X43601939Y-58965000D01*
X43575158Y-58965000D01*
X42013072Y-57402915D01*
X42013072Y-56725000D01*
X41996008Y-56551746D01*
X41945472Y-56385150D01*
X41863405Y-56231614D01*
X41752962Y-56097038D01*
X41618386Y-55986595D01*
X41464850Y-55904528D01*
X41298254Y-55853992D01*
X41285000Y-55852687D01*
X41285000Y-53638072D01*
X41452500Y-53638072D01*
X41576982Y-53625812D01*
X41696680Y-53589502D01*
X41806994Y-53530537D01*
X41903685Y-53451185D01*
X41983037Y-53354494D01*
X42032059Y-53262781D01*
X42173077Y-53375969D01*
X42448906Y-53519571D01*
X42667020Y-53590563D01*
X42913000Y-53470594D01*
X42913000Y-52127000D01*
X42893000Y-52127000D01*
X42893000Y-51873000D01*
X42913000Y-51873000D01*
X42913000Y-50529406D01*
X42667020Y-50409437D01*
X42448906Y-50480429D01*
X42173077Y-50624031D01*
X42032059Y-50737219D01*
X41983037Y-50645506D01*
X41903685Y-50548815D01*
X41806994Y-50469463D01*
X41696680Y-50410498D01*
X41576982Y-50374188D01*
X41452500Y-50361928D01*
X39547500Y-50361928D01*
X39423018Y-50374188D01*
X39303320Y-50410498D01*
X39193006Y-50469463D01*
X39096315Y-50548815D01*
X39016963Y-50645506D01*
X38957998Y-50755820D01*
X38921688Y-50875518D01*
X38909428Y-51000000D01*
X25710000Y-51000000D01*
X25710000Y-43538967D01*
X26365000Y-43538967D01*
X26365000Y-43861033D01*
X26427832Y-44176912D01*
X26551082Y-44474463D01*
X26730013Y-44742252D01*
X26957748Y-44969987D01*
X27225537Y-45148918D01*
X27523088Y-45272168D01*
X27838967Y-45335000D01*
X28161033Y-45335000D01*
X28476912Y-45272168D01*
X28774463Y-45148918D01*
X29042252Y-44969987D01*
X29269987Y-44742252D01*
X29448918Y-44474463D01*
X29572168Y-44176912D01*
X29635000Y-43861033D01*
X29635000Y-43538967D01*
X31365000Y-43538967D01*
X31365000Y-43861033D01*
X31427832Y-44176912D01*
X31551082Y-44474463D01*
X31730013Y-44742252D01*
X31957748Y-44969987D01*
X32225537Y-45148918D01*
X32523088Y-45272168D01*
X32838967Y-45335000D01*
X33161033Y-45335000D01*
X33476912Y-45272168D01*
X33774463Y-45148918D01*
X34042252Y-44969987D01*
X34269987Y-44742252D01*
X34448918Y-44474463D01*
X34572168Y-44176912D01*
X34635000Y-43861033D01*
X34635000Y-43538967D01*
X34572168Y-43223088D01*
X34448918Y-42925537D01*
X34269987Y-42657748D01*
X34042252Y-42430013D01*
X33774463Y-42251082D01*
X33476912Y-42127832D01*
X33161033Y-42065000D01*
X32838967Y-42065000D01*
X32523088Y-42127832D01*
X32225537Y-42251082D01*
X31957748Y-42430013D01*
X31730013Y-42657748D01*
X31551082Y-42925537D01*
X31427832Y-43223088D01*
X31365000Y-43538967D01*
X29635000Y-43538967D01*
X29572168Y-43223088D01*
X29448918Y-42925537D01*
X29269987Y-42657748D01*
X29042252Y-42430013D01*
X28774463Y-42251082D01*
X28476912Y-42127832D01*
X28161033Y-42065000D01*
X27838967Y-42065000D01*
X27523088Y-42127832D01*
X27225537Y-42251082D01*
X26957748Y-42430013D01*
X26730013Y-42657748D01*
X26551082Y-42925537D01*
X26427832Y-43223088D01*
X26365000Y-43538967D01*
X25710000Y-43538967D01*
X25710000Y-34779872D01*
X27765000Y-34779872D01*
X27765000Y-35220128D01*
X27850890Y-35651925D01*
X28019369Y-36058669D01*
X28263962Y-36424729D01*
X28575271Y-36736038D01*
X28941331Y-36980631D01*
X29348075Y-37149110D01*
X29779872Y-37235000D01*
X30220128Y-37235000D01*
X30651925Y-37149110D01*
X31058669Y-36980631D01*
X31424729Y-36736038D01*
X31736038Y-36424729D01*
X31980631Y-36058669D01*
X32149110Y-35651925D01*
X32235000Y-35220128D01*
X32235000Y-34779872D01*
X32149110Y-34348075D01*
X31980631Y-33941331D01*
X31736038Y-33575271D01*
X31424729Y-33263962D01*
X31058669Y-33019369D01*
X30651925Y-32850890D01*
X30220128Y-32765000D01*
X29779872Y-32765000D01*
X29348075Y-32850890D01*
X28941331Y-33019369D01*
X28575271Y-33263962D01*
X28263962Y-33575271D01*
X28019369Y-33941331D01*
X27850890Y-34348075D01*
X27765000Y-34779872D01*
X25710000Y-34779872D01*
X25710000Y-32690000D01*
X68861928Y-32690000D01*
X68865000Y-32854250D01*
X69023750Y-33013000D01*
X70373000Y-33013000D01*
X70373000Y-32213750D01*
X70627000Y-32213750D01*
X70627000Y-33013000D01*
X71976250Y-33013000D01*
X72135000Y-32854250D01*
X72138072Y-32690000D01*
X85861928Y-32690000D01*
X85865000Y-32854250D01*
X86023750Y-33013000D01*
X87373000Y-33013000D01*
X87373000Y-32213750D01*
X87627000Y-32213750D01*
X87627000Y-33013000D01*
X88976250Y-33013000D01*
X89135000Y-32854250D01*
X89138072Y-32690000D01*
X89125812Y-32565518D01*
X89089502Y-32445820D01*
X89030537Y-32335506D01*
X88951185Y-32238815D01*
X88854494Y-32159463D01*
X88744180Y-32100498D01*
X88624482Y-32064188D01*
X88500000Y-32051928D01*
X87785750Y-32055000D01*
X87627000Y-32213750D01*
X87373000Y-32213750D01*
X87214250Y-32055000D01*
X86500000Y-32051928D01*
X86375518Y-32064188D01*
X86255820Y-32100498D01*
X86145506Y-32159463D01*
X86048815Y-32238815D01*
X85969463Y-32335506D01*
X85910498Y-32445820D01*
X85874188Y-32565518D01*
X85861928Y-32690000D01*
X72138072Y-32690000D01*
X72125812Y-32565518D01*
X72089502Y-32445820D01*
X72030537Y-32335506D01*
X71951185Y-32238815D01*
X71854494Y-32159463D01*
X71744180Y-32100498D01*
X71624482Y-32064188D01*
X71500000Y-32051928D01*
X70785750Y-32055000D01*
X70627000Y-32213750D01*
X70373000Y-32213750D01*
X70214250Y-32055000D01*
X69500000Y-32051928D01*
X69375518Y-32064188D01*
X69255820Y-32100498D01*
X69145506Y-32159463D01*
X69048815Y-32238815D01*
X68969463Y-32335506D01*
X68910498Y-32445820D01*
X68874188Y-32565518D01*
X68861928Y-32690000D01*
X25710000Y-32690000D01*
X25710000Y-32034721D01*
X25737907Y-31750101D01*
X25810484Y-31509715D01*
X25928368Y-31288009D01*
X26087068Y-31093423D01*
X26280545Y-30933365D01*
X26501424Y-30813936D01*
X26741297Y-30739683D01*
X27023716Y-30710000D01*
X103965279Y-30710000D01*
X104249899Y-30737907D01*
G37*
X104249899Y-30737907D02*
X104490285Y-30810484D01*
X104711991Y-30928368D01*
X104906577Y-31087068D01*
X105066635Y-31280545D01*
X105186064Y-31501424D01*
X105260317Y-31741297D01*
X105290000Y-32023716D01*
X105290001Y-86965269D01*
X105262093Y-87249899D01*
X105189517Y-87490282D01*
X105071633Y-87711989D01*
X104912929Y-87906580D01*
X104719455Y-88066635D01*
X104498576Y-88186064D01*
X104258701Y-88260317D01*
X103976291Y-88290000D01*
X27034721Y-88290000D01*
X26750101Y-88262093D01*
X26509718Y-88189517D01*
X26288011Y-88071633D01*
X26093420Y-87912929D01*
X25933365Y-87719455D01*
X25813936Y-87498576D01*
X25739683Y-87258701D01*
X25710000Y-86976291D01*
X25710000Y-83779872D01*
X27765000Y-83779872D01*
X27765000Y-84220128D01*
X27850890Y-84651925D01*
X28019369Y-85058669D01*
X28263962Y-85424729D01*
X28575271Y-85736038D01*
X28941331Y-85980631D01*
X29348075Y-86149110D01*
X29779872Y-86235000D01*
X30220128Y-86235000D01*
X30651925Y-86149110D01*
X31058669Y-85980631D01*
X31424729Y-85736038D01*
X31736038Y-85424729D01*
X31980631Y-85058669D01*
X32149110Y-84651925D01*
X32235000Y-84220128D01*
X32235000Y-83779872D01*
X32149110Y-83348075D01*
X31980631Y-82941331D01*
X31819380Y-82700000D01*
X36061928Y-82700000D01*
X36061928Y-85300000D01*
X36074188Y-85424482D01*
X36110498Y-85544180D01*
X36169463Y-85654494D01*
X36248815Y-85751185D01*
X36345506Y-85830537D01*
X36455820Y-85889502D01*
X36575518Y-85925812D01*
X36700000Y-85938072D01*
X39300000Y-85938072D01*
X39424482Y-85925812D01*
X39544180Y-85889502D01*
X39654494Y-85830537D01*
X39751185Y-85751185D01*
X39830537Y-85654494D01*
X39889502Y-85544180D01*
X39925812Y-85424482D01*
X39938072Y-85300000D01*
X39938072Y-84785000D01*
X41230729Y-84785000D01*
X41285225Y-84916566D01*
X41496987Y-85233491D01*
X41766509Y-85503013D01*
X42083434Y-85714775D01*
X42435581Y-85860639D01*
X42809419Y-85935000D01*
X43190581Y-85935000D01*
X43564419Y-85860639D01*
X43916566Y-85714775D01*
X44233491Y-85503013D01*
X44503013Y-85233491D01*
X44714775Y-84916566D01*
X44769271Y-84785000D01*
X46230729Y-84785000D01*
X46285225Y-84916566D01*
X46496987Y-85233491D01*
X46766509Y-85503013D01*
X47083434Y-85714775D01*
X47435581Y-85860639D01*
X47809419Y-85935000D01*
X48190581Y-85935000D01*
X48564419Y-85860639D01*
X48916566Y-85714775D01*
X49233491Y-85503013D01*
X49503013Y-85233491D01*
X49714775Y-84916566D01*
X49860639Y-84564419D01*
X49935000Y-84190581D01*
X49935000Y-83809419D01*
X49860639Y-83435581D01*
X49714775Y-83083434D01*
X49503013Y-82766509D01*
X49233491Y-82496987D01*
X48916566Y-82285225D01*
X48785000Y-82230729D01*
X48785000Y-78497313D01*
X48798254Y-78496008D01*
X48964850Y-78445472D01*
X49118386Y-78363405D01*
X49252962Y-78252962D01*
X49363405Y-78118386D01*
X49445472Y-77964850D01*
X49496008Y-77798254D01*
X49513072Y-77625000D01*
X49513072Y-76875000D01*
X49496008Y-76701746D01*
X49445472Y-76535150D01*
X49363405Y-76381614D01*
X49252962Y-76247038D01*
X49118386Y-76136595D01*
X48964850Y-76054528D01*
X48798254Y-76003992D01*
X48625000Y-75986928D01*
X47375000Y-75986928D01*
X47201746Y-76003992D01*
X47035150Y-76054528D01*
X46881614Y-76136595D01*
X46747038Y-76247038D01*
X46636595Y-76381614D01*
X46554528Y-76535150D01*
X46503992Y-76701746D01*
X46486928Y-76875000D01*
X46486928Y-77625000D01*
X46503992Y-77798254D01*
X46554528Y-77964850D01*
X46636595Y-78118386D01*
X46747038Y-78252962D01*
X46881614Y-78363405D01*
X47035150Y-78445472D01*
X47201746Y-78496008D01*
X47215000Y-78497313D01*
X47215001Y-82230728D01*
X47083434Y-82285225D01*
X46766509Y-82496987D01*
X46496987Y-82766509D01*
X46285225Y-83083434D01*
X46230729Y-83215000D01*
X44769271Y-83215000D01*
X44714775Y-83083434D01*
X44503013Y-82766509D01*
X44233491Y-82496987D01*
X43916566Y-82285225D01*
X43564419Y-82139361D01*
X43190581Y-82065000D01*
X42809419Y-82065000D01*
X42435581Y-82139361D01*
X42083434Y-82285225D01*
X41766509Y-82496987D01*
X41496987Y-82766509D01*
X41285225Y-83083434D01*
X41230729Y-83215000D01*
X39938072Y-83215000D01*
X39938072Y-82700000D01*
X39925812Y-82575518D01*
X39889502Y-82455820D01*
X39830537Y-82345506D01*
X39751185Y-82248815D01*
X39654494Y-82169463D01*
X39544180Y-82110498D01*
X39424482Y-82074188D01*
X39300000Y-82061928D01*
X36700000Y-82061928D01*
X36575518Y-82074188D01*
X36455820Y-82110498D01*
X36345506Y-82169463D01*
X36248815Y-82248815D01*
X36169463Y-82345506D01*
X36110498Y-82455820D01*
X36074188Y-82575518D01*
X36061928Y-82700000D01*
X31819380Y-82700000D01*
X31736038Y-82575271D01*
X31424729Y-82263962D01*
X31058669Y-82019369D01*
X30651925Y-81850890D01*
X30220128Y-81765000D01*
X29779872Y-81765000D01*
X29348075Y-81850890D01*
X28941331Y-82019369D01*
X28575271Y-82263962D01*
X28263962Y-82575271D01*
X28019369Y-82941331D01*
X27850890Y-83348075D01*
X27765000Y-83779872D01*
X25710000Y-83779872D01*
X25710000Y-73309419D01*
X28065000Y-73309419D01*
X28065000Y-73690581D01*
X28139361Y-74064419D01*
X28285225Y-74416566D01*
X28496987Y-74733491D01*
X28766509Y-75003013D01*
X29083434Y-75214775D01*
X29435581Y-75360639D01*
X29809419Y-75435000D01*
X30190581Y-75435000D01*
X30564419Y-75360639D01*
X30916566Y-75214775D01*
X31233491Y-75003013D01*
X31503013Y-74733491D01*
X31714775Y-74416566D01*
X31860639Y-74064419D01*
X31935000Y-73690581D01*
X31935000Y-73309419D01*
X31860639Y-72935581D01*
X31714775Y-72583434D01*
X31503013Y-72266509D01*
X31233491Y-71996987D01*
X30916566Y-71785225D01*
X30564419Y-71639361D01*
X30190581Y-71565000D01*
X29809419Y-71565000D01*
X29435581Y-71639361D01*
X29083434Y-71785225D01*
X28766509Y-71996987D01*
X28496987Y-72266509D01*
X28285225Y-72583434D01*
X28139361Y-72935581D01*
X28065000Y-73309419D01*
X25710000Y-73309419D01*
X25710000Y-67200000D01*
X28061928Y-67200000D01*
X28061928Y-69800000D01*
X28074188Y-69924482D01*
X28110498Y-70044180D01*
X28169463Y-70154494D01*
X28248815Y-70251185D01*
X28345506Y-70330537D01*
X28455820Y-70389502D01*
X28575518Y-70425812D01*
X28700000Y-70438072D01*
X31300000Y-70438072D01*
X31424482Y-70425812D01*
X31544180Y-70389502D01*
X31654494Y-70330537D01*
X31751185Y-70251185D01*
X31830537Y-70154494D01*
X31889502Y-70044180D01*
X31925812Y-69924482D01*
X31938072Y-69800000D01*
X31938072Y-69285000D01*
X37136928Y-69285000D01*
X37136928Y-69350000D01*
X37149188Y-69474482D01*
X37185498Y-69594180D01*
X37244463Y-69704494D01*
X37323815Y-69801185D01*
X37420506Y-69880537D01*
X37530820Y-69939502D01*
X37650518Y-69975812D01*
X37775000Y-69988072D01*
X38775000Y-69988072D01*
X38899482Y-69975812D01*
X39019180Y-69939502D01*
X39129494Y-69880537D01*
X39226185Y-69801185D01*
X39305537Y-69704494D01*
X39364502Y-69594180D01*
X39400812Y-69474482D01*
X39413072Y-69350000D01*
X39413072Y-68650000D01*
X39400812Y-68525518D01*
X39364502Y-68405820D01*
X39305537Y-68295506D01*
X39226185Y-68198815D01*
X39129494Y-68119463D01*
X39019180Y-68060498D01*
X38899482Y-68024188D01*
X38775000Y-68011928D01*
X38397085Y-68011928D01*
X38357347Y-67972190D01*
X38332764Y-67942236D01*
X38213233Y-67844138D01*
X38076860Y-67771246D01*
X37928887Y-67726359D01*
X37813561Y-67715000D01*
X37813553Y-67715000D01*
X37775000Y-67711203D01*
X37736447Y-67715000D01*
X31938072Y-67715000D01*
X31938072Y-67200000D01*
X31925812Y-67075518D01*
X31889502Y-66955820D01*
X31830537Y-66845506D01*
X31751185Y-66748815D01*
X31654494Y-66669463D01*
X31544180Y-66610498D01*
X31424482Y-66574188D01*
X31300000Y-66561928D01*
X28700000Y-66561928D01*
X28575518Y-66574188D01*
X28455820Y-66610498D01*
X28345506Y-66669463D01*
X28248815Y-66748815D01*
X28169463Y-66845506D01*
X28110498Y-66955820D01*
X28074188Y-67075518D01*
X28061928Y-67200000D01*
X25710000Y-67200000D01*
X25710000Y-61338967D01*
X26365000Y-61338967D01*
X26365000Y-61661033D01*
X26427832Y-61976912D01*
X26551082Y-62274463D01*
X26730013Y-62542252D01*
X26957748Y-62769987D01*
X27225537Y-62948918D01*
X27523088Y-63072168D01*
X27838967Y-63135000D01*
X28161033Y-63135000D01*
X28476912Y-63072168D01*
X28774463Y-62948918D01*
X29042252Y-62769987D01*
X29269987Y-62542252D01*
X29441877Y-62285000D01*
X31558123Y-62285000D01*
X31730013Y-62542252D01*
X31957748Y-62769987D01*
X32225537Y-62948918D01*
X32523088Y-63072168D01*
X32838967Y-63135000D01*
X33161033Y-63135000D01*
X33476912Y-63072168D01*
X33774463Y-62948918D01*
X34042252Y-62769987D01*
X34269987Y-62542252D01*
X34441877Y-62285000D01*
X36174843Y-62285000D01*
X40215001Y-66325159D01*
X40215000Y-70174842D01*
X38377915Y-72011928D01*
X37775000Y-72011928D01*
X37650518Y-72024188D01*
X37530820Y-72060498D01*
X37420506Y-72119463D01*
X37323815Y-72198815D01*
X37244463Y-72295506D01*
X37185498Y-72405820D01*
X37149188Y-72525518D01*
X37136928Y-72650000D01*
X37136928Y-73350000D01*
X37149188Y-73474482D01*
X37185498Y-73594180D01*
X37244463Y-73704494D01*
X37323815Y-73801185D01*
X37420506Y-73880537D01*
X37530820Y-73939502D01*
X37650518Y-73975812D01*
X37775000Y-73988072D01*
X38775000Y-73988072D01*
X38899482Y-73975812D01*
X39019180Y-73939502D01*
X39129494Y-73880537D01*
X39226185Y-73801185D01*
X39305537Y-73704494D01*
X39364502Y-73594180D01*
X39400812Y-73474482D01*
X39413072Y-73350000D01*
X39413072Y-73197085D01*
X39960157Y-72650000D01*
X43086928Y-72650000D01*
X43086928Y-73350000D01*
X43099188Y-73474482D01*
X43135498Y-73594180D01*
X43194463Y-73704494D01*
X43273815Y-73801185D01*
X43370506Y-73880537D01*
X43480820Y-73939502D01*
X43600518Y-73975812D01*
X43725000Y-73988072D01*
X44725000Y-73988072D01*
X44849482Y-73975812D01*
X44969180Y-73939502D01*
X45079494Y-73880537D01*
X45176185Y-73801185D01*
X45255537Y-73704494D01*
X45314502Y-73594180D01*
X45350812Y-73474482D01*
X45363072Y-73350000D01*
X45363072Y-73247085D01*
X49527803Y-69082354D01*
X49557756Y-69057772D01*
X49615000Y-68988021D01*
X49615000Y-72599842D01*
X48961370Y-73253472D01*
X48798254Y-73203992D01*
X48625000Y-73186928D01*
X47375000Y-73186928D01*
X47201746Y-73203992D01*
X47035150Y-73254528D01*
X46881614Y-73336595D01*
X46747038Y-73447038D01*
X46636595Y-73581614D01*
X46554528Y-73735150D01*
X46503992Y-73901746D01*
X46486928Y-74075000D01*
X46486928Y-74825000D01*
X46503992Y-74998254D01*
X46554528Y-75164850D01*
X46636595Y-75318386D01*
X46747038Y-75452962D01*
X46881614Y-75563405D01*
X47035150Y-75645472D01*
X47201746Y-75696008D01*
X47375000Y-75713072D01*
X48625000Y-75713072D01*
X48798254Y-75696008D01*
X48964850Y-75645472D01*
X49118386Y-75563405D01*
X49252962Y-75452962D01*
X49363405Y-75318386D01*
X49445472Y-75164850D01*
X49496008Y-74998254D01*
X49502465Y-74932692D01*
X50927815Y-73507343D01*
X50957763Y-73482765D01*
X51055861Y-73363234D01*
X51128753Y-73226861D01*
X51173640Y-73078888D01*
X51184999Y-72963562D01*
X51184999Y-72963555D01*
X51188796Y-72925002D01*
X51184999Y-72886449D01*
X51184999Y-59138557D01*
X51188796Y-59100001D01*
X51184999Y-59061441D01*
X51184999Y-59061440D01*
X51179418Y-59004774D01*
X51173641Y-58946114D01*
X51128753Y-58798141D01*
X51055861Y-58661768D01*
X50957763Y-58542237D01*
X50927810Y-58517655D01*
X48982345Y-56572190D01*
X48957762Y-56542236D01*
X48838231Y-56444138D01*
X48701858Y-56371246D01*
X48553885Y-56326359D01*
X48438559Y-56315000D01*
X48438551Y-56315000D01*
X48406277Y-56311821D01*
X48363405Y-56231614D01*
X48252962Y-56097038D01*
X48121229Y-55988928D01*
X53027811Y-51082346D01*
X53057764Y-51057764D01*
X53155862Y-50938233D01*
X53228754Y-50801860D01*
X53248104Y-50738072D01*
X53273642Y-50653887D01*
X53281020Y-50578974D01*
X53285000Y-50538561D01*
X53285000Y-50538556D01*
X53288797Y-50500000D01*
X53285000Y-50461444D01*
X53285000Y-40785000D01*
X55961447Y-40785000D01*
X56000000Y-40788797D01*
X56038553Y-40785000D01*
X56038561Y-40785000D01*
X56153887Y-40773641D01*
X56301860Y-40728754D01*
X56438233Y-40655862D01*
X56557764Y-40557764D01*
X56582347Y-40527810D01*
X59085157Y-38025000D01*
X62486928Y-38025000D01*
X62499188Y-38149482D01*
X62535498Y-38269180D01*
X62594463Y-38379494D01*
X62673815Y-38476185D01*
X62770506Y-38555537D01*
X62880820Y-38614502D01*
X63000518Y-38650812D01*
X63125000Y-38663072D01*
X63714250Y-38660000D01*
X63873000Y-38501250D01*
X63873000Y-37527000D01*
X64127000Y-37527000D01*
X64127000Y-38501250D01*
X64285750Y-38660000D01*
X64875000Y-38663072D01*
X64999482Y-38650812D01*
X65119180Y-38614502D01*
X65229494Y-38555537D01*
X65326185Y-38476185D01*
X65405537Y-38379494D01*
X65464502Y-38269180D01*
X65500812Y-38149482D01*
X65513072Y-38025000D01*
X65510000Y-37685750D01*
X65351250Y-37527000D01*
X64127000Y-37527000D01*
X63873000Y-37527000D01*
X62648750Y-37527000D01*
X62490000Y-37685750D01*
X62486928Y-38025000D01*
X59085157Y-38025000D01*
X60335157Y-36775000D01*
X62486928Y-36775000D01*
X62490000Y-37114250D01*
X62648750Y-37273000D01*
X63873000Y-37273000D01*
X63873000Y-36298750D01*
X64127000Y-36298750D01*
X64127000Y-37273000D01*
X65351250Y-37273000D01*
X65510000Y-37114250D01*
X65513072Y-36775000D01*
X65500812Y-36650518D01*
X65464502Y-36530820D01*
X65405537Y-36420506D01*
X65326185Y-36323815D01*
X65229494Y-36244463D01*
X65119180Y-36185498D01*
X64999482Y-36149188D01*
X64875000Y-36136928D01*
X64285750Y-36140000D01*
X64127000Y-36298750D01*
X63873000Y-36298750D01*
X63714250Y-36140000D01*
X63125000Y-36136928D01*
X63000518Y-36149188D01*
X62880820Y-36185498D01*
X62770506Y-36244463D01*
X62673815Y-36323815D01*
X62594463Y-36420506D01*
X62535498Y-36530820D01*
X62499188Y-36650518D01*
X62486928Y-36775000D01*
X60335157Y-36775000D01*
X61725158Y-35385000D01*
X62592024Y-35385000D01*
X62636595Y-35468386D01*
X62747038Y-35602962D01*
X62881614Y-35713405D01*
X63035150Y-35795472D01*
X63201746Y-35846008D01*
X63375000Y-35863072D01*
X64625000Y-35863072D01*
X64798254Y-35846008D01*
X64964850Y-35795472D01*
X65118386Y-35713405D01*
X65252962Y-35602962D01*
X65363405Y-35468386D01*
X65407976Y-35385000D01*
X68861928Y-35385000D01*
X68861928Y-36130000D01*
X68874188Y-36254482D01*
X68892546Y-36315000D01*
X68874188Y-36375518D01*
X68861928Y-36500000D01*
X68861928Y-37400000D01*
X68874188Y-37524482D01*
X68892546Y-37585000D01*
X68874188Y-37645518D01*
X68861928Y-37770000D01*
X68861928Y-38670000D01*
X68874188Y-38794482D01*
X68892546Y-38855000D01*
X68874188Y-38915518D01*
X68861928Y-39040000D01*
X68861928Y-39940000D01*
X68874188Y-40064482D01*
X68892546Y-40125000D01*
X68874188Y-40185518D01*
X68861928Y-40310000D01*
X68861928Y-41210000D01*
X68865375Y-41245000D01*
X63508552Y-41245000D01*
X63469999Y-41241203D01*
X63431446Y-41245000D01*
X63431439Y-41245000D01*
X63330490Y-41254943D01*
X63316112Y-41256359D01*
X63281672Y-41266806D01*
X63168140Y-41301246D01*
X63031767Y-41374138D01*
X62993163Y-41405820D01*
X62942187Y-41447655D01*
X62942184Y-41447658D01*
X62912236Y-41472236D01*
X62887658Y-41502184D01*
X53472190Y-50917653D01*
X53442236Y-50942236D01*
X53344138Y-51061768D01*
X53271246Y-51198141D01*
X53226359Y-51346114D01*
X53215000Y-51461440D01*
X53215000Y-51461447D01*
X53211203Y-51500000D01*
X53215000Y-51538553D01*
X53215001Y-81074842D01*
X52472190Y-81817653D01*
X52442236Y-81842236D01*
X52344138Y-81961768D01*
X52290602Y-82061928D01*
X51700000Y-82061928D01*
X51575518Y-82074188D01*
X51455820Y-82110498D01*
X51345506Y-82169463D01*
X51248815Y-82248815D01*
X51169463Y-82345506D01*
X51110498Y-82455820D01*
X51074188Y-82575518D01*
X51061928Y-82700000D01*
X51061928Y-85300000D01*
X51074188Y-85424482D01*
X51110498Y-85544180D01*
X51169463Y-85654494D01*
X51248815Y-85751185D01*
X51345506Y-85830537D01*
X51455820Y-85889502D01*
X51575518Y-85925812D01*
X51700000Y-85938072D01*
X54300000Y-85938072D01*
X54424482Y-85925812D01*
X54544180Y-85889502D01*
X54654494Y-85830537D01*
X54751185Y-85751185D01*
X54830537Y-85654494D01*
X54889502Y-85544180D01*
X54925812Y-85424482D01*
X54938072Y-85300000D01*
X54938072Y-82700000D01*
X54925812Y-82575518D01*
X54889502Y-82455820D01*
X54830537Y-82345506D01*
X54751185Y-82248815D01*
X54654494Y-82169463D01*
X54544180Y-82110498D01*
X54433295Y-82076862D01*
X54527810Y-81982347D01*
X54557764Y-81957764D01*
X54655862Y-81838233D01*
X54728754Y-81701860D01*
X54756255Y-81611202D01*
X54773642Y-81553887D01*
X54781020Y-81478974D01*
X54785000Y-81438561D01*
X54785000Y-81438556D01*
X54788797Y-81400000D01*
X54785000Y-81361444D01*
X54785000Y-51825157D01*
X57215000Y-49395157D01*
X57215001Y-75711430D01*
X57215000Y-75711440D01*
X57215001Y-82230728D01*
X57083434Y-82285225D01*
X56766509Y-82496987D01*
X56496987Y-82766509D01*
X56285225Y-83083434D01*
X56139361Y-83435581D01*
X56065000Y-83809419D01*
X56065000Y-84190581D01*
X56139361Y-84564419D01*
X56285225Y-84916566D01*
X56496987Y-85233491D01*
X56766509Y-85503013D01*
X57083434Y-85714775D01*
X57435581Y-85860639D01*
X57809419Y-85935000D01*
X58190581Y-85935000D01*
X58564419Y-85860639D01*
X58916566Y-85714775D01*
X59233491Y-85503013D01*
X59503013Y-85233491D01*
X59714775Y-84916566D01*
X59860639Y-84564419D01*
X59935000Y-84190581D01*
X59935000Y-83809419D01*
X59860639Y-83435581D01*
X59714775Y-83083434D01*
X59503013Y-82766509D01*
X59233491Y-82496987D01*
X58916566Y-82285225D01*
X58785000Y-82230729D01*
X58785000Y-80895157D01*
X61193857Y-83304015D01*
X61139361Y-83435581D01*
X61065000Y-83809419D01*
X61065000Y-84190581D01*
X61139361Y-84564419D01*
X61285225Y-84916566D01*
X61496987Y-85233491D01*
X61766509Y-85503013D01*
X62083434Y-85714775D01*
X62435581Y-85860639D01*
X62809419Y-85935000D01*
X63190581Y-85935000D01*
X63564419Y-85860639D01*
X63916566Y-85714775D01*
X64233491Y-85503013D01*
X64503013Y-85233491D01*
X64714775Y-84916566D01*
X64860639Y-84564419D01*
X64935000Y-84190581D01*
X64935000Y-83809419D01*
X64860639Y-83435581D01*
X64714775Y-83083434D01*
X64503013Y-82766509D01*
X64233491Y-82496987D01*
X63916566Y-82285225D01*
X63564419Y-82139361D01*
X63190581Y-82065000D01*
X62809419Y-82065000D01*
X62435581Y-82139361D01*
X62304015Y-82193857D01*
X59785000Y-79674843D01*
X59785000Y-75895157D01*
X66199161Y-82309319D01*
X66169463Y-82345506D01*
X66110498Y-82455820D01*
X66074188Y-82575518D01*
X66061928Y-82700000D01*
X66061928Y-85300000D01*
X66074188Y-85424482D01*
X66110498Y-85544180D01*
X66169463Y-85654494D01*
X66248815Y-85751185D01*
X66345506Y-85830537D01*
X66455820Y-85889502D01*
X66575518Y-85925812D01*
X66700000Y-85938072D01*
X69300000Y-85938072D01*
X69424482Y-85925812D01*
X69544180Y-85889502D01*
X69654494Y-85830537D01*
X69751185Y-85751185D01*
X69830537Y-85654494D01*
X69889502Y-85544180D01*
X69925812Y-85424482D01*
X69938072Y-85300000D01*
X69938072Y-82700000D01*
X69925812Y-82575518D01*
X69889502Y-82455820D01*
X69830537Y-82345506D01*
X69751185Y-82248815D01*
X69654494Y-82169463D01*
X69544180Y-82110498D01*
X69424482Y-82074188D01*
X69300000Y-82061928D01*
X68172086Y-82061928D01*
X60785000Y-74674843D01*
X60785000Y-53575157D01*
X63770896Y-50589262D01*
X63726359Y-50736080D01*
X63715000Y-50851406D01*
X63715000Y-50851413D01*
X63711203Y-50889966D01*
X63715000Y-50928519D01*
X63715001Y-67485446D01*
X63614637Y-67335241D01*
X63414759Y-67135363D01*
X63179727Y-66978320D01*
X62918574Y-66870147D01*
X62641335Y-66815000D01*
X62358665Y-66815000D01*
X62081426Y-66870147D01*
X61820273Y-66978320D01*
X61585241Y-67135363D01*
X61385363Y-67335241D01*
X61228320Y-67570273D01*
X61120147Y-67831426D01*
X61065000Y-68108665D01*
X61065000Y-68391335D01*
X61120147Y-68668574D01*
X61228320Y-68929727D01*
X61385363Y-69164759D01*
X61585241Y-69364637D01*
X61820273Y-69521680D01*
X62081426Y-69629853D01*
X62358665Y-69685000D01*
X62641335Y-69685000D01*
X62918574Y-69629853D01*
X63179727Y-69521680D01*
X63414759Y-69364637D01*
X63614637Y-69164759D01*
X63715001Y-69014554D01*
X63715001Y-74211437D01*
X63711203Y-74250000D01*
X63726359Y-74403886D01*
X63771246Y-74551859D01*
X63787541Y-74582345D01*
X63844139Y-74688233D01*
X63877394Y-74728754D01*
X63917655Y-74777812D01*
X63917659Y-74777816D01*
X63942237Y-74807764D01*
X63972185Y-74832342D01*
X71701669Y-82561827D01*
X71496987Y-82766509D01*
X71285225Y-83083434D01*
X71139361Y-83435581D01*
X71065000Y-83809419D01*
X71065000Y-84190581D01*
X71139361Y-84564419D01*
X71285225Y-84916566D01*
X71496987Y-85233491D01*
X71766509Y-85503013D01*
X72083434Y-85714775D01*
X72435581Y-85860639D01*
X72809419Y-85935000D01*
X73190581Y-85935000D01*
X73564419Y-85860639D01*
X73916566Y-85714775D01*
X74233491Y-85503013D01*
X74503013Y-85233491D01*
X74714775Y-84916566D01*
X74860639Y-84564419D01*
X74935000Y-84190581D01*
X74935000Y-83809419D01*
X74860639Y-83435581D01*
X74714775Y-83083434D01*
X74503013Y-82766509D01*
X74233491Y-82496987D01*
X73916566Y-82285225D01*
X73564419Y-82139361D01*
X73483404Y-82123246D01*
X65285000Y-73924843D01*
X65285000Y-72395157D01*
X76193857Y-83304015D01*
X76139361Y-83435581D01*
X76065000Y-83809419D01*
X76065000Y-84190581D01*
X76139361Y-84564419D01*
X76285225Y-84916566D01*
X76496987Y-85233491D01*
X76766509Y-85503013D01*
X77083434Y-85714775D01*
X77435581Y-85860639D01*
X77809419Y-85935000D01*
X78190581Y-85935000D01*
X78564419Y-85860639D01*
X78916566Y-85714775D01*
X79233491Y-85503013D01*
X79503013Y-85233491D01*
X79714775Y-84916566D01*
X79860639Y-84564419D01*
X79935000Y-84190581D01*
X79935000Y-83809419D01*
X79860639Y-83435581D01*
X79714775Y-83083434D01*
X79503013Y-82766509D01*
X79233491Y-82496987D01*
X78916566Y-82285225D01*
X78564419Y-82139361D01*
X78190581Y-82065000D01*
X77809419Y-82065000D01*
X77435581Y-82139361D01*
X77304015Y-82193857D01*
X66535000Y-71424843D01*
X66535000Y-69323347D01*
X66570630Y-69358977D01*
X66686903Y-69242704D01*
X66758486Y-69486671D01*
X67013996Y-69607571D01*
X67288184Y-69676300D01*
X67570512Y-69690217D01*
X67850130Y-69648787D01*
X68116292Y-69553603D01*
X68241514Y-69486671D01*
X68313097Y-69242702D01*
X67500000Y-68429605D01*
X67485858Y-68443748D01*
X67306253Y-68264143D01*
X67320395Y-68250000D01*
X67679605Y-68250000D01*
X68492702Y-69063097D01*
X68736671Y-68991514D01*
X68857571Y-68736004D01*
X68926300Y-68461816D01*
X68940217Y-68179488D01*
X68898787Y-67899870D01*
X68803603Y-67633708D01*
X68736671Y-67508486D01*
X68492702Y-67436903D01*
X67679605Y-68250000D01*
X67320395Y-68250000D01*
X67306253Y-68235858D01*
X67485858Y-68056253D01*
X67500000Y-68070395D01*
X68313097Y-67257298D01*
X68241514Y-67013329D01*
X67986004Y-66892429D01*
X67711816Y-66823700D01*
X67429488Y-66809783D01*
X67149870Y-66851213D01*
X66883708Y-66946397D01*
X66758486Y-67013329D01*
X66686903Y-67257296D01*
X66570630Y-67141023D01*
X66535000Y-67176653D01*
X66535000Y-52465155D01*
X68865355Y-50134800D01*
X68874188Y-50224482D01*
X68910498Y-50344180D01*
X68969463Y-50454494D01*
X69048815Y-50551185D01*
X69145506Y-50630537D01*
X69255820Y-50689502D01*
X69375518Y-50725812D01*
X69500000Y-50738072D01*
X69865001Y-50738072D01*
X69865000Y-69111447D01*
X69861203Y-69150000D01*
X69865000Y-69188553D01*
X69865000Y-69188560D01*
X69876359Y-69303886D01*
X69921246Y-69451859D01*
X69994138Y-69588232D01*
X70092236Y-69707764D01*
X70122190Y-69732347D01*
X82215001Y-81825159D01*
X82215001Y-82061928D01*
X81700000Y-82061928D01*
X81575518Y-82074188D01*
X81455820Y-82110498D01*
X81345506Y-82169463D01*
X81248815Y-82248815D01*
X81169463Y-82345506D01*
X81110498Y-82455820D01*
X81074188Y-82575518D01*
X81061928Y-82700000D01*
X81061928Y-85300000D01*
X81074188Y-85424482D01*
X81110498Y-85544180D01*
X81169463Y-85654494D01*
X81248815Y-85751185D01*
X81345506Y-85830537D01*
X81455820Y-85889502D01*
X81575518Y-85925812D01*
X81700000Y-85938072D01*
X84300000Y-85938072D01*
X84424482Y-85925812D01*
X84544180Y-85889502D01*
X84654494Y-85830537D01*
X84751185Y-85751185D01*
X84830537Y-85654494D01*
X84889502Y-85544180D01*
X84925812Y-85424482D01*
X84938072Y-85300000D01*
X84938072Y-82700000D01*
X84925812Y-82575518D01*
X84889502Y-82455820D01*
X84830537Y-82345506D01*
X84751185Y-82248815D01*
X84654494Y-82169463D01*
X84544180Y-82110498D01*
X84424482Y-82074188D01*
X84300000Y-82061928D01*
X83785000Y-82061928D01*
X83785000Y-81538552D01*
X83788797Y-81499999D01*
X83785000Y-81461446D01*
X83785000Y-81461439D01*
X83773641Y-81346113D01*
X83728754Y-81198140D01*
X83655862Y-81061767D01*
X83557764Y-80942236D01*
X83527816Y-80917658D01*
X71435000Y-68824843D01*
X71435000Y-68108665D01*
X77065000Y-68108665D01*
X77065000Y-68391335D01*
X77120147Y-68668574D01*
X77228320Y-68929727D01*
X77385363Y-69164759D01*
X77585241Y-69364637D01*
X77820273Y-69521680D01*
X78081426Y-69629853D01*
X78358665Y-69685000D01*
X78641335Y-69685000D01*
X78918574Y-69629853D01*
X79179727Y-69521680D01*
X79414759Y-69364637D01*
X79536694Y-69242702D01*
X82686903Y-69242702D01*
X82758486Y-69486671D01*
X83013996Y-69607571D01*
X83288184Y-69676300D01*
X83570512Y-69690217D01*
X83850130Y-69648787D01*
X84116292Y-69553603D01*
X84241514Y-69486671D01*
X84313097Y-69242702D01*
X83500000Y-68429605D01*
X82686903Y-69242702D01*
X79536694Y-69242702D01*
X79614637Y-69164759D01*
X79771680Y-68929727D01*
X79879853Y-68668574D01*
X79935000Y-68391335D01*
X79935000Y-68320512D01*
X82059783Y-68320512D01*
X82101213Y-68600130D01*
X82196397Y-68866292D01*
X82263329Y-68991514D01*
X82507298Y-69063097D01*
X83320395Y-68250000D01*
X83679605Y-68250000D01*
X84492702Y-69063097D01*
X84736671Y-68991514D01*
X84857571Y-68736004D01*
X84926300Y-68461816D01*
X84940217Y-68179488D01*
X84898787Y-67899870D01*
X84803603Y-67633708D01*
X84736671Y-67508486D01*
X84492702Y-67436903D01*
X83679605Y-68250000D01*
X83320395Y-68250000D01*
X82507298Y-67436903D01*
X82263329Y-67508486D01*
X82142429Y-67763996D01*
X82073700Y-68038184D01*
X82059783Y-68320512D01*
X79935000Y-68320512D01*
X79935000Y-68108665D01*
X79879853Y-67831426D01*
X79771680Y-67570273D01*
X79614637Y-67335241D01*
X79536694Y-67257298D01*
X82686903Y-67257298D01*
X83500000Y-68070395D01*
X84313097Y-67257298D01*
X84241514Y-67013329D01*
X83986004Y-66892429D01*
X83711816Y-66823700D01*
X83429488Y-66809783D01*
X83149870Y-66851213D01*
X82883708Y-66946397D01*
X82758486Y-67013329D01*
X82686903Y-67257298D01*
X79536694Y-67257298D01*
X79414759Y-67135363D01*
X79179727Y-66978320D01*
X78918574Y-66870147D01*
X78641335Y-66815000D01*
X78358665Y-66815000D01*
X78081426Y-66870147D01*
X77820273Y-66978320D01*
X77585241Y-67135363D01*
X77385363Y-67335241D01*
X77228320Y-67570273D01*
X77120147Y-67831426D01*
X77065000Y-68108665D01*
X71435000Y-68108665D01*
X71435000Y-51650000D01*
X72196928Y-51650000D01*
X72209188Y-51774482D01*
X72245498Y-51894180D01*
X72304463Y-52004494D01*
X72383815Y-52101185D01*
X72480506Y-52180537D01*
X72590820Y-52239502D01*
X72710518Y-52275812D01*
X72835000Y-52288072D01*
X72999250Y-52285000D01*
X73158000Y-52126250D01*
X73158000Y-50777000D01*
X72358750Y-50777000D01*
X72200000Y-50935750D01*
X72196928Y-51650000D01*
X71435000Y-51650000D01*
X71435000Y-50738072D01*
X71500000Y-50738072D01*
X71624482Y-50725812D01*
X71744180Y-50689502D01*
X71854494Y-50630537D01*
X71951185Y-50551185D01*
X72030537Y-50454494D01*
X72089502Y-50344180D01*
X72125812Y-50224482D01*
X72138072Y-50100000D01*
X72138072Y-49650000D01*
X72196928Y-49650000D01*
X72200000Y-50364250D01*
X72358750Y-50523000D01*
X73158000Y-50523000D01*
X73158000Y-49173750D01*
X73412000Y-49173750D01*
X73412000Y-50523000D01*
X73432000Y-50523000D01*
X73432000Y-50777000D01*
X73412000Y-50777000D01*
X73412000Y-52126250D01*
X73570750Y-52285000D01*
X73735000Y-52288072D01*
X73859482Y-52275812D01*
X73920000Y-52257454D01*
X73980518Y-52275812D01*
X74091593Y-52286752D01*
X87215001Y-65410161D01*
X87215000Y-82230729D01*
X87083434Y-82285225D01*
X86766509Y-82496987D01*
X86496987Y-82766509D01*
X86285225Y-83083434D01*
X86139361Y-83435581D01*
X86065000Y-83809419D01*
X86065000Y-84190581D01*
X86139361Y-84564419D01*
X86285225Y-84916566D01*
X86496987Y-85233491D01*
X86766509Y-85503013D01*
X87083434Y-85714775D01*
X87435581Y-85860639D01*
X87809419Y-85935000D01*
X88190581Y-85935000D01*
X88564419Y-85860639D01*
X88916566Y-85714775D01*
X89233491Y-85503013D01*
X89503013Y-85233491D01*
X89714775Y-84916566D01*
X89860639Y-84564419D01*
X89935000Y-84190581D01*
X89935000Y-83809419D01*
X89860639Y-83435581D01*
X89714775Y-83083434D01*
X89503013Y-82766509D01*
X89233491Y-82496987D01*
X88916566Y-82285225D01*
X88785000Y-82230729D01*
X88785000Y-65038561D01*
X88788798Y-65000000D01*
X88773641Y-64846113D01*
X88728754Y-64698140D01*
X88655862Y-64561767D01*
X88557764Y-64442236D01*
X88438233Y-64344138D01*
X88301860Y-64271246D01*
X88294025Y-64268869D01*
X81785417Y-57760261D01*
X81814250Y-57760000D01*
X81973000Y-57601250D01*
X81973000Y-56377000D01*
X82227000Y-56377000D01*
X82227000Y-57601250D01*
X82385750Y-57760000D01*
X82725000Y-57763072D01*
X82849482Y-57750812D01*
X82969180Y-57714502D01*
X83079494Y-57655537D01*
X83176185Y-57576185D01*
X83255537Y-57479494D01*
X83314502Y-57369180D01*
X83350812Y-57249482D01*
X83363072Y-57125000D01*
X83360000Y-56535750D01*
X83201250Y-56377000D01*
X82227000Y-56377000D01*
X81973000Y-56377000D01*
X80998750Y-56377000D01*
X80840000Y-56535750D01*
X80838553Y-56813397D01*
X79400156Y-55375000D01*
X80836928Y-55375000D01*
X80840000Y-55964250D01*
X80998750Y-56123000D01*
X81973000Y-56123000D01*
X81973000Y-54898750D01*
X82227000Y-54898750D01*
X82227000Y-56123000D01*
X83201250Y-56123000D01*
X83360000Y-55964250D01*
X83361768Y-55625000D01*
X83636928Y-55625000D01*
X83636928Y-56875000D01*
X83653992Y-57048254D01*
X83704528Y-57214850D01*
X83786595Y-57368386D01*
X83897038Y-57502962D01*
X84031614Y-57613405D01*
X84185150Y-57695472D01*
X84351746Y-57746008D01*
X84525000Y-57763072D01*
X85275000Y-57763072D01*
X85448254Y-57746008D01*
X85614850Y-57695472D01*
X85768386Y-57613405D01*
X85902962Y-57502962D01*
X86013405Y-57368386D01*
X86095472Y-57214850D01*
X86146008Y-57048254D01*
X86163072Y-56875000D01*
X86163072Y-55625000D01*
X86146008Y-55451746D01*
X86095472Y-55285150D01*
X86035000Y-55172015D01*
X86035000Y-54428711D01*
X86053937Y-54409774D01*
X86167205Y-54240256D01*
X86245226Y-54051898D01*
X86285000Y-53851939D01*
X86285000Y-53648061D01*
X86245226Y-53448102D01*
X86167205Y-53259744D01*
X86053937Y-53090226D01*
X85909774Y-52946063D01*
X85740256Y-52832795D01*
X85551898Y-52754774D01*
X85351939Y-52715000D01*
X85148061Y-52715000D01*
X84948102Y-52754774D01*
X84759744Y-52832795D01*
X84590226Y-52946063D01*
X84446063Y-53090226D01*
X84332795Y-53259744D01*
X84254774Y-53448102D01*
X84215000Y-53648061D01*
X84215000Y-53851939D01*
X84254774Y-54051898D01*
X84332795Y-54240256D01*
X84446063Y-54409774D01*
X84465000Y-54428711D01*
X84465000Y-54742837D01*
X84351746Y-54753992D01*
X84185150Y-54804528D01*
X84031614Y-54886595D01*
X83897038Y-54997038D01*
X83786595Y-55131614D01*
X83704528Y-55285150D01*
X83653992Y-55451746D01*
X83636928Y-55625000D01*
X83361768Y-55625000D01*
X83363072Y-55375000D01*
X83350812Y-55250518D01*
X83314502Y-55130820D01*
X83255537Y-55020506D01*
X83176185Y-54923815D01*
X83079494Y-54844463D01*
X82969180Y-54785498D01*
X82849482Y-54749188D01*
X82725000Y-54736928D01*
X82385750Y-54740000D01*
X82227000Y-54898750D01*
X81973000Y-54898750D01*
X81814250Y-54740000D01*
X81475000Y-54736928D01*
X81350518Y-54749188D01*
X81230820Y-54785498D01*
X81120506Y-54844463D01*
X81023815Y-54923815D01*
X80944463Y-55020506D01*
X80885498Y-55130820D01*
X80849188Y-55250518D01*
X80836928Y-55375000D01*
X79400156Y-55375000D01*
X76309800Y-52284645D01*
X76399482Y-52275812D01*
X76460000Y-52257454D01*
X76520518Y-52275812D01*
X76645000Y-52288072D01*
X77545000Y-52288072D01*
X77669482Y-52275812D01*
X77730000Y-52257454D01*
X77790518Y-52275812D01*
X77915000Y-52288072D01*
X78815000Y-52288072D01*
X78939482Y-52275812D01*
X79000000Y-52257454D01*
X79060518Y-52275812D01*
X79185000Y-52288072D01*
X80085000Y-52288072D01*
X80209482Y-52275812D01*
X80270000Y-52257454D01*
X80330518Y-52275812D01*
X80455000Y-52288072D01*
X81355000Y-52288072D01*
X81479482Y-52275812D01*
X81540000Y-52257454D01*
X81600518Y-52275812D01*
X81725000Y-52288072D01*
X82625000Y-52288072D01*
X82749482Y-52275812D01*
X82810000Y-52257454D01*
X82870518Y-52275812D01*
X82995000Y-52288072D01*
X83895000Y-52288072D01*
X84019482Y-52275812D01*
X84080000Y-52257454D01*
X84140518Y-52275812D01*
X84265000Y-52288072D01*
X85165000Y-52288072D01*
X85289482Y-52275812D01*
X85409180Y-52239502D01*
X85519494Y-52180537D01*
X85616185Y-52101185D01*
X85695537Y-52004494D01*
X85754502Y-51894180D01*
X85790812Y-51774482D01*
X85803072Y-51650000D01*
X85803072Y-49650000D01*
X85790812Y-49525518D01*
X85754502Y-49405820D01*
X85695537Y-49295506D01*
X85616185Y-49198815D01*
X85519494Y-49119463D01*
X85409180Y-49060498D01*
X85289482Y-49024188D01*
X85165000Y-49011928D01*
X84265000Y-49011928D01*
X84140518Y-49024188D01*
X84080000Y-49042546D01*
X84019482Y-49024188D01*
X83895000Y-49011928D01*
X82995000Y-49011928D01*
X82870518Y-49024188D01*
X82810000Y-49042546D01*
X82749482Y-49024188D01*
X82625000Y-49011928D01*
X81725000Y-49011928D01*
X81600518Y-49024188D01*
X81540000Y-49042546D01*
X81479482Y-49024188D01*
X81355000Y-49011928D01*
X80455000Y-49011928D01*
X80330518Y-49024188D01*
X80270000Y-49042546D01*
X80209482Y-49024188D01*
X80085000Y-49011928D01*
X79185000Y-49011928D01*
X79060518Y-49024188D01*
X79000000Y-49042546D01*
X78939482Y-49024188D01*
X78815000Y-49011928D01*
X77915000Y-49011928D01*
X77790518Y-49024188D01*
X77730000Y-49042546D01*
X77669482Y-49024188D01*
X77545000Y-49011928D01*
X76645000Y-49011928D01*
X76520518Y-49024188D01*
X76460000Y-49042546D01*
X76399482Y-49024188D01*
X76275000Y-49011928D01*
X75375000Y-49011928D01*
X75250518Y-49024188D01*
X75190000Y-49042546D01*
X75129482Y-49024188D01*
X75005000Y-49011928D01*
X74105000Y-49011928D01*
X73980518Y-49024188D01*
X73920000Y-49042546D01*
X73859482Y-49024188D01*
X73735000Y-49011928D01*
X73570750Y-49015000D01*
X73412000Y-49173750D01*
X73158000Y-49173750D01*
X72999250Y-49015000D01*
X72835000Y-49011928D01*
X72710518Y-49024188D01*
X72590820Y-49060498D01*
X72480506Y-49119463D01*
X72383815Y-49198815D01*
X72304463Y-49295506D01*
X72245498Y-49405820D01*
X72209188Y-49525518D01*
X72196928Y-49650000D01*
X72138072Y-49650000D01*
X72138072Y-49200000D01*
X72125812Y-49075518D01*
X72107454Y-49015000D01*
X72125812Y-48954482D01*
X72138072Y-48830000D01*
X72138072Y-47930000D01*
X72125812Y-47805518D01*
X72107454Y-47745000D01*
X72125812Y-47684482D01*
X72138072Y-47560000D01*
X72138072Y-46660000D01*
X72125812Y-46535518D01*
X72107454Y-46475000D01*
X72125812Y-46414482D01*
X72138072Y-46290000D01*
X72138072Y-45390000D01*
X72125812Y-45265518D01*
X72107454Y-45205000D01*
X72125812Y-45144482D01*
X72138072Y-45020000D01*
X72138072Y-44120000D01*
X72125812Y-43995518D01*
X72107454Y-43935000D01*
X72125812Y-43874482D01*
X72138072Y-43750000D01*
X72138072Y-43140000D01*
X74861928Y-43140000D01*
X74874188Y-43264482D01*
X74910498Y-43384180D01*
X74969463Y-43494494D01*
X75048815Y-43591185D01*
X75145506Y-43670537D01*
X75255820Y-43729502D01*
X75375518Y-43765812D01*
X75500000Y-43778072D01*
X77714250Y-43775000D01*
X77873000Y-43616250D01*
X77873000Y-40767000D01*
X78127000Y-40767000D01*
X78127000Y-43616250D01*
X78285750Y-43775000D01*
X80500000Y-43778072D01*
X80624482Y-43765812D01*
X80744180Y-43729502D01*
X80854494Y-43670537D01*
X80951185Y-43591185D01*
X81030537Y-43494494D01*
X81089502Y-43384180D01*
X81125812Y-43264482D01*
X81138072Y-43140000D01*
X81135000Y-40925750D01*
X80976250Y-40767000D01*
X78127000Y-40767000D01*
X77873000Y-40767000D01*
X75023750Y-40767000D01*
X74865000Y-40925750D01*
X74861928Y-43140000D01*
X72138072Y-43140000D01*
X72138072Y-42850000D01*
X72125812Y-42725518D01*
X72107454Y-42665000D01*
X72125812Y-42604482D01*
X72138072Y-42480000D01*
X72138072Y-41580000D01*
X72125812Y-41455518D01*
X72107454Y-41395000D01*
X72125812Y-41334482D01*
X72138072Y-41210000D01*
X72138072Y-40310000D01*
X72125812Y-40185518D01*
X72107454Y-40125000D01*
X72125812Y-40064482D01*
X72138072Y-39940000D01*
X72138072Y-39040000D01*
X72125812Y-38915518D01*
X72107454Y-38855000D01*
X72125812Y-38794482D01*
X72138072Y-38670000D01*
X72138072Y-38140000D01*
X74861928Y-38140000D01*
X74865000Y-40354250D01*
X75023750Y-40513000D01*
X77873000Y-40513000D01*
X77873000Y-37663750D01*
X78127000Y-37663750D01*
X78127000Y-40513000D01*
X80976250Y-40513000D01*
X81135000Y-40354250D01*
X81138072Y-38140000D01*
X81125812Y-38015518D01*
X81089502Y-37895820D01*
X81030537Y-37785506D01*
X80951185Y-37688815D01*
X80854494Y-37609463D01*
X80744180Y-37550498D01*
X80624482Y-37514188D01*
X80500000Y-37501928D01*
X78285750Y-37505000D01*
X78127000Y-37663750D01*
X77873000Y-37663750D01*
X77714250Y-37505000D01*
X75500000Y-37501928D01*
X75375518Y-37514188D01*
X75255820Y-37550498D01*
X75145506Y-37609463D01*
X75048815Y-37688815D01*
X74969463Y-37785506D01*
X74910498Y-37895820D01*
X74874188Y-38015518D01*
X74861928Y-38140000D01*
X72138072Y-38140000D01*
X72138072Y-37770000D01*
X72125812Y-37645518D01*
X72107454Y-37585000D01*
X72125812Y-37524482D01*
X72138072Y-37400000D01*
X72138072Y-36535000D01*
X73321289Y-36535000D01*
X73340226Y-36553937D01*
X73509744Y-36667205D01*
X73698102Y-36745226D01*
X73898061Y-36785000D01*
X74101939Y-36785000D01*
X74301898Y-36745226D01*
X74490256Y-36667205D01*
X74659774Y-36553937D01*
X74803937Y-36409774D01*
X74917205Y-36240256D01*
X74995226Y-36051898D01*
X75035000Y-35851939D01*
X75035000Y-35648061D01*
X74995226Y-35448102D01*
X74917205Y-35259744D01*
X74803937Y-35090226D01*
X74724360Y-35010649D01*
X74801898Y-34995226D01*
X74990256Y-34917205D01*
X75159774Y-34803937D01*
X75303937Y-34659774D01*
X75417205Y-34490256D01*
X75495226Y-34301898D01*
X75535000Y-34101939D01*
X75535000Y-33898061D01*
X75495226Y-33698102D01*
X75450449Y-33590000D01*
X85861928Y-33590000D01*
X85874188Y-33714482D01*
X85892546Y-33775000D01*
X85874188Y-33835518D01*
X85861928Y-33960000D01*
X85861928Y-34860000D01*
X85874188Y-34984482D01*
X85892546Y-35045000D01*
X85874188Y-35105518D01*
X85861928Y-35230000D01*
X85861928Y-36130000D01*
X85874188Y-36254482D01*
X85892546Y-36315000D01*
X85874188Y-36375518D01*
X85861928Y-36500000D01*
X85861928Y-37400000D01*
X85874188Y-37524482D01*
X85892546Y-37585000D01*
X85874188Y-37645518D01*
X85861928Y-37770000D01*
X85861928Y-38670000D01*
X85874188Y-38794482D01*
X85892546Y-38855000D01*
X85874188Y-38915518D01*
X85861928Y-39040000D01*
X85861928Y-39940000D01*
X85874188Y-40064482D01*
X85892546Y-40125000D01*
X85874188Y-40185518D01*
X85861928Y-40310000D01*
X85861928Y-41210000D01*
X85874188Y-41334482D01*
X85892546Y-41395000D01*
X85874188Y-41455518D01*
X85861928Y-41580000D01*
X85861928Y-42480000D01*
X85874188Y-42604482D01*
X85892546Y-42665000D01*
X85874188Y-42725518D01*
X85861928Y-42850000D01*
X85861928Y-43750000D01*
X85874188Y-43874482D01*
X85892546Y-43935000D01*
X85874188Y-43995518D01*
X85861928Y-44120000D01*
X85861928Y-45020000D01*
X85874188Y-45144482D01*
X85892546Y-45205000D01*
X85874188Y-45265518D01*
X85861928Y-45390000D01*
X85861928Y-46290000D01*
X85874188Y-46414482D01*
X85892546Y-46475000D01*
X85874188Y-46535518D01*
X85861928Y-46660000D01*
X85861928Y-47560000D01*
X85874188Y-47684482D01*
X85892546Y-47745000D01*
X85874188Y-47805518D01*
X85861928Y-47930000D01*
X85861928Y-48830000D01*
X85874188Y-48954482D01*
X85892546Y-49015000D01*
X85874188Y-49075518D01*
X85861928Y-49200000D01*
X85861928Y-50100000D01*
X85874188Y-50224482D01*
X85910498Y-50344180D01*
X85969463Y-50454494D01*
X86048815Y-50551185D01*
X86145506Y-50630537D01*
X86255820Y-50689502D01*
X86375518Y-50725812D01*
X86500000Y-50738072D01*
X86715000Y-50738072D01*
X86715001Y-54461437D01*
X86711203Y-54500000D01*
X86726359Y-54653886D01*
X86771246Y-54801859D01*
X86805177Y-54865340D01*
X86844139Y-54938233D01*
X86852270Y-54948140D01*
X86917655Y-55027812D01*
X86917659Y-55027816D01*
X86942237Y-55057764D01*
X86972185Y-55082342D01*
X87215000Y-55325157D01*
X87215000Y-55351939D01*
X87254774Y-55551898D01*
X87332795Y-55740256D01*
X87446063Y-55909774D01*
X87590226Y-56053937D01*
X87759744Y-56167205D01*
X87948102Y-56245226D01*
X88148061Y-56285000D01*
X88351939Y-56285000D01*
X88551898Y-56245226D01*
X88740256Y-56167205D01*
X88909774Y-56053937D01*
X89053937Y-55909774D01*
X89167205Y-55740256D01*
X89245226Y-55551898D01*
X89285000Y-55351939D01*
X89285000Y-55148061D01*
X89245226Y-54948102D01*
X89167205Y-54759744D01*
X89053937Y-54590226D01*
X88909774Y-54446063D01*
X88740256Y-54332795D01*
X88551898Y-54254774D01*
X88351939Y-54215000D01*
X88325157Y-54215000D01*
X88285000Y-54174843D01*
X88285000Y-50738072D01*
X88500000Y-50738072D01*
X88624482Y-50725812D01*
X88744180Y-50689502D01*
X88854494Y-50630537D01*
X88951185Y-50551185D01*
X89030537Y-50454494D01*
X89089502Y-50344180D01*
X89125812Y-50224482D01*
X89138072Y-50100000D01*
X89138072Y-49200000D01*
X89125812Y-49075518D01*
X89107454Y-49015000D01*
X89125812Y-48954482D01*
X89134645Y-48864800D01*
X90215000Y-49945156D01*
X90215001Y-70711437D01*
X90211203Y-70750000D01*
X90226359Y-70903886D01*
X90271246Y-71051859D01*
X90293845Y-71094139D01*
X90344139Y-71188233D01*
X90377394Y-71228754D01*
X90417655Y-71277812D01*
X90417659Y-71277816D01*
X90442237Y-71307764D01*
X90472185Y-71332342D01*
X92215000Y-73075158D01*
X92215001Y-82230728D01*
X92083434Y-82285225D01*
X91766509Y-82496987D01*
X91496987Y-82766509D01*
X91285225Y-83083434D01*
X91139361Y-83435581D01*
X91065000Y-83809419D01*
X91065000Y-84190581D01*
X91139361Y-84564419D01*
X91285225Y-84916566D01*
X91496987Y-85233491D01*
X91766509Y-85503013D01*
X92083434Y-85714775D01*
X92435581Y-85860639D01*
X92809419Y-85935000D01*
X93190581Y-85935000D01*
X93564419Y-85860639D01*
X93916566Y-85714775D01*
X94233491Y-85503013D01*
X94503013Y-85233491D01*
X94714775Y-84916566D01*
X94860639Y-84564419D01*
X94935000Y-84190581D01*
X94935000Y-83809419D01*
X94929123Y-83779872D01*
X98765000Y-83779872D01*
X98765000Y-84220128D01*
X98850890Y-84651925D01*
X99019369Y-85058669D01*
X99263962Y-85424729D01*
X99575271Y-85736038D01*
X99941331Y-85980631D01*
X100348075Y-86149110D01*
X100779872Y-86235000D01*
X101220128Y-86235000D01*
X101651925Y-86149110D01*
X102058669Y-85980631D01*
X102424729Y-85736038D01*
X102736038Y-85424729D01*
X102980631Y-85058669D01*
X103149110Y-84651925D01*
X103235000Y-84220128D01*
X103235000Y-83779872D01*
X103149110Y-83348075D01*
X102980631Y-82941331D01*
X102736038Y-82575271D01*
X102424729Y-82263962D01*
X102058669Y-82019369D01*
X101651925Y-81850890D01*
X101220128Y-81765000D01*
X100779872Y-81765000D01*
X100348075Y-81850890D01*
X99941331Y-82019369D01*
X99575271Y-82263962D01*
X99263962Y-82575271D01*
X99019369Y-82941331D01*
X98850890Y-83348075D01*
X98765000Y-83779872D01*
X94929123Y-83779872D01*
X94860639Y-83435581D01*
X94714775Y-83083434D01*
X94503013Y-82766509D01*
X94233491Y-82496987D01*
X93916566Y-82285225D01*
X93785000Y-82230729D01*
X93785000Y-72788552D01*
X93788797Y-72749999D01*
X93785000Y-72711446D01*
X93785000Y-72711439D01*
X93773641Y-72596113D01*
X93763223Y-72561767D01*
X93728754Y-72448140D01*
X93706156Y-72405862D01*
X93655862Y-72311767D01*
X93604198Y-72248815D01*
X93582345Y-72222187D01*
X93582342Y-72222184D01*
X93557764Y-72192236D01*
X93527817Y-72167659D01*
X91785000Y-70424843D01*
X91785000Y-65895157D01*
X99061928Y-73172086D01*
X99061928Y-75300000D01*
X99074188Y-75424482D01*
X99110498Y-75544180D01*
X99169463Y-75654494D01*
X99248815Y-75751185D01*
X99345506Y-75830537D01*
X99455820Y-75889502D01*
X99575518Y-75925812D01*
X99700000Y-75938072D01*
X102300000Y-75938072D01*
X102424482Y-75925812D01*
X102544180Y-75889502D01*
X102654494Y-75830537D01*
X102751185Y-75751185D01*
X102830537Y-75654494D01*
X102889502Y-75544180D01*
X102925812Y-75424482D01*
X102938072Y-75300000D01*
X102938072Y-72700000D01*
X102925812Y-72575518D01*
X102889502Y-72455820D01*
X102830537Y-72345506D01*
X102751185Y-72248815D01*
X102654494Y-72169463D01*
X102544180Y-72110498D01*
X102424482Y-72074188D01*
X102300000Y-72061928D01*
X100172086Y-72061928D01*
X92385011Y-64274854D01*
X92385011Y-61495168D01*
X99193858Y-68304015D01*
X99139361Y-68435581D01*
X99065000Y-68809419D01*
X99065000Y-69190581D01*
X99139361Y-69564419D01*
X99285225Y-69916566D01*
X99496987Y-70233491D01*
X99766509Y-70503013D01*
X100083434Y-70714775D01*
X100435581Y-70860639D01*
X100809419Y-70935000D01*
X101190581Y-70935000D01*
X101564419Y-70860639D01*
X101916566Y-70714775D01*
X102233491Y-70503013D01*
X102503013Y-70233491D01*
X102714775Y-69916566D01*
X102860639Y-69564419D01*
X102935000Y-69190581D01*
X102935000Y-68809419D01*
X102860639Y-68435581D01*
X102714775Y-68083434D01*
X102503013Y-67766509D01*
X102233491Y-67496987D01*
X101916566Y-67285225D01*
X101564419Y-67139361D01*
X101190581Y-67065000D01*
X100809419Y-67065000D01*
X100435581Y-67139361D01*
X100304015Y-67193858D01*
X93035000Y-59924843D01*
X93035000Y-57145157D01*
X99193857Y-63304015D01*
X99139361Y-63435581D01*
X99065000Y-63809419D01*
X99065000Y-64190581D01*
X99139361Y-64564419D01*
X99285225Y-64916566D01*
X99496987Y-65233491D01*
X99766509Y-65503013D01*
X100083434Y-65714775D01*
X100435581Y-65860639D01*
X100809419Y-65935000D01*
X101190581Y-65935000D01*
X101564419Y-65860639D01*
X101916566Y-65714775D01*
X102233491Y-65503013D01*
X102503013Y-65233491D01*
X102714775Y-64916566D01*
X102860639Y-64564419D01*
X102935000Y-64190581D01*
X102935000Y-63809419D01*
X102860639Y-63435581D01*
X102714775Y-63083434D01*
X102503013Y-62766509D01*
X102233491Y-62496987D01*
X101916566Y-62285225D01*
X101564419Y-62139361D01*
X101190581Y-62065000D01*
X100809419Y-62065000D01*
X100435581Y-62139361D01*
X100304015Y-62193857D01*
X93785000Y-55674843D01*
X93785000Y-55556890D01*
X96308524Y-55556890D01*
X96353175Y-55704099D01*
X96478359Y-55966920D01*
X96652412Y-56200269D01*
X96868645Y-56395178D01*
X97118748Y-56544157D01*
X97393109Y-56641481D01*
X97623000Y-56520814D01*
X97623000Y-55327000D01*
X97877000Y-55327000D01*
X97877000Y-56520814D01*
X98106891Y-56641481D01*
X98381252Y-56544157D01*
X98631355Y-56395178D01*
X98847588Y-56200269D01*
X99021641Y-55966920D01*
X99146825Y-55704099D01*
X99191476Y-55556890D01*
X99070155Y-55327000D01*
X97877000Y-55327000D01*
X97623000Y-55327000D01*
X96429845Y-55327000D01*
X96308524Y-55556890D01*
X93785000Y-55556890D01*
X93785000Y-47848550D01*
X93788797Y-47809997D01*
X93785000Y-47771444D01*
X93785000Y-47771437D01*
X93773641Y-47656111D01*
X93768091Y-47637813D01*
X93753951Y-47591203D01*
X93728754Y-47508138D01*
X93655862Y-47371765D01*
X93557764Y-47252234D01*
X93527817Y-47227657D01*
X89136752Y-42836592D01*
X89125812Y-42725518D01*
X89107454Y-42665000D01*
X89125812Y-42604482D01*
X89138072Y-42480000D01*
X89138072Y-41580000D01*
X89125812Y-41455518D01*
X89107454Y-41395000D01*
X89125812Y-41334482D01*
X89138072Y-41210000D01*
X89138072Y-40310000D01*
X89125812Y-40185518D01*
X89107454Y-40125000D01*
X89125812Y-40064482D01*
X89138072Y-39940000D01*
X89138072Y-39572984D01*
X89196063Y-39659774D01*
X89340226Y-39803937D01*
X89509744Y-39917205D01*
X89698102Y-39995226D01*
X89898061Y-40035000D01*
X90101939Y-40035000D01*
X90301898Y-39995226D01*
X90490256Y-39917205D01*
X90659774Y-39803937D01*
X90803937Y-39659774D01*
X90917205Y-39490256D01*
X90995226Y-39301898D01*
X91035000Y-39101939D01*
X91035000Y-38898061D01*
X90995226Y-38698102D01*
X90917205Y-38509744D01*
X90803937Y-38340226D01*
X90659774Y-38196063D01*
X90553420Y-38125000D01*
X90659774Y-38053937D01*
X90803937Y-37909774D01*
X90917205Y-37740256D01*
X90979560Y-37589718D01*
X91167658Y-37777816D01*
X91192236Y-37807764D01*
X91222184Y-37832342D01*
X91222187Y-37832345D01*
X91245144Y-37851185D01*
X91311767Y-37905862D01*
X91448140Y-37978754D01*
X91533917Y-38004774D01*
X91596112Y-38023641D01*
X91609911Y-38025000D01*
X91711439Y-38035000D01*
X91711446Y-38035000D01*
X91749999Y-38038797D01*
X91788552Y-38035000D01*
X92092024Y-38035000D01*
X92136595Y-38118386D01*
X92247038Y-38252962D01*
X92381614Y-38363405D01*
X92535150Y-38445472D01*
X92701746Y-38496008D01*
X92875000Y-38513072D01*
X93678069Y-38513072D01*
X93509744Y-38582795D01*
X93340226Y-38696063D01*
X93196063Y-38840226D01*
X93082795Y-39009744D01*
X93004774Y-39198102D01*
X92965000Y-39398061D01*
X92965000Y-39601939D01*
X93004774Y-39801898D01*
X93082795Y-39990256D01*
X93196063Y-40159774D01*
X93215001Y-40178712D01*
X93215000Y-46331447D01*
X93211203Y-46370000D01*
X93215000Y-46408553D01*
X93215000Y-46408560D01*
X93226359Y-46523886D01*
X93271246Y-46671859D01*
X93344138Y-46808232D01*
X93442236Y-46927764D01*
X93472190Y-46952347D01*
X96302925Y-49783082D01*
X96265000Y-49973740D01*
X96265000Y-50266260D01*
X96322068Y-50553158D01*
X96434010Y-50823411D01*
X96596525Y-51066632D01*
X96803368Y-51273475D01*
X96977760Y-51390000D01*
X96803368Y-51506525D01*
X96596525Y-51713368D01*
X96434010Y-51956589D01*
X96322068Y-52226842D01*
X96265000Y-52513740D01*
X96265000Y-52806260D01*
X96322068Y-53093158D01*
X96434010Y-53363411D01*
X96596525Y-53606632D01*
X96803368Y-53813475D01*
X96985534Y-53935195D01*
X96868645Y-54004822D01*
X96652412Y-54199731D01*
X96478359Y-54433080D01*
X96353175Y-54695901D01*
X96308524Y-54843110D01*
X96429845Y-55073000D01*
X97623000Y-55073000D01*
X97623000Y-55053000D01*
X97877000Y-55053000D01*
X97877000Y-55073000D01*
X99070155Y-55073000D01*
X99191476Y-54843110D01*
X99146825Y-54695901D01*
X99021641Y-54433080D01*
X98847588Y-54199731D01*
X98631355Y-54004822D01*
X98514466Y-53935195D01*
X98696632Y-53813475D01*
X98903475Y-53606632D01*
X99011474Y-53445000D01*
X99371447Y-53445000D01*
X99410000Y-53448797D01*
X99448553Y-53445000D01*
X99448561Y-53445000D01*
X99563887Y-53433641D01*
X99711860Y-53388754D01*
X99848233Y-53315862D01*
X99967764Y-53217764D01*
X99992347Y-53187810D01*
X101027810Y-52152347D01*
X101057764Y-52127764D01*
X101155862Y-52008233D01*
X101228754Y-51871860D01*
X101238983Y-51838139D01*
X101273642Y-51723887D01*
X101283999Y-51618720D01*
X101285000Y-51608561D01*
X101285000Y-51608556D01*
X101288797Y-51570000D01*
X101285000Y-51531444D01*
X101285000Y-41038556D01*
X101288797Y-41000000D01*
X101285000Y-40961440D01*
X101285000Y-40961439D01*
X101281020Y-40921026D01*
X101273642Y-40846113D01*
X101228754Y-40698140D01*
X101206156Y-40655862D01*
X101155862Y-40561767D01*
X101057764Y-40442236D01*
X101027811Y-40417654D01*
X97332345Y-36722188D01*
X97307764Y-36692236D01*
X97188233Y-36594138D01*
X97051860Y-36521246D01*
X96903887Y-36476359D01*
X96788561Y-36465000D01*
X96788553Y-36465000D01*
X96750000Y-36461203D01*
X96711447Y-36465000D01*
X94907976Y-36465000D01*
X94863405Y-36381614D01*
X94752962Y-36247038D01*
X94618386Y-36136595D01*
X94464850Y-36054528D01*
X94298254Y-36003992D01*
X94125000Y-35986928D01*
X92875000Y-35986928D01*
X92701746Y-36003992D01*
X92535150Y-36054528D01*
X92381614Y-36136595D01*
X92247038Y-36247038D01*
X92136595Y-36381614D01*
X92092024Y-36465000D01*
X92075158Y-36465000D01*
X91285000Y-35674843D01*
X91285000Y-35648061D01*
X91245226Y-35448102D01*
X91167205Y-35259744D01*
X91150672Y-35235000D01*
X92092024Y-35235000D01*
X92136595Y-35318386D01*
X92247038Y-35452962D01*
X92381614Y-35563405D01*
X92535150Y-35645472D01*
X92701746Y-35696008D01*
X92875000Y-35713072D01*
X93718801Y-35713072D01*
X93748140Y-35728754D01*
X93861672Y-35763194D01*
X93896112Y-35773641D01*
X93910490Y-35775057D01*
X94011439Y-35785000D01*
X94011446Y-35785000D01*
X94049999Y-35788797D01*
X94088552Y-35785000D01*
X95321289Y-35785000D01*
X95340226Y-35803937D01*
X95509744Y-35917205D01*
X95698102Y-35995226D01*
X95898061Y-36035000D01*
X96101939Y-36035000D01*
X96301898Y-35995226D01*
X96490256Y-35917205D01*
X96659774Y-35803937D01*
X96803937Y-35659774D01*
X96917205Y-35490256D01*
X96995226Y-35301898D01*
X97035000Y-35101939D01*
X97035000Y-34898061D01*
X97011491Y-34779872D01*
X98765000Y-34779872D01*
X98765000Y-35220128D01*
X98850890Y-35651925D01*
X99019369Y-36058669D01*
X99263962Y-36424729D01*
X99575271Y-36736038D01*
X99941331Y-36980631D01*
X100348075Y-37149110D01*
X100779872Y-37235000D01*
X101220128Y-37235000D01*
X101651925Y-37149110D01*
X102058669Y-36980631D01*
X102424729Y-36736038D01*
X102736038Y-36424729D01*
X102980631Y-36058669D01*
X103149110Y-35651925D01*
X103235000Y-35220128D01*
X103235000Y-34779872D01*
X103149110Y-34348075D01*
X102980631Y-33941331D01*
X102736038Y-33575271D01*
X102424729Y-33263962D01*
X102058669Y-33019369D01*
X101651925Y-32850890D01*
X101220128Y-32765000D01*
X100779872Y-32765000D01*
X100348075Y-32850890D01*
X99941331Y-33019369D01*
X99575271Y-33263962D01*
X99263962Y-33575271D01*
X99019369Y-33941331D01*
X98850890Y-34348075D01*
X98765000Y-34779872D01*
X97011491Y-34779872D01*
X96995226Y-34698102D01*
X96917205Y-34509744D01*
X96803937Y-34340226D01*
X96659774Y-34196063D01*
X96490256Y-34082795D01*
X96301898Y-34004774D01*
X96101939Y-33965000D01*
X95898061Y-33965000D01*
X95698102Y-34004774D01*
X95509744Y-34082795D01*
X95340226Y-34196063D01*
X95321289Y-34215000D01*
X95013072Y-34215000D01*
X95013072Y-34075000D01*
X94996008Y-33901746D01*
X94945472Y-33735150D01*
X94863405Y-33581614D01*
X94752962Y-33447038D01*
X94618386Y-33336595D01*
X94464850Y-33254528D01*
X94298254Y-33203992D01*
X94125000Y-33186928D01*
X92875000Y-33186928D01*
X92701746Y-33203992D01*
X92535150Y-33254528D01*
X92381614Y-33336595D01*
X92247038Y-33447038D01*
X92136595Y-33581614D01*
X92092024Y-33665000D01*
X91481515Y-33665000D01*
X91417205Y-33509744D01*
X91303937Y-33340226D01*
X91159774Y-33196063D01*
X90990256Y-33082795D01*
X90801898Y-33004774D01*
X90601939Y-32965000D01*
X90398061Y-32965000D01*
X90198102Y-33004774D01*
X90009744Y-33082795D01*
X89840226Y-33196063D01*
X89696063Y-33340226D01*
X89582795Y-33509744D01*
X89504774Y-33698102D01*
X89465000Y-33898061D01*
X89465000Y-34101939D01*
X89504774Y-34301898D01*
X89582795Y-34490256D01*
X89696063Y-34659774D01*
X89837059Y-34800770D01*
X89759744Y-34832795D01*
X89590226Y-34946063D01*
X89446063Y-35090226D01*
X89332795Y-35259744D01*
X89254774Y-35448102D01*
X89215000Y-35648061D01*
X89215000Y-35851939D01*
X89254774Y-36051898D01*
X89322334Y-36215000D01*
X89129701Y-36215000D01*
X89138072Y-36130000D01*
X89138072Y-35230000D01*
X89125812Y-35105518D01*
X89107454Y-35045000D01*
X89125812Y-34984482D01*
X89138072Y-34860000D01*
X89138072Y-33960000D01*
X89125812Y-33835518D01*
X89107454Y-33775000D01*
X89125812Y-33714482D01*
X89138072Y-33590000D01*
X89135000Y-33425750D01*
X88976250Y-33267000D01*
X87627000Y-33267000D01*
X87627000Y-33287000D01*
X87373000Y-33287000D01*
X87373000Y-33267000D01*
X86023750Y-33267000D01*
X85865000Y-33425750D01*
X85861928Y-33590000D01*
X75450449Y-33590000D01*
X75417205Y-33509744D01*
X75303937Y-33340226D01*
X75159774Y-33196063D01*
X74990256Y-33082795D01*
X74801898Y-33004774D01*
X74601939Y-32965000D01*
X74398061Y-32965000D01*
X74198102Y-33004774D01*
X74009744Y-33082795D01*
X73840226Y-33196063D01*
X73696063Y-33340226D01*
X73582795Y-33509744D01*
X73535054Y-33625000D01*
X72134625Y-33625000D01*
X72138072Y-33590000D01*
X72135000Y-33425750D01*
X71976250Y-33267000D01*
X70627000Y-33267000D01*
X70627000Y-33287000D01*
X70373000Y-33287000D01*
X70373000Y-33267000D01*
X69023750Y-33267000D01*
X68865000Y-33425750D01*
X68861928Y-33590000D01*
X68874188Y-33714482D01*
X68892546Y-33775000D01*
X68880412Y-33815000D01*
X65407976Y-33815000D01*
X65363405Y-33731614D01*
X65252962Y-33597038D01*
X65118386Y-33486595D01*
X64964850Y-33404528D01*
X64798254Y-33353992D01*
X64625000Y-33336928D01*
X63375000Y-33336928D01*
X63201746Y-33353992D01*
X63035150Y-33404528D01*
X62881614Y-33486595D01*
X62747038Y-33597038D01*
X62636595Y-33731614D01*
X62592024Y-33815000D01*
X61438552Y-33815000D01*
X61399999Y-33811203D01*
X61361446Y-33815000D01*
X61361439Y-33815000D01*
X61260490Y-33824943D01*
X61246112Y-33826359D01*
X61215920Y-33835518D01*
X61098140Y-33871246D01*
X60961767Y-33944138D01*
X60901559Y-33993550D01*
X60872187Y-34017655D01*
X60872184Y-34017658D01*
X60842236Y-34042236D01*
X60817658Y-34072184D01*
X55674843Y-39215000D01*
X53285000Y-39215000D01*
X53285000Y-38441877D01*
X53542252Y-38269987D01*
X53769987Y-38042252D01*
X53948918Y-37774463D01*
X54072168Y-37476912D01*
X54135000Y-37161033D01*
X54135000Y-36838967D01*
X54072168Y-36523088D01*
X53948918Y-36225537D01*
X53769987Y-35957748D01*
X53542252Y-35730013D01*
X53274463Y-35551082D01*
X52976912Y-35427832D01*
X52661033Y-35365000D01*
X52338967Y-35365000D01*
X52023088Y-35427832D01*
X51725537Y-35551082D01*
X51457748Y-35730013D01*
X51230013Y-35957748D01*
X51051082Y-36225537D01*
X50927832Y-36523088D01*
X50865000Y-36838967D01*
X50865000Y-37161033D01*
X50927832Y-37476912D01*
X51051082Y-37774463D01*
X51230013Y-38042252D01*
X51457748Y-38269987D01*
X51715000Y-38441878D01*
X51715001Y-39961430D01*
X51711202Y-40000000D01*
X51715001Y-40038571D01*
X51715000Y-50174843D01*
X46472185Y-55417658D01*
X46447815Y-55437658D01*
X46365000Y-55354843D01*
X46365000Y-53427956D01*
X46466235Y-53373845D01*
X46707963Y-53175463D01*
X46906345Y-52933734D01*
X47053755Y-52657948D01*
X47144530Y-52358703D01*
X47167500Y-52125485D01*
X47167500Y-51874514D01*
X47144530Y-51641296D01*
X47053755Y-51342051D01*
X46906345Y-51066265D01*
X46707963Y-50824537D01*
X46466234Y-50626155D01*
X46190448Y-50478745D01*
X45891203Y-50387970D01*
X45580000Y-50357319D01*
X45268796Y-50387970D01*
X44969551Y-50478745D01*
X44693765Y-50626155D01*
X44452037Y-50824537D01*
X44304838Y-51003900D01*
X44149437Y-50818685D01*
X43906923Y-50624031D01*
X43631094Y-50480429D01*
X43412980Y-50409437D01*
X43167000Y-50529406D01*
X43167000Y-51873000D01*
X43187000Y-51873000D01*
X43187000Y-52127000D01*
X43167000Y-52127000D01*
X43167000Y-53470594D01*
X43412980Y-53590563D01*
X43631094Y-53519571D01*
X43906923Y-53375969D01*
X44149437Y-53181315D01*
X44304837Y-52996101D01*
X44452037Y-53175463D01*
X44693766Y-53373845D01*
X44795000Y-53427956D01*
X44795001Y-55641437D01*
X44791203Y-55680000D01*
X44806359Y-55833886D01*
X44851246Y-55981859D01*
X44860943Y-56000000D01*
X44924139Y-56118233D01*
X44953399Y-56153886D01*
X44997655Y-56207812D01*
X44997659Y-56207816D01*
X45022237Y-56237764D01*
X45052185Y-56262342D01*
X45489431Y-56699588D01*
X45486928Y-56725000D01*
X45486928Y-57475000D01*
X45503992Y-57648254D01*
X45554528Y-57814850D01*
X45636595Y-57968386D01*
X45747038Y-58102962D01*
X45881614Y-58213405D01*
X46035150Y-58295472D01*
X46201746Y-58346008D01*
X46375000Y-58363072D01*
X47625000Y-58363072D01*
X47798254Y-58346008D01*
X47964850Y-58295472D01*
X48118386Y-58213405D01*
X48252962Y-58102962D01*
X48270920Y-58081079D01*
X49614999Y-59425158D01*
X49615000Y-66666151D01*
X49490248Y-66582795D01*
X49301890Y-66504774D01*
X49101931Y-66465000D01*
X48898053Y-66465000D01*
X48698094Y-66504774D01*
X48509736Y-66582795D01*
X48340218Y-66696063D01*
X48196055Y-66840226D01*
X48082787Y-67009744D01*
X48004766Y-67198102D01*
X47964992Y-67398061D01*
X47964992Y-67601939D01*
X48004766Y-67801898D01*
X48082787Y-67990256D01*
X48196055Y-68159774D01*
X48213062Y-68176781D01*
X44377915Y-72011928D01*
X43725000Y-72011928D01*
X43600518Y-72024188D01*
X43480820Y-72060498D01*
X43370506Y-72119463D01*
X43273815Y-72198815D01*
X43194463Y-72295506D01*
X43135498Y-72405820D01*
X43099188Y-72525518D01*
X43086928Y-72650000D01*
X39960157Y-72650000D01*
X41527817Y-71082341D01*
X41557764Y-71057764D01*
X41655862Y-70938233D01*
X41728754Y-70801860D01*
X41755171Y-70714775D01*
X41773642Y-70653887D01*
X41781020Y-70578974D01*
X41785000Y-70538561D01*
X41785000Y-70538556D01*
X41788797Y-70500000D01*
X41785000Y-70461444D01*
X41785000Y-69350000D01*
X43086928Y-69350000D01*
X43099188Y-69474482D01*
X43135498Y-69594180D01*
X43194463Y-69704494D01*
X43273815Y-69801185D01*
X43370506Y-69880537D01*
X43480820Y-69939502D01*
X43600518Y-69975812D01*
X43725000Y-69988072D01*
X43939250Y-69985000D01*
X44098000Y-69826250D01*
X44098000Y-69127000D01*
X44352000Y-69127000D01*
X44352000Y-69826250D01*
X44510750Y-69985000D01*
X44725000Y-69988072D01*
X44849482Y-69975812D01*
X44969180Y-69939502D01*
X45079494Y-69880537D01*
X45176185Y-69801185D01*
X45255537Y-69704494D01*
X45314502Y-69594180D01*
X45350812Y-69474482D01*
X45363072Y-69350000D01*
X45360000Y-69285750D01*
X45201250Y-69127000D01*
X44352000Y-69127000D01*
X44098000Y-69127000D01*
X43248750Y-69127000D01*
X43090000Y-69285750D01*
X43086928Y-69350000D01*
X41785000Y-69350000D01*
X41785000Y-68650000D01*
X43086928Y-68650000D01*
X43090000Y-68714250D01*
X43248750Y-68873000D01*
X44098000Y-68873000D01*
X44098000Y-68173750D01*
X44352000Y-68173750D01*
X44352000Y-68873000D01*
X45201250Y-68873000D01*
X45360000Y-68714250D01*
X45363072Y-68650000D01*
X45350812Y-68525518D01*
X45314502Y-68405820D01*
X45255537Y-68295506D01*
X45176185Y-68198815D01*
X45079494Y-68119463D01*
X44969180Y-68060498D01*
X44849482Y-68024188D01*
X44725000Y-68011928D01*
X44510750Y-68015000D01*
X44352000Y-68173750D01*
X44098000Y-68173750D01*
X43939250Y-68015000D01*
X43725000Y-68011928D01*
X43600518Y-68024188D01*
X43480820Y-68060498D01*
X43370506Y-68119463D01*
X43273815Y-68198815D01*
X43194463Y-68295506D01*
X43135498Y-68405820D01*
X43099188Y-68525518D01*
X43086928Y-68650000D01*
X41785000Y-68650000D01*
X41785000Y-66038552D01*
X41788797Y-65999999D01*
X41785000Y-65961446D01*
X41785000Y-65961439D01*
X41773641Y-65846113D01*
X41728754Y-65698140D01*
X41655862Y-65561767D01*
X41557764Y-65442236D01*
X41527816Y-65417658D01*
X37082347Y-60972190D01*
X37057764Y-60942236D01*
X36938233Y-60844138D01*
X36801860Y-60771246D01*
X36653887Y-60726359D01*
X36538561Y-60715000D01*
X36538553Y-60715000D01*
X36500000Y-60711203D01*
X36461447Y-60715000D01*
X34441877Y-60715000D01*
X34314924Y-60525000D01*
X38986928Y-60525000D01*
X38999188Y-60649482D01*
X39035498Y-60769180D01*
X39094463Y-60879494D01*
X39173815Y-60976185D01*
X39270506Y-61055537D01*
X39380820Y-61114502D01*
X39500518Y-61150812D01*
X39625000Y-61163072D01*
X40214250Y-61160000D01*
X40373000Y-61001250D01*
X40373000Y-60027000D01*
X40627000Y-60027000D01*
X40627000Y-61001250D01*
X40785750Y-61160000D01*
X41375000Y-61163072D01*
X41499482Y-61150812D01*
X41619180Y-61114502D01*
X41729494Y-61055537D01*
X41826185Y-60976185D01*
X41905537Y-60879494D01*
X41964502Y-60769180D01*
X42000812Y-60649482D01*
X42013072Y-60525000D01*
X42010000Y-60185750D01*
X41851250Y-60027000D01*
X40627000Y-60027000D01*
X40373000Y-60027000D01*
X39148750Y-60027000D01*
X38990000Y-60185750D01*
X38986928Y-60525000D01*
X34314924Y-60525000D01*
X34269987Y-60457748D01*
X34042252Y-60230013D01*
X33774463Y-60051082D01*
X33476912Y-59927832D01*
X33161033Y-59865000D01*
X32838967Y-59865000D01*
X32523088Y-59927832D01*
X32225537Y-60051082D01*
X31957748Y-60230013D01*
X31730013Y-60457748D01*
X31558123Y-60715000D01*
X29441877Y-60715000D01*
X29269987Y-60457748D01*
X29042252Y-60230013D01*
X28774463Y-60051082D01*
X28476912Y-59927832D01*
X28161033Y-59865000D01*
X27838967Y-59865000D01*
X27523088Y-59927832D01*
X27225537Y-60051082D01*
X26957748Y-60230013D01*
X26730013Y-60457748D01*
X26551082Y-60725537D01*
X26427832Y-61023088D01*
X26365000Y-61338967D01*
X25710000Y-61338967D01*
X25710000Y-59275000D01*
X38986928Y-59275000D01*
X38990000Y-59614250D01*
X39148750Y-59773000D01*
X40373000Y-59773000D01*
X40373000Y-58798750D01*
X40214250Y-58640000D01*
X39625000Y-58636928D01*
X39500518Y-58649188D01*
X39380820Y-58685498D01*
X39270506Y-58744463D01*
X39173815Y-58823815D01*
X39094463Y-58920506D01*
X39035498Y-59030820D01*
X38999188Y-59150518D01*
X38986928Y-59275000D01*
X25710000Y-59275000D01*
X25710000Y-51000000D01*
X38909428Y-51000000D01*
X38909428Y-53000000D01*
X38921688Y-53124482D01*
X38957998Y-53244180D01*
X39016963Y-53354494D01*
X39096315Y-53451185D01*
X39193006Y-53530537D01*
X39303320Y-53589502D01*
X39423018Y-53625812D01*
X39547500Y-53638072D01*
X39715001Y-53638072D01*
X39715000Y-55852687D01*
X39701746Y-55853992D01*
X39535150Y-55904528D01*
X39381614Y-55986595D01*
X39247038Y-56097038D01*
X39136595Y-56231614D01*
X39054528Y-56385150D01*
X39003992Y-56551746D01*
X38986928Y-56725000D01*
X38986928Y-57475000D01*
X39003992Y-57648254D01*
X39054528Y-57814850D01*
X39136595Y-57968386D01*
X39247038Y-58102962D01*
X39381614Y-58213405D01*
X39535150Y-58295472D01*
X39701746Y-58346008D01*
X39875000Y-58363072D01*
X40752915Y-58363072D01*
X41028577Y-58638734D01*
X40785750Y-58640000D01*
X40627000Y-58798750D01*
X40627000Y-59773000D01*
X41851250Y-59773000D01*
X42007046Y-59617204D01*
X42465000Y-60075158D01*
X42465000Y-60101939D01*
X42504774Y-60301898D01*
X42582795Y-60490256D01*
X42696063Y-60659774D01*
X42840226Y-60803937D01*
X43009744Y-60917205D01*
X43198102Y-60995226D01*
X43398061Y-61035000D01*
X43601939Y-61035000D01*
X43801898Y-60995226D01*
X43990256Y-60917205D01*
X44159774Y-60803937D01*
X44303937Y-60659774D01*
X44393989Y-60525000D01*
X45486928Y-60525000D01*
X45499188Y-60649482D01*
X45535498Y-60769180D01*
X45594463Y-60879494D01*
X45673815Y-60976185D01*
X45770506Y-61055537D01*
X45880820Y-61114502D01*
X46000518Y-61150812D01*
X46125000Y-61163072D01*
X46714250Y-61160000D01*
X46873000Y-61001250D01*
X46873000Y-60027000D01*
X47127000Y-60027000D01*
X47127000Y-61001250D01*
X47285750Y-61160000D01*
X47875000Y-61163072D01*
X47999482Y-61150812D01*
X48119180Y-61114502D01*
X48229494Y-61055537D01*
X48326185Y-60976185D01*
X48405537Y-60879494D01*
X48464502Y-60769180D01*
X48500812Y-60649482D01*
X48513072Y-60525000D01*
X48510000Y-60185750D01*
X48351250Y-60027000D01*
X47127000Y-60027000D01*
X46873000Y-60027000D01*
X45648750Y-60027000D01*
X45490000Y-60185750D01*
X45486928Y-60525000D01*
X44393989Y-60525000D01*
X44417205Y-60490256D01*
X44495226Y-60301898D01*
X44535000Y-60101939D01*
X44535000Y-59898061D01*
X44495226Y-59698102D01*
X44417205Y-59509744D01*
X44303937Y-59340226D01*
X44238711Y-59275000D01*
X45486928Y-59275000D01*
X45490000Y-59614250D01*
X45648750Y-59773000D01*
X46873000Y-59773000D01*
X46873000Y-58798750D01*
X47127000Y-58798750D01*
X47127000Y-59773000D01*
X48351250Y-59773000D01*
X48510000Y-59614250D01*
X48513072Y-59275000D01*
X48500812Y-59150518D01*
X48464502Y-59030820D01*
X48405537Y-58920506D01*
X48326185Y-58823815D01*
X48229494Y-58744463D01*
X48119180Y-58685498D01*
X47999482Y-58649188D01*
X47875000Y-58636928D01*
X47285750Y-58640000D01*
X47127000Y-58798750D01*
X46873000Y-58798750D01*
X46714250Y-58640000D01*
X46125000Y-58636928D01*
X46000518Y-58649188D01*
X45880820Y-58685498D01*
X45770506Y-58744463D01*
X45673815Y-58823815D01*
X45594463Y-58920506D01*
X45535498Y-59030820D01*
X45499188Y-59150518D01*
X45486928Y-59275000D01*
X44238711Y-59275000D01*
X44159774Y-59196063D01*
X43990256Y-59082795D01*
X43801898Y-59004774D01*
X43601939Y-58965000D01*
X43575158Y-58965000D01*
X42013072Y-57402915D01*
X42013072Y-56725000D01*
X41996008Y-56551746D01*
X41945472Y-56385150D01*
X41863405Y-56231614D01*
X41752962Y-56097038D01*
X41618386Y-55986595D01*
X41464850Y-55904528D01*
X41298254Y-55853992D01*
X41285000Y-55852687D01*
X41285000Y-53638072D01*
X41452500Y-53638072D01*
X41576982Y-53625812D01*
X41696680Y-53589502D01*
X41806994Y-53530537D01*
X41903685Y-53451185D01*
X41983037Y-53354494D01*
X42032059Y-53262781D01*
X42173077Y-53375969D01*
X42448906Y-53519571D01*
X42667020Y-53590563D01*
X42913000Y-53470594D01*
X42913000Y-52127000D01*
X42893000Y-52127000D01*
X42893000Y-51873000D01*
X42913000Y-51873000D01*
X42913000Y-50529406D01*
X42667020Y-50409437D01*
X42448906Y-50480429D01*
X42173077Y-50624031D01*
X42032059Y-50737219D01*
X41983037Y-50645506D01*
X41903685Y-50548815D01*
X41806994Y-50469463D01*
X41696680Y-50410498D01*
X41576982Y-50374188D01*
X41452500Y-50361928D01*
X39547500Y-50361928D01*
X39423018Y-50374188D01*
X39303320Y-50410498D01*
X39193006Y-50469463D01*
X39096315Y-50548815D01*
X39016963Y-50645506D01*
X38957998Y-50755820D01*
X38921688Y-50875518D01*
X38909428Y-51000000D01*
X25710000Y-51000000D01*
X25710000Y-43538967D01*
X26365000Y-43538967D01*
X26365000Y-43861033D01*
X26427832Y-44176912D01*
X26551082Y-44474463D01*
X26730013Y-44742252D01*
X26957748Y-44969987D01*
X27225537Y-45148918D01*
X27523088Y-45272168D01*
X27838967Y-45335000D01*
X28161033Y-45335000D01*
X28476912Y-45272168D01*
X28774463Y-45148918D01*
X29042252Y-44969987D01*
X29269987Y-44742252D01*
X29448918Y-44474463D01*
X29572168Y-44176912D01*
X29635000Y-43861033D01*
X29635000Y-43538967D01*
X31365000Y-43538967D01*
X31365000Y-43861033D01*
X31427832Y-44176912D01*
X31551082Y-44474463D01*
X31730013Y-44742252D01*
X31957748Y-44969987D01*
X32225537Y-45148918D01*
X32523088Y-45272168D01*
X32838967Y-45335000D01*
X33161033Y-45335000D01*
X33476912Y-45272168D01*
X33774463Y-45148918D01*
X34042252Y-44969987D01*
X34269987Y-44742252D01*
X34448918Y-44474463D01*
X34572168Y-44176912D01*
X34635000Y-43861033D01*
X34635000Y-43538967D01*
X34572168Y-43223088D01*
X34448918Y-42925537D01*
X34269987Y-42657748D01*
X34042252Y-42430013D01*
X33774463Y-42251082D01*
X33476912Y-42127832D01*
X33161033Y-42065000D01*
X32838967Y-42065000D01*
X32523088Y-42127832D01*
X32225537Y-42251082D01*
X31957748Y-42430013D01*
X31730013Y-42657748D01*
X31551082Y-42925537D01*
X31427832Y-43223088D01*
X31365000Y-43538967D01*
X29635000Y-43538967D01*
X29572168Y-43223088D01*
X29448918Y-42925537D01*
X29269987Y-42657748D01*
X29042252Y-42430013D01*
X28774463Y-42251082D01*
X28476912Y-42127832D01*
X28161033Y-42065000D01*
X27838967Y-42065000D01*
X27523088Y-42127832D01*
X27225537Y-42251082D01*
X26957748Y-42430013D01*
X26730013Y-42657748D01*
X26551082Y-42925537D01*
X26427832Y-43223088D01*
X26365000Y-43538967D01*
X25710000Y-43538967D01*
X25710000Y-34779872D01*
X27765000Y-34779872D01*
X27765000Y-35220128D01*
X27850890Y-35651925D01*
X28019369Y-36058669D01*
X28263962Y-36424729D01*
X28575271Y-36736038D01*
X28941331Y-36980631D01*
X29348075Y-37149110D01*
X29779872Y-37235000D01*
X30220128Y-37235000D01*
X30651925Y-37149110D01*
X31058669Y-36980631D01*
X31424729Y-36736038D01*
X31736038Y-36424729D01*
X31980631Y-36058669D01*
X32149110Y-35651925D01*
X32235000Y-35220128D01*
X32235000Y-34779872D01*
X32149110Y-34348075D01*
X31980631Y-33941331D01*
X31736038Y-33575271D01*
X31424729Y-33263962D01*
X31058669Y-33019369D01*
X30651925Y-32850890D01*
X30220128Y-32765000D01*
X29779872Y-32765000D01*
X29348075Y-32850890D01*
X28941331Y-33019369D01*
X28575271Y-33263962D01*
X28263962Y-33575271D01*
X28019369Y-33941331D01*
X27850890Y-34348075D01*
X27765000Y-34779872D01*
X25710000Y-34779872D01*
X25710000Y-32690000D01*
X68861928Y-32690000D01*
X68865000Y-32854250D01*
X69023750Y-33013000D01*
X70373000Y-33013000D01*
X70373000Y-32213750D01*
X70627000Y-32213750D01*
X70627000Y-33013000D01*
X71976250Y-33013000D01*
X72135000Y-32854250D01*
X72138072Y-32690000D01*
X85861928Y-32690000D01*
X85865000Y-32854250D01*
X86023750Y-33013000D01*
X87373000Y-33013000D01*
X87373000Y-32213750D01*
X87627000Y-32213750D01*
X87627000Y-33013000D01*
X88976250Y-33013000D01*
X89135000Y-32854250D01*
X89138072Y-32690000D01*
X89125812Y-32565518D01*
X89089502Y-32445820D01*
X89030537Y-32335506D01*
X88951185Y-32238815D01*
X88854494Y-32159463D01*
X88744180Y-32100498D01*
X88624482Y-32064188D01*
X88500000Y-32051928D01*
X87785750Y-32055000D01*
X87627000Y-32213750D01*
X87373000Y-32213750D01*
X87214250Y-32055000D01*
X86500000Y-32051928D01*
X86375518Y-32064188D01*
X86255820Y-32100498D01*
X86145506Y-32159463D01*
X86048815Y-32238815D01*
X85969463Y-32335506D01*
X85910498Y-32445820D01*
X85874188Y-32565518D01*
X85861928Y-32690000D01*
X72138072Y-32690000D01*
X72125812Y-32565518D01*
X72089502Y-32445820D01*
X72030537Y-32335506D01*
X71951185Y-32238815D01*
X71854494Y-32159463D01*
X71744180Y-32100498D01*
X71624482Y-32064188D01*
X71500000Y-32051928D01*
X70785750Y-32055000D01*
X70627000Y-32213750D01*
X70373000Y-32213750D01*
X70214250Y-32055000D01*
X69500000Y-32051928D01*
X69375518Y-32064188D01*
X69255820Y-32100498D01*
X69145506Y-32159463D01*
X69048815Y-32238815D01*
X68969463Y-32335506D01*
X68910498Y-32445820D01*
X68874188Y-32565518D01*
X68861928Y-32690000D01*
X25710000Y-32690000D01*
X25710000Y-32034721D01*
X25737907Y-31750101D01*
X25810484Y-31509715D01*
X25928368Y-31288009D01*
X26087068Y-31093423D01*
X26280545Y-30933365D01*
X26501424Y-30813936D01*
X26741297Y-30739683D01*
X27023716Y-30710000D01*
X103965279Y-30710000D01*
X104249899Y-30737907D01*
G36*
X59785000Y-52354843D02*
G01*
X59785000Y-51485191D01*
X65915192Y-45355000D01*
X66784842Y-45355000D01*
X59785000Y-52354843D01*
G37*
X59785000Y-52354843D02*
X59785000Y-51485191D01*
X65915192Y-45355000D01*
X66784842Y-45355000D01*
X59785000Y-52354843D01*
G36*
X58785000Y-50264877D02*
G01*
X58785000Y-49575157D01*
X64275157Y-44085000D01*
X64964876Y-44085000D01*
X58785000Y-50264877D01*
G37*
X58785000Y-50264877D02*
X58785000Y-49575157D01*
X64275157Y-44085000D01*
X64964876Y-44085000D01*
X58785000Y-50264877D01*
G36*
X99715000Y-41325157D02*
G01*
X99715001Y-51244842D01*
X99084843Y-51875000D01*
X99011474Y-51875000D01*
X98903475Y-51713368D01*
X98696632Y-51506525D01*
X98522240Y-51390000D01*
X98696632Y-51273475D01*
X98903475Y-51066632D01*
X99065990Y-50823411D01*
X99177932Y-50553158D01*
X99235000Y-50266260D01*
X99235000Y-49973740D01*
X99177932Y-49686842D01*
X99065990Y-49416589D01*
X98903475Y-49173368D01*
X98696632Y-48966525D01*
X98522240Y-48850000D01*
X98696632Y-48733475D01*
X98903475Y-48526632D01*
X99065990Y-48283411D01*
X99177932Y-48013158D01*
X99235000Y-47726260D01*
X99235000Y-47433740D01*
X99177932Y-47146842D01*
X99065990Y-46876589D01*
X98903475Y-46633368D01*
X98696632Y-46426525D01*
X98522240Y-46310000D01*
X98696632Y-46193475D01*
X98903475Y-45986632D01*
X99065990Y-45743411D01*
X99177932Y-45473158D01*
X99235000Y-45186260D01*
X99235000Y-44893740D01*
X99177932Y-44606842D01*
X99065990Y-44336589D01*
X98903475Y-44093368D01*
X98771620Y-43961513D01*
X98844180Y-43939502D01*
X98954494Y-43880537D01*
X99051185Y-43801185D01*
X99130537Y-43704494D01*
X99189502Y-43594180D01*
X99225812Y-43474482D01*
X99238072Y-43350000D01*
X99238072Y-41650000D01*
X99225812Y-41525518D01*
X99189502Y-41405820D01*
X99130537Y-41295506D01*
X99051185Y-41198815D01*
X98954494Y-41119463D01*
X98844180Y-41060498D01*
X98724482Y-41024188D01*
X98600000Y-41011928D01*
X96900000Y-41011928D01*
X96775518Y-41024188D01*
X96655820Y-41060498D01*
X96545506Y-41119463D01*
X96448815Y-41198815D01*
X96369463Y-41295506D01*
X96310498Y-41405820D01*
X96274188Y-41525518D01*
X96261928Y-41650000D01*
X96261928Y-43350000D01*
X96274188Y-43474482D01*
X96310498Y-43594180D01*
X96369463Y-43704494D01*
X96448815Y-43801185D01*
X96545506Y-43880537D01*
X96655820Y-43939502D01*
X96728380Y-43961513D01*
X96596525Y-44093368D01*
X96434010Y-44336589D01*
X96322068Y-44606842D01*
X96265000Y-44893740D01*
X96265000Y-45186260D01*
X96322068Y-45473158D01*
X96434010Y-45743411D01*
X96596525Y-45986632D01*
X96803368Y-46193475D01*
X96977760Y-46310000D01*
X96803368Y-46426525D01*
X96596525Y-46633368D01*
X96434010Y-46876589D01*
X96322068Y-47146842D01*
X96265000Y-47433740D01*
X96265000Y-47524843D01*
X94785000Y-46044843D01*
X94785000Y-40178711D01*
X94803937Y-40159774D01*
X94917205Y-39990256D01*
X94995226Y-39801898D01*
X95035000Y-39601939D01*
X95035000Y-39398061D01*
X94995226Y-39198102D01*
X94917205Y-39009744D01*
X94803937Y-38840226D01*
X94659774Y-38696063D01*
X94490256Y-38582795D01*
X94301898Y-38504774D01*
X94271216Y-38498671D01*
X94298254Y-38496008D01*
X94464850Y-38445472D01*
X94618386Y-38363405D01*
X94752962Y-38252962D01*
X94863405Y-38118386D01*
X94907976Y-38035000D01*
X96424843Y-38035000D01*
X99715000Y-41325157D01*
G37*
X99715000Y-41325157D02*
X99715001Y-51244842D01*
X99084843Y-51875000D01*
X99011474Y-51875000D01*
X98903475Y-51713368D01*
X98696632Y-51506525D01*
X98522240Y-51390000D01*
X98696632Y-51273475D01*
X98903475Y-51066632D01*
X99065990Y-50823411D01*
X99177932Y-50553158D01*
X99235000Y-50266260D01*
X99235000Y-49973740D01*
X99177932Y-49686842D01*
X99065990Y-49416589D01*
X98903475Y-49173368D01*
X98696632Y-48966525D01*
X98522240Y-48850000D01*
X98696632Y-48733475D01*
X98903475Y-48526632D01*
X99065990Y-48283411D01*
X99177932Y-48013158D01*
X99235000Y-47726260D01*
X99235000Y-47433740D01*
X99177932Y-47146842D01*
X99065990Y-46876589D01*
X98903475Y-46633368D01*
X98696632Y-46426525D01*
X98522240Y-46310000D01*
X98696632Y-46193475D01*
X98903475Y-45986632D01*
X99065990Y-45743411D01*
X99177932Y-45473158D01*
X99235000Y-45186260D01*
X99235000Y-44893740D01*
X99177932Y-44606842D01*
X99065990Y-44336589D01*
X98903475Y-44093368D01*
X98771620Y-43961513D01*
X98844180Y-43939502D01*
X98954494Y-43880537D01*
X99051185Y-43801185D01*
X99130537Y-43704494D01*
X99189502Y-43594180D01*
X99225812Y-43474482D01*
X99238072Y-43350000D01*
X99238072Y-41650000D01*
X99225812Y-41525518D01*
X99189502Y-41405820D01*
X99130537Y-41295506D01*
X99051185Y-41198815D01*
X98954494Y-41119463D01*
X98844180Y-41060498D01*
X98724482Y-41024188D01*
X98600000Y-41011928D01*
X96900000Y-41011928D01*
X96775518Y-41024188D01*
X96655820Y-41060498D01*
X96545506Y-41119463D01*
X96448815Y-41198815D01*
X96369463Y-41295506D01*
X96310498Y-41405820D01*
X96274188Y-41525518D01*
X96261928Y-41650000D01*
X96261928Y-43350000D01*
X96274188Y-43474482D01*
X96310498Y-43594180D01*
X96369463Y-43704494D01*
X96448815Y-43801185D01*
X96545506Y-43880537D01*
X96655820Y-43939502D01*
X96728380Y-43961513D01*
X96596525Y-44093368D01*
X96434010Y-44336589D01*
X96322068Y-44606842D01*
X96265000Y-44893740D01*
X96265000Y-45186260D01*
X96322068Y-45473158D01*
X96434010Y-45743411D01*
X96596525Y-45986632D01*
X96803368Y-46193475D01*
X96977760Y-46310000D01*
X96803368Y-46426525D01*
X96596525Y-46633368D01*
X96434010Y-46876589D01*
X96322068Y-47146842D01*
X96265000Y-47433740D01*
X96265000Y-47524843D01*
X94785000Y-46044843D01*
X94785000Y-40178711D01*
X94803937Y-40159774D01*
X94917205Y-39990256D01*
X94995226Y-39801898D01*
X95035000Y-39601939D01*
X95035000Y-39398061D01*
X94995226Y-39198102D01*
X94917205Y-39009744D01*
X94803937Y-38840226D01*
X94659774Y-38696063D01*
X94490256Y-38582795D01*
X94301898Y-38504774D01*
X94271216Y-38498671D01*
X94298254Y-38496008D01*
X94464850Y-38445472D01*
X94618386Y-38363405D01*
X94752962Y-38252962D01*
X94863405Y-38118386D01*
X94907976Y-38035000D01*
X96424843Y-38035000D01*
X99715000Y-41325157D01*
M02*
