G04 #@! TF.GenerationSoftware,KiCad,Pcbnew,(5.1.6)-1*
G04 #@! TF.CreationDate,2020-06-28T20:31:21-04:00*
G04 #@! TF.ProjectId,alarmbuddy,616c6172-6d62-4756-9464-792e6b696361,rev?*
G04 #@! TF.SameCoordinates,Original*
G04 #@! TF.FileFunction,Soldermask,Top*
G04 #@! TF.FilePolarity,Negative*
%FSLAX46Y46*%
G04 Gerber Fmt 4.6, Leading zero omitted, Abs format (unit mm)*
G04 Created by KiCad (PCBNEW (5.1.6)-1) date 2020-06-28 20:31:21*
%MOMM*%
%LPD*%
G01*
G04 APERTURE LIST*
%ADD10C,0.100000*%
G04 APERTURE END LIST*
D10*
G36*
X101268900Y-82370346D02*
G01*
X101481521Y-82412639D01*
X101781947Y-82537080D01*
X102052324Y-82717740D01*
X102282260Y-82947676D01*
X102462920Y-83218053D01*
X102587361Y-83518479D01*
X102650800Y-83837410D01*
X102650800Y-84162590D01*
X102587361Y-84481521D01*
X102462920Y-84781947D01*
X102282260Y-85052324D01*
X102052324Y-85282260D01*
X101781947Y-85462920D01*
X101481521Y-85587361D01*
X101268900Y-85629654D01*
X101162591Y-85650800D01*
X100837409Y-85650800D01*
X100731100Y-85629654D01*
X100518479Y-85587361D01*
X100218053Y-85462920D01*
X99947676Y-85282260D01*
X99717740Y-85052324D01*
X99537080Y-84781947D01*
X99412639Y-84481521D01*
X99349200Y-84162590D01*
X99349200Y-83837410D01*
X99412639Y-83518479D01*
X99537080Y-83218053D01*
X99717740Y-82947676D01*
X99947676Y-82717740D01*
X100218053Y-82537080D01*
X100518479Y-82412639D01*
X100731100Y-82370346D01*
X100837409Y-82349200D01*
X101162591Y-82349200D01*
X101268900Y-82370346D01*
G37*
G36*
X30268900Y-82370346D02*
G01*
X30481521Y-82412639D01*
X30781947Y-82537080D01*
X31052324Y-82717740D01*
X31282260Y-82947676D01*
X31462920Y-83218053D01*
X31587361Y-83518479D01*
X31650800Y-83837410D01*
X31650800Y-84162590D01*
X31587361Y-84481521D01*
X31462920Y-84781947D01*
X31282260Y-85052324D01*
X31052324Y-85282260D01*
X30781947Y-85462920D01*
X30481521Y-85587361D01*
X30268900Y-85629654D01*
X30162591Y-85650800D01*
X29837409Y-85650800D01*
X29731100Y-85629654D01*
X29518479Y-85587361D01*
X29218053Y-85462920D01*
X28947676Y-85282260D01*
X28717740Y-85052324D01*
X28537080Y-84781947D01*
X28412639Y-84481521D01*
X28349200Y-84162590D01*
X28349200Y-83837410D01*
X28412639Y-83518479D01*
X28537080Y-83218053D01*
X28717740Y-82947676D01*
X28947676Y-82717740D01*
X29218053Y-82537080D01*
X29518479Y-82412639D01*
X29731100Y-82370346D01*
X29837409Y-82349200D01*
X30162591Y-82349200D01*
X30268900Y-82370346D01*
G37*
G36*
X39350800Y-85350800D02*
G01*
X36649200Y-85350800D01*
X36649200Y-82649200D01*
X39350800Y-82649200D01*
X39350800Y-85350800D01*
G37*
G36*
X54350800Y-85350800D02*
G01*
X51649200Y-85350800D01*
X51649200Y-82649200D01*
X54350800Y-82649200D01*
X54350800Y-85350800D01*
G37*
G36*
X58307023Y-82683807D02*
G01*
X58394014Y-82701110D01*
X58639844Y-82802937D01*
X58861085Y-82950765D01*
X59049235Y-83138915D01*
X59102113Y-83218053D01*
X59197064Y-83360158D01*
X59298890Y-83605987D01*
X59350800Y-83866956D01*
X59350800Y-84133044D01*
X59316193Y-84307023D01*
X59298890Y-84394014D01*
X59197063Y-84639844D01*
X59049235Y-84861085D01*
X58861085Y-85049235D01*
X58639844Y-85197063D01*
X58394014Y-85298890D01*
X58307023Y-85316193D01*
X58133044Y-85350800D01*
X57866956Y-85350800D01*
X57692977Y-85316193D01*
X57605986Y-85298890D01*
X57360156Y-85197063D01*
X57138915Y-85049235D01*
X56950765Y-84861085D01*
X56802937Y-84639844D01*
X56701110Y-84394014D01*
X56683807Y-84307023D01*
X56649200Y-84133044D01*
X56649200Y-83866956D01*
X56701110Y-83605987D01*
X56802936Y-83360158D01*
X56897887Y-83218053D01*
X56950765Y-83138915D01*
X57138915Y-82950765D01*
X57360156Y-82802937D01*
X57605986Y-82701110D01*
X57692977Y-82683807D01*
X57866956Y-82649200D01*
X58133044Y-82649200D01*
X58307023Y-82683807D01*
G37*
G36*
X63307023Y-82683807D02*
G01*
X63394014Y-82701110D01*
X63639844Y-82802937D01*
X63861085Y-82950765D01*
X64049235Y-83138915D01*
X64102113Y-83218053D01*
X64197064Y-83360158D01*
X64298890Y-83605987D01*
X64350800Y-83866956D01*
X64350800Y-84133044D01*
X64316193Y-84307023D01*
X64298890Y-84394014D01*
X64197063Y-84639844D01*
X64049235Y-84861085D01*
X63861085Y-85049235D01*
X63639844Y-85197063D01*
X63394014Y-85298890D01*
X63307023Y-85316193D01*
X63133044Y-85350800D01*
X62866956Y-85350800D01*
X62692977Y-85316193D01*
X62605986Y-85298890D01*
X62360156Y-85197063D01*
X62138915Y-85049235D01*
X61950765Y-84861085D01*
X61802937Y-84639844D01*
X61701110Y-84394014D01*
X61683807Y-84307023D01*
X61649200Y-84133044D01*
X61649200Y-83866956D01*
X61701110Y-83605987D01*
X61802936Y-83360158D01*
X61897887Y-83218053D01*
X61950765Y-83138915D01*
X62138915Y-82950765D01*
X62360156Y-82802937D01*
X62605986Y-82701110D01*
X62692977Y-82683807D01*
X62866956Y-82649200D01*
X63133044Y-82649200D01*
X63307023Y-82683807D01*
G37*
G36*
X69350800Y-85350800D02*
G01*
X66649200Y-85350800D01*
X66649200Y-82649200D01*
X69350800Y-82649200D01*
X69350800Y-85350800D01*
G37*
G36*
X73307023Y-82683807D02*
G01*
X73394014Y-82701110D01*
X73639844Y-82802937D01*
X73861085Y-82950765D01*
X74049235Y-83138915D01*
X74102113Y-83218053D01*
X74197064Y-83360158D01*
X74298890Y-83605987D01*
X74350800Y-83866956D01*
X74350800Y-84133044D01*
X74316193Y-84307023D01*
X74298890Y-84394014D01*
X74197063Y-84639844D01*
X74049235Y-84861085D01*
X73861085Y-85049235D01*
X73639844Y-85197063D01*
X73394014Y-85298890D01*
X73307023Y-85316193D01*
X73133044Y-85350800D01*
X72866956Y-85350800D01*
X72692977Y-85316193D01*
X72605986Y-85298890D01*
X72360156Y-85197063D01*
X72138915Y-85049235D01*
X71950765Y-84861085D01*
X71802937Y-84639844D01*
X71701110Y-84394014D01*
X71683807Y-84307023D01*
X71649200Y-84133044D01*
X71649200Y-83866956D01*
X71701110Y-83605987D01*
X71802936Y-83360158D01*
X71897887Y-83218053D01*
X71950765Y-83138915D01*
X72138915Y-82950765D01*
X72360156Y-82802937D01*
X72605986Y-82701110D01*
X72692977Y-82683807D01*
X72866956Y-82649200D01*
X73133044Y-82649200D01*
X73307023Y-82683807D01*
G37*
G36*
X78307023Y-82683807D02*
G01*
X78394014Y-82701110D01*
X78639844Y-82802937D01*
X78861085Y-82950765D01*
X79049235Y-83138915D01*
X79102113Y-83218053D01*
X79197064Y-83360158D01*
X79298890Y-83605987D01*
X79350800Y-83866956D01*
X79350800Y-84133044D01*
X79316193Y-84307023D01*
X79298890Y-84394014D01*
X79197063Y-84639844D01*
X79049235Y-84861085D01*
X78861085Y-85049235D01*
X78639844Y-85197063D01*
X78394014Y-85298890D01*
X78307023Y-85316193D01*
X78133044Y-85350800D01*
X77866956Y-85350800D01*
X77692977Y-85316193D01*
X77605986Y-85298890D01*
X77360156Y-85197063D01*
X77138915Y-85049235D01*
X76950765Y-84861085D01*
X76802937Y-84639844D01*
X76701110Y-84394014D01*
X76683807Y-84307023D01*
X76649200Y-84133044D01*
X76649200Y-83866956D01*
X76701110Y-83605987D01*
X76802936Y-83360158D01*
X76897887Y-83218053D01*
X76950765Y-83138915D01*
X77138915Y-82950765D01*
X77360156Y-82802937D01*
X77605986Y-82701110D01*
X77692977Y-82683807D01*
X77866956Y-82649200D01*
X78133044Y-82649200D01*
X78307023Y-82683807D01*
G37*
G36*
X84350800Y-85350800D02*
G01*
X81649200Y-85350800D01*
X81649200Y-82649200D01*
X84350800Y-82649200D01*
X84350800Y-85350800D01*
G37*
G36*
X88307023Y-82683807D02*
G01*
X88394014Y-82701110D01*
X88639844Y-82802937D01*
X88861085Y-82950765D01*
X89049235Y-83138915D01*
X89102113Y-83218053D01*
X89197064Y-83360158D01*
X89298890Y-83605987D01*
X89350800Y-83866956D01*
X89350800Y-84133044D01*
X89316193Y-84307023D01*
X89298890Y-84394014D01*
X89197063Y-84639844D01*
X89049235Y-84861085D01*
X88861085Y-85049235D01*
X88639844Y-85197063D01*
X88394014Y-85298890D01*
X88307023Y-85316193D01*
X88133044Y-85350800D01*
X87866956Y-85350800D01*
X87692977Y-85316193D01*
X87605986Y-85298890D01*
X87360156Y-85197063D01*
X87138915Y-85049235D01*
X86950765Y-84861085D01*
X86802937Y-84639844D01*
X86701110Y-84394014D01*
X86683807Y-84307023D01*
X86649200Y-84133044D01*
X86649200Y-83866956D01*
X86701110Y-83605987D01*
X86802936Y-83360158D01*
X86897887Y-83218053D01*
X86950765Y-83138915D01*
X87138915Y-82950765D01*
X87360156Y-82802937D01*
X87605986Y-82701110D01*
X87692977Y-82683807D01*
X87866956Y-82649200D01*
X88133044Y-82649200D01*
X88307023Y-82683807D01*
G37*
G36*
X43307023Y-82683807D02*
G01*
X43394014Y-82701110D01*
X43639844Y-82802937D01*
X43861085Y-82950765D01*
X44049235Y-83138915D01*
X44102113Y-83218053D01*
X44197064Y-83360158D01*
X44298890Y-83605987D01*
X44350800Y-83866956D01*
X44350800Y-84133044D01*
X44316193Y-84307023D01*
X44298890Y-84394014D01*
X44197063Y-84639844D01*
X44049235Y-84861085D01*
X43861085Y-85049235D01*
X43639844Y-85197063D01*
X43394014Y-85298890D01*
X43307023Y-85316193D01*
X43133044Y-85350800D01*
X42866956Y-85350800D01*
X42692977Y-85316193D01*
X42605986Y-85298890D01*
X42360156Y-85197063D01*
X42138915Y-85049235D01*
X41950765Y-84861085D01*
X41802937Y-84639844D01*
X41701110Y-84394014D01*
X41683807Y-84307023D01*
X41649200Y-84133044D01*
X41649200Y-83866956D01*
X41701110Y-83605987D01*
X41802936Y-83360158D01*
X41897887Y-83218053D01*
X41950765Y-83138915D01*
X42138915Y-82950765D01*
X42360156Y-82802937D01*
X42605986Y-82701110D01*
X42692977Y-82683807D01*
X42866956Y-82649200D01*
X43133044Y-82649200D01*
X43307023Y-82683807D01*
G37*
G36*
X48307023Y-82683807D02*
G01*
X48394014Y-82701110D01*
X48639844Y-82802937D01*
X48861085Y-82950765D01*
X49049235Y-83138915D01*
X49102113Y-83218053D01*
X49197064Y-83360158D01*
X49298890Y-83605987D01*
X49350800Y-83866956D01*
X49350800Y-84133044D01*
X49316193Y-84307023D01*
X49298890Y-84394014D01*
X49197063Y-84639844D01*
X49049235Y-84861085D01*
X48861085Y-85049235D01*
X48639844Y-85197063D01*
X48394014Y-85298890D01*
X48307023Y-85316193D01*
X48133044Y-85350800D01*
X47866956Y-85350800D01*
X47692977Y-85316193D01*
X47605986Y-85298890D01*
X47360156Y-85197063D01*
X47138915Y-85049235D01*
X46950765Y-84861085D01*
X46802937Y-84639844D01*
X46701110Y-84394014D01*
X46683807Y-84307023D01*
X46649200Y-84133044D01*
X46649200Y-83866956D01*
X46701110Y-83605987D01*
X46802936Y-83360158D01*
X46897887Y-83218053D01*
X46950765Y-83138915D01*
X47138915Y-82950765D01*
X47360156Y-82802937D01*
X47605986Y-82701110D01*
X47692977Y-82683807D01*
X47866956Y-82649200D01*
X48133044Y-82649200D01*
X48307023Y-82683807D01*
G37*
G36*
X93307023Y-82683807D02*
G01*
X93394014Y-82701110D01*
X93639844Y-82802937D01*
X93861085Y-82950765D01*
X94049235Y-83138915D01*
X94102113Y-83218053D01*
X94197064Y-83360158D01*
X94298890Y-83605987D01*
X94350800Y-83866956D01*
X94350800Y-84133044D01*
X94316193Y-84307023D01*
X94298890Y-84394014D01*
X94197063Y-84639844D01*
X94049235Y-84861085D01*
X93861085Y-85049235D01*
X93639844Y-85197063D01*
X93394014Y-85298890D01*
X93307023Y-85316193D01*
X93133044Y-85350800D01*
X92866956Y-85350800D01*
X92692977Y-85316193D01*
X92605986Y-85298890D01*
X92360156Y-85197063D01*
X92138915Y-85049235D01*
X91950765Y-84861085D01*
X91802937Y-84639844D01*
X91701110Y-84394014D01*
X91683807Y-84307023D01*
X91649200Y-84133044D01*
X91649200Y-83866956D01*
X91701110Y-83605987D01*
X91802936Y-83360158D01*
X91897887Y-83218053D01*
X91950765Y-83138915D01*
X92138915Y-82950765D01*
X92360156Y-82802937D01*
X92605986Y-82701110D01*
X92692977Y-82683807D01*
X92866956Y-82649200D01*
X93133044Y-82649200D01*
X93307023Y-82683807D01*
G37*
G36*
X48768465Y-76578546D02*
G01*
X48804996Y-76589628D01*
X48838660Y-76607621D01*
X48868165Y-76631835D01*
X48892379Y-76661340D01*
X48910372Y-76695004D01*
X48921454Y-76731535D01*
X48925800Y-76775660D01*
X48925800Y-77724340D01*
X48921454Y-77768465D01*
X48910372Y-77804996D01*
X48892379Y-77838660D01*
X48868165Y-77868165D01*
X48838660Y-77892379D01*
X48804996Y-77910372D01*
X48768465Y-77921454D01*
X48724340Y-77925800D01*
X47275660Y-77925800D01*
X47231535Y-77921454D01*
X47195004Y-77910372D01*
X47161340Y-77892379D01*
X47131835Y-77868165D01*
X47107621Y-77838660D01*
X47089628Y-77804996D01*
X47078546Y-77768465D01*
X47074200Y-77724340D01*
X47074200Y-76775660D01*
X47078546Y-76731535D01*
X47089628Y-76695004D01*
X47107621Y-76661340D01*
X47131835Y-76631835D01*
X47161340Y-76607621D01*
X47195004Y-76589628D01*
X47231535Y-76578546D01*
X47275660Y-76574200D01*
X48724340Y-76574200D01*
X48768465Y-76578546D01*
G37*
G36*
X102350800Y-75350800D02*
G01*
X99649200Y-75350800D01*
X99649200Y-72649200D01*
X102350800Y-72649200D01*
X102350800Y-75350800D01*
G37*
G36*
X48768465Y-73778546D02*
G01*
X48804996Y-73789628D01*
X48838660Y-73807621D01*
X48868165Y-73831835D01*
X48892379Y-73861340D01*
X48910372Y-73895004D01*
X48921454Y-73931535D01*
X48925800Y-73975660D01*
X48925800Y-74924340D01*
X48921454Y-74968465D01*
X48910372Y-75004996D01*
X48892379Y-75038660D01*
X48868165Y-75068165D01*
X48838660Y-75092379D01*
X48804996Y-75110372D01*
X48768465Y-75121454D01*
X48724340Y-75125800D01*
X47275660Y-75125800D01*
X47231535Y-75121454D01*
X47195004Y-75110372D01*
X47161340Y-75092379D01*
X47131835Y-75068165D01*
X47107621Y-75038660D01*
X47089628Y-75004996D01*
X47078546Y-74968465D01*
X47074200Y-74924340D01*
X47074200Y-73975660D01*
X47078546Y-73931535D01*
X47089628Y-73895004D01*
X47107621Y-73861340D01*
X47131835Y-73831835D01*
X47161340Y-73807621D01*
X47195004Y-73789628D01*
X47231535Y-73778546D01*
X47275660Y-73774200D01*
X48724340Y-73774200D01*
X48768465Y-73778546D01*
G37*
G36*
X30307023Y-72183807D02*
G01*
X30394014Y-72201110D01*
X30639844Y-72302937D01*
X30861085Y-72450765D01*
X31049235Y-72638915D01*
X31197063Y-72860156D01*
X31298890Y-73105986D01*
X31350800Y-73366958D01*
X31350800Y-73633042D01*
X31298890Y-73894014D01*
X31197063Y-74139844D01*
X31049235Y-74361085D01*
X30861085Y-74549235D01*
X30639844Y-74697063D01*
X30394014Y-74798890D01*
X30307023Y-74816193D01*
X30133044Y-74850800D01*
X29866956Y-74850800D01*
X29692977Y-74816193D01*
X29605986Y-74798890D01*
X29360156Y-74697063D01*
X29138915Y-74549235D01*
X28950765Y-74361085D01*
X28802937Y-74139844D01*
X28701110Y-73894014D01*
X28649200Y-73633042D01*
X28649200Y-73366958D01*
X28701110Y-73105986D01*
X28802937Y-72860156D01*
X28950765Y-72638915D01*
X29138915Y-72450765D01*
X29360156Y-72302937D01*
X29605986Y-72201110D01*
X29692977Y-72183807D01*
X29866956Y-72149200D01*
X30133044Y-72149200D01*
X30307023Y-72183807D01*
G37*
G36*
X38825800Y-73400800D02*
G01*
X37724200Y-73400800D01*
X37724200Y-72599200D01*
X38825800Y-72599200D01*
X38825800Y-73400800D01*
G37*
G36*
X44775800Y-73400800D02*
G01*
X43674200Y-73400800D01*
X43674200Y-72599200D01*
X44775800Y-72599200D01*
X44775800Y-73400800D01*
G37*
G36*
X101307023Y-67683807D02*
G01*
X101394014Y-67701110D01*
X101639844Y-67802937D01*
X101861085Y-67950765D01*
X102049235Y-68138915D01*
X102197063Y-68360156D01*
X102298890Y-68605986D01*
X102350800Y-68866958D01*
X102350800Y-69133042D01*
X102298890Y-69394014D01*
X102197063Y-69639844D01*
X102049235Y-69861085D01*
X101861085Y-70049235D01*
X101639844Y-70197063D01*
X101394014Y-70298890D01*
X101307023Y-70316193D01*
X101133044Y-70350800D01*
X100866956Y-70350800D01*
X100692977Y-70316193D01*
X100605986Y-70298890D01*
X100360156Y-70197063D01*
X100138915Y-70049235D01*
X99950765Y-69861085D01*
X99802937Y-69639844D01*
X99701110Y-69394014D01*
X99649200Y-69133042D01*
X99649200Y-68866958D01*
X99701110Y-68605986D01*
X99802937Y-68360156D01*
X99950765Y-68138915D01*
X100138915Y-67950765D01*
X100360156Y-67802937D01*
X100605986Y-67701110D01*
X100692977Y-67683807D01*
X100866956Y-67649200D01*
X101133044Y-67649200D01*
X101307023Y-67683807D01*
G37*
G36*
X31350800Y-69850800D02*
G01*
X28649200Y-69850800D01*
X28649200Y-67149200D01*
X31350800Y-67149200D01*
X31350800Y-69850800D01*
G37*
G36*
X44775800Y-69400800D02*
G01*
X43674200Y-69400800D01*
X43674200Y-68599200D01*
X44775800Y-68599200D01*
X44775800Y-69400800D01*
G37*
G36*
X38825800Y-69400800D02*
G01*
X37724200Y-69400800D01*
X37724200Y-68599200D01*
X38825800Y-68599200D01*
X38825800Y-69400800D01*
G37*
G36*
X78748169Y-67431895D02*
G01*
X78903005Y-67496031D01*
X79042354Y-67589140D01*
X79160860Y-67707646D01*
X79253969Y-67846995D01*
X79318105Y-68001831D01*
X79350800Y-68166203D01*
X79350800Y-68333797D01*
X79318105Y-68498169D01*
X79253969Y-68653005D01*
X79160860Y-68792354D01*
X79042354Y-68910860D01*
X78903005Y-69003969D01*
X78748169Y-69068105D01*
X78583797Y-69100800D01*
X78416203Y-69100800D01*
X78251831Y-69068105D01*
X78096995Y-69003969D01*
X77957646Y-68910860D01*
X77839140Y-68792354D01*
X77746031Y-68653005D01*
X77681895Y-68498169D01*
X77649200Y-68333797D01*
X77649200Y-68166203D01*
X77681895Y-68001831D01*
X77746031Y-67846995D01*
X77839140Y-67707646D01*
X77957646Y-67589140D01*
X78096995Y-67496031D01*
X78251831Y-67431895D01*
X78416203Y-67399200D01*
X78583797Y-67399200D01*
X78748169Y-67431895D01*
G37*
G36*
X83748169Y-67431895D02*
G01*
X83903005Y-67496031D01*
X84042354Y-67589140D01*
X84160860Y-67707646D01*
X84253969Y-67846995D01*
X84318105Y-68001831D01*
X84350800Y-68166203D01*
X84350800Y-68333797D01*
X84318105Y-68498169D01*
X84253969Y-68653005D01*
X84160860Y-68792354D01*
X84042354Y-68910860D01*
X83903005Y-69003969D01*
X83748169Y-69068105D01*
X83583797Y-69100800D01*
X83416203Y-69100800D01*
X83251831Y-69068105D01*
X83096995Y-69003969D01*
X82957646Y-68910860D01*
X82839140Y-68792354D01*
X82746031Y-68653005D01*
X82681895Y-68498169D01*
X82649200Y-68333797D01*
X82649200Y-68166203D01*
X82681895Y-68001831D01*
X82746031Y-67846995D01*
X82839140Y-67707646D01*
X82957646Y-67589140D01*
X83096995Y-67496031D01*
X83251831Y-67431895D01*
X83416203Y-67399200D01*
X83583797Y-67399200D01*
X83748169Y-67431895D01*
G37*
G36*
X67748169Y-67431895D02*
G01*
X67903005Y-67496031D01*
X68042354Y-67589140D01*
X68160860Y-67707646D01*
X68253969Y-67846995D01*
X68318105Y-68001831D01*
X68350800Y-68166203D01*
X68350800Y-68333797D01*
X68318105Y-68498169D01*
X68253969Y-68653005D01*
X68160860Y-68792354D01*
X68042354Y-68910860D01*
X67903005Y-69003969D01*
X67748169Y-69068105D01*
X67583797Y-69100800D01*
X67416203Y-69100800D01*
X67251831Y-69068105D01*
X67096995Y-69003969D01*
X66957646Y-68910860D01*
X66839140Y-68792354D01*
X66746031Y-68653005D01*
X66681895Y-68498169D01*
X66649200Y-68333797D01*
X66649200Y-68166203D01*
X66681895Y-68001831D01*
X66746031Y-67846995D01*
X66839140Y-67707646D01*
X66957646Y-67589140D01*
X67096995Y-67496031D01*
X67251831Y-67431895D01*
X67416203Y-67399200D01*
X67583797Y-67399200D01*
X67748169Y-67431895D01*
G37*
G36*
X62748169Y-67431895D02*
G01*
X62903005Y-67496031D01*
X63042354Y-67589140D01*
X63160860Y-67707646D01*
X63253969Y-67846995D01*
X63318105Y-68001831D01*
X63350800Y-68166203D01*
X63350800Y-68333797D01*
X63318105Y-68498169D01*
X63253969Y-68653005D01*
X63160860Y-68792354D01*
X63042354Y-68910860D01*
X62903005Y-69003969D01*
X62748169Y-69068105D01*
X62583797Y-69100800D01*
X62416203Y-69100800D01*
X62251831Y-69068105D01*
X62096995Y-69003969D01*
X61957646Y-68910860D01*
X61839140Y-68792354D01*
X61746031Y-68653005D01*
X61681895Y-68498169D01*
X61649200Y-68333797D01*
X61649200Y-68166203D01*
X61681895Y-68001831D01*
X61746031Y-67846995D01*
X61839140Y-67707646D01*
X61957646Y-67589140D01*
X62096995Y-67496031D01*
X62251831Y-67431895D01*
X62416203Y-67399200D01*
X62583797Y-67399200D01*
X62748169Y-67431895D01*
G37*
G36*
X101307023Y-62683807D02*
G01*
X101394014Y-62701110D01*
X101639844Y-62802937D01*
X101861085Y-62950765D01*
X102049235Y-63138915D01*
X102197063Y-63360156D01*
X102298890Y-63605986D01*
X102350800Y-63866958D01*
X102350800Y-64133042D01*
X102298890Y-64394014D01*
X102197063Y-64639844D01*
X102049235Y-64861085D01*
X101861085Y-65049235D01*
X101639844Y-65197063D01*
X101394014Y-65298890D01*
X101307023Y-65316193D01*
X101133044Y-65350800D01*
X100866956Y-65350800D01*
X100692977Y-65316193D01*
X100605986Y-65298890D01*
X100360156Y-65197063D01*
X100138915Y-65049235D01*
X99950765Y-64861085D01*
X99802937Y-64639844D01*
X99701110Y-64394014D01*
X99649200Y-64133042D01*
X99649200Y-63866958D01*
X99701110Y-63605986D01*
X99802937Y-63360156D01*
X99950765Y-63138915D01*
X100138915Y-62950765D01*
X100360156Y-62802937D01*
X100605986Y-62701110D01*
X100692977Y-62683807D01*
X100866956Y-62649200D01*
X101133044Y-62649200D01*
X101307023Y-62683807D01*
G37*
G36*
X28306506Y-60489581D02*
G01*
X28375513Y-60518165D01*
X28497740Y-60568793D01*
X28669846Y-60683791D01*
X28816209Y-60830154D01*
X28931207Y-61002260D01*
X28931207Y-61002261D01*
X29010419Y-61193494D01*
X29050800Y-61396504D01*
X29050800Y-61603496D01*
X29010419Y-61806506D01*
X28964018Y-61918528D01*
X28931207Y-61997740D01*
X28816209Y-62169846D01*
X28669846Y-62316209D01*
X28497740Y-62431207D01*
X28418528Y-62464018D01*
X28306506Y-62510419D01*
X28103496Y-62550800D01*
X27896504Y-62550800D01*
X27693494Y-62510419D01*
X27581472Y-62464018D01*
X27502260Y-62431207D01*
X27330154Y-62316209D01*
X27183791Y-62169846D01*
X27068793Y-61997740D01*
X27035982Y-61918528D01*
X26989581Y-61806506D01*
X26949200Y-61603496D01*
X26949200Y-61396504D01*
X26989581Y-61193494D01*
X27068793Y-61002261D01*
X27068793Y-61002260D01*
X27183791Y-60830154D01*
X27330154Y-60683791D01*
X27502260Y-60568793D01*
X27624487Y-60518165D01*
X27693494Y-60489581D01*
X27896504Y-60449200D01*
X28103496Y-60449200D01*
X28306506Y-60489581D01*
G37*
G36*
X33306506Y-60489581D02*
G01*
X33375513Y-60518165D01*
X33497740Y-60568793D01*
X33669846Y-60683791D01*
X33816209Y-60830154D01*
X33931207Y-61002260D01*
X33931207Y-61002261D01*
X34010419Y-61193494D01*
X34050800Y-61396504D01*
X34050800Y-61603496D01*
X34010419Y-61806506D01*
X33964018Y-61918528D01*
X33931207Y-61997740D01*
X33816209Y-62169846D01*
X33669846Y-62316209D01*
X33497740Y-62431207D01*
X33418528Y-62464018D01*
X33306506Y-62510419D01*
X33103496Y-62550800D01*
X32896504Y-62550800D01*
X32693494Y-62510419D01*
X32581472Y-62464018D01*
X32502260Y-62431207D01*
X32330154Y-62316209D01*
X32183791Y-62169846D01*
X32068793Y-61997740D01*
X32035982Y-61918528D01*
X31989581Y-61806506D01*
X31949200Y-61603496D01*
X31949200Y-61396504D01*
X31989581Y-61193494D01*
X32068793Y-61002261D01*
X32068793Y-61002260D01*
X32183791Y-60830154D01*
X32330154Y-60683791D01*
X32502260Y-60568793D01*
X32624487Y-60518165D01*
X32693494Y-60489581D01*
X32896504Y-60449200D01*
X33103496Y-60449200D01*
X33306506Y-60489581D01*
G37*
G36*
X47768465Y-59228546D02*
G01*
X47804996Y-59239628D01*
X47838660Y-59257621D01*
X47868165Y-59281835D01*
X47892379Y-59311340D01*
X47910372Y-59345004D01*
X47921454Y-59381535D01*
X47925800Y-59425660D01*
X47925800Y-60374340D01*
X47921454Y-60418465D01*
X47910372Y-60454996D01*
X47892379Y-60488660D01*
X47868165Y-60518165D01*
X47838660Y-60542379D01*
X47804996Y-60560372D01*
X47768465Y-60571454D01*
X47724340Y-60575800D01*
X46275660Y-60575800D01*
X46231535Y-60571454D01*
X46195004Y-60560372D01*
X46161340Y-60542379D01*
X46131835Y-60518165D01*
X46107621Y-60488660D01*
X46089628Y-60454996D01*
X46078546Y-60418465D01*
X46074200Y-60374340D01*
X46074200Y-59425660D01*
X46078546Y-59381535D01*
X46089628Y-59345004D01*
X46107621Y-59311340D01*
X46131835Y-59281835D01*
X46161340Y-59257621D01*
X46195004Y-59239628D01*
X46231535Y-59228546D01*
X46275660Y-59224200D01*
X47724340Y-59224200D01*
X47768465Y-59228546D01*
G37*
G36*
X41268465Y-59228546D02*
G01*
X41304996Y-59239628D01*
X41338660Y-59257621D01*
X41368165Y-59281835D01*
X41392379Y-59311340D01*
X41410372Y-59345004D01*
X41421454Y-59381535D01*
X41425800Y-59425660D01*
X41425800Y-60374340D01*
X41421454Y-60418465D01*
X41410372Y-60454996D01*
X41392379Y-60488660D01*
X41368165Y-60518165D01*
X41338660Y-60542379D01*
X41304996Y-60560372D01*
X41268465Y-60571454D01*
X41224340Y-60575800D01*
X39775660Y-60575800D01*
X39731535Y-60571454D01*
X39695004Y-60560372D01*
X39661340Y-60542379D01*
X39631835Y-60518165D01*
X39607621Y-60488660D01*
X39589628Y-60454996D01*
X39578546Y-60418465D01*
X39574200Y-60374340D01*
X39574200Y-59425660D01*
X39578546Y-59381535D01*
X39589628Y-59345004D01*
X39607621Y-59311340D01*
X39631835Y-59281835D01*
X39661340Y-59257621D01*
X39695004Y-59239628D01*
X39731535Y-59228546D01*
X39775660Y-59224200D01*
X41224340Y-59224200D01*
X41268465Y-59228546D01*
G37*
G36*
X47768465Y-56428546D02*
G01*
X47804996Y-56439628D01*
X47838660Y-56457621D01*
X47868165Y-56481835D01*
X47892379Y-56511340D01*
X47910372Y-56545004D01*
X47921454Y-56581535D01*
X47925800Y-56625660D01*
X47925800Y-57574340D01*
X47921454Y-57618465D01*
X47910372Y-57654996D01*
X47892379Y-57688660D01*
X47868165Y-57718165D01*
X47838660Y-57742379D01*
X47804996Y-57760372D01*
X47768465Y-57771454D01*
X47724340Y-57775800D01*
X46275660Y-57775800D01*
X46231535Y-57771454D01*
X46195004Y-57760372D01*
X46161340Y-57742379D01*
X46131835Y-57718165D01*
X46107621Y-57688660D01*
X46089628Y-57654996D01*
X46078546Y-57618465D01*
X46074200Y-57574340D01*
X46074200Y-56625660D01*
X46078546Y-56581535D01*
X46089628Y-56545004D01*
X46107621Y-56511340D01*
X46131835Y-56481835D01*
X46161340Y-56457621D01*
X46195004Y-56439628D01*
X46231535Y-56428546D01*
X46275660Y-56424200D01*
X47724340Y-56424200D01*
X47768465Y-56428546D01*
G37*
G36*
X41268465Y-56428546D02*
G01*
X41304996Y-56439628D01*
X41338660Y-56457621D01*
X41368165Y-56481835D01*
X41392379Y-56511340D01*
X41410372Y-56545004D01*
X41421454Y-56581535D01*
X41425800Y-56625660D01*
X41425800Y-57574340D01*
X41421454Y-57618465D01*
X41410372Y-57654996D01*
X41392379Y-57688660D01*
X41368165Y-57718165D01*
X41338660Y-57742379D01*
X41304996Y-57760372D01*
X41268465Y-57771454D01*
X41224340Y-57775800D01*
X39775660Y-57775800D01*
X39731535Y-57771454D01*
X39695004Y-57760372D01*
X39661340Y-57742379D01*
X39631835Y-57718165D01*
X39607621Y-57688660D01*
X39589628Y-57654996D01*
X39578546Y-57618465D01*
X39574200Y-57574340D01*
X39574200Y-56625660D01*
X39578546Y-56581535D01*
X39589628Y-56545004D01*
X39607621Y-56511340D01*
X39631835Y-56481835D01*
X39661340Y-56457621D01*
X39695004Y-56439628D01*
X39731535Y-56428546D01*
X39775660Y-56424200D01*
X41224340Y-56424200D01*
X41268465Y-56428546D01*
G37*
G36*
X82618465Y-55328546D02*
G01*
X82654996Y-55339628D01*
X82688660Y-55357621D01*
X82718165Y-55381835D01*
X82742379Y-55411340D01*
X82760372Y-55445004D01*
X82771454Y-55481535D01*
X82775800Y-55525660D01*
X82775800Y-56974340D01*
X82771454Y-57018465D01*
X82760372Y-57054996D01*
X82742379Y-57088660D01*
X82718165Y-57118165D01*
X82688660Y-57142379D01*
X82654996Y-57160372D01*
X82618465Y-57171454D01*
X82574340Y-57175800D01*
X81625660Y-57175800D01*
X81581535Y-57171454D01*
X81545004Y-57160372D01*
X81511340Y-57142379D01*
X81481835Y-57118165D01*
X81457621Y-57088660D01*
X81439628Y-57054996D01*
X81428546Y-57018465D01*
X81424200Y-56974340D01*
X81424200Y-55525660D01*
X81428546Y-55481535D01*
X81439628Y-55445004D01*
X81457621Y-55411340D01*
X81481835Y-55381835D01*
X81511340Y-55357621D01*
X81545004Y-55339628D01*
X81581535Y-55328546D01*
X81625660Y-55324200D01*
X82574340Y-55324200D01*
X82618465Y-55328546D01*
G37*
G36*
X85418465Y-55328546D02*
G01*
X85454996Y-55339628D01*
X85488660Y-55357621D01*
X85518165Y-55381835D01*
X85542379Y-55411340D01*
X85560372Y-55445004D01*
X85571454Y-55481535D01*
X85575800Y-55525660D01*
X85575800Y-56974340D01*
X85571454Y-57018465D01*
X85560372Y-57054996D01*
X85542379Y-57088660D01*
X85518165Y-57118165D01*
X85488660Y-57142379D01*
X85454996Y-57160372D01*
X85418465Y-57171454D01*
X85374340Y-57175800D01*
X84425660Y-57175800D01*
X84381535Y-57171454D01*
X84345004Y-57160372D01*
X84311340Y-57142379D01*
X84281835Y-57118165D01*
X84257621Y-57088660D01*
X84239628Y-57054996D01*
X84228546Y-57018465D01*
X84224200Y-56974340D01*
X84224200Y-55525660D01*
X84228546Y-55481535D01*
X84239628Y-55445004D01*
X84257621Y-55411340D01*
X84281835Y-55381835D01*
X84311340Y-55357621D01*
X84345004Y-55339628D01*
X84381535Y-55328546D01*
X84425660Y-55324200D01*
X85374340Y-55324200D01*
X85418465Y-55328546D01*
G37*
G36*
X97896732Y-54310739D02*
G01*
X98012754Y-54333817D01*
X98176689Y-54401721D01*
X98324227Y-54500303D01*
X98449697Y-54625773D01*
X98548279Y-54773311D01*
X98616183Y-54937246D01*
X98650800Y-55111279D01*
X98650800Y-55288721D01*
X98616183Y-55462754D01*
X98548279Y-55626689D01*
X98449697Y-55774227D01*
X98324227Y-55899697D01*
X98176689Y-55998279D01*
X98012754Y-56066183D01*
X97896732Y-56089261D01*
X97838722Y-56100800D01*
X97661278Y-56100800D01*
X97603268Y-56089261D01*
X97487246Y-56066183D01*
X97323311Y-55998279D01*
X97175773Y-55899697D01*
X97050303Y-55774227D01*
X96951721Y-55626689D01*
X96883817Y-55462754D01*
X96849200Y-55288721D01*
X96849200Y-55111279D01*
X96883817Y-54937246D01*
X96951721Y-54773311D01*
X97050303Y-54625773D01*
X97175773Y-54500303D01*
X97323311Y-54401721D01*
X97487246Y-54333817D01*
X97603268Y-54310739D01*
X97661278Y-54299200D01*
X97838722Y-54299200D01*
X97896732Y-54310739D01*
G37*
G36*
X97896732Y-51770739D02*
G01*
X98012754Y-51793817D01*
X98176689Y-51861721D01*
X98324227Y-51960303D01*
X98449697Y-52085773D01*
X98548279Y-52233311D01*
X98616183Y-52397246D01*
X98650800Y-52571279D01*
X98650800Y-52748721D01*
X98616183Y-52922754D01*
X98548279Y-53086689D01*
X98449697Y-53234227D01*
X98324227Y-53359697D01*
X98176689Y-53458279D01*
X98012754Y-53526183D01*
X97896732Y-53549261D01*
X97838722Y-53560800D01*
X97661278Y-53560800D01*
X97603268Y-53549261D01*
X97487246Y-53526183D01*
X97323311Y-53458279D01*
X97175773Y-53359697D01*
X97050303Y-53234227D01*
X96951721Y-53086689D01*
X96883817Y-52922754D01*
X96849200Y-52748721D01*
X96849200Y-52571279D01*
X96883817Y-52397246D01*
X96951721Y-52233311D01*
X97050303Y-52085773D01*
X97175773Y-51960303D01*
X97323311Y-51861721D01*
X97487246Y-51793817D01*
X97603268Y-51770739D01*
X97661278Y-51759200D01*
X97838722Y-51759200D01*
X97896732Y-51770739D01*
G37*
G36*
X43236680Y-50963717D02*
G01*
X43425803Y-51021087D01*
X43425805Y-51021088D01*
X43600099Y-51114250D01*
X43600101Y-51114251D01*
X43600100Y-51114251D01*
X43752873Y-51239627D01*
X43878249Y-51392400D01*
X43971413Y-51566696D01*
X44028783Y-51755819D01*
X44043300Y-51903216D01*
X44043300Y-52096783D01*
X44028783Y-52244180D01*
X43982350Y-52397248D01*
X43971412Y-52433305D01*
X43878250Y-52607599D01*
X43752873Y-52760373D01*
X43600099Y-52885750D01*
X43425806Y-52978912D01*
X43425804Y-52978913D01*
X43236681Y-53036283D01*
X43040000Y-53055654D01*
X42843320Y-53036283D01*
X42654197Y-52978913D01*
X42479900Y-52885749D01*
X42327127Y-52760373D01*
X42201751Y-52607600D01*
X42182337Y-52571279D01*
X42108588Y-52433306D01*
X42097649Y-52397246D01*
X42051217Y-52244181D01*
X42036700Y-52096784D01*
X42036700Y-51903217D01*
X42051217Y-51755820D01*
X42108587Y-51566697D01*
X42201751Y-51392400D01*
X42327127Y-51239627D01*
X42479900Y-51114251D01*
X42479899Y-51114251D01*
X42479901Y-51114250D01*
X42654194Y-51021088D01*
X42654196Y-51021087D01*
X42843319Y-50963717D01*
X43040000Y-50944346D01*
X43236680Y-50963717D01*
G37*
G36*
X45776680Y-50963717D02*
G01*
X45965803Y-51021087D01*
X45965805Y-51021088D01*
X46140099Y-51114250D01*
X46140101Y-51114251D01*
X46140100Y-51114251D01*
X46292873Y-51239627D01*
X46418249Y-51392400D01*
X46511413Y-51566696D01*
X46568783Y-51755819D01*
X46583300Y-51903216D01*
X46583300Y-52096783D01*
X46568783Y-52244180D01*
X46522350Y-52397248D01*
X46511412Y-52433305D01*
X46418250Y-52607599D01*
X46292873Y-52760373D01*
X46140099Y-52885750D01*
X45965806Y-52978912D01*
X45965804Y-52978913D01*
X45776681Y-53036283D01*
X45580000Y-53055654D01*
X45383320Y-53036283D01*
X45194197Y-52978913D01*
X45019900Y-52885749D01*
X44867127Y-52760373D01*
X44741751Y-52607600D01*
X44722337Y-52571279D01*
X44648588Y-52433306D01*
X44637649Y-52397246D01*
X44591217Y-52244181D01*
X44576700Y-52096784D01*
X44576700Y-51903217D01*
X44591217Y-51755820D01*
X44648587Y-51566697D01*
X44741751Y-51392400D01*
X44867127Y-51239627D01*
X45019900Y-51114251D01*
X45019899Y-51114251D01*
X45019901Y-51114250D01*
X45194194Y-51021088D01*
X45194196Y-51021087D01*
X45383319Y-50963717D01*
X45580000Y-50944346D01*
X45776680Y-50963717D01*
G37*
G36*
X41503300Y-53050800D02*
G01*
X39496700Y-53050800D01*
X39496700Y-50949200D01*
X41503300Y-50949200D01*
X41503300Y-53050800D01*
G37*
G36*
X77595800Y-51700800D02*
G01*
X76594200Y-51700800D01*
X76594200Y-49599200D01*
X77595800Y-49599200D01*
X77595800Y-51700800D01*
G37*
G36*
X78865800Y-51700800D02*
G01*
X77864200Y-51700800D01*
X77864200Y-49599200D01*
X78865800Y-49599200D01*
X78865800Y-51700800D01*
G37*
G36*
X80135800Y-51700800D02*
G01*
X79134200Y-51700800D01*
X79134200Y-49599200D01*
X80135800Y-49599200D01*
X80135800Y-51700800D01*
G37*
G36*
X81405800Y-51700800D02*
G01*
X80404200Y-51700800D01*
X80404200Y-49599200D01*
X81405800Y-49599200D01*
X81405800Y-51700800D01*
G37*
G36*
X82675800Y-51700800D02*
G01*
X81674200Y-51700800D01*
X81674200Y-49599200D01*
X82675800Y-49599200D01*
X82675800Y-51700800D01*
G37*
G36*
X85215800Y-51700800D02*
G01*
X84214200Y-51700800D01*
X84214200Y-49599200D01*
X85215800Y-49599200D01*
X85215800Y-51700800D01*
G37*
G36*
X83945800Y-51700800D02*
G01*
X82944200Y-51700800D01*
X82944200Y-49599200D01*
X83945800Y-49599200D01*
X83945800Y-51700800D01*
G37*
G36*
X73785800Y-51700800D02*
G01*
X72784200Y-51700800D01*
X72784200Y-49599200D01*
X73785800Y-49599200D01*
X73785800Y-51700800D01*
G37*
G36*
X76325800Y-51700800D02*
G01*
X75324200Y-51700800D01*
X75324200Y-49599200D01*
X76325800Y-49599200D01*
X76325800Y-51700800D01*
G37*
G36*
X75055800Y-51700800D02*
G01*
X74054200Y-51700800D01*
X74054200Y-49599200D01*
X75055800Y-49599200D01*
X75055800Y-51700800D01*
G37*
G36*
X97896732Y-49230739D02*
G01*
X98012754Y-49253817D01*
X98176689Y-49321721D01*
X98324227Y-49420303D01*
X98449697Y-49545773D01*
X98548279Y-49693311D01*
X98616183Y-49857246D01*
X98650800Y-50031279D01*
X98650800Y-50208721D01*
X98616183Y-50382754D01*
X98548279Y-50546689D01*
X98449697Y-50694227D01*
X98324227Y-50819697D01*
X98176689Y-50918279D01*
X98012754Y-50986183D01*
X97896732Y-51009261D01*
X97838722Y-51020800D01*
X97661278Y-51020800D01*
X97603268Y-51009261D01*
X97487246Y-50986183D01*
X97323311Y-50918279D01*
X97175773Y-50819697D01*
X97050303Y-50694227D01*
X96951721Y-50546689D01*
X96883817Y-50382754D01*
X96849200Y-50208721D01*
X96849200Y-50031279D01*
X96883817Y-49857246D01*
X96951721Y-49693311D01*
X97050303Y-49545773D01*
X97175773Y-49420303D01*
X97323311Y-49321721D01*
X97487246Y-49253817D01*
X97603268Y-49230739D01*
X97661278Y-49219200D01*
X97838722Y-49219200D01*
X97896732Y-49230739D01*
G37*
G36*
X71550800Y-50150800D02*
G01*
X69449200Y-50150800D01*
X69449200Y-49149200D01*
X71550800Y-49149200D01*
X71550800Y-50150800D01*
G37*
G36*
X88550800Y-50150800D02*
G01*
X86449200Y-50150800D01*
X86449200Y-49149200D01*
X88550800Y-49149200D01*
X88550800Y-50150800D01*
G37*
G36*
X71550800Y-48880800D02*
G01*
X69449200Y-48880800D01*
X69449200Y-47879200D01*
X71550800Y-47879200D01*
X71550800Y-48880800D01*
G37*
G36*
X88550800Y-48880800D02*
G01*
X86449200Y-48880800D01*
X86449200Y-47879200D01*
X88550800Y-47879200D01*
X88550800Y-48880800D01*
G37*
G36*
X97896732Y-46690739D02*
G01*
X98012754Y-46713817D01*
X98176689Y-46781721D01*
X98324227Y-46880303D01*
X98449697Y-47005773D01*
X98548279Y-47153311D01*
X98616183Y-47317246D01*
X98650800Y-47491279D01*
X98650800Y-47668721D01*
X98616183Y-47842754D01*
X98548279Y-48006689D01*
X98449697Y-48154227D01*
X98324227Y-48279697D01*
X98176689Y-48378279D01*
X98012754Y-48446183D01*
X97896732Y-48469261D01*
X97838722Y-48480800D01*
X97661278Y-48480800D01*
X97603268Y-48469261D01*
X97487246Y-48446183D01*
X97323311Y-48378279D01*
X97175773Y-48279697D01*
X97050303Y-48154227D01*
X96951721Y-48006689D01*
X96883817Y-47842754D01*
X96849200Y-47668721D01*
X96849200Y-47491279D01*
X96883817Y-47317246D01*
X96951721Y-47153311D01*
X97050303Y-47005773D01*
X97175773Y-46880303D01*
X97323311Y-46781721D01*
X97487246Y-46713817D01*
X97603268Y-46690739D01*
X97661278Y-46679200D01*
X97838722Y-46679200D01*
X97896732Y-46690739D01*
G37*
G36*
X88550800Y-47610800D02*
G01*
X86449200Y-47610800D01*
X86449200Y-46609200D01*
X88550800Y-46609200D01*
X88550800Y-47610800D01*
G37*
G36*
X71550800Y-47610800D02*
G01*
X69449200Y-47610800D01*
X69449200Y-46609200D01*
X71550800Y-46609200D01*
X71550800Y-47610800D01*
G37*
G36*
X88550800Y-46340800D02*
G01*
X86449200Y-46340800D01*
X86449200Y-45339200D01*
X88550800Y-45339200D01*
X88550800Y-46340800D01*
G37*
G36*
X71550800Y-46340800D02*
G01*
X69449200Y-46340800D01*
X69449200Y-45339200D01*
X71550800Y-45339200D01*
X71550800Y-46340800D01*
G37*
G36*
X97896732Y-44150739D02*
G01*
X98012754Y-44173817D01*
X98176689Y-44241721D01*
X98324227Y-44340303D01*
X98449697Y-44465773D01*
X98548279Y-44613311D01*
X98616183Y-44777246D01*
X98650800Y-44951279D01*
X98650800Y-45128721D01*
X98616183Y-45302754D01*
X98548279Y-45466689D01*
X98449697Y-45614227D01*
X98324227Y-45739697D01*
X98176689Y-45838279D01*
X98012754Y-45906183D01*
X97896732Y-45929261D01*
X97838722Y-45940800D01*
X97661278Y-45940800D01*
X97603268Y-45929261D01*
X97487246Y-45906183D01*
X97323311Y-45838279D01*
X97175773Y-45739697D01*
X97050303Y-45614227D01*
X96951721Y-45466689D01*
X96883817Y-45302754D01*
X96849200Y-45128721D01*
X96849200Y-44951279D01*
X96883817Y-44777246D01*
X96951721Y-44613311D01*
X97050303Y-44465773D01*
X97175773Y-44340303D01*
X97323311Y-44241721D01*
X97487246Y-44173817D01*
X97603268Y-44150739D01*
X97661278Y-44139200D01*
X97838722Y-44139200D01*
X97896732Y-44150739D01*
G37*
G36*
X71550800Y-45070800D02*
G01*
X69449200Y-45070800D01*
X69449200Y-44069200D01*
X71550800Y-44069200D01*
X71550800Y-45070800D01*
G37*
G36*
X88550800Y-45070800D02*
G01*
X86449200Y-45070800D01*
X86449200Y-44069200D01*
X88550800Y-44069200D01*
X88550800Y-45070800D01*
G37*
G36*
X28306506Y-42689581D02*
G01*
X28418528Y-42735982D01*
X28497740Y-42768793D01*
X28669846Y-42883791D01*
X28816209Y-43030154D01*
X28931207Y-43202260D01*
X28931207Y-43202261D01*
X29010419Y-43393494D01*
X29050800Y-43596504D01*
X29050800Y-43803496D01*
X29010419Y-44006506D01*
X28984450Y-44069200D01*
X28931207Y-44197740D01*
X28816209Y-44369846D01*
X28669846Y-44516209D01*
X28497740Y-44631207D01*
X28418528Y-44664018D01*
X28306506Y-44710419D01*
X28103496Y-44750800D01*
X27896504Y-44750800D01*
X27693494Y-44710419D01*
X27581472Y-44664018D01*
X27502260Y-44631207D01*
X27330154Y-44516209D01*
X27183791Y-44369846D01*
X27068793Y-44197740D01*
X27015550Y-44069200D01*
X26989581Y-44006506D01*
X26949200Y-43803496D01*
X26949200Y-43596504D01*
X26989581Y-43393494D01*
X27068793Y-43202261D01*
X27068793Y-43202260D01*
X27183791Y-43030154D01*
X27330154Y-42883791D01*
X27502260Y-42768793D01*
X27581472Y-42735982D01*
X27693494Y-42689581D01*
X27896504Y-42649200D01*
X28103496Y-42649200D01*
X28306506Y-42689581D01*
G37*
G36*
X33306506Y-42689581D02*
G01*
X33418528Y-42735982D01*
X33497740Y-42768793D01*
X33669846Y-42883791D01*
X33816209Y-43030154D01*
X33931207Y-43202260D01*
X33931207Y-43202261D01*
X34010419Y-43393494D01*
X34050800Y-43596504D01*
X34050800Y-43803496D01*
X34010419Y-44006506D01*
X33984450Y-44069200D01*
X33931207Y-44197740D01*
X33816209Y-44369846D01*
X33669846Y-44516209D01*
X33497740Y-44631207D01*
X33418528Y-44664018D01*
X33306506Y-44710419D01*
X33103496Y-44750800D01*
X32896504Y-44750800D01*
X32693494Y-44710419D01*
X32581472Y-44664018D01*
X32502260Y-44631207D01*
X32330154Y-44516209D01*
X32183791Y-44369846D01*
X32068793Y-44197740D01*
X32015550Y-44069200D01*
X31989581Y-44006506D01*
X31949200Y-43803496D01*
X31949200Y-43596504D01*
X31989581Y-43393494D01*
X32068793Y-43202261D01*
X32068793Y-43202260D01*
X32183791Y-43030154D01*
X32330154Y-42883791D01*
X32502260Y-42768793D01*
X32581472Y-42735982D01*
X32693494Y-42689581D01*
X32896504Y-42649200D01*
X33103496Y-42649200D01*
X33306506Y-42689581D01*
G37*
G36*
X71550800Y-43800800D02*
G01*
X69449200Y-43800800D01*
X69449200Y-42799200D01*
X71550800Y-42799200D01*
X71550800Y-43800800D01*
G37*
G36*
X88550800Y-43800800D02*
G01*
X86449200Y-43800800D01*
X86449200Y-42799200D01*
X88550800Y-42799200D01*
X88550800Y-43800800D01*
G37*
G36*
X98650800Y-43400800D02*
G01*
X96849200Y-43400800D01*
X96849200Y-41599200D01*
X98650800Y-41599200D01*
X98650800Y-43400800D01*
G37*
G36*
X80550800Y-43190800D02*
G01*
X75449200Y-43190800D01*
X75449200Y-38089200D01*
X80550800Y-38089200D01*
X80550800Y-43190800D01*
G37*
G36*
X71550800Y-42530800D02*
G01*
X69449200Y-42530800D01*
X69449200Y-41529200D01*
X71550800Y-41529200D01*
X71550800Y-42530800D01*
G37*
G36*
X88550800Y-42530800D02*
G01*
X86449200Y-42530800D01*
X86449200Y-41529200D01*
X88550800Y-41529200D01*
X88550800Y-42530800D01*
G37*
G36*
X71550800Y-41260800D02*
G01*
X69449200Y-41260800D01*
X69449200Y-40259200D01*
X71550800Y-40259200D01*
X71550800Y-41260800D01*
G37*
G36*
X88550800Y-41260800D02*
G01*
X86449200Y-41260800D01*
X86449200Y-40259200D01*
X88550800Y-40259200D01*
X88550800Y-41260800D01*
G37*
G36*
X88550800Y-39990800D02*
G01*
X86449200Y-39990800D01*
X86449200Y-38989200D01*
X88550800Y-38989200D01*
X88550800Y-39990800D01*
G37*
G36*
X71550800Y-39990800D02*
G01*
X69449200Y-39990800D01*
X69449200Y-38989200D01*
X71550800Y-38989200D01*
X71550800Y-39990800D01*
G37*
G36*
X71550800Y-38720800D02*
G01*
X69449200Y-38720800D01*
X69449200Y-37719200D01*
X71550800Y-37719200D01*
X71550800Y-38720800D01*
G37*
G36*
X88550800Y-38720800D02*
G01*
X86449200Y-38720800D01*
X86449200Y-37719200D01*
X88550800Y-37719200D01*
X88550800Y-38720800D01*
G37*
G36*
X64768465Y-36728546D02*
G01*
X64804996Y-36739628D01*
X64838660Y-36757621D01*
X64868165Y-36781835D01*
X64892379Y-36811340D01*
X64910372Y-36845004D01*
X64921454Y-36881535D01*
X64925800Y-36925660D01*
X64925800Y-37874340D01*
X64921454Y-37918465D01*
X64910372Y-37954996D01*
X64892379Y-37988660D01*
X64868165Y-38018165D01*
X64838660Y-38042379D01*
X64804996Y-38060372D01*
X64768465Y-38071454D01*
X64724340Y-38075800D01*
X63275660Y-38075800D01*
X63231535Y-38071454D01*
X63195004Y-38060372D01*
X63161340Y-38042379D01*
X63131835Y-38018165D01*
X63107621Y-37988660D01*
X63089628Y-37954996D01*
X63078546Y-37918465D01*
X63074200Y-37874340D01*
X63074200Y-36925660D01*
X63078546Y-36881535D01*
X63089628Y-36845004D01*
X63107621Y-36811340D01*
X63131835Y-36781835D01*
X63161340Y-36757621D01*
X63195004Y-36739628D01*
X63231535Y-36728546D01*
X63275660Y-36724200D01*
X64724340Y-36724200D01*
X64768465Y-36728546D01*
G37*
G36*
X52806506Y-35989581D02*
G01*
X52918528Y-36035982D01*
X52997740Y-36068793D01*
X53169846Y-36183791D01*
X53316209Y-36330154D01*
X53431207Y-36502260D01*
X53431207Y-36502261D01*
X53510419Y-36693494D01*
X53550800Y-36896504D01*
X53550800Y-37103496D01*
X53510419Y-37306506D01*
X53464018Y-37418528D01*
X53431207Y-37497740D01*
X53354368Y-37612737D01*
X53316210Y-37669845D01*
X53169845Y-37816210D01*
X53112737Y-37854368D01*
X52997740Y-37931207D01*
X52940308Y-37954996D01*
X52806506Y-38010419D01*
X52603496Y-38050800D01*
X52396504Y-38050800D01*
X52193494Y-38010419D01*
X52059692Y-37954996D01*
X52002260Y-37931207D01*
X51887263Y-37854368D01*
X51830155Y-37816210D01*
X51683790Y-37669845D01*
X51645632Y-37612737D01*
X51568793Y-37497740D01*
X51535982Y-37418528D01*
X51489581Y-37306506D01*
X51449200Y-37103496D01*
X51449200Y-36896504D01*
X51489581Y-36693494D01*
X51568793Y-36502261D01*
X51568793Y-36502260D01*
X51683791Y-36330154D01*
X51830154Y-36183791D01*
X52002260Y-36068793D01*
X52081472Y-36035982D01*
X52193494Y-35989581D01*
X52396504Y-35949200D01*
X52603496Y-35949200D01*
X52806506Y-35989581D01*
G37*
G36*
X94268465Y-36578546D02*
G01*
X94304996Y-36589628D01*
X94338660Y-36607621D01*
X94368165Y-36631835D01*
X94392379Y-36661340D01*
X94410372Y-36695004D01*
X94421454Y-36731535D01*
X94425800Y-36775660D01*
X94425800Y-37724340D01*
X94421454Y-37768465D01*
X94410372Y-37804996D01*
X94392379Y-37838660D01*
X94368165Y-37868165D01*
X94338660Y-37892379D01*
X94304996Y-37910372D01*
X94268465Y-37921454D01*
X94224340Y-37925800D01*
X92775660Y-37925800D01*
X92731535Y-37921454D01*
X92695004Y-37910372D01*
X92661340Y-37892379D01*
X92631835Y-37868165D01*
X92607621Y-37838660D01*
X92589628Y-37804996D01*
X92578546Y-37768465D01*
X92574200Y-37724340D01*
X92574200Y-36775660D01*
X92578546Y-36731535D01*
X92589628Y-36695004D01*
X92607621Y-36661340D01*
X92631835Y-36631835D01*
X92661340Y-36607621D01*
X92695004Y-36589628D01*
X92731535Y-36578546D01*
X92775660Y-36574200D01*
X94224340Y-36574200D01*
X94268465Y-36578546D01*
G37*
G36*
X88550800Y-37450800D02*
G01*
X86449200Y-37450800D01*
X86449200Y-36449200D01*
X88550800Y-36449200D01*
X88550800Y-37450800D01*
G37*
G36*
X71550800Y-37450800D02*
G01*
X69449200Y-37450800D01*
X69449200Y-36449200D01*
X71550800Y-36449200D01*
X71550800Y-37450800D01*
G37*
G36*
X101268900Y-33370346D02*
G01*
X101481521Y-33412639D01*
X101781947Y-33537080D01*
X102052324Y-33717740D01*
X102282260Y-33947676D01*
X102462920Y-34218053D01*
X102587361Y-34518479D01*
X102587361Y-34518481D01*
X102650800Y-34837409D01*
X102650800Y-35162591D01*
X102644030Y-35196625D01*
X102587361Y-35481521D01*
X102462920Y-35781947D01*
X102282260Y-36052324D01*
X102052324Y-36282260D01*
X101781947Y-36462920D01*
X101481521Y-36587361D01*
X101318654Y-36619757D01*
X101162591Y-36650800D01*
X100837409Y-36650800D01*
X100681346Y-36619757D01*
X100518479Y-36587361D01*
X100218053Y-36462920D01*
X99947676Y-36282260D01*
X99717740Y-36052324D01*
X99537080Y-35781947D01*
X99412639Y-35481521D01*
X99355970Y-35196625D01*
X99349200Y-35162591D01*
X99349200Y-34837409D01*
X99412639Y-34518481D01*
X99412639Y-34518479D01*
X99537080Y-34218053D01*
X99717740Y-33947676D01*
X99947676Y-33717740D01*
X100218053Y-33537080D01*
X100518479Y-33412639D01*
X100731100Y-33370346D01*
X100837409Y-33349200D01*
X101162591Y-33349200D01*
X101268900Y-33370346D01*
G37*
G36*
X30268900Y-33370346D02*
G01*
X30481521Y-33412639D01*
X30781947Y-33537080D01*
X31052324Y-33717740D01*
X31282260Y-33947676D01*
X31462920Y-34218053D01*
X31587361Y-34518479D01*
X31587361Y-34518481D01*
X31650800Y-34837409D01*
X31650800Y-35162591D01*
X31644030Y-35196625D01*
X31587361Y-35481521D01*
X31462920Y-35781947D01*
X31282260Y-36052324D01*
X31052324Y-36282260D01*
X30781947Y-36462920D01*
X30481521Y-36587361D01*
X30318654Y-36619757D01*
X30162591Y-36650800D01*
X29837409Y-36650800D01*
X29681346Y-36619757D01*
X29518479Y-36587361D01*
X29218053Y-36462920D01*
X28947676Y-36282260D01*
X28717740Y-36052324D01*
X28537080Y-35781947D01*
X28412639Y-35481521D01*
X28355970Y-35196625D01*
X28349200Y-35162591D01*
X28349200Y-34837409D01*
X28412639Y-34518481D01*
X28412639Y-34518479D01*
X28537080Y-34218053D01*
X28717740Y-33947676D01*
X28947676Y-33717740D01*
X29218053Y-33537080D01*
X29518479Y-33412639D01*
X29731100Y-33370346D01*
X29837409Y-33349200D01*
X30162591Y-33349200D01*
X30268900Y-33370346D01*
G37*
G36*
X88550800Y-36180800D02*
G01*
X86449200Y-36180800D01*
X86449200Y-35179200D01*
X88550800Y-35179200D01*
X88550800Y-36180800D01*
G37*
G36*
X71550800Y-36180800D02*
G01*
X69449200Y-36180800D01*
X69449200Y-35179200D01*
X71550800Y-35179200D01*
X71550800Y-36180800D01*
G37*
G36*
X64768465Y-33928546D02*
G01*
X64804996Y-33939628D01*
X64838660Y-33957621D01*
X64868165Y-33981835D01*
X64892379Y-34011340D01*
X64910372Y-34045004D01*
X64921454Y-34081535D01*
X64925800Y-34125660D01*
X64925800Y-35074340D01*
X64921454Y-35118465D01*
X64910372Y-35154996D01*
X64892379Y-35188660D01*
X64868165Y-35218165D01*
X64838660Y-35242379D01*
X64804996Y-35260372D01*
X64768465Y-35271454D01*
X64724340Y-35275800D01*
X63275660Y-35275800D01*
X63231535Y-35271454D01*
X63195004Y-35260372D01*
X63161340Y-35242379D01*
X63131835Y-35218165D01*
X63107621Y-35188660D01*
X63089628Y-35154996D01*
X63078546Y-35118465D01*
X63074200Y-35074340D01*
X63074200Y-34125660D01*
X63078546Y-34081535D01*
X63089628Y-34045004D01*
X63107621Y-34011340D01*
X63131835Y-33981835D01*
X63161340Y-33957621D01*
X63195004Y-33939628D01*
X63231535Y-33928546D01*
X63275660Y-33924200D01*
X64724340Y-33924200D01*
X64768465Y-33928546D01*
G37*
G36*
X94268465Y-33778546D02*
G01*
X94304996Y-33789628D01*
X94338660Y-33807621D01*
X94368165Y-33831835D01*
X94392379Y-33861340D01*
X94410372Y-33895004D01*
X94421454Y-33931535D01*
X94425800Y-33975660D01*
X94425800Y-34924340D01*
X94421454Y-34968465D01*
X94410372Y-35004996D01*
X94392379Y-35038660D01*
X94368165Y-35068165D01*
X94338660Y-35092379D01*
X94304996Y-35110372D01*
X94268465Y-35121454D01*
X94224340Y-35125800D01*
X92775660Y-35125800D01*
X92731535Y-35121454D01*
X92695004Y-35110372D01*
X92661340Y-35092379D01*
X92631835Y-35068165D01*
X92607621Y-35038660D01*
X92589628Y-35004996D01*
X92578546Y-34968465D01*
X92574200Y-34924340D01*
X92574200Y-33975660D01*
X92578546Y-33931535D01*
X92589628Y-33895004D01*
X92607621Y-33861340D01*
X92631835Y-33831835D01*
X92661340Y-33807621D01*
X92695004Y-33789628D01*
X92731535Y-33778546D01*
X92775660Y-33774200D01*
X94224340Y-33774200D01*
X94268465Y-33778546D01*
G37*
G36*
X71550800Y-34910800D02*
G01*
X69449200Y-34910800D01*
X69449200Y-33909200D01*
X71550800Y-33909200D01*
X71550800Y-34910800D01*
G37*
G36*
X88550800Y-34910800D02*
G01*
X86449200Y-34910800D01*
X86449200Y-33909200D01*
X88550800Y-33909200D01*
X88550800Y-34910800D01*
G37*
G36*
X88550800Y-33640800D02*
G01*
X86449200Y-33640800D01*
X86449200Y-32639200D01*
X88550800Y-32639200D01*
X88550800Y-33640800D01*
G37*
G36*
X71550800Y-33640800D02*
G01*
X69449200Y-33640800D01*
X69449200Y-32639200D01*
X71550800Y-32639200D01*
X71550800Y-33640800D01*
G37*
M02*
