G04 #@! TF.GenerationSoftware,KiCad,Pcbnew,(5.1.6)-1*
G04 #@! TF.CreationDate,2020-09-23T14:33:51-04:00*
G04 #@! TF.ProjectId,alarmbuddy,616c6172-6d62-4756-9464-792e6b696361,rev?*
G04 #@! TF.SameCoordinates,Original*
G04 #@! TF.FileFunction,Copper,L2,Bot*
G04 #@! TF.FilePolarity,Positive*
%FSLAX46Y46*%
G04 Gerber Fmt 4.6, Leading zero omitted, Abs format (unit mm)*
G04 Created by KiCad (PCBNEW (5.1.6)-1) date 2020-09-23 14:33:51*
%MOMM*%
%LPD*%
G01*
G04 APERTURE LIST*
G04 #@! TA.AperFunction,ComponentPad*
%ADD10R,1.700000X1.700000*%
G04 #@! TD*
G04 #@! TA.AperFunction,ComponentPad*
%ADD11O,1.700000X1.700000*%
G04 #@! TD*
G04 #@! TA.AperFunction,ComponentPad*
%ADD12C,2.600000*%
G04 #@! TD*
G04 #@! TA.AperFunction,ComponentPad*
%ADD13R,2.600000X2.600000*%
G04 #@! TD*
G04 #@! TA.AperFunction,ComponentPad*
%ADD14O,1.905000X2.000000*%
G04 #@! TD*
G04 #@! TA.AperFunction,ComponentPad*
%ADD15R,1.905000X2.000000*%
G04 #@! TD*
G04 #@! TA.AperFunction,ComponentPad*
%ADD16C,2.000000*%
G04 #@! TD*
G04 #@! TA.AperFunction,ComponentPad*
%ADD17C,1.600000*%
G04 #@! TD*
G04 #@! TA.AperFunction,ViaPad*
%ADD18C,0.800000*%
G04 #@! TD*
G04 #@! TA.AperFunction,Conductor*
%ADD19C,0.300000*%
G04 #@! TD*
G04 #@! TA.AperFunction,Conductor*
%ADD20C,0.500000*%
G04 #@! TD*
G04 #@! TA.AperFunction,Conductor*
%ADD21C,0.254000*%
G04 #@! TD*
G04 APERTURE END LIST*
D10*
X53500000Y-32840000D03*
D11*
X53500000Y-35380000D03*
X53500000Y-37920000D03*
X53500000Y-40460000D03*
X53500000Y-43000000D03*
X53500000Y-45540000D03*
D12*
X43050000Y-84000000D03*
D13*
X38050000Y-84000000D03*
D12*
X101000000Y-44000000D03*
D13*
X101000000Y-49000000D03*
D14*
X45580000Y-38000000D03*
X43040000Y-38000000D03*
D15*
X40500000Y-38000000D03*
D14*
X45580000Y-52000000D03*
X43040000Y-52000000D03*
D15*
X40500000Y-52000000D03*
D16*
X33000000Y-43700000D03*
X28000000Y-43700000D03*
X28000000Y-61500000D03*
X33000000Y-61500000D03*
D17*
X83500000Y-68250000D03*
X78500000Y-68250000D03*
X67500000Y-68250000D03*
X62500000Y-68250000D03*
D12*
X101000000Y-64000000D03*
X101000000Y-69000000D03*
D13*
X101000000Y-74000000D03*
D12*
X93000000Y-84000000D03*
X88000000Y-84000000D03*
D13*
X83000000Y-84000000D03*
D12*
X78000000Y-84000000D03*
X73000000Y-84000000D03*
D13*
X68000000Y-84000000D03*
D12*
X63000000Y-84000000D03*
X58000000Y-84000000D03*
D13*
X53000000Y-84000000D03*
D12*
X30000000Y-73500000D03*
D13*
X30000000Y-68500000D03*
D18*
X104000000Y-45000000D03*
X103750000Y-57250000D03*
X101000000Y-78750000D03*
X33000000Y-53000000D03*
X28500000Y-53500000D03*
X33600000Y-78400000D03*
X43500000Y-55500000D03*
X44000000Y-62500000D03*
X46000000Y-67000000D03*
X46500000Y-69500000D03*
X82600000Y-42000000D03*
X81200000Y-36000000D03*
X72600000Y-35800000D03*
X72600000Y-41600000D03*
X83800000Y-48400000D03*
X71400000Y-58400000D03*
X91800000Y-58400000D03*
X81400000Y-65000000D03*
X55800000Y-54000000D03*
X55400000Y-75000000D03*
X55800000Y-62800000D03*
X43200000Y-34400000D03*
X43200000Y-49000000D03*
X78200000Y-31800000D03*
X61400000Y-31600000D03*
X57600000Y-44600000D03*
X62600000Y-52600000D03*
X43500000Y-60000000D03*
X48999992Y-67500000D03*
X74000000Y-34600000D03*
X91400004Y-33800000D03*
X76200000Y-62800000D03*
X73800000Y-48200000D03*
X60000000Y-37800000D03*
X84800000Y-37400000D03*
X60400000Y-39400000D03*
X84800000Y-38800000D03*
X55800000Y-35400000D03*
X67800000Y-34400000D03*
X85200000Y-32600000D03*
X76225005Y-50725005D03*
X75000000Y-52000000D03*
X77724997Y-49224997D03*
X93400000Y-44400000D03*
D19*
X46500000Y-69500000D02*
X47500000Y-70500000D01*
X65250000Y-70500000D02*
X67500000Y-68250000D01*
X47500000Y-70500000D02*
X65250000Y-70500000D01*
X67500000Y-68250000D02*
X69750000Y-68250000D01*
X69750000Y-68250000D02*
X72000000Y-70500000D01*
X81250000Y-70500000D02*
X83500000Y-68250000D01*
X72000000Y-70500000D02*
X81250000Y-70500000D01*
X55750000Y-65000000D02*
X74000000Y-65000000D01*
X77250000Y-68250000D02*
X78500000Y-68250000D01*
X74000000Y-65000000D02*
X77250000Y-68250000D01*
X59250000Y-65000000D02*
X62500000Y-68250000D01*
X55750000Y-65000000D02*
X59250000Y-65000000D01*
X73750000Y-63500000D02*
X71241998Y-63500000D01*
X67741998Y-60000000D02*
X43500000Y-60000000D01*
X78500000Y-68250000D02*
X73750000Y-63500000D01*
X71241998Y-63500000D02*
X67741998Y-60000000D01*
X55750000Y-65000000D02*
X53250000Y-67500000D01*
X53250000Y-67500000D02*
X48999992Y-67500000D01*
X74000000Y-34600000D02*
X90600004Y-34600000D01*
X90600004Y-34600000D02*
X91400004Y-33800000D01*
X76200000Y-62800000D02*
X73800000Y-60400000D01*
X73800000Y-60400000D02*
X73800000Y-48200000D01*
X60000000Y-37800000D02*
X60400000Y-37400000D01*
X60400000Y-37400000D02*
X84800000Y-37400000D01*
X60400000Y-39400000D02*
X61000000Y-38800000D01*
X61000000Y-38800000D02*
X84800000Y-38800000D01*
X55800000Y-35400000D02*
X56800000Y-34400000D01*
X56800000Y-34400000D02*
X67800000Y-34400000D01*
X53500000Y-32840000D02*
X84960000Y-32840000D01*
X84960000Y-32840000D02*
X85200000Y-32600000D01*
X94500000Y-69000000D02*
X76225005Y-50725005D01*
X101000000Y-69000000D02*
X94500000Y-69000000D01*
X97000000Y-74000000D02*
X101000000Y-74000000D01*
X75000000Y-52000000D02*
X97000000Y-74000000D01*
X92500000Y-64000000D02*
X77724997Y-49224997D01*
X101000000Y-64000000D02*
X92500000Y-64000000D01*
X28000000Y-43700000D02*
X33000000Y-43700000D01*
X28000000Y-47000000D02*
X28000000Y-43700000D01*
X30000000Y-73500000D02*
X33500000Y-70000000D01*
X33500000Y-70000000D02*
X33500000Y-66500000D01*
X33500000Y-66500000D02*
X30500000Y-63500000D01*
X30500000Y-63500000D02*
X30500000Y-49500000D01*
X30500000Y-49500000D02*
X28000000Y-47000000D01*
D20*
X63000000Y-44400000D02*
X92834315Y-44400000D01*
X59600000Y-47800000D02*
X63000000Y-44400000D01*
X51400000Y-47800000D02*
X59600000Y-47800000D01*
X92834315Y-44400000D02*
X93400000Y-44400000D01*
X45580000Y-38000000D02*
X45580000Y-41980000D01*
X45580000Y-41980000D02*
X51400000Y-47800000D01*
D21*
G36*
X104249899Y-30737907D02*
G01*
X104490285Y-30810484D01*
X104711991Y-30928368D01*
X104906577Y-31087068D01*
X105066635Y-31280545D01*
X105186064Y-31501424D01*
X105260317Y-31741297D01*
X105290000Y-32023716D01*
X105290001Y-86965269D01*
X105262093Y-87249899D01*
X105189517Y-87490282D01*
X105071633Y-87711989D01*
X104912929Y-87906580D01*
X104719455Y-88066635D01*
X104498576Y-88186064D01*
X104258701Y-88260317D01*
X103976291Y-88290000D01*
X27034721Y-88290000D01*
X26750101Y-88262093D01*
X26509718Y-88189517D01*
X26288011Y-88071633D01*
X26093420Y-87912929D01*
X25933365Y-87719455D01*
X25813936Y-87498576D01*
X25739683Y-87258701D01*
X25710000Y-86976291D01*
X25710000Y-83779872D01*
X27765000Y-83779872D01*
X27765000Y-84220128D01*
X27850890Y-84651925D01*
X28019369Y-85058669D01*
X28263962Y-85424729D01*
X28575271Y-85736038D01*
X28941331Y-85980631D01*
X29348075Y-86149110D01*
X29779872Y-86235000D01*
X30220128Y-86235000D01*
X30651925Y-86149110D01*
X31058669Y-85980631D01*
X31424729Y-85736038D01*
X31736038Y-85424729D01*
X31980631Y-85058669D01*
X32149110Y-84651925D01*
X32235000Y-84220128D01*
X32235000Y-83779872D01*
X32149110Y-83348075D01*
X31980631Y-82941331D01*
X31819380Y-82700000D01*
X36111928Y-82700000D01*
X36111928Y-85300000D01*
X36124188Y-85424482D01*
X36160498Y-85544180D01*
X36219463Y-85654494D01*
X36298815Y-85751185D01*
X36395506Y-85830537D01*
X36505820Y-85889502D01*
X36625518Y-85925812D01*
X36750000Y-85938072D01*
X39350000Y-85938072D01*
X39474482Y-85925812D01*
X39594180Y-85889502D01*
X39704494Y-85830537D01*
X39801185Y-85751185D01*
X39880537Y-85654494D01*
X39939502Y-85544180D01*
X39975812Y-85424482D01*
X39988072Y-85300000D01*
X39988072Y-83809419D01*
X41115000Y-83809419D01*
X41115000Y-84190581D01*
X41189361Y-84564419D01*
X41335225Y-84916566D01*
X41546987Y-85233491D01*
X41816509Y-85503013D01*
X42133434Y-85714775D01*
X42485581Y-85860639D01*
X42859419Y-85935000D01*
X43240581Y-85935000D01*
X43614419Y-85860639D01*
X43966566Y-85714775D01*
X44283491Y-85503013D01*
X44553013Y-85233491D01*
X44764775Y-84916566D01*
X44910639Y-84564419D01*
X44985000Y-84190581D01*
X44985000Y-83809419D01*
X44910639Y-83435581D01*
X44764775Y-83083434D01*
X44553013Y-82766509D01*
X44486504Y-82700000D01*
X51061928Y-82700000D01*
X51061928Y-85300000D01*
X51074188Y-85424482D01*
X51110498Y-85544180D01*
X51169463Y-85654494D01*
X51248815Y-85751185D01*
X51345506Y-85830537D01*
X51455820Y-85889502D01*
X51575518Y-85925812D01*
X51700000Y-85938072D01*
X54300000Y-85938072D01*
X54424482Y-85925812D01*
X54544180Y-85889502D01*
X54654494Y-85830537D01*
X54751185Y-85751185D01*
X54830537Y-85654494D01*
X54889502Y-85544180D01*
X54925812Y-85424482D01*
X54938072Y-85300000D01*
X54938072Y-83809419D01*
X56065000Y-83809419D01*
X56065000Y-84190581D01*
X56139361Y-84564419D01*
X56285225Y-84916566D01*
X56496987Y-85233491D01*
X56766509Y-85503013D01*
X57083434Y-85714775D01*
X57435581Y-85860639D01*
X57809419Y-85935000D01*
X58190581Y-85935000D01*
X58564419Y-85860639D01*
X58916566Y-85714775D01*
X59233491Y-85503013D01*
X59503013Y-85233491D01*
X59714775Y-84916566D01*
X59860639Y-84564419D01*
X59935000Y-84190581D01*
X59935000Y-83809419D01*
X61065000Y-83809419D01*
X61065000Y-84190581D01*
X61139361Y-84564419D01*
X61285225Y-84916566D01*
X61496987Y-85233491D01*
X61766509Y-85503013D01*
X62083434Y-85714775D01*
X62435581Y-85860639D01*
X62809419Y-85935000D01*
X63190581Y-85935000D01*
X63564419Y-85860639D01*
X63916566Y-85714775D01*
X64233491Y-85503013D01*
X64503013Y-85233491D01*
X64714775Y-84916566D01*
X64860639Y-84564419D01*
X64935000Y-84190581D01*
X64935000Y-83809419D01*
X64860639Y-83435581D01*
X64714775Y-83083434D01*
X64503013Y-82766509D01*
X64436504Y-82700000D01*
X66061928Y-82700000D01*
X66061928Y-85300000D01*
X66074188Y-85424482D01*
X66110498Y-85544180D01*
X66169463Y-85654494D01*
X66248815Y-85751185D01*
X66345506Y-85830537D01*
X66455820Y-85889502D01*
X66575518Y-85925812D01*
X66700000Y-85938072D01*
X69300000Y-85938072D01*
X69424482Y-85925812D01*
X69544180Y-85889502D01*
X69654494Y-85830537D01*
X69751185Y-85751185D01*
X69830537Y-85654494D01*
X69889502Y-85544180D01*
X69925812Y-85424482D01*
X69938072Y-85300000D01*
X69938072Y-83809419D01*
X71065000Y-83809419D01*
X71065000Y-84190581D01*
X71139361Y-84564419D01*
X71285225Y-84916566D01*
X71496987Y-85233491D01*
X71766509Y-85503013D01*
X72083434Y-85714775D01*
X72435581Y-85860639D01*
X72809419Y-85935000D01*
X73190581Y-85935000D01*
X73564419Y-85860639D01*
X73916566Y-85714775D01*
X74233491Y-85503013D01*
X74503013Y-85233491D01*
X74714775Y-84916566D01*
X74860639Y-84564419D01*
X74935000Y-84190581D01*
X74935000Y-83809419D01*
X76065000Y-83809419D01*
X76065000Y-84190581D01*
X76139361Y-84564419D01*
X76285225Y-84916566D01*
X76496987Y-85233491D01*
X76766509Y-85503013D01*
X77083434Y-85714775D01*
X77435581Y-85860639D01*
X77809419Y-85935000D01*
X78190581Y-85935000D01*
X78564419Y-85860639D01*
X78916566Y-85714775D01*
X79233491Y-85503013D01*
X79503013Y-85233491D01*
X79714775Y-84916566D01*
X79860639Y-84564419D01*
X79935000Y-84190581D01*
X79935000Y-83809419D01*
X79860639Y-83435581D01*
X79714775Y-83083434D01*
X79503013Y-82766509D01*
X79436504Y-82700000D01*
X81061928Y-82700000D01*
X81061928Y-85300000D01*
X81074188Y-85424482D01*
X81110498Y-85544180D01*
X81169463Y-85654494D01*
X81248815Y-85751185D01*
X81345506Y-85830537D01*
X81455820Y-85889502D01*
X81575518Y-85925812D01*
X81700000Y-85938072D01*
X84300000Y-85938072D01*
X84424482Y-85925812D01*
X84544180Y-85889502D01*
X84654494Y-85830537D01*
X84751185Y-85751185D01*
X84830537Y-85654494D01*
X84889502Y-85544180D01*
X84925812Y-85424482D01*
X84938072Y-85300000D01*
X84938072Y-83809419D01*
X86065000Y-83809419D01*
X86065000Y-84190581D01*
X86139361Y-84564419D01*
X86285225Y-84916566D01*
X86496987Y-85233491D01*
X86766509Y-85503013D01*
X87083434Y-85714775D01*
X87435581Y-85860639D01*
X87809419Y-85935000D01*
X88190581Y-85935000D01*
X88564419Y-85860639D01*
X88916566Y-85714775D01*
X89233491Y-85503013D01*
X89503013Y-85233491D01*
X89714775Y-84916566D01*
X89860639Y-84564419D01*
X89935000Y-84190581D01*
X89935000Y-83809419D01*
X91065000Y-83809419D01*
X91065000Y-84190581D01*
X91139361Y-84564419D01*
X91285225Y-84916566D01*
X91496987Y-85233491D01*
X91766509Y-85503013D01*
X92083434Y-85714775D01*
X92435581Y-85860639D01*
X92809419Y-85935000D01*
X93190581Y-85935000D01*
X93564419Y-85860639D01*
X93916566Y-85714775D01*
X94233491Y-85503013D01*
X94503013Y-85233491D01*
X94714775Y-84916566D01*
X94860639Y-84564419D01*
X94935000Y-84190581D01*
X94935000Y-83809419D01*
X94929123Y-83779872D01*
X98765000Y-83779872D01*
X98765000Y-84220128D01*
X98850890Y-84651925D01*
X99019369Y-85058669D01*
X99263962Y-85424729D01*
X99575271Y-85736038D01*
X99941331Y-85980631D01*
X100348075Y-86149110D01*
X100779872Y-86235000D01*
X101220128Y-86235000D01*
X101651925Y-86149110D01*
X102058669Y-85980631D01*
X102424729Y-85736038D01*
X102736038Y-85424729D01*
X102980631Y-85058669D01*
X103149110Y-84651925D01*
X103235000Y-84220128D01*
X103235000Y-83779872D01*
X103149110Y-83348075D01*
X102980631Y-82941331D01*
X102736038Y-82575271D01*
X102424729Y-82263962D01*
X102058669Y-82019369D01*
X101651925Y-81850890D01*
X101220128Y-81765000D01*
X100779872Y-81765000D01*
X100348075Y-81850890D01*
X99941331Y-82019369D01*
X99575271Y-82263962D01*
X99263962Y-82575271D01*
X99019369Y-82941331D01*
X98850890Y-83348075D01*
X98765000Y-83779872D01*
X94929123Y-83779872D01*
X94860639Y-83435581D01*
X94714775Y-83083434D01*
X94503013Y-82766509D01*
X94233491Y-82496987D01*
X93916566Y-82285225D01*
X93564419Y-82139361D01*
X93190581Y-82065000D01*
X92809419Y-82065000D01*
X92435581Y-82139361D01*
X92083434Y-82285225D01*
X91766509Y-82496987D01*
X91496987Y-82766509D01*
X91285225Y-83083434D01*
X91139361Y-83435581D01*
X91065000Y-83809419D01*
X89935000Y-83809419D01*
X89860639Y-83435581D01*
X89714775Y-83083434D01*
X89503013Y-82766509D01*
X89233491Y-82496987D01*
X88916566Y-82285225D01*
X88564419Y-82139361D01*
X88190581Y-82065000D01*
X87809419Y-82065000D01*
X87435581Y-82139361D01*
X87083434Y-82285225D01*
X86766509Y-82496987D01*
X86496987Y-82766509D01*
X86285225Y-83083434D01*
X86139361Y-83435581D01*
X86065000Y-83809419D01*
X84938072Y-83809419D01*
X84938072Y-82700000D01*
X84925812Y-82575518D01*
X84889502Y-82455820D01*
X84830537Y-82345506D01*
X84751185Y-82248815D01*
X84654494Y-82169463D01*
X84544180Y-82110498D01*
X84424482Y-82074188D01*
X84300000Y-82061928D01*
X81700000Y-82061928D01*
X81575518Y-82074188D01*
X81455820Y-82110498D01*
X81345506Y-82169463D01*
X81248815Y-82248815D01*
X81169463Y-82345506D01*
X81110498Y-82455820D01*
X81074188Y-82575518D01*
X81061928Y-82700000D01*
X79436504Y-82700000D01*
X79233491Y-82496987D01*
X78916566Y-82285225D01*
X78564419Y-82139361D01*
X78190581Y-82065000D01*
X77809419Y-82065000D01*
X77435581Y-82139361D01*
X77083434Y-82285225D01*
X76766509Y-82496987D01*
X76496987Y-82766509D01*
X76285225Y-83083434D01*
X76139361Y-83435581D01*
X76065000Y-83809419D01*
X74935000Y-83809419D01*
X74860639Y-83435581D01*
X74714775Y-83083434D01*
X74503013Y-82766509D01*
X74233491Y-82496987D01*
X73916566Y-82285225D01*
X73564419Y-82139361D01*
X73190581Y-82065000D01*
X72809419Y-82065000D01*
X72435581Y-82139361D01*
X72083434Y-82285225D01*
X71766509Y-82496987D01*
X71496987Y-82766509D01*
X71285225Y-83083434D01*
X71139361Y-83435581D01*
X71065000Y-83809419D01*
X69938072Y-83809419D01*
X69938072Y-82700000D01*
X69925812Y-82575518D01*
X69889502Y-82455820D01*
X69830537Y-82345506D01*
X69751185Y-82248815D01*
X69654494Y-82169463D01*
X69544180Y-82110498D01*
X69424482Y-82074188D01*
X69300000Y-82061928D01*
X66700000Y-82061928D01*
X66575518Y-82074188D01*
X66455820Y-82110498D01*
X66345506Y-82169463D01*
X66248815Y-82248815D01*
X66169463Y-82345506D01*
X66110498Y-82455820D01*
X66074188Y-82575518D01*
X66061928Y-82700000D01*
X64436504Y-82700000D01*
X64233491Y-82496987D01*
X63916566Y-82285225D01*
X63564419Y-82139361D01*
X63190581Y-82065000D01*
X62809419Y-82065000D01*
X62435581Y-82139361D01*
X62083434Y-82285225D01*
X61766509Y-82496987D01*
X61496987Y-82766509D01*
X61285225Y-83083434D01*
X61139361Y-83435581D01*
X61065000Y-83809419D01*
X59935000Y-83809419D01*
X59860639Y-83435581D01*
X59714775Y-83083434D01*
X59503013Y-82766509D01*
X59233491Y-82496987D01*
X58916566Y-82285225D01*
X58564419Y-82139361D01*
X58190581Y-82065000D01*
X57809419Y-82065000D01*
X57435581Y-82139361D01*
X57083434Y-82285225D01*
X56766509Y-82496987D01*
X56496987Y-82766509D01*
X56285225Y-83083434D01*
X56139361Y-83435581D01*
X56065000Y-83809419D01*
X54938072Y-83809419D01*
X54938072Y-82700000D01*
X54925812Y-82575518D01*
X54889502Y-82455820D01*
X54830537Y-82345506D01*
X54751185Y-82248815D01*
X54654494Y-82169463D01*
X54544180Y-82110498D01*
X54424482Y-82074188D01*
X54300000Y-82061928D01*
X51700000Y-82061928D01*
X51575518Y-82074188D01*
X51455820Y-82110498D01*
X51345506Y-82169463D01*
X51248815Y-82248815D01*
X51169463Y-82345506D01*
X51110498Y-82455820D01*
X51074188Y-82575518D01*
X51061928Y-82700000D01*
X44486504Y-82700000D01*
X44283491Y-82496987D01*
X43966566Y-82285225D01*
X43614419Y-82139361D01*
X43240581Y-82065000D01*
X42859419Y-82065000D01*
X42485581Y-82139361D01*
X42133434Y-82285225D01*
X41816509Y-82496987D01*
X41546987Y-82766509D01*
X41335225Y-83083434D01*
X41189361Y-83435581D01*
X41115000Y-83809419D01*
X39988072Y-83809419D01*
X39988072Y-82700000D01*
X39975812Y-82575518D01*
X39939502Y-82455820D01*
X39880537Y-82345506D01*
X39801185Y-82248815D01*
X39704494Y-82169463D01*
X39594180Y-82110498D01*
X39474482Y-82074188D01*
X39350000Y-82061928D01*
X36750000Y-82061928D01*
X36625518Y-82074188D01*
X36505820Y-82110498D01*
X36395506Y-82169463D01*
X36298815Y-82248815D01*
X36219463Y-82345506D01*
X36160498Y-82455820D01*
X36124188Y-82575518D01*
X36111928Y-82700000D01*
X31819380Y-82700000D01*
X31736038Y-82575271D01*
X31424729Y-82263962D01*
X31058669Y-82019369D01*
X30651925Y-81850890D01*
X30220128Y-81765000D01*
X29779872Y-81765000D01*
X29348075Y-81850890D01*
X28941331Y-82019369D01*
X28575271Y-82263962D01*
X28263962Y-82575271D01*
X28019369Y-82941331D01*
X27850890Y-83348075D01*
X27765000Y-83779872D01*
X25710000Y-83779872D01*
X25710000Y-67200000D01*
X28061928Y-67200000D01*
X28061928Y-69800000D01*
X28074188Y-69924482D01*
X28110498Y-70044180D01*
X28169463Y-70154494D01*
X28248815Y-70251185D01*
X28345506Y-70330537D01*
X28455820Y-70389502D01*
X28575518Y-70425812D01*
X28700000Y-70438072D01*
X31300000Y-70438072D01*
X31424482Y-70425812D01*
X31544180Y-70389502D01*
X31654494Y-70330537D01*
X31751185Y-70251185D01*
X31830537Y-70154494D01*
X31889502Y-70044180D01*
X31925812Y-69924482D01*
X31938072Y-69800000D01*
X31938072Y-67200000D01*
X31925812Y-67075518D01*
X31889502Y-66955820D01*
X31830537Y-66845506D01*
X31751185Y-66748815D01*
X31654494Y-66669463D01*
X31544180Y-66610498D01*
X31424482Y-66574188D01*
X31300000Y-66561928D01*
X28700000Y-66561928D01*
X28575518Y-66574188D01*
X28455820Y-66610498D01*
X28345506Y-66669463D01*
X28248815Y-66748815D01*
X28169463Y-66845506D01*
X28110498Y-66955820D01*
X28074188Y-67075518D01*
X28061928Y-67200000D01*
X25710000Y-67200000D01*
X25710000Y-61338967D01*
X26365000Y-61338967D01*
X26365000Y-61661033D01*
X26427832Y-61976912D01*
X26551082Y-62274463D01*
X26730013Y-62542252D01*
X26957748Y-62769987D01*
X27225537Y-62948918D01*
X27523088Y-63072168D01*
X27838967Y-63135000D01*
X28161033Y-63135000D01*
X28476912Y-63072168D01*
X28774463Y-62948918D01*
X29042252Y-62769987D01*
X29269987Y-62542252D01*
X29448918Y-62274463D01*
X29572168Y-61976912D01*
X29635000Y-61661033D01*
X29635000Y-61338967D01*
X29572168Y-61023088D01*
X29448918Y-60725537D01*
X29269987Y-60457748D01*
X29042252Y-60230013D01*
X28774463Y-60051082D01*
X28476912Y-59927832D01*
X28161033Y-59865000D01*
X27838967Y-59865000D01*
X27523088Y-59927832D01*
X27225537Y-60051082D01*
X26957748Y-60230013D01*
X26730013Y-60457748D01*
X26551082Y-60725537D01*
X26427832Y-61023088D01*
X26365000Y-61338967D01*
X25710000Y-61338967D01*
X25710000Y-43538967D01*
X26365000Y-43538967D01*
X26365000Y-43861033D01*
X26427832Y-44176912D01*
X26551082Y-44474463D01*
X26730013Y-44742252D01*
X26957748Y-44969987D01*
X27215001Y-45141878D01*
X27215000Y-46961447D01*
X27211203Y-47000000D01*
X27215000Y-47038553D01*
X27215000Y-47038560D01*
X27226359Y-47153886D01*
X27271246Y-47301859D01*
X27344138Y-47438232D01*
X27442236Y-47557764D01*
X27472190Y-47582347D01*
X29715001Y-49825159D01*
X29715000Y-63461447D01*
X29711203Y-63500000D01*
X29715000Y-63538553D01*
X29715000Y-63538560D01*
X29726359Y-63653886D01*
X29771246Y-63801859D01*
X29844138Y-63938232D01*
X29942236Y-64057764D01*
X29972188Y-64082345D01*
X32715001Y-66825158D01*
X32715000Y-69674842D01*
X30695985Y-71693857D01*
X30564419Y-71639361D01*
X30190581Y-71565000D01*
X29809419Y-71565000D01*
X29435581Y-71639361D01*
X29083434Y-71785225D01*
X28766509Y-71996987D01*
X28496987Y-72266509D01*
X28285225Y-72583434D01*
X28139361Y-72935581D01*
X28065000Y-73309419D01*
X28065000Y-73690581D01*
X28139361Y-74064419D01*
X28285225Y-74416566D01*
X28496987Y-74733491D01*
X28766509Y-75003013D01*
X29083434Y-75214775D01*
X29435581Y-75360639D01*
X29809419Y-75435000D01*
X30190581Y-75435000D01*
X30564419Y-75360639D01*
X30916566Y-75214775D01*
X31233491Y-75003013D01*
X31503013Y-74733491D01*
X31714775Y-74416566D01*
X31860639Y-74064419D01*
X31935000Y-73690581D01*
X31935000Y-73309419D01*
X31860639Y-72935581D01*
X31806143Y-72804015D01*
X34027817Y-70582341D01*
X34057764Y-70557764D01*
X34155862Y-70438233D01*
X34228754Y-70301860D01*
X34273641Y-70153887D01*
X34285000Y-70038561D01*
X34285000Y-70038554D01*
X34288797Y-70000001D01*
X34285000Y-69961448D01*
X34285000Y-66538556D01*
X34288797Y-66500000D01*
X34285000Y-66461444D01*
X34285000Y-66461439D01*
X34281020Y-66421026D01*
X34273642Y-66346113D01*
X34228754Y-66198140D01*
X34155862Y-66061767D01*
X34057764Y-65942236D01*
X34027810Y-65917653D01*
X31285000Y-63174843D01*
X31285000Y-61338967D01*
X31365000Y-61338967D01*
X31365000Y-61661033D01*
X31427832Y-61976912D01*
X31551082Y-62274463D01*
X31730013Y-62542252D01*
X31957748Y-62769987D01*
X32225537Y-62948918D01*
X32523088Y-63072168D01*
X32838967Y-63135000D01*
X33161033Y-63135000D01*
X33476912Y-63072168D01*
X33774463Y-62948918D01*
X34042252Y-62769987D01*
X34269987Y-62542252D01*
X34448918Y-62274463D01*
X34572168Y-61976912D01*
X34635000Y-61661033D01*
X34635000Y-61338967D01*
X34572168Y-61023088D01*
X34448918Y-60725537D01*
X34269987Y-60457748D01*
X34042252Y-60230013D01*
X33774463Y-60051082D01*
X33476912Y-59927832D01*
X33327243Y-59898061D01*
X42465000Y-59898061D01*
X42465000Y-60101939D01*
X42504774Y-60301898D01*
X42582795Y-60490256D01*
X42696063Y-60659774D01*
X42840226Y-60803937D01*
X43009744Y-60917205D01*
X43198102Y-60995226D01*
X43398061Y-61035000D01*
X43601939Y-61035000D01*
X43801898Y-60995226D01*
X43990256Y-60917205D01*
X44159774Y-60803937D01*
X44178711Y-60785000D01*
X67416841Y-60785000D01*
X70659656Y-64027816D01*
X70684234Y-64057764D01*
X70714182Y-64082342D01*
X70714185Y-64082345D01*
X70743557Y-64106450D01*
X70803765Y-64155862D01*
X70914406Y-64215000D01*
X59288553Y-64215000D01*
X59250000Y-64211203D01*
X59211447Y-64215000D01*
X55788556Y-64215000D01*
X55750000Y-64211203D01*
X55711444Y-64215000D01*
X55711439Y-64215000D01*
X55671026Y-64218980D01*
X55596113Y-64226358D01*
X55448140Y-64271246D01*
X55311767Y-64344138D01*
X55251559Y-64393550D01*
X55222187Y-64417655D01*
X55222184Y-64417658D01*
X55192236Y-64442236D01*
X55167658Y-64472184D01*
X52924843Y-66715000D01*
X49678703Y-66715000D01*
X49659766Y-66696063D01*
X49490248Y-66582795D01*
X49301890Y-66504774D01*
X49101931Y-66465000D01*
X48898053Y-66465000D01*
X48698094Y-66504774D01*
X48509736Y-66582795D01*
X48340218Y-66696063D01*
X48196055Y-66840226D01*
X48082787Y-67009744D01*
X48004766Y-67198102D01*
X47964992Y-67398061D01*
X47964992Y-67601939D01*
X48004766Y-67801898D01*
X48082787Y-67990256D01*
X48196055Y-68159774D01*
X48340218Y-68303937D01*
X48509736Y-68417205D01*
X48698094Y-68495226D01*
X48898053Y-68535000D01*
X49101931Y-68535000D01*
X49301890Y-68495226D01*
X49490248Y-68417205D01*
X49659766Y-68303937D01*
X49678703Y-68285000D01*
X53211447Y-68285000D01*
X53250000Y-68288797D01*
X53288553Y-68285000D01*
X53288561Y-68285000D01*
X53403887Y-68273641D01*
X53551860Y-68228754D01*
X53688233Y-68155862D01*
X53807764Y-68057764D01*
X53832347Y-68027810D01*
X56075158Y-65785000D01*
X58924843Y-65785000D01*
X61095446Y-67955604D01*
X61065000Y-68108665D01*
X61065000Y-68391335D01*
X61120147Y-68668574D01*
X61228320Y-68929727D01*
X61385363Y-69164759D01*
X61585241Y-69364637D01*
X61820273Y-69521680D01*
X62081426Y-69629853D01*
X62358665Y-69685000D01*
X62641335Y-69685000D01*
X62918574Y-69629853D01*
X63179727Y-69521680D01*
X63414759Y-69364637D01*
X63536694Y-69242702D01*
X66686903Y-69242702D01*
X66758486Y-69486671D01*
X67013996Y-69607571D01*
X67288184Y-69676300D01*
X67570512Y-69690217D01*
X67850130Y-69648787D01*
X68116292Y-69553603D01*
X68241514Y-69486671D01*
X68313097Y-69242702D01*
X67500000Y-68429605D01*
X66686903Y-69242702D01*
X63536694Y-69242702D01*
X63614637Y-69164759D01*
X63771680Y-68929727D01*
X63879853Y-68668574D01*
X63935000Y-68391335D01*
X63935000Y-68320512D01*
X66059783Y-68320512D01*
X66101213Y-68600130D01*
X66196397Y-68866292D01*
X66263329Y-68991514D01*
X66507298Y-69063097D01*
X67320395Y-68250000D01*
X67679605Y-68250000D01*
X68492702Y-69063097D01*
X68736671Y-68991514D01*
X68857571Y-68736004D01*
X68926300Y-68461816D01*
X68940217Y-68179488D01*
X68898787Y-67899870D01*
X68803603Y-67633708D01*
X68736671Y-67508486D01*
X68492702Y-67436903D01*
X67679605Y-68250000D01*
X67320395Y-68250000D01*
X66507298Y-67436903D01*
X66263329Y-67508486D01*
X66142429Y-67763996D01*
X66073700Y-68038184D01*
X66059783Y-68320512D01*
X63935000Y-68320512D01*
X63935000Y-68108665D01*
X63879853Y-67831426D01*
X63771680Y-67570273D01*
X63614637Y-67335241D01*
X63536694Y-67257298D01*
X66686903Y-67257298D01*
X67500000Y-68070395D01*
X68313097Y-67257298D01*
X68241514Y-67013329D01*
X67986004Y-66892429D01*
X67711816Y-66823700D01*
X67429488Y-66809783D01*
X67149870Y-66851213D01*
X66883708Y-66946397D01*
X66758486Y-67013329D01*
X66686903Y-67257298D01*
X63536694Y-67257298D01*
X63414759Y-67135363D01*
X63179727Y-66978320D01*
X62918574Y-66870147D01*
X62641335Y-66815000D01*
X62358665Y-66815000D01*
X62205604Y-66845446D01*
X61145157Y-65785000D01*
X73674843Y-65785000D01*
X76667658Y-68777816D01*
X76692236Y-68807764D01*
X76722184Y-68832342D01*
X76722187Y-68832345D01*
X76751559Y-68856450D01*
X76811767Y-68905862D01*
X76948140Y-68978754D01*
X77096113Y-69023641D01*
X77211439Y-69035000D01*
X77211446Y-69035000D01*
X77249999Y-69038797D01*
X77288552Y-69035000D01*
X77298661Y-69035000D01*
X77385363Y-69164759D01*
X77585241Y-69364637D01*
X77820273Y-69521680D01*
X78081426Y-69629853D01*
X78358665Y-69685000D01*
X78641335Y-69685000D01*
X78918574Y-69629853D01*
X79179727Y-69521680D01*
X79414759Y-69364637D01*
X79536694Y-69242702D01*
X82686903Y-69242702D01*
X82758486Y-69486671D01*
X83013996Y-69607571D01*
X83288184Y-69676300D01*
X83570512Y-69690217D01*
X83850130Y-69648787D01*
X84116292Y-69553603D01*
X84241514Y-69486671D01*
X84313097Y-69242702D01*
X83500000Y-68429605D01*
X82686903Y-69242702D01*
X79536694Y-69242702D01*
X79614637Y-69164759D01*
X79771680Y-68929727D01*
X79879853Y-68668574D01*
X79935000Y-68391335D01*
X79935000Y-68320512D01*
X82059783Y-68320512D01*
X82101213Y-68600130D01*
X82196397Y-68866292D01*
X82263329Y-68991514D01*
X82507298Y-69063097D01*
X83320395Y-68250000D01*
X83679605Y-68250000D01*
X84492702Y-69063097D01*
X84736671Y-68991514D01*
X84857571Y-68736004D01*
X84926300Y-68461816D01*
X84940217Y-68179488D01*
X84898787Y-67899870D01*
X84803603Y-67633708D01*
X84736671Y-67508486D01*
X84492702Y-67436903D01*
X83679605Y-68250000D01*
X83320395Y-68250000D01*
X82507298Y-67436903D01*
X82263329Y-67508486D01*
X82142429Y-67763996D01*
X82073700Y-68038184D01*
X82059783Y-68320512D01*
X79935000Y-68320512D01*
X79935000Y-68108665D01*
X79879853Y-67831426D01*
X79771680Y-67570273D01*
X79614637Y-67335241D01*
X79536694Y-67257298D01*
X82686903Y-67257298D01*
X83500000Y-68070395D01*
X84313097Y-67257298D01*
X84241514Y-67013329D01*
X83986004Y-66892429D01*
X83711816Y-66823700D01*
X83429488Y-66809783D01*
X83149870Y-66851213D01*
X82883708Y-66946397D01*
X82758486Y-67013329D01*
X82686903Y-67257298D01*
X79536694Y-67257298D01*
X79414759Y-67135363D01*
X79179727Y-66978320D01*
X78918574Y-66870147D01*
X78641335Y-66815000D01*
X78358665Y-66815000D01*
X78205604Y-66845446D01*
X74332347Y-62972190D01*
X74307764Y-62942236D01*
X74188233Y-62844138D01*
X74051860Y-62771246D01*
X73903887Y-62726359D01*
X73788561Y-62715000D01*
X73788553Y-62715000D01*
X73750000Y-62711203D01*
X73711447Y-62715000D01*
X71567156Y-62715000D01*
X68324345Y-59472190D01*
X68299762Y-59442236D01*
X68180231Y-59344138D01*
X68043858Y-59271246D01*
X67895885Y-59226359D01*
X67780559Y-59215000D01*
X67780551Y-59215000D01*
X67741998Y-59211203D01*
X67703445Y-59215000D01*
X44178711Y-59215000D01*
X44159774Y-59196063D01*
X43990256Y-59082795D01*
X43801898Y-59004774D01*
X43601939Y-58965000D01*
X43398061Y-58965000D01*
X43198102Y-59004774D01*
X43009744Y-59082795D01*
X42840226Y-59196063D01*
X42696063Y-59340226D01*
X42582795Y-59509744D01*
X42504774Y-59698102D01*
X42465000Y-59898061D01*
X33327243Y-59898061D01*
X33161033Y-59865000D01*
X32838967Y-59865000D01*
X32523088Y-59927832D01*
X32225537Y-60051082D01*
X31957748Y-60230013D01*
X31730013Y-60457748D01*
X31551082Y-60725537D01*
X31427832Y-61023088D01*
X31365000Y-61338967D01*
X31285000Y-61338967D01*
X31285000Y-51000000D01*
X38909428Y-51000000D01*
X38909428Y-53000000D01*
X38921688Y-53124482D01*
X38957998Y-53244180D01*
X39016963Y-53354494D01*
X39096315Y-53451185D01*
X39193006Y-53530537D01*
X39303320Y-53589502D01*
X39423018Y-53625812D01*
X39547500Y-53638072D01*
X41452500Y-53638072D01*
X41576982Y-53625812D01*
X41696680Y-53589502D01*
X41806994Y-53530537D01*
X41903685Y-53451185D01*
X41983037Y-53354494D01*
X42032059Y-53262781D01*
X42173077Y-53375969D01*
X42448906Y-53519571D01*
X42667020Y-53590563D01*
X42913000Y-53470594D01*
X42913000Y-52127000D01*
X42893000Y-52127000D01*
X42893000Y-51873000D01*
X42913000Y-51873000D01*
X42913000Y-50529406D01*
X43167000Y-50529406D01*
X43167000Y-51873000D01*
X43187000Y-51873000D01*
X43187000Y-52127000D01*
X43167000Y-52127000D01*
X43167000Y-53470594D01*
X43412980Y-53590563D01*
X43631094Y-53519571D01*
X43906923Y-53375969D01*
X44149437Y-53181315D01*
X44304837Y-52996101D01*
X44452037Y-53175463D01*
X44693766Y-53373845D01*
X44969552Y-53521255D01*
X45268797Y-53612030D01*
X45580000Y-53642681D01*
X45891204Y-53612030D01*
X46190449Y-53521255D01*
X46466235Y-53373845D01*
X46707963Y-53175463D01*
X46906345Y-52933734D01*
X47053755Y-52657948D01*
X47144530Y-52358703D01*
X47167500Y-52125485D01*
X47167500Y-51874514D01*
X47144530Y-51641296D01*
X47053755Y-51342051D01*
X46906345Y-51066265D01*
X46707963Y-50824537D01*
X46466234Y-50626155D01*
X46190448Y-50478745D01*
X45891203Y-50387970D01*
X45580000Y-50357319D01*
X45268796Y-50387970D01*
X44969551Y-50478745D01*
X44693765Y-50626155D01*
X44452037Y-50824537D01*
X44304838Y-51003900D01*
X44149437Y-50818685D01*
X43906923Y-50624031D01*
X43631094Y-50480429D01*
X43412980Y-50409437D01*
X43167000Y-50529406D01*
X42913000Y-50529406D01*
X42667020Y-50409437D01*
X42448906Y-50480429D01*
X42173077Y-50624031D01*
X42032059Y-50737219D01*
X41983037Y-50645506D01*
X41903685Y-50548815D01*
X41806994Y-50469463D01*
X41696680Y-50410498D01*
X41576982Y-50374188D01*
X41452500Y-50361928D01*
X39547500Y-50361928D01*
X39423018Y-50374188D01*
X39303320Y-50410498D01*
X39193006Y-50469463D01*
X39096315Y-50548815D01*
X39016963Y-50645506D01*
X38957998Y-50755820D01*
X38921688Y-50875518D01*
X38909428Y-51000000D01*
X31285000Y-51000000D01*
X31285000Y-49538556D01*
X31288797Y-49500000D01*
X31285000Y-49461444D01*
X31285000Y-49461439D01*
X31276869Y-49378883D01*
X31273642Y-49346113D01*
X31228754Y-49198140D01*
X31188622Y-49123058D01*
X31155862Y-49061767D01*
X31057764Y-48942236D01*
X31027816Y-48917658D01*
X28785000Y-46674843D01*
X28785000Y-45141877D01*
X29042252Y-44969987D01*
X29269987Y-44742252D01*
X29441877Y-44485000D01*
X31558123Y-44485000D01*
X31730013Y-44742252D01*
X31957748Y-44969987D01*
X32225537Y-45148918D01*
X32523088Y-45272168D01*
X32838967Y-45335000D01*
X33161033Y-45335000D01*
X33476912Y-45272168D01*
X33774463Y-45148918D01*
X34042252Y-44969987D01*
X34269987Y-44742252D01*
X34448918Y-44474463D01*
X34572168Y-44176912D01*
X34635000Y-43861033D01*
X34635000Y-43538967D01*
X34572168Y-43223088D01*
X34448918Y-42925537D01*
X34269987Y-42657748D01*
X34042252Y-42430013D01*
X33774463Y-42251082D01*
X33476912Y-42127832D01*
X33161033Y-42065000D01*
X32838967Y-42065000D01*
X32523088Y-42127832D01*
X32225537Y-42251082D01*
X31957748Y-42430013D01*
X31730013Y-42657748D01*
X31558123Y-42915000D01*
X29441877Y-42915000D01*
X29269987Y-42657748D01*
X29042252Y-42430013D01*
X28774463Y-42251082D01*
X28476912Y-42127832D01*
X28161033Y-42065000D01*
X27838967Y-42065000D01*
X27523088Y-42127832D01*
X27225537Y-42251082D01*
X26957748Y-42430013D01*
X26730013Y-42657748D01*
X26551082Y-42925537D01*
X26427832Y-43223088D01*
X26365000Y-43538967D01*
X25710000Y-43538967D01*
X25710000Y-34779872D01*
X27765000Y-34779872D01*
X27765000Y-35220128D01*
X27850890Y-35651925D01*
X28019369Y-36058669D01*
X28263962Y-36424729D01*
X28575271Y-36736038D01*
X28941331Y-36980631D01*
X29348075Y-37149110D01*
X29779872Y-37235000D01*
X30220128Y-37235000D01*
X30651925Y-37149110D01*
X31011908Y-37000000D01*
X38909428Y-37000000D01*
X38909428Y-39000000D01*
X38921688Y-39124482D01*
X38957998Y-39244180D01*
X39016963Y-39354494D01*
X39096315Y-39451185D01*
X39193006Y-39530537D01*
X39303320Y-39589502D01*
X39423018Y-39625812D01*
X39547500Y-39638072D01*
X41452500Y-39638072D01*
X41576982Y-39625812D01*
X41696680Y-39589502D01*
X41806994Y-39530537D01*
X41903685Y-39451185D01*
X41983037Y-39354494D01*
X42032059Y-39262781D01*
X42173077Y-39375969D01*
X42448906Y-39519571D01*
X42667020Y-39590563D01*
X42913000Y-39470594D01*
X42913000Y-38127000D01*
X42893000Y-38127000D01*
X42893000Y-37873000D01*
X42913000Y-37873000D01*
X42913000Y-36529406D01*
X43167000Y-36529406D01*
X43167000Y-37873000D01*
X43187000Y-37873000D01*
X43187000Y-38127000D01*
X43167000Y-38127000D01*
X43167000Y-39470594D01*
X43412980Y-39590563D01*
X43631094Y-39519571D01*
X43906923Y-39375969D01*
X44149437Y-39181315D01*
X44304837Y-38996101D01*
X44452037Y-39175463D01*
X44693766Y-39373845D01*
X44695000Y-39374505D01*
X44695001Y-41936521D01*
X44690719Y-41980000D01*
X44707805Y-42153490D01*
X44758412Y-42320313D01*
X44840590Y-42474059D01*
X44923468Y-42575046D01*
X44923471Y-42575049D01*
X44951184Y-42608817D01*
X44984952Y-42636530D01*
X50743470Y-48395049D01*
X50771183Y-48428817D01*
X50804951Y-48456530D01*
X50804953Y-48456532D01*
X50905940Y-48539410D01*
X50905941Y-48539411D01*
X51059687Y-48621589D01*
X51175903Y-48656843D01*
X51226509Y-48672195D01*
X51241306Y-48673652D01*
X51356523Y-48685000D01*
X51356531Y-48685000D01*
X51400000Y-48689281D01*
X51443469Y-48685000D01*
X59556531Y-48685000D01*
X59600000Y-48689281D01*
X59643469Y-48685000D01*
X59643477Y-48685000D01*
X59773490Y-48672195D01*
X59940313Y-48621589D01*
X60094059Y-48539411D01*
X60228817Y-48428817D01*
X60256534Y-48395044D01*
X60553517Y-48098061D01*
X72765000Y-48098061D01*
X72765000Y-48301939D01*
X72804774Y-48501898D01*
X72882795Y-48690256D01*
X72996063Y-48859774D01*
X73015001Y-48878712D01*
X73015000Y-60361447D01*
X73011203Y-60400000D01*
X73015000Y-60438553D01*
X73015000Y-60438560D01*
X73026359Y-60553886D01*
X73071246Y-60701859D01*
X73144138Y-60838232D01*
X73242236Y-60957764D01*
X73272190Y-60982347D01*
X75165000Y-62875157D01*
X75165000Y-62901939D01*
X75204774Y-63101898D01*
X75282795Y-63290256D01*
X75396063Y-63459774D01*
X75540226Y-63603937D01*
X75709744Y-63717205D01*
X75898102Y-63795226D01*
X76098061Y-63835000D01*
X76301939Y-63835000D01*
X76501898Y-63795226D01*
X76690256Y-63717205D01*
X76859774Y-63603937D01*
X77003937Y-63459774D01*
X77117205Y-63290256D01*
X77195226Y-63101898D01*
X77235000Y-62901939D01*
X77235000Y-62698061D01*
X77195226Y-62498102D01*
X77117205Y-62309744D01*
X77003937Y-62140226D01*
X76859774Y-61996063D01*
X76690256Y-61882795D01*
X76501898Y-61804774D01*
X76301939Y-61765000D01*
X76275157Y-61765000D01*
X74585000Y-60074843D01*
X74585000Y-52948377D01*
X74698102Y-52995226D01*
X74898061Y-53035000D01*
X74924843Y-53035000D01*
X96417658Y-74527816D01*
X96442236Y-74557764D01*
X96472184Y-74582342D01*
X96472187Y-74582345D01*
X96501559Y-74606450D01*
X96561767Y-74655862D01*
X96698140Y-74728754D01*
X96811672Y-74763194D01*
X96846112Y-74773641D01*
X96860490Y-74775057D01*
X96961439Y-74785000D01*
X96961446Y-74785000D01*
X96999999Y-74788797D01*
X97038552Y-74785000D01*
X99061928Y-74785000D01*
X99061928Y-75300000D01*
X99074188Y-75424482D01*
X99110498Y-75544180D01*
X99169463Y-75654494D01*
X99248815Y-75751185D01*
X99345506Y-75830537D01*
X99455820Y-75889502D01*
X99575518Y-75925812D01*
X99700000Y-75938072D01*
X102300000Y-75938072D01*
X102424482Y-75925812D01*
X102544180Y-75889502D01*
X102654494Y-75830537D01*
X102751185Y-75751185D01*
X102830537Y-75654494D01*
X102889502Y-75544180D01*
X102925812Y-75424482D01*
X102938072Y-75300000D01*
X102938072Y-72700000D01*
X102925812Y-72575518D01*
X102889502Y-72455820D01*
X102830537Y-72345506D01*
X102751185Y-72248815D01*
X102654494Y-72169463D01*
X102544180Y-72110498D01*
X102424482Y-72074188D01*
X102300000Y-72061928D01*
X99700000Y-72061928D01*
X99575518Y-72074188D01*
X99455820Y-72110498D01*
X99345506Y-72169463D01*
X99248815Y-72248815D01*
X99169463Y-72345506D01*
X99110498Y-72455820D01*
X99074188Y-72575518D01*
X99061928Y-72700000D01*
X99061928Y-73215000D01*
X97325158Y-73215000D01*
X76035000Y-51924843D01*
X76035000Y-51898061D01*
X76002780Y-51736079D01*
X76123066Y-51760005D01*
X76149848Y-51760005D01*
X93917653Y-69527810D01*
X93942236Y-69557764D01*
X94061767Y-69655862D01*
X94198140Y-69728754D01*
X94346113Y-69773642D01*
X94421026Y-69781020D01*
X94461439Y-69785000D01*
X94461444Y-69785000D01*
X94500000Y-69788797D01*
X94538556Y-69785000D01*
X99230729Y-69785000D01*
X99285225Y-69916566D01*
X99496987Y-70233491D01*
X99766509Y-70503013D01*
X100083434Y-70714775D01*
X100435581Y-70860639D01*
X100809419Y-70935000D01*
X101190581Y-70935000D01*
X101564419Y-70860639D01*
X101916566Y-70714775D01*
X102233491Y-70503013D01*
X102503013Y-70233491D01*
X102714775Y-69916566D01*
X102860639Y-69564419D01*
X102935000Y-69190581D01*
X102935000Y-68809419D01*
X102860639Y-68435581D01*
X102714775Y-68083434D01*
X102503013Y-67766509D01*
X102233491Y-67496987D01*
X101916566Y-67285225D01*
X101564419Y-67139361D01*
X101190581Y-67065000D01*
X100809419Y-67065000D01*
X100435581Y-67139361D01*
X100083434Y-67285225D01*
X99766509Y-67496987D01*
X99496987Y-67766509D01*
X99285225Y-68083434D01*
X99230729Y-68215000D01*
X94825157Y-68215000D01*
X77260005Y-50649848D01*
X77260005Y-50623066D01*
X77220231Y-50423107D01*
X77142210Y-50234749D01*
X77028942Y-50065231D01*
X76884779Y-49921068D01*
X76715261Y-49807800D01*
X76526903Y-49729779D01*
X76326944Y-49690005D01*
X76123066Y-49690005D01*
X75923107Y-49729779D01*
X75734749Y-49807800D01*
X75565231Y-49921068D01*
X75421068Y-50065231D01*
X75307800Y-50234749D01*
X75229779Y-50423107D01*
X75190005Y-50623066D01*
X75190005Y-50826944D01*
X75222225Y-50988926D01*
X75101939Y-50965000D01*
X74898061Y-50965000D01*
X74698102Y-51004774D01*
X74585000Y-51051623D01*
X74585000Y-49123058D01*
X76689997Y-49123058D01*
X76689997Y-49326936D01*
X76729771Y-49526895D01*
X76807792Y-49715253D01*
X76921060Y-49884771D01*
X77065223Y-50028934D01*
X77234741Y-50142202D01*
X77423099Y-50220223D01*
X77623058Y-50259997D01*
X77649840Y-50259997D01*
X91917653Y-64527810D01*
X91942236Y-64557764D01*
X92061767Y-64655862D01*
X92198140Y-64728754D01*
X92346113Y-64773642D01*
X92421026Y-64781020D01*
X92461439Y-64785000D01*
X92461444Y-64785000D01*
X92500000Y-64788797D01*
X92538556Y-64785000D01*
X99230729Y-64785000D01*
X99285225Y-64916566D01*
X99496987Y-65233491D01*
X99766509Y-65503013D01*
X100083434Y-65714775D01*
X100435581Y-65860639D01*
X100809419Y-65935000D01*
X101190581Y-65935000D01*
X101564419Y-65860639D01*
X101916566Y-65714775D01*
X102233491Y-65503013D01*
X102503013Y-65233491D01*
X102714775Y-64916566D01*
X102860639Y-64564419D01*
X102935000Y-64190581D01*
X102935000Y-63809419D01*
X102860639Y-63435581D01*
X102714775Y-63083434D01*
X102503013Y-62766509D01*
X102233491Y-62496987D01*
X101916566Y-62285225D01*
X101564419Y-62139361D01*
X101190581Y-62065000D01*
X100809419Y-62065000D01*
X100435581Y-62139361D01*
X100083434Y-62285225D01*
X99766509Y-62496987D01*
X99496987Y-62766509D01*
X99285225Y-63083434D01*
X99230729Y-63215000D01*
X92825157Y-63215000D01*
X78759997Y-49149840D01*
X78759997Y-49123058D01*
X78720223Y-48923099D01*
X78642202Y-48734741D01*
X78528934Y-48565223D01*
X78384771Y-48421060D01*
X78215253Y-48307792D01*
X78026895Y-48229771D01*
X77826936Y-48189997D01*
X77623058Y-48189997D01*
X77423099Y-48229771D01*
X77234741Y-48307792D01*
X77065223Y-48421060D01*
X76921060Y-48565223D01*
X76807792Y-48734741D01*
X76729771Y-48923099D01*
X76689997Y-49123058D01*
X74585000Y-49123058D01*
X74585000Y-48878711D01*
X74603937Y-48859774D01*
X74717205Y-48690256D01*
X74795226Y-48501898D01*
X74835000Y-48301939D01*
X74835000Y-48098061D01*
X74795226Y-47898102D01*
X74717205Y-47709744D01*
X74710695Y-47700000D01*
X99061928Y-47700000D01*
X99061928Y-50300000D01*
X99074188Y-50424482D01*
X99110498Y-50544180D01*
X99169463Y-50654494D01*
X99248815Y-50751185D01*
X99345506Y-50830537D01*
X99455820Y-50889502D01*
X99575518Y-50925812D01*
X99700000Y-50938072D01*
X102300000Y-50938072D01*
X102424482Y-50925812D01*
X102544180Y-50889502D01*
X102654494Y-50830537D01*
X102751185Y-50751185D01*
X102830537Y-50654494D01*
X102889502Y-50544180D01*
X102925812Y-50424482D01*
X102938072Y-50300000D01*
X102938072Y-47700000D01*
X102925812Y-47575518D01*
X102889502Y-47455820D01*
X102830537Y-47345506D01*
X102751185Y-47248815D01*
X102654494Y-47169463D01*
X102544180Y-47110498D01*
X102424482Y-47074188D01*
X102300000Y-47061928D01*
X99700000Y-47061928D01*
X99575518Y-47074188D01*
X99455820Y-47110498D01*
X99345506Y-47169463D01*
X99248815Y-47248815D01*
X99169463Y-47345506D01*
X99110498Y-47455820D01*
X99074188Y-47575518D01*
X99061928Y-47700000D01*
X74710695Y-47700000D01*
X74603937Y-47540226D01*
X74459774Y-47396063D01*
X74290256Y-47282795D01*
X74101898Y-47204774D01*
X73901939Y-47165000D01*
X73698061Y-47165000D01*
X73498102Y-47204774D01*
X73309744Y-47282795D01*
X73140226Y-47396063D01*
X72996063Y-47540226D01*
X72882795Y-47709744D01*
X72804774Y-47898102D01*
X72765000Y-48098061D01*
X60553517Y-48098061D01*
X63366579Y-45285000D01*
X92861546Y-45285000D01*
X92909744Y-45317205D01*
X93098102Y-45395226D01*
X93298061Y-45435000D01*
X93501939Y-45435000D01*
X93701898Y-45395226D01*
X93890256Y-45317205D01*
X94059774Y-45203937D01*
X94203937Y-45059774D01*
X94317205Y-44890256D01*
X94395226Y-44701898D01*
X94435000Y-44501939D01*
X94435000Y-44298061D01*
X94395226Y-44098102D01*
X94317205Y-43909744D01*
X94250171Y-43809419D01*
X99065000Y-43809419D01*
X99065000Y-44190581D01*
X99139361Y-44564419D01*
X99285225Y-44916566D01*
X99496987Y-45233491D01*
X99766509Y-45503013D01*
X100083434Y-45714775D01*
X100435581Y-45860639D01*
X100809419Y-45935000D01*
X101190581Y-45935000D01*
X101564419Y-45860639D01*
X101916566Y-45714775D01*
X102233491Y-45503013D01*
X102503013Y-45233491D01*
X102714775Y-44916566D01*
X102860639Y-44564419D01*
X102935000Y-44190581D01*
X102935000Y-43809419D01*
X102860639Y-43435581D01*
X102714775Y-43083434D01*
X102503013Y-42766509D01*
X102233491Y-42496987D01*
X101916566Y-42285225D01*
X101564419Y-42139361D01*
X101190581Y-42065000D01*
X100809419Y-42065000D01*
X100435581Y-42139361D01*
X100083434Y-42285225D01*
X99766509Y-42496987D01*
X99496987Y-42766509D01*
X99285225Y-43083434D01*
X99139361Y-43435581D01*
X99065000Y-43809419D01*
X94250171Y-43809419D01*
X94203937Y-43740226D01*
X94059774Y-43596063D01*
X93890256Y-43482795D01*
X93701898Y-43404774D01*
X93501939Y-43365000D01*
X93298061Y-43365000D01*
X93098102Y-43404774D01*
X92909744Y-43482795D01*
X92861546Y-43515000D01*
X63043465Y-43515000D01*
X62999999Y-43510719D01*
X62956533Y-43515000D01*
X62956523Y-43515000D01*
X62826510Y-43527805D01*
X62659687Y-43578411D01*
X62505941Y-43660589D01*
X62505939Y-43660590D01*
X62505940Y-43660590D01*
X62404953Y-43743468D01*
X62404951Y-43743470D01*
X62371183Y-43771183D01*
X62343470Y-43804951D01*
X59233422Y-46915000D01*
X54044304Y-46915000D01*
X54131252Y-46884157D01*
X54381355Y-46735178D01*
X54597588Y-46540269D01*
X54771641Y-46306920D01*
X54896825Y-46044099D01*
X54941476Y-45896890D01*
X54820155Y-45667000D01*
X53627000Y-45667000D01*
X53627000Y-45687000D01*
X53373000Y-45687000D01*
X53373000Y-45667000D01*
X52179845Y-45667000D01*
X52058524Y-45896890D01*
X52103175Y-46044099D01*
X52228359Y-46306920D01*
X52402412Y-46540269D01*
X52618645Y-46735178D01*
X52868748Y-46884157D01*
X52955696Y-46915000D01*
X51766579Y-46915000D01*
X46465000Y-41613422D01*
X46465000Y-39374505D01*
X46466235Y-39373845D01*
X46707963Y-39175463D01*
X46906345Y-38933734D01*
X47053755Y-38657948D01*
X47144530Y-38358703D01*
X47167500Y-38125485D01*
X47167500Y-37874514D01*
X47144530Y-37641296D01*
X47053755Y-37342051D01*
X46906345Y-37066265D01*
X46707963Y-36824537D01*
X46466234Y-36626155D01*
X46190448Y-36478745D01*
X45891203Y-36387970D01*
X45580000Y-36357319D01*
X45268796Y-36387970D01*
X44969551Y-36478745D01*
X44693765Y-36626155D01*
X44452037Y-36824537D01*
X44304838Y-37003900D01*
X44149437Y-36818685D01*
X43906923Y-36624031D01*
X43631094Y-36480429D01*
X43412980Y-36409437D01*
X43167000Y-36529406D01*
X42913000Y-36529406D01*
X42667020Y-36409437D01*
X42448906Y-36480429D01*
X42173077Y-36624031D01*
X42032059Y-36737219D01*
X41983037Y-36645506D01*
X41903685Y-36548815D01*
X41806994Y-36469463D01*
X41696680Y-36410498D01*
X41576982Y-36374188D01*
X41452500Y-36361928D01*
X39547500Y-36361928D01*
X39423018Y-36374188D01*
X39303320Y-36410498D01*
X39193006Y-36469463D01*
X39096315Y-36548815D01*
X39016963Y-36645506D01*
X38957998Y-36755820D01*
X38921688Y-36875518D01*
X38909428Y-37000000D01*
X31011908Y-37000000D01*
X31058669Y-36980631D01*
X31424729Y-36736038D01*
X31736038Y-36424729D01*
X31980631Y-36058669D01*
X32149110Y-35651925D01*
X32235000Y-35220128D01*
X32235000Y-34779872D01*
X32149110Y-34348075D01*
X31980631Y-33941331D01*
X31736038Y-33575271D01*
X31424729Y-33263962D01*
X31058669Y-33019369D01*
X30651925Y-32850890D01*
X30220128Y-32765000D01*
X29779872Y-32765000D01*
X29348075Y-32850890D01*
X28941331Y-33019369D01*
X28575271Y-33263962D01*
X28263962Y-33575271D01*
X28019369Y-33941331D01*
X27850890Y-34348075D01*
X27765000Y-34779872D01*
X25710000Y-34779872D01*
X25710000Y-32034721D01*
X25714384Y-31990000D01*
X52011928Y-31990000D01*
X52011928Y-33690000D01*
X52024188Y-33814482D01*
X52060498Y-33934180D01*
X52119463Y-34044494D01*
X52198815Y-34141185D01*
X52295506Y-34220537D01*
X52405820Y-34279502D01*
X52478380Y-34301513D01*
X52346525Y-34433368D01*
X52184010Y-34676589D01*
X52072068Y-34946842D01*
X52015000Y-35233740D01*
X52015000Y-35526260D01*
X52072068Y-35813158D01*
X52184010Y-36083411D01*
X52346525Y-36326632D01*
X52553368Y-36533475D01*
X52727760Y-36650000D01*
X52553368Y-36766525D01*
X52346525Y-36973368D01*
X52184010Y-37216589D01*
X52072068Y-37486842D01*
X52015000Y-37773740D01*
X52015000Y-38066260D01*
X52072068Y-38353158D01*
X52184010Y-38623411D01*
X52346525Y-38866632D01*
X52553368Y-39073475D01*
X52727760Y-39190000D01*
X52553368Y-39306525D01*
X52346525Y-39513368D01*
X52184010Y-39756589D01*
X52072068Y-40026842D01*
X52015000Y-40313740D01*
X52015000Y-40606260D01*
X52072068Y-40893158D01*
X52184010Y-41163411D01*
X52346525Y-41406632D01*
X52553368Y-41613475D01*
X52727760Y-41730000D01*
X52553368Y-41846525D01*
X52346525Y-42053368D01*
X52184010Y-42296589D01*
X52072068Y-42566842D01*
X52015000Y-42853740D01*
X52015000Y-43146260D01*
X52072068Y-43433158D01*
X52184010Y-43703411D01*
X52346525Y-43946632D01*
X52553368Y-44153475D01*
X52735534Y-44275195D01*
X52618645Y-44344822D01*
X52402412Y-44539731D01*
X52228359Y-44773080D01*
X52103175Y-45035901D01*
X52058524Y-45183110D01*
X52179845Y-45413000D01*
X53373000Y-45413000D01*
X53373000Y-45393000D01*
X53627000Y-45393000D01*
X53627000Y-45413000D01*
X54820155Y-45413000D01*
X54941476Y-45183110D01*
X54896825Y-45035901D01*
X54771641Y-44773080D01*
X54597588Y-44539731D01*
X54381355Y-44344822D01*
X54264466Y-44275195D01*
X54446632Y-44153475D01*
X54653475Y-43946632D01*
X54815990Y-43703411D01*
X54927932Y-43433158D01*
X54985000Y-43146260D01*
X54985000Y-42853740D01*
X54927932Y-42566842D01*
X54815990Y-42296589D01*
X54653475Y-42053368D01*
X54446632Y-41846525D01*
X54272240Y-41730000D01*
X54446632Y-41613475D01*
X54653475Y-41406632D01*
X54815990Y-41163411D01*
X54927932Y-40893158D01*
X54985000Y-40606260D01*
X54985000Y-40313740D01*
X54927932Y-40026842D01*
X54815990Y-39756589D01*
X54653475Y-39513368D01*
X54446632Y-39306525D01*
X54272240Y-39190000D01*
X54446632Y-39073475D01*
X54653475Y-38866632D01*
X54815990Y-38623411D01*
X54927932Y-38353158D01*
X54985000Y-38066260D01*
X54985000Y-37773740D01*
X54969947Y-37698061D01*
X58965000Y-37698061D01*
X58965000Y-37901939D01*
X59004774Y-38101898D01*
X59082795Y-38290256D01*
X59196063Y-38459774D01*
X59340226Y-38603937D01*
X59509744Y-38717205D01*
X59589399Y-38750199D01*
X59482795Y-38909744D01*
X59404774Y-39098102D01*
X59365000Y-39298061D01*
X59365000Y-39501939D01*
X59404774Y-39701898D01*
X59482795Y-39890256D01*
X59596063Y-40059774D01*
X59740226Y-40203937D01*
X59909744Y-40317205D01*
X60098102Y-40395226D01*
X60298061Y-40435000D01*
X60501939Y-40435000D01*
X60701898Y-40395226D01*
X60890256Y-40317205D01*
X61059774Y-40203937D01*
X61203937Y-40059774D01*
X61317205Y-39890256D01*
X61395226Y-39701898D01*
X61418478Y-39585000D01*
X84121289Y-39585000D01*
X84140226Y-39603937D01*
X84309744Y-39717205D01*
X84498102Y-39795226D01*
X84698061Y-39835000D01*
X84901939Y-39835000D01*
X85101898Y-39795226D01*
X85290256Y-39717205D01*
X85459774Y-39603937D01*
X85603937Y-39459774D01*
X85717205Y-39290256D01*
X85795226Y-39101898D01*
X85835000Y-38901939D01*
X85835000Y-38698061D01*
X85795226Y-38498102D01*
X85717205Y-38309744D01*
X85603937Y-38140226D01*
X85563711Y-38100000D01*
X85603937Y-38059774D01*
X85717205Y-37890256D01*
X85795226Y-37701898D01*
X85835000Y-37501939D01*
X85835000Y-37298061D01*
X85795226Y-37098102D01*
X85717205Y-36909744D01*
X85603937Y-36740226D01*
X85459774Y-36596063D01*
X85290256Y-36482795D01*
X85101898Y-36404774D01*
X84901939Y-36365000D01*
X84698061Y-36365000D01*
X84498102Y-36404774D01*
X84309744Y-36482795D01*
X84140226Y-36596063D01*
X84121289Y-36615000D01*
X60438552Y-36615000D01*
X60399999Y-36611203D01*
X60361446Y-36615000D01*
X60361439Y-36615000D01*
X60269749Y-36624031D01*
X60246112Y-36626359D01*
X60211672Y-36636806D01*
X60098140Y-36671246D01*
X59961767Y-36744138D01*
X59936347Y-36765000D01*
X59898061Y-36765000D01*
X59698102Y-36804774D01*
X59509744Y-36882795D01*
X59340226Y-36996063D01*
X59196063Y-37140226D01*
X59082795Y-37309744D01*
X59004774Y-37498102D01*
X58965000Y-37698061D01*
X54969947Y-37698061D01*
X54927932Y-37486842D01*
X54815990Y-37216589D01*
X54653475Y-36973368D01*
X54446632Y-36766525D01*
X54272240Y-36650000D01*
X54446632Y-36533475D01*
X54653475Y-36326632D01*
X54815990Y-36083411D01*
X54890945Y-35902453D01*
X54996063Y-36059774D01*
X55140226Y-36203937D01*
X55309744Y-36317205D01*
X55498102Y-36395226D01*
X55698061Y-36435000D01*
X55901939Y-36435000D01*
X56101898Y-36395226D01*
X56290256Y-36317205D01*
X56459774Y-36203937D01*
X56603937Y-36059774D01*
X56717205Y-35890256D01*
X56795226Y-35701898D01*
X56835000Y-35501939D01*
X56835000Y-35475157D01*
X57125157Y-35185000D01*
X67121289Y-35185000D01*
X67140226Y-35203937D01*
X67309744Y-35317205D01*
X67498102Y-35395226D01*
X67698061Y-35435000D01*
X67901939Y-35435000D01*
X68101898Y-35395226D01*
X68290256Y-35317205D01*
X68459774Y-35203937D01*
X68603937Y-35059774D01*
X68717205Y-34890256D01*
X68795226Y-34701898D01*
X68835000Y-34501939D01*
X68835000Y-34298061D01*
X68795226Y-34098102D01*
X68717205Y-33909744D01*
X68603937Y-33740226D01*
X68488711Y-33625000D01*
X73649272Y-33625000D01*
X73509744Y-33682795D01*
X73340226Y-33796063D01*
X73196063Y-33940226D01*
X73082795Y-34109744D01*
X73004774Y-34298102D01*
X72965000Y-34498061D01*
X72965000Y-34701939D01*
X73004774Y-34901898D01*
X73082795Y-35090256D01*
X73196063Y-35259774D01*
X73340226Y-35403937D01*
X73509744Y-35517205D01*
X73698102Y-35595226D01*
X73898061Y-35635000D01*
X74101939Y-35635000D01*
X74301898Y-35595226D01*
X74490256Y-35517205D01*
X74659774Y-35403937D01*
X74678711Y-35385000D01*
X90561451Y-35385000D01*
X90600004Y-35388797D01*
X90638557Y-35385000D01*
X90638565Y-35385000D01*
X90753891Y-35373641D01*
X90901864Y-35328754D01*
X91038237Y-35255862D01*
X91157768Y-35157764D01*
X91182351Y-35127810D01*
X91475161Y-34835000D01*
X91501943Y-34835000D01*
X91701902Y-34795226D01*
X91738969Y-34779872D01*
X98765000Y-34779872D01*
X98765000Y-35220128D01*
X98850890Y-35651925D01*
X99019369Y-36058669D01*
X99263962Y-36424729D01*
X99575271Y-36736038D01*
X99941331Y-36980631D01*
X100348075Y-37149110D01*
X100779872Y-37235000D01*
X101220128Y-37235000D01*
X101651925Y-37149110D01*
X102058669Y-36980631D01*
X102424729Y-36736038D01*
X102736038Y-36424729D01*
X102980631Y-36058669D01*
X103149110Y-35651925D01*
X103235000Y-35220128D01*
X103235000Y-34779872D01*
X103149110Y-34348075D01*
X102980631Y-33941331D01*
X102736038Y-33575271D01*
X102424729Y-33263962D01*
X102058669Y-33019369D01*
X101651925Y-32850890D01*
X101220128Y-32765000D01*
X100779872Y-32765000D01*
X100348075Y-32850890D01*
X99941331Y-33019369D01*
X99575271Y-33263962D01*
X99263962Y-33575271D01*
X99019369Y-33941331D01*
X98850890Y-34348075D01*
X98765000Y-34779872D01*
X91738969Y-34779872D01*
X91890260Y-34717205D01*
X92059778Y-34603937D01*
X92203941Y-34459774D01*
X92317209Y-34290256D01*
X92395230Y-34101898D01*
X92435004Y-33901939D01*
X92435004Y-33698061D01*
X92395230Y-33498102D01*
X92317209Y-33309744D01*
X92203941Y-33140226D01*
X92059778Y-32996063D01*
X91890260Y-32882795D01*
X91701902Y-32804774D01*
X91501943Y-32765000D01*
X91298065Y-32765000D01*
X91098106Y-32804774D01*
X90909748Y-32882795D01*
X90740230Y-32996063D01*
X90596067Y-33140226D01*
X90482799Y-33309744D01*
X90404778Y-33498102D01*
X90365004Y-33698061D01*
X90365004Y-33724843D01*
X90274847Y-33815000D01*
X74678711Y-33815000D01*
X74659774Y-33796063D01*
X74490256Y-33682795D01*
X74350728Y-33625000D01*
X84921447Y-33625000D01*
X84960000Y-33628797D01*
X84998553Y-33625000D01*
X84998561Y-33625000D01*
X85031484Y-33621757D01*
X85098061Y-33635000D01*
X85301939Y-33635000D01*
X85501898Y-33595226D01*
X85690256Y-33517205D01*
X85859774Y-33403937D01*
X86003937Y-33259774D01*
X86117205Y-33090256D01*
X86195226Y-32901898D01*
X86235000Y-32701939D01*
X86235000Y-32498061D01*
X86195226Y-32298102D01*
X86117205Y-32109744D01*
X86003937Y-31940226D01*
X85859774Y-31796063D01*
X85690256Y-31682795D01*
X85501898Y-31604774D01*
X85301939Y-31565000D01*
X85098061Y-31565000D01*
X84898102Y-31604774D01*
X84709744Y-31682795D01*
X84540226Y-31796063D01*
X84396063Y-31940226D01*
X84319374Y-32055000D01*
X54988072Y-32055000D01*
X54988072Y-31990000D01*
X54975812Y-31865518D01*
X54939502Y-31745820D01*
X54880537Y-31635506D01*
X54801185Y-31538815D01*
X54704494Y-31459463D01*
X54594180Y-31400498D01*
X54474482Y-31364188D01*
X54350000Y-31351928D01*
X52650000Y-31351928D01*
X52525518Y-31364188D01*
X52405820Y-31400498D01*
X52295506Y-31459463D01*
X52198815Y-31538815D01*
X52119463Y-31635506D01*
X52060498Y-31745820D01*
X52024188Y-31865518D01*
X52011928Y-31990000D01*
X25714384Y-31990000D01*
X25737907Y-31750101D01*
X25810484Y-31509715D01*
X25928368Y-31288009D01*
X26087068Y-31093423D01*
X26280545Y-30933365D01*
X26501424Y-30813936D01*
X26741297Y-30739683D01*
X27023716Y-30710000D01*
X103965279Y-30710000D01*
X104249899Y-30737907D01*
G37*
X104249899Y-30737907D02*
X104490285Y-30810484D01*
X104711991Y-30928368D01*
X104906577Y-31087068D01*
X105066635Y-31280545D01*
X105186064Y-31501424D01*
X105260317Y-31741297D01*
X105290000Y-32023716D01*
X105290001Y-86965269D01*
X105262093Y-87249899D01*
X105189517Y-87490282D01*
X105071633Y-87711989D01*
X104912929Y-87906580D01*
X104719455Y-88066635D01*
X104498576Y-88186064D01*
X104258701Y-88260317D01*
X103976291Y-88290000D01*
X27034721Y-88290000D01*
X26750101Y-88262093D01*
X26509718Y-88189517D01*
X26288011Y-88071633D01*
X26093420Y-87912929D01*
X25933365Y-87719455D01*
X25813936Y-87498576D01*
X25739683Y-87258701D01*
X25710000Y-86976291D01*
X25710000Y-83779872D01*
X27765000Y-83779872D01*
X27765000Y-84220128D01*
X27850890Y-84651925D01*
X28019369Y-85058669D01*
X28263962Y-85424729D01*
X28575271Y-85736038D01*
X28941331Y-85980631D01*
X29348075Y-86149110D01*
X29779872Y-86235000D01*
X30220128Y-86235000D01*
X30651925Y-86149110D01*
X31058669Y-85980631D01*
X31424729Y-85736038D01*
X31736038Y-85424729D01*
X31980631Y-85058669D01*
X32149110Y-84651925D01*
X32235000Y-84220128D01*
X32235000Y-83779872D01*
X32149110Y-83348075D01*
X31980631Y-82941331D01*
X31819380Y-82700000D01*
X36111928Y-82700000D01*
X36111928Y-85300000D01*
X36124188Y-85424482D01*
X36160498Y-85544180D01*
X36219463Y-85654494D01*
X36298815Y-85751185D01*
X36395506Y-85830537D01*
X36505820Y-85889502D01*
X36625518Y-85925812D01*
X36750000Y-85938072D01*
X39350000Y-85938072D01*
X39474482Y-85925812D01*
X39594180Y-85889502D01*
X39704494Y-85830537D01*
X39801185Y-85751185D01*
X39880537Y-85654494D01*
X39939502Y-85544180D01*
X39975812Y-85424482D01*
X39988072Y-85300000D01*
X39988072Y-83809419D01*
X41115000Y-83809419D01*
X41115000Y-84190581D01*
X41189361Y-84564419D01*
X41335225Y-84916566D01*
X41546987Y-85233491D01*
X41816509Y-85503013D01*
X42133434Y-85714775D01*
X42485581Y-85860639D01*
X42859419Y-85935000D01*
X43240581Y-85935000D01*
X43614419Y-85860639D01*
X43966566Y-85714775D01*
X44283491Y-85503013D01*
X44553013Y-85233491D01*
X44764775Y-84916566D01*
X44910639Y-84564419D01*
X44985000Y-84190581D01*
X44985000Y-83809419D01*
X44910639Y-83435581D01*
X44764775Y-83083434D01*
X44553013Y-82766509D01*
X44486504Y-82700000D01*
X51061928Y-82700000D01*
X51061928Y-85300000D01*
X51074188Y-85424482D01*
X51110498Y-85544180D01*
X51169463Y-85654494D01*
X51248815Y-85751185D01*
X51345506Y-85830537D01*
X51455820Y-85889502D01*
X51575518Y-85925812D01*
X51700000Y-85938072D01*
X54300000Y-85938072D01*
X54424482Y-85925812D01*
X54544180Y-85889502D01*
X54654494Y-85830537D01*
X54751185Y-85751185D01*
X54830537Y-85654494D01*
X54889502Y-85544180D01*
X54925812Y-85424482D01*
X54938072Y-85300000D01*
X54938072Y-83809419D01*
X56065000Y-83809419D01*
X56065000Y-84190581D01*
X56139361Y-84564419D01*
X56285225Y-84916566D01*
X56496987Y-85233491D01*
X56766509Y-85503013D01*
X57083434Y-85714775D01*
X57435581Y-85860639D01*
X57809419Y-85935000D01*
X58190581Y-85935000D01*
X58564419Y-85860639D01*
X58916566Y-85714775D01*
X59233491Y-85503013D01*
X59503013Y-85233491D01*
X59714775Y-84916566D01*
X59860639Y-84564419D01*
X59935000Y-84190581D01*
X59935000Y-83809419D01*
X61065000Y-83809419D01*
X61065000Y-84190581D01*
X61139361Y-84564419D01*
X61285225Y-84916566D01*
X61496987Y-85233491D01*
X61766509Y-85503013D01*
X62083434Y-85714775D01*
X62435581Y-85860639D01*
X62809419Y-85935000D01*
X63190581Y-85935000D01*
X63564419Y-85860639D01*
X63916566Y-85714775D01*
X64233491Y-85503013D01*
X64503013Y-85233491D01*
X64714775Y-84916566D01*
X64860639Y-84564419D01*
X64935000Y-84190581D01*
X64935000Y-83809419D01*
X64860639Y-83435581D01*
X64714775Y-83083434D01*
X64503013Y-82766509D01*
X64436504Y-82700000D01*
X66061928Y-82700000D01*
X66061928Y-85300000D01*
X66074188Y-85424482D01*
X66110498Y-85544180D01*
X66169463Y-85654494D01*
X66248815Y-85751185D01*
X66345506Y-85830537D01*
X66455820Y-85889502D01*
X66575518Y-85925812D01*
X66700000Y-85938072D01*
X69300000Y-85938072D01*
X69424482Y-85925812D01*
X69544180Y-85889502D01*
X69654494Y-85830537D01*
X69751185Y-85751185D01*
X69830537Y-85654494D01*
X69889502Y-85544180D01*
X69925812Y-85424482D01*
X69938072Y-85300000D01*
X69938072Y-83809419D01*
X71065000Y-83809419D01*
X71065000Y-84190581D01*
X71139361Y-84564419D01*
X71285225Y-84916566D01*
X71496987Y-85233491D01*
X71766509Y-85503013D01*
X72083434Y-85714775D01*
X72435581Y-85860639D01*
X72809419Y-85935000D01*
X73190581Y-85935000D01*
X73564419Y-85860639D01*
X73916566Y-85714775D01*
X74233491Y-85503013D01*
X74503013Y-85233491D01*
X74714775Y-84916566D01*
X74860639Y-84564419D01*
X74935000Y-84190581D01*
X74935000Y-83809419D01*
X76065000Y-83809419D01*
X76065000Y-84190581D01*
X76139361Y-84564419D01*
X76285225Y-84916566D01*
X76496987Y-85233491D01*
X76766509Y-85503013D01*
X77083434Y-85714775D01*
X77435581Y-85860639D01*
X77809419Y-85935000D01*
X78190581Y-85935000D01*
X78564419Y-85860639D01*
X78916566Y-85714775D01*
X79233491Y-85503013D01*
X79503013Y-85233491D01*
X79714775Y-84916566D01*
X79860639Y-84564419D01*
X79935000Y-84190581D01*
X79935000Y-83809419D01*
X79860639Y-83435581D01*
X79714775Y-83083434D01*
X79503013Y-82766509D01*
X79436504Y-82700000D01*
X81061928Y-82700000D01*
X81061928Y-85300000D01*
X81074188Y-85424482D01*
X81110498Y-85544180D01*
X81169463Y-85654494D01*
X81248815Y-85751185D01*
X81345506Y-85830537D01*
X81455820Y-85889502D01*
X81575518Y-85925812D01*
X81700000Y-85938072D01*
X84300000Y-85938072D01*
X84424482Y-85925812D01*
X84544180Y-85889502D01*
X84654494Y-85830537D01*
X84751185Y-85751185D01*
X84830537Y-85654494D01*
X84889502Y-85544180D01*
X84925812Y-85424482D01*
X84938072Y-85300000D01*
X84938072Y-83809419D01*
X86065000Y-83809419D01*
X86065000Y-84190581D01*
X86139361Y-84564419D01*
X86285225Y-84916566D01*
X86496987Y-85233491D01*
X86766509Y-85503013D01*
X87083434Y-85714775D01*
X87435581Y-85860639D01*
X87809419Y-85935000D01*
X88190581Y-85935000D01*
X88564419Y-85860639D01*
X88916566Y-85714775D01*
X89233491Y-85503013D01*
X89503013Y-85233491D01*
X89714775Y-84916566D01*
X89860639Y-84564419D01*
X89935000Y-84190581D01*
X89935000Y-83809419D01*
X91065000Y-83809419D01*
X91065000Y-84190581D01*
X91139361Y-84564419D01*
X91285225Y-84916566D01*
X91496987Y-85233491D01*
X91766509Y-85503013D01*
X92083434Y-85714775D01*
X92435581Y-85860639D01*
X92809419Y-85935000D01*
X93190581Y-85935000D01*
X93564419Y-85860639D01*
X93916566Y-85714775D01*
X94233491Y-85503013D01*
X94503013Y-85233491D01*
X94714775Y-84916566D01*
X94860639Y-84564419D01*
X94935000Y-84190581D01*
X94935000Y-83809419D01*
X94929123Y-83779872D01*
X98765000Y-83779872D01*
X98765000Y-84220128D01*
X98850890Y-84651925D01*
X99019369Y-85058669D01*
X99263962Y-85424729D01*
X99575271Y-85736038D01*
X99941331Y-85980631D01*
X100348075Y-86149110D01*
X100779872Y-86235000D01*
X101220128Y-86235000D01*
X101651925Y-86149110D01*
X102058669Y-85980631D01*
X102424729Y-85736038D01*
X102736038Y-85424729D01*
X102980631Y-85058669D01*
X103149110Y-84651925D01*
X103235000Y-84220128D01*
X103235000Y-83779872D01*
X103149110Y-83348075D01*
X102980631Y-82941331D01*
X102736038Y-82575271D01*
X102424729Y-82263962D01*
X102058669Y-82019369D01*
X101651925Y-81850890D01*
X101220128Y-81765000D01*
X100779872Y-81765000D01*
X100348075Y-81850890D01*
X99941331Y-82019369D01*
X99575271Y-82263962D01*
X99263962Y-82575271D01*
X99019369Y-82941331D01*
X98850890Y-83348075D01*
X98765000Y-83779872D01*
X94929123Y-83779872D01*
X94860639Y-83435581D01*
X94714775Y-83083434D01*
X94503013Y-82766509D01*
X94233491Y-82496987D01*
X93916566Y-82285225D01*
X93564419Y-82139361D01*
X93190581Y-82065000D01*
X92809419Y-82065000D01*
X92435581Y-82139361D01*
X92083434Y-82285225D01*
X91766509Y-82496987D01*
X91496987Y-82766509D01*
X91285225Y-83083434D01*
X91139361Y-83435581D01*
X91065000Y-83809419D01*
X89935000Y-83809419D01*
X89860639Y-83435581D01*
X89714775Y-83083434D01*
X89503013Y-82766509D01*
X89233491Y-82496987D01*
X88916566Y-82285225D01*
X88564419Y-82139361D01*
X88190581Y-82065000D01*
X87809419Y-82065000D01*
X87435581Y-82139361D01*
X87083434Y-82285225D01*
X86766509Y-82496987D01*
X86496987Y-82766509D01*
X86285225Y-83083434D01*
X86139361Y-83435581D01*
X86065000Y-83809419D01*
X84938072Y-83809419D01*
X84938072Y-82700000D01*
X84925812Y-82575518D01*
X84889502Y-82455820D01*
X84830537Y-82345506D01*
X84751185Y-82248815D01*
X84654494Y-82169463D01*
X84544180Y-82110498D01*
X84424482Y-82074188D01*
X84300000Y-82061928D01*
X81700000Y-82061928D01*
X81575518Y-82074188D01*
X81455820Y-82110498D01*
X81345506Y-82169463D01*
X81248815Y-82248815D01*
X81169463Y-82345506D01*
X81110498Y-82455820D01*
X81074188Y-82575518D01*
X81061928Y-82700000D01*
X79436504Y-82700000D01*
X79233491Y-82496987D01*
X78916566Y-82285225D01*
X78564419Y-82139361D01*
X78190581Y-82065000D01*
X77809419Y-82065000D01*
X77435581Y-82139361D01*
X77083434Y-82285225D01*
X76766509Y-82496987D01*
X76496987Y-82766509D01*
X76285225Y-83083434D01*
X76139361Y-83435581D01*
X76065000Y-83809419D01*
X74935000Y-83809419D01*
X74860639Y-83435581D01*
X74714775Y-83083434D01*
X74503013Y-82766509D01*
X74233491Y-82496987D01*
X73916566Y-82285225D01*
X73564419Y-82139361D01*
X73190581Y-82065000D01*
X72809419Y-82065000D01*
X72435581Y-82139361D01*
X72083434Y-82285225D01*
X71766509Y-82496987D01*
X71496987Y-82766509D01*
X71285225Y-83083434D01*
X71139361Y-83435581D01*
X71065000Y-83809419D01*
X69938072Y-83809419D01*
X69938072Y-82700000D01*
X69925812Y-82575518D01*
X69889502Y-82455820D01*
X69830537Y-82345506D01*
X69751185Y-82248815D01*
X69654494Y-82169463D01*
X69544180Y-82110498D01*
X69424482Y-82074188D01*
X69300000Y-82061928D01*
X66700000Y-82061928D01*
X66575518Y-82074188D01*
X66455820Y-82110498D01*
X66345506Y-82169463D01*
X66248815Y-82248815D01*
X66169463Y-82345506D01*
X66110498Y-82455820D01*
X66074188Y-82575518D01*
X66061928Y-82700000D01*
X64436504Y-82700000D01*
X64233491Y-82496987D01*
X63916566Y-82285225D01*
X63564419Y-82139361D01*
X63190581Y-82065000D01*
X62809419Y-82065000D01*
X62435581Y-82139361D01*
X62083434Y-82285225D01*
X61766509Y-82496987D01*
X61496987Y-82766509D01*
X61285225Y-83083434D01*
X61139361Y-83435581D01*
X61065000Y-83809419D01*
X59935000Y-83809419D01*
X59860639Y-83435581D01*
X59714775Y-83083434D01*
X59503013Y-82766509D01*
X59233491Y-82496987D01*
X58916566Y-82285225D01*
X58564419Y-82139361D01*
X58190581Y-82065000D01*
X57809419Y-82065000D01*
X57435581Y-82139361D01*
X57083434Y-82285225D01*
X56766509Y-82496987D01*
X56496987Y-82766509D01*
X56285225Y-83083434D01*
X56139361Y-83435581D01*
X56065000Y-83809419D01*
X54938072Y-83809419D01*
X54938072Y-82700000D01*
X54925812Y-82575518D01*
X54889502Y-82455820D01*
X54830537Y-82345506D01*
X54751185Y-82248815D01*
X54654494Y-82169463D01*
X54544180Y-82110498D01*
X54424482Y-82074188D01*
X54300000Y-82061928D01*
X51700000Y-82061928D01*
X51575518Y-82074188D01*
X51455820Y-82110498D01*
X51345506Y-82169463D01*
X51248815Y-82248815D01*
X51169463Y-82345506D01*
X51110498Y-82455820D01*
X51074188Y-82575518D01*
X51061928Y-82700000D01*
X44486504Y-82700000D01*
X44283491Y-82496987D01*
X43966566Y-82285225D01*
X43614419Y-82139361D01*
X43240581Y-82065000D01*
X42859419Y-82065000D01*
X42485581Y-82139361D01*
X42133434Y-82285225D01*
X41816509Y-82496987D01*
X41546987Y-82766509D01*
X41335225Y-83083434D01*
X41189361Y-83435581D01*
X41115000Y-83809419D01*
X39988072Y-83809419D01*
X39988072Y-82700000D01*
X39975812Y-82575518D01*
X39939502Y-82455820D01*
X39880537Y-82345506D01*
X39801185Y-82248815D01*
X39704494Y-82169463D01*
X39594180Y-82110498D01*
X39474482Y-82074188D01*
X39350000Y-82061928D01*
X36750000Y-82061928D01*
X36625518Y-82074188D01*
X36505820Y-82110498D01*
X36395506Y-82169463D01*
X36298815Y-82248815D01*
X36219463Y-82345506D01*
X36160498Y-82455820D01*
X36124188Y-82575518D01*
X36111928Y-82700000D01*
X31819380Y-82700000D01*
X31736038Y-82575271D01*
X31424729Y-82263962D01*
X31058669Y-82019369D01*
X30651925Y-81850890D01*
X30220128Y-81765000D01*
X29779872Y-81765000D01*
X29348075Y-81850890D01*
X28941331Y-82019369D01*
X28575271Y-82263962D01*
X28263962Y-82575271D01*
X28019369Y-82941331D01*
X27850890Y-83348075D01*
X27765000Y-83779872D01*
X25710000Y-83779872D01*
X25710000Y-67200000D01*
X28061928Y-67200000D01*
X28061928Y-69800000D01*
X28074188Y-69924482D01*
X28110498Y-70044180D01*
X28169463Y-70154494D01*
X28248815Y-70251185D01*
X28345506Y-70330537D01*
X28455820Y-70389502D01*
X28575518Y-70425812D01*
X28700000Y-70438072D01*
X31300000Y-70438072D01*
X31424482Y-70425812D01*
X31544180Y-70389502D01*
X31654494Y-70330537D01*
X31751185Y-70251185D01*
X31830537Y-70154494D01*
X31889502Y-70044180D01*
X31925812Y-69924482D01*
X31938072Y-69800000D01*
X31938072Y-67200000D01*
X31925812Y-67075518D01*
X31889502Y-66955820D01*
X31830537Y-66845506D01*
X31751185Y-66748815D01*
X31654494Y-66669463D01*
X31544180Y-66610498D01*
X31424482Y-66574188D01*
X31300000Y-66561928D01*
X28700000Y-66561928D01*
X28575518Y-66574188D01*
X28455820Y-66610498D01*
X28345506Y-66669463D01*
X28248815Y-66748815D01*
X28169463Y-66845506D01*
X28110498Y-66955820D01*
X28074188Y-67075518D01*
X28061928Y-67200000D01*
X25710000Y-67200000D01*
X25710000Y-61338967D01*
X26365000Y-61338967D01*
X26365000Y-61661033D01*
X26427832Y-61976912D01*
X26551082Y-62274463D01*
X26730013Y-62542252D01*
X26957748Y-62769987D01*
X27225537Y-62948918D01*
X27523088Y-63072168D01*
X27838967Y-63135000D01*
X28161033Y-63135000D01*
X28476912Y-63072168D01*
X28774463Y-62948918D01*
X29042252Y-62769987D01*
X29269987Y-62542252D01*
X29448918Y-62274463D01*
X29572168Y-61976912D01*
X29635000Y-61661033D01*
X29635000Y-61338967D01*
X29572168Y-61023088D01*
X29448918Y-60725537D01*
X29269987Y-60457748D01*
X29042252Y-60230013D01*
X28774463Y-60051082D01*
X28476912Y-59927832D01*
X28161033Y-59865000D01*
X27838967Y-59865000D01*
X27523088Y-59927832D01*
X27225537Y-60051082D01*
X26957748Y-60230013D01*
X26730013Y-60457748D01*
X26551082Y-60725537D01*
X26427832Y-61023088D01*
X26365000Y-61338967D01*
X25710000Y-61338967D01*
X25710000Y-43538967D01*
X26365000Y-43538967D01*
X26365000Y-43861033D01*
X26427832Y-44176912D01*
X26551082Y-44474463D01*
X26730013Y-44742252D01*
X26957748Y-44969987D01*
X27215001Y-45141878D01*
X27215000Y-46961447D01*
X27211203Y-47000000D01*
X27215000Y-47038553D01*
X27215000Y-47038560D01*
X27226359Y-47153886D01*
X27271246Y-47301859D01*
X27344138Y-47438232D01*
X27442236Y-47557764D01*
X27472190Y-47582347D01*
X29715001Y-49825159D01*
X29715000Y-63461447D01*
X29711203Y-63500000D01*
X29715000Y-63538553D01*
X29715000Y-63538560D01*
X29726359Y-63653886D01*
X29771246Y-63801859D01*
X29844138Y-63938232D01*
X29942236Y-64057764D01*
X29972188Y-64082345D01*
X32715001Y-66825158D01*
X32715000Y-69674842D01*
X30695985Y-71693857D01*
X30564419Y-71639361D01*
X30190581Y-71565000D01*
X29809419Y-71565000D01*
X29435581Y-71639361D01*
X29083434Y-71785225D01*
X28766509Y-71996987D01*
X28496987Y-72266509D01*
X28285225Y-72583434D01*
X28139361Y-72935581D01*
X28065000Y-73309419D01*
X28065000Y-73690581D01*
X28139361Y-74064419D01*
X28285225Y-74416566D01*
X28496987Y-74733491D01*
X28766509Y-75003013D01*
X29083434Y-75214775D01*
X29435581Y-75360639D01*
X29809419Y-75435000D01*
X30190581Y-75435000D01*
X30564419Y-75360639D01*
X30916566Y-75214775D01*
X31233491Y-75003013D01*
X31503013Y-74733491D01*
X31714775Y-74416566D01*
X31860639Y-74064419D01*
X31935000Y-73690581D01*
X31935000Y-73309419D01*
X31860639Y-72935581D01*
X31806143Y-72804015D01*
X34027817Y-70582341D01*
X34057764Y-70557764D01*
X34155862Y-70438233D01*
X34228754Y-70301860D01*
X34273641Y-70153887D01*
X34285000Y-70038561D01*
X34285000Y-70038554D01*
X34288797Y-70000001D01*
X34285000Y-69961448D01*
X34285000Y-66538556D01*
X34288797Y-66500000D01*
X34285000Y-66461444D01*
X34285000Y-66461439D01*
X34281020Y-66421026D01*
X34273642Y-66346113D01*
X34228754Y-66198140D01*
X34155862Y-66061767D01*
X34057764Y-65942236D01*
X34027810Y-65917653D01*
X31285000Y-63174843D01*
X31285000Y-61338967D01*
X31365000Y-61338967D01*
X31365000Y-61661033D01*
X31427832Y-61976912D01*
X31551082Y-62274463D01*
X31730013Y-62542252D01*
X31957748Y-62769987D01*
X32225537Y-62948918D01*
X32523088Y-63072168D01*
X32838967Y-63135000D01*
X33161033Y-63135000D01*
X33476912Y-63072168D01*
X33774463Y-62948918D01*
X34042252Y-62769987D01*
X34269987Y-62542252D01*
X34448918Y-62274463D01*
X34572168Y-61976912D01*
X34635000Y-61661033D01*
X34635000Y-61338967D01*
X34572168Y-61023088D01*
X34448918Y-60725537D01*
X34269987Y-60457748D01*
X34042252Y-60230013D01*
X33774463Y-60051082D01*
X33476912Y-59927832D01*
X33327243Y-59898061D01*
X42465000Y-59898061D01*
X42465000Y-60101939D01*
X42504774Y-60301898D01*
X42582795Y-60490256D01*
X42696063Y-60659774D01*
X42840226Y-60803937D01*
X43009744Y-60917205D01*
X43198102Y-60995226D01*
X43398061Y-61035000D01*
X43601939Y-61035000D01*
X43801898Y-60995226D01*
X43990256Y-60917205D01*
X44159774Y-60803937D01*
X44178711Y-60785000D01*
X67416841Y-60785000D01*
X70659656Y-64027816D01*
X70684234Y-64057764D01*
X70714182Y-64082342D01*
X70714185Y-64082345D01*
X70743557Y-64106450D01*
X70803765Y-64155862D01*
X70914406Y-64215000D01*
X59288553Y-64215000D01*
X59250000Y-64211203D01*
X59211447Y-64215000D01*
X55788556Y-64215000D01*
X55750000Y-64211203D01*
X55711444Y-64215000D01*
X55711439Y-64215000D01*
X55671026Y-64218980D01*
X55596113Y-64226358D01*
X55448140Y-64271246D01*
X55311767Y-64344138D01*
X55251559Y-64393550D01*
X55222187Y-64417655D01*
X55222184Y-64417658D01*
X55192236Y-64442236D01*
X55167658Y-64472184D01*
X52924843Y-66715000D01*
X49678703Y-66715000D01*
X49659766Y-66696063D01*
X49490248Y-66582795D01*
X49301890Y-66504774D01*
X49101931Y-66465000D01*
X48898053Y-66465000D01*
X48698094Y-66504774D01*
X48509736Y-66582795D01*
X48340218Y-66696063D01*
X48196055Y-66840226D01*
X48082787Y-67009744D01*
X48004766Y-67198102D01*
X47964992Y-67398061D01*
X47964992Y-67601939D01*
X48004766Y-67801898D01*
X48082787Y-67990256D01*
X48196055Y-68159774D01*
X48340218Y-68303937D01*
X48509736Y-68417205D01*
X48698094Y-68495226D01*
X48898053Y-68535000D01*
X49101931Y-68535000D01*
X49301890Y-68495226D01*
X49490248Y-68417205D01*
X49659766Y-68303937D01*
X49678703Y-68285000D01*
X53211447Y-68285000D01*
X53250000Y-68288797D01*
X53288553Y-68285000D01*
X53288561Y-68285000D01*
X53403887Y-68273641D01*
X53551860Y-68228754D01*
X53688233Y-68155862D01*
X53807764Y-68057764D01*
X53832347Y-68027810D01*
X56075158Y-65785000D01*
X58924843Y-65785000D01*
X61095446Y-67955604D01*
X61065000Y-68108665D01*
X61065000Y-68391335D01*
X61120147Y-68668574D01*
X61228320Y-68929727D01*
X61385363Y-69164759D01*
X61585241Y-69364637D01*
X61820273Y-69521680D01*
X62081426Y-69629853D01*
X62358665Y-69685000D01*
X62641335Y-69685000D01*
X62918574Y-69629853D01*
X63179727Y-69521680D01*
X63414759Y-69364637D01*
X63536694Y-69242702D01*
X66686903Y-69242702D01*
X66758486Y-69486671D01*
X67013996Y-69607571D01*
X67288184Y-69676300D01*
X67570512Y-69690217D01*
X67850130Y-69648787D01*
X68116292Y-69553603D01*
X68241514Y-69486671D01*
X68313097Y-69242702D01*
X67500000Y-68429605D01*
X66686903Y-69242702D01*
X63536694Y-69242702D01*
X63614637Y-69164759D01*
X63771680Y-68929727D01*
X63879853Y-68668574D01*
X63935000Y-68391335D01*
X63935000Y-68320512D01*
X66059783Y-68320512D01*
X66101213Y-68600130D01*
X66196397Y-68866292D01*
X66263329Y-68991514D01*
X66507298Y-69063097D01*
X67320395Y-68250000D01*
X67679605Y-68250000D01*
X68492702Y-69063097D01*
X68736671Y-68991514D01*
X68857571Y-68736004D01*
X68926300Y-68461816D01*
X68940217Y-68179488D01*
X68898787Y-67899870D01*
X68803603Y-67633708D01*
X68736671Y-67508486D01*
X68492702Y-67436903D01*
X67679605Y-68250000D01*
X67320395Y-68250000D01*
X66507298Y-67436903D01*
X66263329Y-67508486D01*
X66142429Y-67763996D01*
X66073700Y-68038184D01*
X66059783Y-68320512D01*
X63935000Y-68320512D01*
X63935000Y-68108665D01*
X63879853Y-67831426D01*
X63771680Y-67570273D01*
X63614637Y-67335241D01*
X63536694Y-67257298D01*
X66686903Y-67257298D01*
X67500000Y-68070395D01*
X68313097Y-67257298D01*
X68241514Y-67013329D01*
X67986004Y-66892429D01*
X67711816Y-66823700D01*
X67429488Y-66809783D01*
X67149870Y-66851213D01*
X66883708Y-66946397D01*
X66758486Y-67013329D01*
X66686903Y-67257298D01*
X63536694Y-67257298D01*
X63414759Y-67135363D01*
X63179727Y-66978320D01*
X62918574Y-66870147D01*
X62641335Y-66815000D01*
X62358665Y-66815000D01*
X62205604Y-66845446D01*
X61145157Y-65785000D01*
X73674843Y-65785000D01*
X76667658Y-68777816D01*
X76692236Y-68807764D01*
X76722184Y-68832342D01*
X76722187Y-68832345D01*
X76751559Y-68856450D01*
X76811767Y-68905862D01*
X76948140Y-68978754D01*
X77096113Y-69023641D01*
X77211439Y-69035000D01*
X77211446Y-69035000D01*
X77249999Y-69038797D01*
X77288552Y-69035000D01*
X77298661Y-69035000D01*
X77385363Y-69164759D01*
X77585241Y-69364637D01*
X77820273Y-69521680D01*
X78081426Y-69629853D01*
X78358665Y-69685000D01*
X78641335Y-69685000D01*
X78918574Y-69629853D01*
X79179727Y-69521680D01*
X79414759Y-69364637D01*
X79536694Y-69242702D01*
X82686903Y-69242702D01*
X82758486Y-69486671D01*
X83013996Y-69607571D01*
X83288184Y-69676300D01*
X83570512Y-69690217D01*
X83850130Y-69648787D01*
X84116292Y-69553603D01*
X84241514Y-69486671D01*
X84313097Y-69242702D01*
X83500000Y-68429605D01*
X82686903Y-69242702D01*
X79536694Y-69242702D01*
X79614637Y-69164759D01*
X79771680Y-68929727D01*
X79879853Y-68668574D01*
X79935000Y-68391335D01*
X79935000Y-68320512D01*
X82059783Y-68320512D01*
X82101213Y-68600130D01*
X82196397Y-68866292D01*
X82263329Y-68991514D01*
X82507298Y-69063097D01*
X83320395Y-68250000D01*
X83679605Y-68250000D01*
X84492702Y-69063097D01*
X84736671Y-68991514D01*
X84857571Y-68736004D01*
X84926300Y-68461816D01*
X84940217Y-68179488D01*
X84898787Y-67899870D01*
X84803603Y-67633708D01*
X84736671Y-67508486D01*
X84492702Y-67436903D01*
X83679605Y-68250000D01*
X83320395Y-68250000D01*
X82507298Y-67436903D01*
X82263329Y-67508486D01*
X82142429Y-67763996D01*
X82073700Y-68038184D01*
X82059783Y-68320512D01*
X79935000Y-68320512D01*
X79935000Y-68108665D01*
X79879853Y-67831426D01*
X79771680Y-67570273D01*
X79614637Y-67335241D01*
X79536694Y-67257298D01*
X82686903Y-67257298D01*
X83500000Y-68070395D01*
X84313097Y-67257298D01*
X84241514Y-67013329D01*
X83986004Y-66892429D01*
X83711816Y-66823700D01*
X83429488Y-66809783D01*
X83149870Y-66851213D01*
X82883708Y-66946397D01*
X82758486Y-67013329D01*
X82686903Y-67257298D01*
X79536694Y-67257298D01*
X79414759Y-67135363D01*
X79179727Y-66978320D01*
X78918574Y-66870147D01*
X78641335Y-66815000D01*
X78358665Y-66815000D01*
X78205604Y-66845446D01*
X74332347Y-62972190D01*
X74307764Y-62942236D01*
X74188233Y-62844138D01*
X74051860Y-62771246D01*
X73903887Y-62726359D01*
X73788561Y-62715000D01*
X73788553Y-62715000D01*
X73750000Y-62711203D01*
X73711447Y-62715000D01*
X71567156Y-62715000D01*
X68324345Y-59472190D01*
X68299762Y-59442236D01*
X68180231Y-59344138D01*
X68043858Y-59271246D01*
X67895885Y-59226359D01*
X67780559Y-59215000D01*
X67780551Y-59215000D01*
X67741998Y-59211203D01*
X67703445Y-59215000D01*
X44178711Y-59215000D01*
X44159774Y-59196063D01*
X43990256Y-59082795D01*
X43801898Y-59004774D01*
X43601939Y-58965000D01*
X43398061Y-58965000D01*
X43198102Y-59004774D01*
X43009744Y-59082795D01*
X42840226Y-59196063D01*
X42696063Y-59340226D01*
X42582795Y-59509744D01*
X42504774Y-59698102D01*
X42465000Y-59898061D01*
X33327243Y-59898061D01*
X33161033Y-59865000D01*
X32838967Y-59865000D01*
X32523088Y-59927832D01*
X32225537Y-60051082D01*
X31957748Y-60230013D01*
X31730013Y-60457748D01*
X31551082Y-60725537D01*
X31427832Y-61023088D01*
X31365000Y-61338967D01*
X31285000Y-61338967D01*
X31285000Y-51000000D01*
X38909428Y-51000000D01*
X38909428Y-53000000D01*
X38921688Y-53124482D01*
X38957998Y-53244180D01*
X39016963Y-53354494D01*
X39096315Y-53451185D01*
X39193006Y-53530537D01*
X39303320Y-53589502D01*
X39423018Y-53625812D01*
X39547500Y-53638072D01*
X41452500Y-53638072D01*
X41576982Y-53625812D01*
X41696680Y-53589502D01*
X41806994Y-53530537D01*
X41903685Y-53451185D01*
X41983037Y-53354494D01*
X42032059Y-53262781D01*
X42173077Y-53375969D01*
X42448906Y-53519571D01*
X42667020Y-53590563D01*
X42913000Y-53470594D01*
X42913000Y-52127000D01*
X42893000Y-52127000D01*
X42893000Y-51873000D01*
X42913000Y-51873000D01*
X42913000Y-50529406D01*
X43167000Y-50529406D01*
X43167000Y-51873000D01*
X43187000Y-51873000D01*
X43187000Y-52127000D01*
X43167000Y-52127000D01*
X43167000Y-53470594D01*
X43412980Y-53590563D01*
X43631094Y-53519571D01*
X43906923Y-53375969D01*
X44149437Y-53181315D01*
X44304837Y-52996101D01*
X44452037Y-53175463D01*
X44693766Y-53373845D01*
X44969552Y-53521255D01*
X45268797Y-53612030D01*
X45580000Y-53642681D01*
X45891204Y-53612030D01*
X46190449Y-53521255D01*
X46466235Y-53373845D01*
X46707963Y-53175463D01*
X46906345Y-52933734D01*
X47053755Y-52657948D01*
X47144530Y-52358703D01*
X47167500Y-52125485D01*
X47167500Y-51874514D01*
X47144530Y-51641296D01*
X47053755Y-51342051D01*
X46906345Y-51066265D01*
X46707963Y-50824537D01*
X46466234Y-50626155D01*
X46190448Y-50478745D01*
X45891203Y-50387970D01*
X45580000Y-50357319D01*
X45268796Y-50387970D01*
X44969551Y-50478745D01*
X44693765Y-50626155D01*
X44452037Y-50824537D01*
X44304838Y-51003900D01*
X44149437Y-50818685D01*
X43906923Y-50624031D01*
X43631094Y-50480429D01*
X43412980Y-50409437D01*
X43167000Y-50529406D01*
X42913000Y-50529406D01*
X42667020Y-50409437D01*
X42448906Y-50480429D01*
X42173077Y-50624031D01*
X42032059Y-50737219D01*
X41983037Y-50645506D01*
X41903685Y-50548815D01*
X41806994Y-50469463D01*
X41696680Y-50410498D01*
X41576982Y-50374188D01*
X41452500Y-50361928D01*
X39547500Y-50361928D01*
X39423018Y-50374188D01*
X39303320Y-50410498D01*
X39193006Y-50469463D01*
X39096315Y-50548815D01*
X39016963Y-50645506D01*
X38957998Y-50755820D01*
X38921688Y-50875518D01*
X38909428Y-51000000D01*
X31285000Y-51000000D01*
X31285000Y-49538556D01*
X31288797Y-49500000D01*
X31285000Y-49461444D01*
X31285000Y-49461439D01*
X31276869Y-49378883D01*
X31273642Y-49346113D01*
X31228754Y-49198140D01*
X31188622Y-49123058D01*
X31155862Y-49061767D01*
X31057764Y-48942236D01*
X31027816Y-48917658D01*
X28785000Y-46674843D01*
X28785000Y-45141877D01*
X29042252Y-44969987D01*
X29269987Y-44742252D01*
X29441877Y-44485000D01*
X31558123Y-44485000D01*
X31730013Y-44742252D01*
X31957748Y-44969987D01*
X32225537Y-45148918D01*
X32523088Y-45272168D01*
X32838967Y-45335000D01*
X33161033Y-45335000D01*
X33476912Y-45272168D01*
X33774463Y-45148918D01*
X34042252Y-44969987D01*
X34269987Y-44742252D01*
X34448918Y-44474463D01*
X34572168Y-44176912D01*
X34635000Y-43861033D01*
X34635000Y-43538967D01*
X34572168Y-43223088D01*
X34448918Y-42925537D01*
X34269987Y-42657748D01*
X34042252Y-42430013D01*
X33774463Y-42251082D01*
X33476912Y-42127832D01*
X33161033Y-42065000D01*
X32838967Y-42065000D01*
X32523088Y-42127832D01*
X32225537Y-42251082D01*
X31957748Y-42430013D01*
X31730013Y-42657748D01*
X31558123Y-42915000D01*
X29441877Y-42915000D01*
X29269987Y-42657748D01*
X29042252Y-42430013D01*
X28774463Y-42251082D01*
X28476912Y-42127832D01*
X28161033Y-42065000D01*
X27838967Y-42065000D01*
X27523088Y-42127832D01*
X27225537Y-42251082D01*
X26957748Y-42430013D01*
X26730013Y-42657748D01*
X26551082Y-42925537D01*
X26427832Y-43223088D01*
X26365000Y-43538967D01*
X25710000Y-43538967D01*
X25710000Y-34779872D01*
X27765000Y-34779872D01*
X27765000Y-35220128D01*
X27850890Y-35651925D01*
X28019369Y-36058669D01*
X28263962Y-36424729D01*
X28575271Y-36736038D01*
X28941331Y-36980631D01*
X29348075Y-37149110D01*
X29779872Y-37235000D01*
X30220128Y-37235000D01*
X30651925Y-37149110D01*
X31011908Y-37000000D01*
X38909428Y-37000000D01*
X38909428Y-39000000D01*
X38921688Y-39124482D01*
X38957998Y-39244180D01*
X39016963Y-39354494D01*
X39096315Y-39451185D01*
X39193006Y-39530537D01*
X39303320Y-39589502D01*
X39423018Y-39625812D01*
X39547500Y-39638072D01*
X41452500Y-39638072D01*
X41576982Y-39625812D01*
X41696680Y-39589502D01*
X41806994Y-39530537D01*
X41903685Y-39451185D01*
X41983037Y-39354494D01*
X42032059Y-39262781D01*
X42173077Y-39375969D01*
X42448906Y-39519571D01*
X42667020Y-39590563D01*
X42913000Y-39470594D01*
X42913000Y-38127000D01*
X42893000Y-38127000D01*
X42893000Y-37873000D01*
X42913000Y-37873000D01*
X42913000Y-36529406D01*
X43167000Y-36529406D01*
X43167000Y-37873000D01*
X43187000Y-37873000D01*
X43187000Y-38127000D01*
X43167000Y-38127000D01*
X43167000Y-39470594D01*
X43412980Y-39590563D01*
X43631094Y-39519571D01*
X43906923Y-39375969D01*
X44149437Y-39181315D01*
X44304837Y-38996101D01*
X44452037Y-39175463D01*
X44693766Y-39373845D01*
X44695000Y-39374505D01*
X44695001Y-41936521D01*
X44690719Y-41980000D01*
X44707805Y-42153490D01*
X44758412Y-42320313D01*
X44840590Y-42474059D01*
X44923468Y-42575046D01*
X44923471Y-42575049D01*
X44951184Y-42608817D01*
X44984952Y-42636530D01*
X50743470Y-48395049D01*
X50771183Y-48428817D01*
X50804951Y-48456530D01*
X50804953Y-48456532D01*
X50905940Y-48539410D01*
X50905941Y-48539411D01*
X51059687Y-48621589D01*
X51175903Y-48656843D01*
X51226509Y-48672195D01*
X51241306Y-48673652D01*
X51356523Y-48685000D01*
X51356531Y-48685000D01*
X51400000Y-48689281D01*
X51443469Y-48685000D01*
X59556531Y-48685000D01*
X59600000Y-48689281D01*
X59643469Y-48685000D01*
X59643477Y-48685000D01*
X59773490Y-48672195D01*
X59940313Y-48621589D01*
X60094059Y-48539411D01*
X60228817Y-48428817D01*
X60256534Y-48395044D01*
X60553517Y-48098061D01*
X72765000Y-48098061D01*
X72765000Y-48301939D01*
X72804774Y-48501898D01*
X72882795Y-48690256D01*
X72996063Y-48859774D01*
X73015001Y-48878712D01*
X73015000Y-60361447D01*
X73011203Y-60400000D01*
X73015000Y-60438553D01*
X73015000Y-60438560D01*
X73026359Y-60553886D01*
X73071246Y-60701859D01*
X73144138Y-60838232D01*
X73242236Y-60957764D01*
X73272190Y-60982347D01*
X75165000Y-62875157D01*
X75165000Y-62901939D01*
X75204774Y-63101898D01*
X75282795Y-63290256D01*
X75396063Y-63459774D01*
X75540226Y-63603937D01*
X75709744Y-63717205D01*
X75898102Y-63795226D01*
X76098061Y-63835000D01*
X76301939Y-63835000D01*
X76501898Y-63795226D01*
X76690256Y-63717205D01*
X76859774Y-63603937D01*
X77003937Y-63459774D01*
X77117205Y-63290256D01*
X77195226Y-63101898D01*
X77235000Y-62901939D01*
X77235000Y-62698061D01*
X77195226Y-62498102D01*
X77117205Y-62309744D01*
X77003937Y-62140226D01*
X76859774Y-61996063D01*
X76690256Y-61882795D01*
X76501898Y-61804774D01*
X76301939Y-61765000D01*
X76275157Y-61765000D01*
X74585000Y-60074843D01*
X74585000Y-52948377D01*
X74698102Y-52995226D01*
X74898061Y-53035000D01*
X74924843Y-53035000D01*
X96417658Y-74527816D01*
X96442236Y-74557764D01*
X96472184Y-74582342D01*
X96472187Y-74582345D01*
X96501559Y-74606450D01*
X96561767Y-74655862D01*
X96698140Y-74728754D01*
X96811672Y-74763194D01*
X96846112Y-74773641D01*
X96860490Y-74775057D01*
X96961439Y-74785000D01*
X96961446Y-74785000D01*
X96999999Y-74788797D01*
X97038552Y-74785000D01*
X99061928Y-74785000D01*
X99061928Y-75300000D01*
X99074188Y-75424482D01*
X99110498Y-75544180D01*
X99169463Y-75654494D01*
X99248815Y-75751185D01*
X99345506Y-75830537D01*
X99455820Y-75889502D01*
X99575518Y-75925812D01*
X99700000Y-75938072D01*
X102300000Y-75938072D01*
X102424482Y-75925812D01*
X102544180Y-75889502D01*
X102654494Y-75830537D01*
X102751185Y-75751185D01*
X102830537Y-75654494D01*
X102889502Y-75544180D01*
X102925812Y-75424482D01*
X102938072Y-75300000D01*
X102938072Y-72700000D01*
X102925812Y-72575518D01*
X102889502Y-72455820D01*
X102830537Y-72345506D01*
X102751185Y-72248815D01*
X102654494Y-72169463D01*
X102544180Y-72110498D01*
X102424482Y-72074188D01*
X102300000Y-72061928D01*
X99700000Y-72061928D01*
X99575518Y-72074188D01*
X99455820Y-72110498D01*
X99345506Y-72169463D01*
X99248815Y-72248815D01*
X99169463Y-72345506D01*
X99110498Y-72455820D01*
X99074188Y-72575518D01*
X99061928Y-72700000D01*
X99061928Y-73215000D01*
X97325158Y-73215000D01*
X76035000Y-51924843D01*
X76035000Y-51898061D01*
X76002780Y-51736079D01*
X76123066Y-51760005D01*
X76149848Y-51760005D01*
X93917653Y-69527810D01*
X93942236Y-69557764D01*
X94061767Y-69655862D01*
X94198140Y-69728754D01*
X94346113Y-69773642D01*
X94421026Y-69781020D01*
X94461439Y-69785000D01*
X94461444Y-69785000D01*
X94500000Y-69788797D01*
X94538556Y-69785000D01*
X99230729Y-69785000D01*
X99285225Y-69916566D01*
X99496987Y-70233491D01*
X99766509Y-70503013D01*
X100083434Y-70714775D01*
X100435581Y-70860639D01*
X100809419Y-70935000D01*
X101190581Y-70935000D01*
X101564419Y-70860639D01*
X101916566Y-70714775D01*
X102233491Y-70503013D01*
X102503013Y-70233491D01*
X102714775Y-69916566D01*
X102860639Y-69564419D01*
X102935000Y-69190581D01*
X102935000Y-68809419D01*
X102860639Y-68435581D01*
X102714775Y-68083434D01*
X102503013Y-67766509D01*
X102233491Y-67496987D01*
X101916566Y-67285225D01*
X101564419Y-67139361D01*
X101190581Y-67065000D01*
X100809419Y-67065000D01*
X100435581Y-67139361D01*
X100083434Y-67285225D01*
X99766509Y-67496987D01*
X99496987Y-67766509D01*
X99285225Y-68083434D01*
X99230729Y-68215000D01*
X94825157Y-68215000D01*
X77260005Y-50649848D01*
X77260005Y-50623066D01*
X77220231Y-50423107D01*
X77142210Y-50234749D01*
X77028942Y-50065231D01*
X76884779Y-49921068D01*
X76715261Y-49807800D01*
X76526903Y-49729779D01*
X76326944Y-49690005D01*
X76123066Y-49690005D01*
X75923107Y-49729779D01*
X75734749Y-49807800D01*
X75565231Y-49921068D01*
X75421068Y-50065231D01*
X75307800Y-50234749D01*
X75229779Y-50423107D01*
X75190005Y-50623066D01*
X75190005Y-50826944D01*
X75222225Y-50988926D01*
X75101939Y-50965000D01*
X74898061Y-50965000D01*
X74698102Y-51004774D01*
X74585000Y-51051623D01*
X74585000Y-49123058D01*
X76689997Y-49123058D01*
X76689997Y-49326936D01*
X76729771Y-49526895D01*
X76807792Y-49715253D01*
X76921060Y-49884771D01*
X77065223Y-50028934D01*
X77234741Y-50142202D01*
X77423099Y-50220223D01*
X77623058Y-50259997D01*
X77649840Y-50259997D01*
X91917653Y-64527810D01*
X91942236Y-64557764D01*
X92061767Y-64655862D01*
X92198140Y-64728754D01*
X92346113Y-64773642D01*
X92421026Y-64781020D01*
X92461439Y-64785000D01*
X92461444Y-64785000D01*
X92500000Y-64788797D01*
X92538556Y-64785000D01*
X99230729Y-64785000D01*
X99285225Y-64916566D01*
X99496987Y-65233491D01*
X99766509Y-65503013D01*
X100083434Y-65714775D01*
X100435581Y-65860639D01*
X100809419Y-65935000D01*
X101190581Y-65935000D01*
X101564419Y-65860639D01*
X101916566Y-65714775D01*
X102233491Y-65503013D01*
X102503013Y-65233491D01*
X102714775Y-64916566D01*
X102860639Y-64564419D01*
X102935000Y-64190581D01*
X102935000Y-63809419D01*
X102860639Y-63435581D01*
X102714775Y-63083434D01*
X102503013Y-62766509D01*
X102233491Y-62496987D01*
X101916566Y-62285225D01*
X101564419Y-62139361D01*
X101190581Y-62065000D01*
X100809419Y-62065000D01*
X100435581Y-62139361D01*
X100083434Y-62285225D01*
X99766509Y-62496987D01*
X99496987Y-62766509D01*
X99285225Y-63083434D01*
X99230729Y-63215000D01*
X92825157Y-63215000D01*
X78759997Y-49149840D01*
X78759997Y-49123058D01*
X78720223Y-48923099D01*
X78642202Y-48734741D01*
X78528934Y-48565223D01*
X78384771Y-48421060D01*
X78215253Y-48307792D01*
X78026895Y-48229771D01*
X77826936Y-48189997D01*
X77623058Y-48189997D01*
X77423099Y-48229771D01*
X77234741Y-48307792D01*
X77065223Y-48421060D01*
X76921060Y-48565223D01*
X76807792Y-48734741D01*
X76729771Y-48923099D01*
X76689997Y-49123058D01*
X74585000Y-49123058D01*
X74585000Y-48878711D01*
X74603937Y-48859774D01*
X74717205Y-48690256D01*
X74795226Y-48501898D01*
X74835000Y-48301939D01*
X74835000Y-48098061D01*
X74795226Y-47898102D01*
X74717205Y-47709744D01*
X74710695Y-47700000D01*
X99061928Y-47700000D01*
X99061928Y-50300000D01*
X99074188Y-50424482D01*
X99110498Y-50544180D01*
X99169463Y-50654494D01*
X99248815Y-50751185D01*
X99345506Y-50830537D01*
X99455820Y-50889502D01*
X99575518Y-50925812D01*
X99700000Y-50938072D01*
X102300000Y-50938072D01*
X102424482Y-50925812D01*
X102544180Y-50889502D01*
X102654494Y-50830537D01*
X102751185Y-50751185D01*
X102830537Y-50654494D01*
X102889502Y-50544180D01*
X102925812Y-50424482D01*
X102938072Y-50300000D01*
X102938072Y-47700000D01*
X102925812Y-47575518D01*
X102889502Y-47455820D01*
X102830537Y-47345506D01*
X102751185Y-47248815D01*
X102654494Y-47169463D01*
X102544180Y-47110498D01*
X102424482Y-47074188D01*
X102300000Y-47061928D01*
X99700000Y-47061928D01*
X99575518Y-47074188D01*
X99455820Y-47110498D01*
X99345506Y-47169463D01*
X99248815Y-47248815D01*
X99169463Y-47345506D01*
X99110498Y-47455820D01*
X99074188Y-47575518D01*
X99061928Y-47700000D01*
X74710695Y-47700000D01*
X74603937Y-47540226D01*
X74459774Y-47396063D01*
X74290256Y-47282795D01*
X74101898Y-47204774D01*
X73901939Y-47165000D01*
X73698061Y-47165000D01*
X73498102Y-47204774D01*
X73309744Y-47282795D01*
X73140226Y-47396063D01*
X72996063Y-47540226D01*
X72882795Y-47709744D01*
X72804774Y-47898102D01*
X72765000Y-48098061D01*
X60553517Y-48098061D01*
X63366579Y-45285000D01*
X92861546Y-45285000D01*
X92909744Y-45317205D01*
X93098102Y-45395226D01*
X93298061Y-45435000D01*
X93501939Y-45435000D01*
X93701898Y-45395226D01*
X93890256Y-45317205D01*
X94059774Y-45203937D01*
X94203937Y-45059774D01*
X94317205Y-44890256D01*
X94395226Y-44701898D01*
X94435000Y-44501939D01*
X94435000Y-44298061D01*
X94395226Y-44098102D01*
X94317205Y-43909744D01*
X94250171Y-43809419D01*
X99065000Y-43809419D01*
X99065000Y-44190581D01*
X99139361Y-44564419D01*
X99285225Y-44916566D01*
X99496987Y-45233491D01*
X99766509Y-45503013D01*
X100083434Y-45714775D01*
X100435581Y-45860639D01*
X100809419Y-45935000D01*
X101190581Y-45935000D01*
X101564419Y-45860639D01*
X101916566Y-45714775D01*
X102233491Y-45503013D01*
X102503013Y-45233491D01*
X102714775Y-44916566D01*
X102860639Y-44564419D01*
X102935000Y-44190581D01*
X102935000Y-43809419D01*
X102860639Y-43435581D01*
X102714775Y-43083434D01*
X102503013Y-42766509D01*
X102233491Y-42496987D01*
X101916566Y-42285225D01*
X101564419Y-42139361D01*
X101190581Y-42065000D01*
X100809419Y-42065000D01*
X100435581Y-42139361D01*
X100083434Y-42285225D01*
X99766509Y-42496987D01*
X99496987Y-42766509D01*
X99285225Y-43083434D01*
X99139361Y-43435581D01*
X99065000Y-43809419D01*
X94250171Y-43809419D01*
X94203937Y-43740226D01*
X94059774Y-43596063D01*
X93890256Y-43482795D01*
X93701898Y-43404774D01*
X93501939Y-43365000D01*
X93298061Y-43365000D01*
X93098102Y-43404774D01*
X92909744Y-43482795D01*
X92861546Y-43515000D01*
X63043465Y-43515000D01*
X62999999Y-43510719D01*
X62956533Y-43515000D01*
X62956523Y-43515000D01*
X62826510Y-43527805D01*
X62659687Y-43578411D01*
X62505941Y-43660589D01*
X62505939Y-43660590D01*
X62505940Y-43660590D01*
X62404953Y-43743468D01*
X62404951Y-43743470D01*
X62371183Y-43771183D01*
X62343470Y-43804951D01*
X59233422Y-46915000D01*
X54044304Y-46915000D01*
X54131252Y-46884157D01*
X54381355Y-46735178D01*
X54597588Y-46540269D01*
X54771641Y-46306920D01*
X54896825Y-46044099D01*
X54941476Y-45896890D01*
X54820155Y-45667000D01*
X53627000Y-45667000D01*
X53627000Y-45687000D01*
X53373000Y-45687000D01*
X53373000Y-45667000D01*
X52179845Y-45667000D01*
X52058524Y-45896890D01*
X52103175Y-46044099D01*
X52228359Y-46306920D01*
X52402412Y-46540269D01*
X52618645Y-46735178D01*
X52868748Y-46884157D01*
X52955696Y-46915000D01*
X51766579Y-46915000D01*
X46465000Y-41613422D01*
X46465000Y-39374505D01*
X46466235Y-39373845D01*
X46707963Y-39175463D01*
X46906345Y-38933734D01*
X47053755Y-38657948D01*
X47144530Y-38358703D01*
X47167500Y-38125485D01*
X47167500Y-37874514D01*
X47144530Y-37641296D01*
X47053755Y-37342051D01*
X46906345Y-37066265D01*
X46707963Y-36824537D01*
X46466234Y-36626155D01*
X46190448Y-36478745D01*
X45891203Y-36387970D01*
X45580000Y-36357319D01*
X45268796Y-36387970D01*
X44969551Y-36478745D01*
X44693765Y-36626155D01*
X44452037Y-36824537D01*
X44304838Y-37003900D01*
X44149437Y-36818685D01*
X43906923Y-36624031D01*
X43631094Y-36480429D01*
X43412980Y-36409437D01*
X43167000Y-36529406D01*
X42913000Y-36529406D01*
X42667020Y-36409437D01*
X42448906Y-36480429D01*
X42173077Y-36624031D01*
X42032059Y-36737219D01*
X41983037Y-36645506D01*
X41903685Y-36548815D01*
X41806994Y-36469463D01*
X41696680Y-36410498D01*
X41576982Y-36374188D01*
X41452500Y-36361928D01*
X39547500Y-36361928D01*
X39423018Y-36374188D01*
X39303320Y-36410498D01*
X39193006Y-36469463D01*
X39096315Y-36548815D01*
X39016963Y-36645506D01*
X38957998Y-36755820D01*
X38921688Y-36875518D01*
X38909428Y-37000000D01*
X31011908Y-37000000D01*
X31058669Y-36980631D01*
X31424729Y-36736038D01*
X31736038Y-36424729D01*
X31980631Y-36058669D01*
X32149110Y-35651925D01*
X32235000Y-35220128D01*
X32235000Y-34779872D01*
X32149110Y-34348075D01*
X31980631Y-33941331D01*
X31736038Y-33575271D01*
X31424729Y-33263962D01*
X31058669Y-33019369D01*
X30651925Y-32850890D01*
X30220128Y-32765000D01*
X29779872Y-32765000D01*
X29348075Y-32850890D01*
X28941331Y-33019369D01*
X28575271Y-33263962D01*
X28263962Y-33575271D01*
X28019369Y-33941331D01*
X27850890Y-34348075D01*
X27765000Y-34779872D01*
X25710000Y-34779872D01*
X25710000Y-32034721D01*
X25714384Y-31990000D01*
X52011928Y-31990000D01*
X52011928Y-33690000D01*
X52024188Y-33814482D01*
X52060498Y-33934180D01*
X52119463Y-34044494D01*
X52198815Y-34141185D01*
X52295506Y-34220537D01*
X52405820Y-34279502D01*
X52478380Y-34301513D01*
X52346525Y-34433368D01*
X52184010Y-34676589D01*
X52072068Y-34946842D01*
X52015000Y-35233740D01*
X52015000Y-35526260D01*
X52072068Y-35813158D01*
X52184010Y-36083411D01*
X52346525Y-36326632D01*
X52553368Y-36533475D01*
X52727760Y-36650000D01*
X52553368Y-36766525D01*
X52346525Y-36973368D01*
X52184010Y-37216589D01*
X52072068Y-37486842D01*
X52015000Y-37773740D01*
X52015000Y-38066260D01*
X52072068Y-38353158D01*
X52184010Y-38623411D01*
X52346525Y-38866632D01*
X52553368Y-39073475D01*
X52727760Y-39190000D01*
X52553368Y-39306525D01*
X52346525Y-39513368D01*
X52184010Y-39756589D01*
X52072068Y-40026842D01*
X52015000Y-40313740D01*
X52015000Y-40606260D01*
X52072068Y-40893158D01*
X52184010Y-41163411D01*
X52346525Y-41406632D01*
X52553368Y-41613475D01*
X52727760Y-41730000D01*
X52553368Y-41846525D01*
X52346525Y-42053368D01*
X52184010Y-42296589D01*
X52072068Y-42566842D01*
X52015000Y-42853740D01*
X52015000Y-43146260D01*
X52072068Y-43433158D01*
X52184010Y-43703411D01*
X52346525Y-43946632D01*
X52553368Y-44153475D01*
X52735534Y-44275195D01*
X52618645Y-44344822D01*
X52402412Y-44539731D01*
X52228359Y-44773080D01*
X52103175Y-45035901D01*
X52058524Y-45183110D01*
X52179845Y-45413000D01*
X53373000Y-45413000D01*
X53373000Y-45393000D01*
X53627000Y-45393000D01*
X53627000Y-45413000D01*
X54820155Y-45413000D01*
X54941476Y-45183110D01*
X54896825Y-45035901D01*
X54771641Y-44773080D01*
X54597588Y-44539731D01*
X54381355Y-44344822D01*
X54264466Y-44275195D01*
X54446632Y-44153475D01*
X54653475Y-43946632D01*
X54815990Y-43703411D01*
X54927932Y-43433158D01*
X54985000Y-43146260D01*
X54985000Y-42853740D01*
X54927932Y-42566842D01*
X54815990Y-42296589D01*
X54653475Y-42053368D01*
X54446632Y-41846525D01*
X54272240Y-41730000D01*
X54446632Y-41613475D01*
X54653475Y-41406632D01*
X54815990Y-41163411D01*
X54927932Y-40893158D01*
X54985000Y-40606260D01*
X54985000Y-40313740D01*
X54927932Y-40026842D01*
X54815990Y-39756589D01*
X54653475Y-39513368D01*
X54446632Y-39306525D01*
X54272240Y-39190000D01*
X54446632Y-39073475D01*
X54653475Y-38866632D01*
X54815990Y-38623411D01*
X54927932Y-38353158D01*
X54985000Y-38066260D01*
X54985000Y-37773740D01*
X54969947Y-37698061D01*
X58965000Y-37698061D01*
X58965000Y-37901939D01*
X59004774Y-38101898D01*
X59082795Y-38290256D01*
X59196063Y-38459774D01*
X59340226Y-38603937D01*
X59509744Y-38717205D01*
X59589399Y-38750199D01*
X59482795Y-38909744D01*
X59404774Y-39098102D01*
X59365000Y-39298061D01*
X59365000Y-39501939D01*
X59404774Y-39701898D01*
X59482795Y-39890256D01*
X59596063Y-40059774D01*
X59740226Y-40203937D01*
X59909744Y-40317205D01*
X60098102Y-40395226D01*
X60298061Y-40435000D01*
X60501939Y-40435000D01*
X60701898Y-40395226D01*
X60890256Y-40317205D01*
X61059774Y-40203937D01*
X61203937Y-40059774D01*
X61317205Y-39890256D01*
X61395226Y-39701898D01*
X61418478Y-39585000D01*
X84121289Y-39585000D01*
X84140226Y-39603937D01*
X84309744Y-39717205D01*
X84498102Y-39795226D01*
X84698061Y-39835000D01*
X84901939Y-39835000D01*
X85101898Y-39795226D01*
X85290256Y-39717205D01*
X85459774Y-39603937D01*
X85603937Y-39459774D01*
X85717205Y-39290256D01*
X85795226Y-39101898D01*
X85835000Y-38901939D01*
X85835000Y-38698061D01*
X85795226Y-38498102D01*
X85717205Y-38309744D01*
X85603937Y-38140226D01*
X85563711Y-38100000D01*
X85603937Y-38059774D01*
X85717205Y-37890256D01*
X85795226Y-37701898D01*
X85835000Y-37501939D01*
X85835000Y-37298061D01*
X85795226Y-37098102D01*
X85717205Y-36909744D01*
X85603937Y-36740226D01*
X85459774Y-36596063D01*
X85290256Y-36482795D01*
X85101898Y-36404774D01*
X84901939Y-36365000D01*
X84698061Y-36365000D01*
X84498102Y-36404774D01*
X84309744Y-36482795D01*
X84140226Y-36596063D01*
X84121289Y-36615000D01*
X60438552Y-36615000D01*
X60399999Y-36611203D01*
X60361446Y-36615000D01*
X60361439Y-36615000D01*
X60269749Y-36624031D01*
X60246112Y-36626359D01*
X60211672Y-36636806D01*
X60098140Y-36671246D01*
X59961767Y-36744138D01*
X59936347Y-36765000D01*
X59898061Y-36765000D01*
X59698102Y-36804774D01*
X59509744Y-36882795D01*
X59340226Y-36996063D01*
X59196063Y-37140226D01*
X59082795Y-37309744D01*
X59004774Y-37498102D01*
X58965000Y-37698061D01*
X54969947Y-37698061D01*
X54927932Y-37486842D01*
X54815990Y-37216589D01*
X54653475Y-36973368D01*
X54446632Y-36766525D01*
X54272240Y-36650000D01*
X54446632Y-36533475D01*
X54653475Y-36326632D01*
X54815990Y-36083411D01*
X54890945Y-35902453D01*
X54996063Y-36059774D01*
X55140226Y-36203937D01*
X55309744Y-36317205D01*
X55498102Y-36395226D01*
X55698061Y-36435000D01*
X55901939Y-36435000D01*
X56101898Y-36395226D01*
X56290256Y-36317205D01*
X56459774Y-36203937D01*
X56603937Y-36059774D01*
X56717205Y-35890256D01*
X56795226Y-35701898D01*
X56835000Y-35501939D01*
X56835000Y-35475157D01*
X57125157Y-35185000D01*
X67121289Y-35185000D01*
X67140226Y-35203937D01*
X67309744Y-35317205D01*
X67498102Y-35395226D01*
X67698061Y-35435000D01*
X67901939Y-35435000D01*
X68101898Y-35395226D01*
X68290256Y-35317205D01*
X68459774Y-35203937D01*
X68603937Y-35059774D01*
X68717205Y-34890256D01*
X68795226Y-34701898D01*
X68835000Y-34501939D01*
X68835000Y-34298061D01*
X68795226Y-34098102D01*
X68717205Y-33909744D01*
X68603937Y-33740226D01*
X68488711Y-33625000D01*
X73649272Y-33625000D01*
X73509744Y-33682795D01*
X73340226Y-33796063D01*
X73196063Y-33940226D01*
X73082795Y-34109744D01*
X73004774Y-34298102D01*
X72965000Y-34498061D01*
X72965000Y-34701939D01*
X73004774Y-34901898D01*
X73082795Y-35090256D01*
X73196063Y-35259774D01*
X73340226Y-35403937D01*
X73509744Y-35517205D01*
X73698102Y-35595226D01*
X73898061Y-35635000D01*
X74101939Y-35635000D01*
X74301898Y-35595226D01*
X74490256Y-35517205D01*
X74659774Y-35403937D01*
X74678711Y-35385000D01*
X90561451Y-35385000D01*
X90600004Y-35388797D01*
X90638557Y-35385000D01*
X90638565Y-35385000D01*
X90753891Y-35373641D01*
X90901864Y-35328754D01*
X91038237Y-35255862D01*
X91157768Y-35157764D01*
X91182351Y-35127810D01*
X91475161Y-34835000D01*
X91501943Y-34835000D01*
X91701902Y-34795226D01*
X91738969Y-34779872D01*
X98765000Y-34779872D01*
X98765000Y-35220128D01*
X98850890Y-35651925D01*
X99019369Y-36058669D01*
X99263962Y-36424729D01*
X99575271Y-36736038D01*
X99941331Y-36980631D01*
X100348075Y-37149110D01*
X100779872Y-37235000D01*
X101220128Y-37235000D01*
X101651925Y-37149110D01*
X102058669Y-36980631D01*
X102424729Y-36736038D01*
X102736038Y-36424729D01*
X102980631Y-36058669D01*
X103149110Y-35651925D01*
X103235000Y-35220128D01*
X103235000Y-34779872D01*
X103149110Y-34348075D01*
X102980631Y-33941331D01*
X102736038Y-33575271D01*
X102424729Y-33263962D01*
X102058669Y-33019369D01*
X101651925Y-32850890D01*
X101220128Y-32765000D01*
X100779872Y-32765000D01*
X100348075Y-32850890D01*
X99941331Y-33019369D01*
X99575271Y-33263962D01*
X99263962Y-33575271D01*
X99019369Y-33941331D01*
X98850890Y-34348075D01*
X98765000Y-34779872D01*
X91738969Y-34779872D01*
X91890260Y-34717205D01*
X92059778Y-34603937D01*
X92203941Y-34459774D01*
X92317209Y-34290256D01*
X92395230Y-34101898D01*
X92435004Y-33901939D01*
X92435004Y-33698061D01*
X92395230Y-33498102D01*
X92317209Y-33309744D01*
X92203941Y-33140226D01*
X92059778Y-32996063D01*
X91890260Y-32882795D01*
X91701902Y-32804774D01*
X91501943Y-32765000D01*
X91298065Y-32765000D01*
X91098106Y-32804774D01*
X90909748Y-32882795D01*
X90740230Y-32996063D01*
X90596067Y-33140226D01*
X90482799Y-33309744D01*
X90404778Y-33498102D01*
X90365004Y-33698061D01*
X90365004Y-33724843D01*
X90274847Y-33815000D01*
X74678711Y-33815000D01*
X74659774Y-33796063D01*
X74490256Y-33682795D01*
X74350728Y-33625000D01*
X84921447Y-33625000D01*
X84960000Y-33628797D01*
X84998553Y-33625000D01*
X84998561Y-33625000D01*
X85031484Y-33621757D01*
X85098061Y-33635000D01*
X85301939Y-33635000D01*
X85501898Y-33595226D01*
X85690256Y-33517205D01*
X85859774Y-33403937D01*
X86003937Y-33259774D01*
X86117205Y-33090256D01*
X86195226Y-32901898D01*
X86235000Y-32701939D01*
X86235000Y-32498061D01*
X86195226Y-32298102D01*
X86117205Y-32109744D01*
X86003937Y-31940226D01*
X85859774Y-31796063D01*
X85690256Y-31682795D01*
X85501898Y-31604774D01*
X85301939Y-31565000D01*
X85098061Y-31565000D01*
X84898102Y-31604774D01*
X84709744Y-31682795D01*
X84540226Y-31796063D01*
X84396063Y-31940226D01*
X84319374Y-32055000D01*
X54988072Y-32055000D01*
X54988072Y-31990000D01*
X54975812Y-31865518D01*
X54939502Y-31745820D01*
X54880537Y-31635506D01*
X54801185Y-31538815D01*
X54704494Y-31459463D01*
X54594180Y-31400498D01*
X54474482Y-31364188D01*
X54350000Y-31351928D01*
X52650000Y-31351928D01*
X52525518Y-31364188D01*
X52405820Y-31400498D01*
X52295506Y-31459463D01*
X52198815Y-31538815D01*
X52119463Y-31635506D01*
X52060498Y-31745820D01*
X52024188Y-31865518D01*
X52011928Y-31990000D01*
X25714384Y-31990000D01*
X25737907Y-31750101D01*
X25810484Y-31509715D01*
X25928368Y-31288009D01*
X26087068Y-31093423D01*
X26280545Y-30933365D01*
X26501424Y-30813936D01*
X26741297Y-30739683D01*
X27023716Y-30710000D01*
X103965279Y-30710000D01*
X104249899Y-30737907D01*
M02*
